<svg version="1.1" id="Layer_1" xmlns="http://www.w3.org/2000/svg" xmlns:xlink="http://www.w3.org/1999/xlink" x="0px" y="0px"
	 width="100%" viewBox="0 0 718 174" enable-background="new 0 0 718 174" xml:space="preserve">
<path fill="#FCFCFC" opacity="1.000000" stroke="none" 
	d="
M524.000000,175.000000 
	C349.382080,175.000000 175.264191,175.000000 1.073140,175.000000 
	C1.073140,117.065079 1.073140,59.130035 1.073140,1.097497 
	C240.333313,1.097497 479.666656,1.097497 718.972412,1.097497 
	C718.972412,59.069241 718.972412,117.034630 718.972412,175.000000 
	C654.129944,175.000000 589.314941,175.000000 524.000000,175.000000 
M144.329437,131.787720 
	C155.668182,116.470329 159.945679,99.542824 157.138092,80.535660 
	C152.010193,45.819744 115.621803,20.643808 80.925751,27.496775 
	C49.793533,33.645832 25.006279,62.440155 27.762037,97.487968 
	C30.287718,129.609650 58.487988,156.705383 90.613075,157.043671 
	C112.358162,157.272659 129.992401,148.910736 144.329437,131.787720 
M200.064697,109.615234 
	C200.064697,119.237747 200.064697,128.860260 200.064697,138.685593 
	C202.292389,138.685593 203.996140,138.685593 206.230301,138.685593 
	C206.230301,134.970001 206.230301,131.566879 206.230301,128.612549 
	C213.880814,126.277832 219.014252,128.523132 222.127975,135.333618 
	C223.858231,139.118149 226.934555,139.742584 231.108353,138.472733 
	C228.338226,134.449234 225.727570,130.657364 222.931732,126.596535 
	C229.412491,123.306381 231.322403,118.102882 230.131882,111.499352 
	C229.175537,106.194778 225.520569,102.947906 220.734055,102.403351 
	C214.044144,101.642235 207.202896,102.211433 200.064117,102.211433 
	C200.064117,104.356308 200.064117,106.504074 200.064697,109.615234 
M561.859497,73.488358 
	C561.859497,75.921577 561.859497,78.354797 561.859497,81.072906 
	C564.177856,80.959839 565.775024,80.881943 567.607300,80.792580 
	C567.607300,68.393578 567.607300,56.315987 567.607300,43.874298 
	C565.686829,43.874298 563.971191,43.874298 561.702332,43.874298 
	C561.702332,49.037056 561.702332,53.943333 561.702332,58.900429 
	C554.731506,58.900429 548.318054,58.900429 541.297607,58.900429 
	C541.297607,53.665188 541.297607,48.769829 541.297607,43.479553 
	C538.931152,43.631294 537.212341,43.741505 535.601440,43.844795 
	C535.601440,56.518307 535.601440,68.601738 535.601440,80.658478 
	C537.677185,80.658478 539.393494,80.658478 541.512939,80.658478 
	C541.512939,75.348526 541.512939,70.404343 541.512939,65.219803 
	C548.452454,65.219803 554.976013,65.219803 561.859802,65.219803 
	C561.859802,67.922951 561.859802,70.227180 561.859497,73.488358 
M221.393982,53.058704 
	C220.449142,50.937050 219.782822,48.618423 218.467575,46.758755 
	C217.490784,45.377659 215.677261,43.779881 214.226852,43.770561 
	C212.789093,43.761326 210.681122,45.302784 210.002197,46.711266 
	C205.753403,55.525677 201.819229,64.491829 197.788162,73.411034 
	C196.737915,75.734795 195.713531,78.070251 194.677277,80.400330 
	C195.050827,80.838409 195.424377,81.276482 195.797943,81.714561 
	C197.758774,80.778976 201.116272,80.187302 201.445572,78.849976 
	C203.126663,72.022682 207.648804,71.189217 213.430130,71.928337 
	C215.066315,72.137520 216.785172,72.171928 218.408249,71.917419 
	C222.296967,71.307617 224.803635,72.620285 225.697006,76.568115 
	C226.696274,80.983864 229.453934,81.968918 233.820099,80.452255 
	C229.791519,71.518692 225.778305,62.619205 221.393982,53.058704 
M409.324005,101.110870 
	C409.324005,113.657196 409.324005,126.203522 409.324005,139.085129 
	C411.665222,138.946396 413.234375,138.853424 415.174438,138.738480 
	C415.174438,133.740219 414.939758,129.095047 415.232513,124.483345 
	C415.617798,118.414185 418.683289,115.536530 423.879944,115.768753 
	C428.605133,115.979897 430.642914,118.493233 430.840790,124.777374 
	C430.985870,129.385040 430.869202,134.000946 430.869202,138.769562 
	C432.982117,138.769562 434.557556,138.769562 436.139526,138.769562 
	C436.139526,131.924835 436.480591,125.309311 436.019318,118.750214 
	C435.712982,114.394150 432.661407,111.190071 428.294403,110.821320 
	C424.036713,110.461800 419.675903,111.323105 414.941498,111.680016 
	C414.941498,108.163750 414.941498,103.918442 414.941498,98.836510 
	C412.712738,99.422394 411.108154,99.844200 409.324005,101.110870 
M703.644592,64.078125 
	C702.034241,60.762882 701.221558,56.494846 698.642944,54.336178 
	C693.694275,50.193314 687.781311,52.322948 681.800354,54.949341 
	C681.800354,50.003483 681.800354,45.751904 681.800354,41.154083 
	C679.724426,41.326382 678.162720,41.456005 676.669800,41.579914 
	C676.669800,54.966766 676.669800,67.853302 676.669800,81.066116 
	C678.654053,80.946037 680.227417,80.850815 682.139160,80.735123 
	C682.139160,75.883629 681.983826,71.401459 682.177124,66.934380 
	C682.440735,60.841171 685.405518,57.687027 690.446045,57.728123 
	C695.388977,57.768425 697.671143,60.492340 697.854370,66.914085 
	C697.985718,71.520027 697.879944,76.132736 697.879944,81.067230 
	C700.111511,80.944267 701.686462,80.857483 703.702820,80.746376 
	C703.702820,75.243835 703.702820,70.106636 703.644592,64.078125 
M463.335052,123.697014 
	C462.240204,117.789452 463.658020,112.652985 468.745178,109.233101 
	C475.258942,104.854149 481.609955,106.334969 487.607788,111.026627 
	C488.875427,109.636101 489.938354,108.470116 490.982483,107.324768 
	C483.186707,99.167313 469.790955,99.108223 462.201172,106.933533 
	C454.766907,114.598457 455.191223,127.601044 463.105621,134.648895 
	C470.857574,141.552094 484.488739,140.873566 490.978333,133.030594 
	C489.834473,131.943451 488.675446,130.841904 487.583832,129.804398 
	C476.419800,136.750870 468.118256,134.792252 463.335052,123.697014 
M631.185364,62.428875 
	C631.105103,58.223881 629.421692,54.361633 625.333252,53.613335 
	C620.810303,52.785515 615.921570,53.122395 611.320557,53.810387 
	C607.421570,54.393394 606.447876,56.895664 609.652222,59.969231 
	C621.015076,56.066936 624.656616,56.967632 624.917419,63.808132 
	C621.146301,64.137810 617.347534,64.310844 613.598633,64.838295 
	C609.011108,65.483719 606.509094,68.260498 606.556213,72.969337 
	C606.600281,77.374283 609.691223,80.806076 614.465088,80.954536 
	C619.958496,81.125366 625.474182,80.580887 631.191895,80.338081 
	C631.268677,79.964386 631.513184,79.332840 631.509888,78.702576 
	C631.483154,73.559021 631.410095,68.415703 631.185364,62.428875 
M416.997650,53.190819 
	C412.449402,53.341473 407.762482,52.858738 403.390869,53.816059 
	C398.766479,54.828732 398.720154,56.355625 402.144989,59.961796 
	C411.950623,55.713829 416.561188,56.875069 416.965942,63.849640 
	C413.352203,64.122246 409.691010,64.135010 406.126465,64.728371 
	C400.624786,65.644211 398.187744,68.682167 398.583405,73.436813 
	C398.945740,77.791489 402.034729,80.917564 406.940308,81.002808 
	C412.276367,81.095528 417.623230,80.566505 423.112549,80.301453 
	C423.112549,74.317474 423.674500,67.984032 422.867371,61.830162 
	C422.483521,58.903553 419.491211,56.319069 416.997650,53.190819 
M341.051544,54.417137 
	C337.310486,56.598133 339.727051,58.246819 341.277466,60.053188 
	C351.583221,55.778988 356.675354,57.113777 356.383026,63.806801 
	C352.428009,64.170494 348.436035,64.289040 344.539856,64.962234 
	C340.206207,65.711029 337.890350,68.594467 338.029236,73.057442 
	C338.168854,77.542549 340.892822,80.509315 345.046539,80.810432 
	C350.904022,81.235069 356.836426,80.626900 363.011017,80.452560 
	C363.011017,75.140968 363.097992,69.997871 362.992035,64.858749 
	C362.802246,55.654171 357.630554,51.160728 348.464417,52.305973 
	C346.187286,52.590481 343.982544,53.454205 341.051544,54.417137 
M483.581635,56.065624 
	C478.795380,62.180546 477.912720,68.970985 481.395142,74.551910 
	C485.293671,80.799606 491.444611,81.952805 498.015045,80.886848 
	C500.870789,80.423546 503.491638,78.512299 506.742859,77.018005 
	C504.996002,75.105286 504.025177,74.042282 503.098389,73.027504 
	C494.519226,78.051971 488.065613,76.644859 485.922119,68.831833 
	C493.269440,68.831833 500.451050,68.831833 507.774323,68.831833 
	C507.909241,62.270958 506.427765,57.094883 500.991089,54.142715 
	C495.212402,51.004837 489.462402,51.529064 483.581635,56.065624 
M300.851501,130.293198 
	C300.531281,129.311050 300.211060,128.328918 299.677887,126.693634 
	C307.431793,126.693634 314.515747,126.693634 321.547760,126.693634 
	C322.061096,116.671341 316.656189,110.327736 307.927704,110.173065 
	C299.679413,110.026901 293.465332,116.144554 293.275665,124.597717 
	C293.075562,133.517151 299.680481,139.351028 309.697388,139.148407 
	C313.830444,139.064804 317.404388,137.931244 320.456360,133.763474 
	C319.269592,132.604370 318.245483,131.604141 317.352295,130.731766 
	C310.081635,135.239975 306.844391,135.197876 300.851501,130.293198 
M631.717712,122.906746 
	C629.781616,114.078568 624.371521,109.537453 616.597351,110.215042 
	C608.839844,110.891197 603.513123,116.585815 603.295532,124.435669 
	C603.093140,131.733948 608.084534,137.914688 615.044067,138.983597 
	C621.555664,139.983719 628.895203,137.676636 629.851257,134.072678 
	C628.992737,133.118378 628.028625,132.046707 627.105774,131.020889 
	C618.321960,136.160324 610.970581,134.388062 610.348389,126.940811 
	C616.348206,126.940811 622.330017,126.890419 628.310364,126.966209 
	C630.626038,126.995552 632.371521,126.691597 631.717712,122.906746 
M344.854767,138.034348 
	C346.428619,138.420319 348.002472,138.806290 349.951477,139.284256 
	C349.951477,132.180267 350.481720,125.827263 349.712280,119.635780 
	C349.363739,116.831055 346.971008,113.587906 344.558807,111.884254 
	C340.272217,108.856781 329.894867,109.706993 326.049896,114.616547 
	C326.794891,115.729538 327.588470,116.915085 328.340210,118.038177 
	C339.291107,113.940323 343.765686,115.102379 343.552094,121.826393 
	C339.773834,122.158821 335.968292,122.329773 332.214844,122.865616 
	C327.578461,123.527512 325.214691,126.486076 325.225616,131.104691 
	C325.235626,135.340637 328.613495,138.897247 333.318298,138.939102 
	C337.012848,138.971954 340.717041,137.922485 344.854767,138.034348 
M257.188965,131.841080 
	C249.817307,136.091797 243.199783,134.065414 241.745712,126.763641 
	C248.905243,126.763641 255.994156,126.763641 263.032196,126.763641 
	C263.945953,118.354813 260.449036,112.698158 253.446777,110.821938 
	C246.210480,108.883003 239.240250,111.983345 236.377258,118.414436 
	C233.383865,125.138443 235.594589,133.175522 241.474670,136.945953 
	C247.583313,140.862946 256.794922,139.767685 261.939056,133.976395 
	C260.502502,133.075989 259.158081,132.233322 257.188965,131.841080 
M494.229156,118.113670 
	C491.359100,126.760994 493.658386,134.181229 500.267517,137.600555 
	C506.590973,140.872086 515.314453,139.346252 519.292664,134.061234 
	C518.377625,133.050446 517.424255,131.997314 516.515686,130.993668 
	C508.106628,136.065933 501.964264,134.718124 499.146942,126.827652 
	C506.531860,126.827652 513.712463,126.827652 520.812683,126.827652 
	C521.355713,118.479279 518.345032,113.155922 512.309265,111.068275 
	C505.511108,108.716942 499.181458,110.995369 494.229156,118.113670 
M576.820679,74.409050 
	C583.288940,82.972404 594.920776,83.936295 601.330994,76.181709 
	C600.432129,75.133278 599.498535,74.044273 598.601807,72.998344 
	C589.851685,78.132126 583.035522,76.510963 581.463013,68.739250 
	C588.643860,68.739250 595.744812,68.739250 602.790894,68.739250 
	C603.452087,60.190807 600.160461,54.707367 593.468079,52.880939 
	C587.695801,51.305611 582.437561,52.390263 578.445496,56.924351 
	C574.031555,61.937580 573.984924,67.758263 576.820679,74.409050 
M436.383331,80.978653 
	C436.917358,79.959915 437.856079,78.962929 437.912231,77.918488 
	C438.108337,74.270111 437.947205,70.604324 438.018555,66.947037 
	C438.135284,60.965496 441.002167,57.737362 446.107361,57.720516 
	C451.167969,57.703815 453.290924,60.211540 453.465973,66.748512 
	C453.589752,71.371788 453.489929,76.001045 453.489929,80.727203 
	C455.588654,80.727203 457.166718,80.727203 458.880768,80.727203 
	C458.997650,79.833725 459.152496,79.195923 459.153229,78.557930 
	C459.159027,73.569496 459.269867,68.576180 459.089996,63.593685 
	C458.796661,55.465618 453.011902,50.942341 444.959656,52.423092 
	C441.645142,53.032612 438.424316,55.683693 434.976166,52.551479 
	C434.557190,52.170883 433.192810,52.831100 432.082703,53.044247 
	C432.082703,61.603546 431.971710,69.909195 432.232117,78.203163 
	C432.262512,79.171486 434.344452,80.075386 436.383331,80.978653 
M533.508057,128.521378 
	C533.560364,126.862000 533.507751,125.191360 533.684265,123.545303 
	C534.260132,118.176559 537.136597,115.525154 542.044312,115.722023 
	C546.749268,115.910759 548.876282,118.420364 548.973938,124.136261 
	C549.055725,128.922150 548.990723,133.710541 548.990723,138.653946 
	C551.135132,138.653946 552.826843,138.653946 554.739929,138.653946 
	C554.739929,132.355011 555.128540,126.372292 554.638977,120.462311 
	C554.062012,113.497246 548.822998,109.492348 541.835083,110.288078 
	C539.108521,110.598579 536.479492,111.765747 534.756470,112.266510 
	C532.218018,111.493088 530.283569,110.903679 528.091187,110.235703 
	C528.091187,120.455620 528.091187,129.539703 528.091187,138.687805 
	C529.919983,138.687805 531.472717,138.687805 533.506287,138.687805 
	C533.506287,135.407547 533.506287,132.439911 533.508057,128.521378 
M264.016388,68.488815 
	C264.016388,63.246498 264.016388,58.004185 264.016388,52.381454 
	C261.699036,52.572369 260.124176,52.702110 258.094238,52.869343 
	C258.094238,58.226738 258.277679,63.191723 258.042694,68.136826 
	C257.807068,73.095978 254.705292,75.991364 250.206802,75.986862 
	C245.603226,75.982254 243.151291,73.278694 243.026184,67.772194 
	C242.914169,62.841167 243.002625,57.905586 243.002625,52.864601 
	C240.727646,52.864601 239.014435,52.864601 237.062469,52.864601 
	C237.062469,58.228790 236.974503,63.206005 237.080536,68.179085 
	C237.310944,78.986046 244.874817,83.953934 255.088547,80.155022 
	C256.134308,79.766052 257.409760,79.631172 258.503387,79.818237 
	C260.206604,80.109558 261.845337,80.778053 264.016266,81.440842 
	C264.016266,76.754791 264.016266,73.117477 264.016388,68.488815 
M275.850372,75.108810 
	C274.485016,74.602348 273.119629,74.095879 271.432831,73.470184 
	C270.742584,75.097038 270.139252,76.519104 269.538055,77.936066 
	C274.753082,81.757973 280.274292,81.491928 285.708710,80.889221 
	C290.528198,80.354698 293.694397,76.891441 293.674683,72.741600 
	C293.652191,68.003487 290.321808,66.223885 286.442627,65.127396 
	C283.746826,64.365395 280.945435,63.947948 278.299225,63.056023 
	C277.425781,62.761612 276.313873,61.435780 276.355011,60.635189 
	C276.399963,59.760403 277.601959,58.288857 278.391357,58.225819 
	C281.302429,57.993347 284.490753,57.546547 287.129883,58.462414 
	C291.040039,59.819355 291.782288,58.036179 292.468506,54.593426 
	C287.562012,52.469147 282.730682,51.528008 277.521820,52.829876 
	C273.169220,53.917740 270.350708,56.399578 270.269470,61.055294 
	C270.187469,65.754166 273.531677,67.648018 277.429932,68.736534 
	C279.974152,69.446960 282.662018,69.683372 285.152954,70.524689 
	C286.172638,70.869095 287.582550,72.341339 287.483398,73.133911 
	C287.360962,74.112381 285.907410,75.588188 284.930878,75.669449 
	C282.177551,75.898560 279.373962,75.523994 275.850372,75.108810 
M269.054230,113.646523 
	C265.252228,120.182472 267.084076,124.858444 274.268066,126.763382 
	C276.349152,127.315216 278.623749,127.315041 280.570831,128.134964 
	C281.990753,128.732895 283.018951,130.261047 284.221771,131.374512 
	C282.783905,132.267700 281.300140,133.971954 279.917297,133.893631 
	C276.518250,133.701065 273.167725,132.677567 269.791931,132.017639 
	C269.330963,131.927505 268.837189,132.005219 268.080353,132.005219 
	C267.446899,133.185852 266.781891,134.425293 266.077576,135.737991 
	C271.089264,139.729523 276.620728,139.419632 282.059265,138.936737 
	C287.100769,138.489120 289.946625,135.427994 290.203644,131.122772 
	C290.511780,125.961609 287.097473,124.205505 283.013123,123.090607 
	C281.097382,122.567673 278.956421,122.643532 277.198486,121.836182 
	C275.627319,121.114609 274.442413,119.552032 273.087067,118.360535 
	C274.664093,117.405296 276.146149,115.953026 277.843750,115.628586 
	C279.701477,115.273537 281.961670,115.508545 283.687408,116.284752 
	C287.657227,118.070328 288.679993,116.228264 289.105133,112.510857 
	C282.391785,109.929146 275.949341,108.679398 269.054230,113.646523 
M403.565155,116.508148 
	C400.062500,110.881577 394.100189,108.879776 387.097626,110.979294 
	C380.767792,112.877121 376.780426,118.613487 377.070007,125.405449 
	C377.348511,131.937347 381.777344,137.498581 387.790863,138.867416 
	C394.969147,140.501404 400.489624,138.395233 403.639618,132.598068 
	C402.287323,131.798538 400.925598,130.993423 399.650726,130.239655 
	C398.977142,130.809082 398.602936,131.138443 398.215302,131.451126 
	C393.932770,134.905457 389.151154,134.910019 385.677521,131.466110 
	C382.347046,128.164124 382.084473,122.379066 385.097809,118.692581 
	C388.053619,115.076462 393.437378,114.366554 397.592163,117.698051 
	C400.041168,119.661797 401.395233,118.696404 403.565155,116.508148 
M650.997986,53.152729 
	C649.333679,57.088123 652.355530,57.460644 655.304138,58.093372 
	C655.304138,62.699024 655.294678,67.174095 655.306152,71.649117 
	C655.328064,80.180351 662.410156,83.941208 670.831543,79.103104 
	C670.447083,76.612038 669.940125,74.826988 666.484009,75.916649 
	C663.240112,76.939384 661.314087,74.964424 661.179260,71.759720 
	C660.985535,67.157936 661.129822,62.541924 661.129822,57.775688 
	C664.002319,57.546074 666.292969,57.362968 668.764038,57.165440 
	C668.764038,55.629921 668.764038,54.236816 668.764038,52.724487 
	C666.079651,52.496246 663.687622,52.292862 661.385315,52.097107 
	C661.135559,49.921444 660.951599,48.319283 660.757019,46.624416 
	C658.907471,46.624416 657.341797,46.624416 655.393616,46.624416 
	C655.271667,49.503098 656.064270,53.014000 650.997986,53.152729 
M313.784668,54.575462 
	C311.342316,53.490055 308.899963,52.404652 306.056610,51.141041 
	C305.882660,50.059334 305.603607,48.323952 305.274994,46.280483 
	C303.413635,46.379982 301.835022,46.464371 300.203094,46.551609 
	C300.036804,48.609413 299.904938,50.241379 299.761688,52.014153 
	C298.209625,52.322819 296.797729,52.603607 295.578766,52.846031 
	C293.333344,57.704315 297.541016,57.109818 299.650391,58.000343 
	C299.777618,58.539440 299.917328,58.860798 299.919861,59.183239 
	C299.951111,63.173306 299.944458,67.163704 299.982635,71.153679 
	C300.056976,78.926155 303.717041,82.103729 311.290649,81.032616 
	C315.096863,80.494324 316.325989,78.873451 313.726501,75.399048 
	C310.606934,75.846878 306.552979,77.805695 306.036072,72.556892 
	C305.556335,67.685539 305.933746,62.729763 305.933746,58.785706 
	C309.118042,57.401005 311.443085,56.389946 313.784668,54.575462 
M570.146606,138.949631 
	C573.279358,138.712540 576.412048,138.475449 579.544800,138.238358 
	C579.706055,137.437424 579.867310,136.636490 580.028564,135.835556 
	C578.513794,135.227768 576.996582,134.113922 575.484863,134.121353 
	C572.651001,134.135284 570.266113,133.730682 570.112488,130.476898 
	C569.881714,125.588753 570.052368,120.681664 570.052368,115.716354 
	C572.985229,115.503578 575.265564,115.338142 577.929993,115.144844 
	C577.828369,113.480667 577.745117,112.116699 577.658447,110.697701 
	C574.958191,110.503090 572.695557,110.340027 570.311157,110.168190 
	C570.066345,108.164742 569.853638,106.423965 569.631165,104.603012 
	C567.714478,104.603012 566.135254,104.603012 564.396179,104.603012 
	C564.142090,106.612106 563.921997,108.352669 563.845398,108.958092 
	C561.813904,110.591774 560.562256,111.598267 559.310669,112.604767 
	C560.706421,114.022156 562.102234,115.439552 564.076294,117.444199 
	C564.076294,120.987862 564.008240,125.463837 564.096863,129.936707 
	C564.173889,133.820526 565.401367,137.118637 570.146606,138.949631 
M371.285370,63.498432 
	C371.285370,69.244820 371.285370,74.991211 371.285370,81.065735 
	C373.600128,80.951645 375.174530,80.874054 376.860474,80.790962 
	C376.860474,67.538651 376.860474,54.661922 376.860474,41.679657 
	C374.921417,41.679657 373.253845,41.679657 371.285706,41.679657 
	C371.285706,48.916866 371.285706,55.708076 371.285370,63.498432 
M646.002502,67.490799 
	C646.002502,58.900017 646.002502,50.309231 646.002502,41.268063 
	C643.644775,41.387886 641.958313,41.473595 640.301025,41.557823 
	C640.301025,54.949013 640.301025,67.708824 640.301025,80.693550 
	C642.228516,80.693550 643.926453,80.693550 646.002441,80.693550 
	C646.002441,76.414833 646.002441,72.450859 646.002502,67.490799 
M600.939453,112.697243 
	C597.774170,107.090462 594.759949,112.568695 591.902466,112.136948 
	C589.875366,111.499252 587.848267,110.861549 585.396301,110.090187 
	C585.396301,120.362312 585.396301,129.541336 585.396301,138.761566 
	C587.315186,138.761566 588.905273,138.761566 591.008057,138.761566 
	C591.008057,134.257339 590.944580,129.986694 591.023132,125.718681 
	C591.136841,119.540634 592.776001,117.621567 598.654785,115.913200 
	C599.571716,115.646751 600.184509,114.333794 600.939453,112.697243 
M326.818237,71.541512 
	C326.864441,60.637878 327.400208,59.834332 336.881744,57.079273 
	C336.540741,55.626396 336.103882,52.797405 335.845764,52.813618 
	C332.990662,52.992989 330.163269,53.613861 327.581055,54.070591 
	C325.642090,53.468983 323.603821,52.836567 321.304443,52.123135 
	C321.304443,62.388790 321.304443,71.600060 321.304443,81.075500 
	C323.229980,80.946228 324.812805,80.839958 326.817566,80.705360 
	C326.817566,77.750557 326.817566,75.123451 326.818237,71.541512 
M364.951874,122.151932 
	C367.614990,119.476357 370.278107,116.800774 372.941223,114.125198 
	C373.380188,114.436363 373.819122,114.747528 374.258057,115.058693 
	C374.111237,113.506783 373.964417,111.954872 373.747284,109.659996 
	C370.197418,110.913994 367.296356,111.938812 365.752350,112.484245 
	C363.051849,111.554245 361.228577,110.926338 359.090912,110.190170 
	C359.090912,120.433090 359.090912,129.507431 359.090912,138.686462 
	C360.902374,138.686462 362.450745,138.686462 364.857452,138.686462 
	C364.857452,133.267731 364.857452,128.147995 364.951874,122.151932 
M391.998718,62.561317 
	C391.998718,59.436077 391.998718,56.310837 391.998718,52.838985 
	C389.902435,52.838985 388.196136,52.838985 386.452271,52.838985 
	C386.452271,62.375515 386.452271,71.560173 386.452271,81.046417 
	C388.437866,80.933990 390.020477,80.844391 391.998566,80.732391 
	C391.998566,74.774986 391.998566,69.158249 391.998718,62.561317 
M527.550476,68.166878 
	C528.531921,64.969940 527.495056,63.598877 524.026794,63.806499 
	C520.470032,64.019424 516.890564,63.853703 512.984680,63.853703 
	C513.101746,65.851944 513.182007,67.222664 513.270447,68.732239 
	C518.047302,68.732239 522.456604,68.732239 527.550476,68.166878 
M386.031952,46.512100 
	C387.938843,46.609779 389.942108,47.065483 391.695679,46.593437 
	C392.242828,46.446140 392.757843,43.367447 392.119934,42.402718 
	C391.451447,41.391747 388.611694,40.485683 388.076477,40.985466 
	C386.837952,42.141972 386.418243,44.175327 386.031952,46.512100 
z"/>
<path fill="#4FA6C8" opacity="1.000000" stroke="none" 
	d="
M144.110306,132.068954 
	C129.992401,148.910736 112.358162,157.272659 90.613075,157.043671 
	C58.487988,156.705383 30.287718,129.609650 27.762037,97.487968 
	C25.006279,62.440155 49.793533,33.645832 80.925751,27.496775 
	C115.621803,20.643808 152.010193,45.819744 157.138092,80.535660 
	C159.945679,99.542824 155.668182,116.470329 144.110306,132.068954 
M100.772903,51.589329 
	C100.489380,51.415501 100.205856,51.241676 99.995239,51.009529 
	C99.995239,51.009529 99.949913,51.091152 99.532951,50.529293 
	C98.103714,51.168507 96.674477,51.807724 95.205666,52.742767 
	C95.205666,52.742767 95.053589,52.999577 94.467598,53.594666 
	C94.342667,63.141495 94.191460,72.688217 94.153267,82.235397 
	C94.150780,82.856750 95.016159,83.481583 95.794243,84.465797 
	C95.794243,84.465797 96.050140,84.871933 96.468224,85.456718 
	C97.897202,85.207954 99.326187,84.959190 100.837166,84.905785 
	C100.837166,84.905785 100.700279,84.744072 101.374794,84.493752 
	C101.516144,83.574310 101.657494,82.654861 101.707291,80.835022 
	C101.739815,72.310188 101.772346,63.785362 101.955963,54.539917 
	C101.607124,53.710407 101.258293,52.880898 100.990288,52.003273 
	C100.990288,52.003273 100.932098,52.077175 100.772903,51.589329 
M73.042793,49.125851 
	C73.042793,49.125851 73.270416,49.193928 72.553551,49.619656 
	C72.385620,54.376343 72.039009,59.135490 72.104446,63.888966 
	C72.160042,67.927269 72.690956,71.959030 73.262421,76.633255 
	C74.589890,79.391594 76.514610,79.603043 79.461327,77.583908 
	C79.570053,75.657402 79.678780,73.730896 79.711174,71.222282 
	C79.722824,70.831505 79.734474,70.440735 80.414200,69.509048 
	C80.569603,63.492641 80.881561,57.472683 80.745262,51.462894 
	C80.718742,50.293476 78.947914,49.163624 78.000000,47.999695 
	C78.000000,47.999695 77.986870,48.019718 77.874611,47.361340 
	C74.972801,44.634129 74.262230,47.304581 73.042793,49.125851 
M84.127892,73.414871 
	C84.270309,73.692780 84.488220,73.885109 85.051773,74.249435 
	C85.051773,74.249435 85.211327,74.586876 85.170403,74.997124 
	C85.444435,75.033989 85.718475,75.070854 86.666626,75.129829 
	C87.116219,75.130669 87.565804,75.131508 88.408394,75.527283 
	C88.920212,74.994949 89.432022,74.462616 89.997742,73.987053 
	C89.997742,73.987053 89.922447,73.965637 90.634460,73.605507 
	C90.692543,68.050484 90.750626,62.495457 90.733543,56.223476 
	C90.752403,55.503544 90.771263,54.783611 91.427078,53.532661 
	C91.108414,50.335251 90.789749,47.137836 90.184616,43.466293 
	C90.057793,43.120674 89.930969,42.775055 89.699913,41.720318 
	C87.927917,39.138416 86.404251,39.665958 84.858772,42.469143 
	C84.760147,42.737797 84.592743,42.952927 83.609360,43.531372 
	C83.409958,50.965107 83.115829,58.398212 83.065979,65.832947 
	C83.049988,68.218849 83.679192,70.609062 83.998161,72.998955 
	C83.998161,72.998955 84.006958,72.985016 84.127892,73.414871 
M110.587212,87.053261 
	C111.098427,85.888023 112.043777,84.726646 112.054184,83.556953 
	C112.166679,70.900482 112.216888,58.241856 112.090820,45.585743 
	C112.048164,41.303440 110.220551,40.645958 105.540001,43.300865 
	C105.635475,43.871338 105.730957,44.441814 105.853584,45.946819 
	C105.806122,52.303745 105.758659,58.660667 105.243965,65.684753 
	C105.505463,72.458191 105.766960,79.231628 106.324738,86.406250 
	C106.546982,86.653679 106.772194,86.898384 107.324760,87.600700 
	C108.181496,87.598305 109.038223,87.595917 110.587212,87.053261 
M115.163315,113.787338 
	C116.449699,106.347397 111.173126,103.615723 98.263863,105.721489 
	C98.263863,111.403061 98.076073,117.203255 98.428833,122.970375 
	C98.496063,124.069405 100.699036,125.037788 102.596985,126.641235 
	C102.995255,123.025215 103.204788,121.122795 103.406960,119.287201 
	C109.228279,118.060394 108.693375,128.803513 115.826431,124.940224 
	C114.410484,122.770424 113.070030,120.716316 111.762085,118.712029 
	C112.854767,117.283386 113.932777,115.873932 115.163315,113.787338 
M130.229401,125.797607 
	C130.700134,125.632385 131.158707,125.399712 131.643478,125.312325 
	C136.700745,124.400673 139.576859,121.419838 139.977081,116.288101 
	C140.349045,111.518494 137.637680,107.167053 133.483047,105.516083 
	C129.421539,103.902122 123.510735,105.534515 120.835800,109.008865 
	C118.159004,112.485619 117.743187,118.052147 120.981964,121.451965 
	C123.056526,123.629700 126.574692,124.432213 130.229401,125.797607 
M80.999390,114.540703 
	C78.419823,113.406685 75.840263,112.272675 73.260696,111.138657 
	C73.398315,110.744629 73.535927,110.350609 73.673546,109.956581 
	C75.432083,110.121925 77.197418,110.455574 78.946426,110.384964 
	C79.888245,110.346954 80.985603,109.799820 81.658302,109.127647 
	C82.048645,108.737602 81.899811,107.010002 81.715523,106.962471 
	C78.915581,106.240280 75.938545,104.923859 73.279045,105.374809 
	C71.413116,105.691200 68.744148,108.410995 68.653206,110.172104 
	C68.549423,112.181786 70.521355,114.784363 72.306885,116.267982 
	C74.058434,117.723351 76.708817,118.096970 78.976837,118.949898 
	C76.906120,126.218033 70.076042,115.816086 68.128273,122.465240 
	C72.423607,126.015938 78.821381,126.997528 81.372559,124.161392 
	C83.839973,121.418396 83.915077,118.168709 80.999390,114.540703 
M54.854366,109.214256 
	C56.306259,109.419304 57.761974,109.809547 59.209011,109.779640 
	C60.797039,109.746811 62.377064,109.326721 65.173607,108.882843 
	C58.287773,103.413467 51.803940,103.920074 47.912170,108.915169 
	C44.737839,112.989426 45.507771,120.219276 49.464153,123.488663 
	C53.962868,127.206207 60.155849,126.533562 64.434555,121.104004 
	C62.588821,120.835876 61.094471,120.183914 59.880531,120.526268 
	C56.602371,121.450768 53.240864,122.015633 51.523411,118.545021 
	C49.858723,115.181046 50.281761,111.664780 54.854366,109.214256 
M67.554268,80.692329 
	C68.007645,74.358368 68.688293,68.026634 68.750374,61.688839 
	C68.765404,60.155148 66.738136,58.601452 65.650002,57.056953 
	C64.463661,58.577789 62.387821,60.024769 62.254284,61.633022 
	C61.817303,66.895737 62.014118,72.218521 62.113613,77.515465 
	C62.170834,80.561623 63.481426,82.289406 67.554268,80.692329 
M116.864944,76.158287 
	C117.809410,77.911858 118.606277,81.042877 119.725792,81.162834 
	C123.199135,81.535011 123.147369,78.500702 123.135780,75.927483 
	C123.114799,71.267357 123.399208,66.583122 122.988449,61.959385 
	C122.837227,60.257092 121.080200,58.697456 120.055603,57.072746 
	C118.995567,58.631874 117.180504,60.117825 117.020935,61.764233 
	C116.589386,66.216850 116.861641,70.737679 116.864944,76.158287 
M92.983612,116.464211 
	C92.983078,113.809158 92.879478,111.149170 93.006424,108.500221 
	C93.191864,104.631210 91.322563,104.481606 88.376282,105.639038 
	C88.376282,112.227364 88.376282,118.639137 88.376282,125.235596 
	C89.961090,125.235596 91.310181,125.235596 92.982826,125.235596 
	C92.982826,122.377541 92.982826,119.905151 92.983612,116.464211 
M105.884712,96.007370 
	C107.388649,96.652184 108.909050,97.790390 110.389824,97.740990 
	C111.171478,97.714905 112.407906,95.642677 112.462708,94.449440 
	C112.506851,93.488365 111.272583,91.895676 110.279099,91.565559 
	C107.096291,90.507980 105.823555,92.408012 105.884712,96.007370 
z"/>
<path fill="#727374" opacity="1.000000" stroke="none" 
	d="
M200.064407,109.133537 
	C200.064117,106.504074 200.064117,104.356308 200.064117,102.211433 
	C207.202896,102.211433 214.044144,101.642235 220.734055,102.403351 
	C225.520569,102.947906 229.175537,106.194778 230.131882,111.499352 
	C231.322403,118.102882 229.412491,123.306381 222.931732,126.596535 
	C225.727570,130.657364 228.338226,134.449234 231.108353,138.472733 
	C226.934555,139.742584 223.858231,139.118149 222.127975,135.333618 
	C219.014252,128.523132 213.880814,126.277832 206.230301,128.612549 
	C206.230301,131.566879 206.230301,134.970001 206.230301,138.685593 
	C203.996140,138.685593 202.292389,138.685593 200.064697,138.685593 
	C200.064697,128.860260 200.064697,119.237747 200.064407,109.133537 
M216.585114,122.393936 
	C222.591614,121.078438 224.594437,118.877098 224.213470,114.009514 
	C223.871445,109.639450 220.738922,107.187752 215.080673,107.000748 
	C212.171921,106.904625 209.257355,106.983887 206.435989,106.983887 
	C206.435989,112.624809 206.435989,117.632988 206.435989,122.594353 
	C209.823975,122.594353 212.787643,122.594353 216.585114,122.393936 
z"/>
<path fill="#78787A" opacity="1.000000" stroke="none" 
	d="
M561.859619,73.009880 
	C561.859802,70.227180 561.859802,67.922951 561.859802,65.219803 
	C554.976013,65.219803 548.452454,65.219803 541.512939,65.219803 
	C541.512939,70.404343 541.512939,75.348526 541.512939,80.658478 
	C539.393494,80.658478 537.677185,80.658478 535.601440,80.658478 
	C535.601440,68.601738 535.601440,56.518307 535.601440,43.844795 
	C537.212341,43.741505 538.931152,43.631294 541.297607,43.479553 
	C541.297607,48.769829 541.297607,53.665188 541.297607,58.900429 
	C548.318054,58.900429 554.731506,58.900429 561.702332,58.900429 
	C561.702332,53.943333 561.702332,49.037056 561.702332,43.874298 
	C563.971191,43.874298 565.686829,43.874298 567.607300,43.874298 
	C567.607300,56.315987 567.607300,68.393578 567.607300,80.792580 
	C565.775024,80.881943 564.177856,80.959839 561.859497,81.072906 
	C561.859497,78.354797 561.859497,75.921577 561.859619,73.009880 
z"/>
<path fill="#727374" opacity="1.000000" stroke="none" 
	d="
M221.579529,53.389214 
	C225.778305,62.619205 229.791519,71.518692 233.820099,80.452255 
	C229.453934,81.968918 226.696274,80.983864 225.697006,76.568115 
	C224.803635,72.620285 222.296967,71.307617 218.408249,71.917419 
	C216.785172,72.171928 215.066315,72.137520 213.430130,71.928337 
	C207.648804,71.189217 203.126663,72.022682 201.445572,78.849976 
	C201.116272,80.187302 197.758774,80.778976 195.797943,81.714561 
	C195.424377,81.276482 195.050827,80.838409 194.677277,80.400330 
	C195.713531,78.070251 196.737915,75.734795 197.788162,73.411034 
	C201.819229,64.491829 205.753403,55.525677 210.002197,46.711266 
	C210.681122,45.302784 212.789093,43.761326 214.226852,43.770561 
	C215.677261,43.779881 217.490784,45.377659 218.467575,46.758755 
	C219.782822,48.618423 220.449142,50.937050 221.579529,53.389214 
M217.175995,67.002632 
	C218.391266,66.911201 219.606537,66.819771 221.326370,66.690376 
	C218.920914,61.218880 216.769455,56.325165 214.198166,50.476505 
	C211.580780,56.373653 209.349609,61.400631 206.863083,67.002930 
	C210.424591,67.002930 213.352859,67.002930 217.175995,67.002632 
z"/>
<path fill="#77787A" opacity="1.000000" stroke="none" 
	d="
M409.413788,100.688438 
	C411.108154,99.844200 412.712738,99.422394 414.941498,98.836510 
	C414.941498,103.918442 414.941498,108.163750 414.941498,111.680016 
	C419.675903,111.323105 424.036713,110.461800 428.294403,110.821320 
	C432.661407,111.190071 435.712982,114.394150 436.019318,118.750214 
	C436.480591,125.309311 436.139526,131.924835 436.139526,138.769562 
	C434.557556,138.769562 432.982117,138.769562 430.869202,138.769562 
	C430.869202,134.000946 430.985870,129.385040 430.840790,124.777374 
	C430.642914,118.493233 428.605133,115.979897 423.879944,115.768753 
	C418.683289,115.536530 415.617798,118.414185 415.232513,124.483345 
	C414.939758,129.095047 415.174438,133.740219 415.174438,138.738480 
	C413.234375,138.853424 411.665222,138.946396 409.324005,139.085129 
	C409.324005,126.203522 409.324005,113.657196 409.413788,100.688438 
z"/>
<path fill="#77787A" opacity="1.000000" stroke="none" 
	d="
M703.673706,64.523781 
	C703.702820,70.106636 703.702820,75.243835 703.702820,80.746376 
	C701.686462,80.857483 700.111511,80.944267 697.879944,81.067230 
	C697.879944,76.132736 697.985718,71.520027 697.854370,66.914085 
	C697.671143,60.492340 695.388977,57.768425 690.446045,57.728123 
	C685.405518,57.687027 682.440735,60.841171 682.177124,66.934380 
	C681.983826,71.401459 682.139160,75.883629 682.139160,80.735123 
	C680.227417,80.850815 678.654053,80.946037 676.669800,81.066116 
	C676.669800,67.853302 676.669800,54.966766 676.669800,41.579914 
	C678.162720,41.456005 679.724426,41.326382 681.800354,41.154083 
	C681.800354,45.751904 681.800354,50.003483 681.800354,54.949341 
	C687.781311,52.322948 693.694275,50.193314 698.642944,54.336178 
	C701.221558,56.494846 702.034241,60.762882 703.673706,64.523781 
z"/>
<path fill="#727375" opacity="1.000000" stroke="none" 
	d="
M463.500366,124.063187 
	C468.118256,134.792252 476.419800,136.750870 487.583832,129.804398 
	C488.675446,130.841904 489.834473,131.943451 490.978333,133.030594 
	C484.488739,140.873566 470.857574,141.552094 463.105621,134.648895 
	C455.191223,127.601044 454.766907,114.598457 462.201172,106.933533 
	C469.790955,99.108223 483.186707,99.167313 490.982483,107.324768 
	C489.938354,108.470116 488.875427,109.636101 487.607788,111.026627 
	C481.609955,106.334969 475.258942,104.854149 468.745178,109.233101 
	C463.658020,112.652985 462.240204,117.789452 463.500366,124.063187 
z"/>
<path fill="#737476" opacity="1.000000" stroke="none" 
	d="
M631.268250,62.850594 
	C631.410095,68.415703 631.483154,73.559021 631.509888,78.702576 
	C631.513184,79.332840 631.268677,79.964386 631.191895,80.338081 
	C625.474182,80.580887 619.958496,81.125366 614.465088,80.954536 
	C609.691223,80.806076 606.600281,77.374283 606.556213,72.969337 
	C606.509094,68.260498 609.011108,65.483719 613.598633,64.838295 
	C617.347534,64.310844 621.146301,64.137810 624.917419,63.808132 
	C624.656616,56.967632 621.015076,56.066936 609.652222,59.969231 
	C606.447876,56.895664 607.421570,54.393394 611.320557,53.810387 
	C615.921570,53.122395 620.810303,52.785515 625.333252,53.613335 
	C629.421692,54.361633 631.105103,58.223881 631.268250,62.850594 
M619.590454,68.779037 
	C618.598328,68.832504 617.422302,68.565369 616.652588,69.006699 
	C615.085144,69.905334 613.736877,71.186096 612.298279,72.309410 
	C613.676575,73.729958 614.813477,75.884857 616.478821,76.432220 
	C621.310669,78.020363 625.322632,74.554443 625.343872,68.772629 
	C623.725708,68.772629 622.098572,68.772629 619.590454,68.779037 
z"/>
<path fill="#737476" opacity="1.000000" stroke="none" 
	d="
M417.339111,53.385208 
	C419.491211,56.319069 422.483521,58.903553 422.867371,61.830162 
	C423.674500,67.984032 423.112549,74.317474 423.112549,80.301453 
	C417.623230,80.566505 412.276367,81.095528 406.940308,81.002808 
	C402.034729,80.917564 398.945740,77.791489 398.583405,73.436813 
	C398.187744,68.682167 400.624786,65.644211 406.126465,64.728371 
	C409.691010,64.135010 413.352203,64.122246 416.965942,63.849640 
	C416.561188,56.875069 411.950623,55.713829 402.144989,59.961796 
	C398.720154,56.355625 398.766479,54.828732 403.390869,53.816059 
	C407.762482,52.858738 412.449402,53.341473 417.339111,53.385208 
M415.935059,74.405457 
	C416.657562,72.845001 417.380035,71.284554 418.425385,69.026718 
	C414.287933,69.026718 410.990265,68.735359 407.791626,69.171043 
	C406.523376,69.343788 404.477020,71.218246 404.559875,72.162079 
	C404.684906,73.585861 406.276031,75.910561 407.404755,76.008965 
	C410.008636,76.235970 412.709198,75.354271 415.935059,74.405457 
z"/>
<path fill="#747576" opacity="1.000000" stroke="none" 
	d="
M341.398010,54.234413 
	C343.982544,53.454205 346.187286,52.590481 348.464417,52.305973 
	C357.630554,51.160728 362.802246,55.654171 362.992035,64.858749 
	C363.097992,69.997871 363.011017,75.140968 363.011017,80.452560 
	C356.836426,80.626900 350.904022,81.235069 345.046539,80.810432 
	C340.892822,80.509315 338.168854,77.542549 338.029236,73.057442 
	C337.890350,68.594467 340.206207,65.711029 344.539856,64.962234 
	C348.436035,64.289040 352.428009,64.170494 356.383026,63.806801 
	C356.675354,57.113777 351.583221,55.778988 341.277466,60.053188 
	C339.727051,58.246819 337.310486,56.598133 341.398010,54.234413 
M356.026154,68.919586 
	C353.214386,68.952003 350.327881,68.617783 347.621948,69.169403 
	C346.240784,69.450974 344.295502,71.273972 344.230316,72.487556 
	C344.165405,73.695076 345.889893,75.612846 347.258179,76.173256 
	C352.263062,78.223160 356.749237,74.860268 356.026154,68.919586 
z"/>
<path fill="#737476" opacity="1.000000" stroke="none" 
	d="
M483.871826,55.831669 
	C489.462402,51.529064 495.212402,51.004837 500.991089,54.142715 
	C506.427765,57.094883 507.909241,62.270958 507.774323,68.831833 
	C500.451050,68.831833 493.269440,68.831833 485.922119,68.831833 
	C488.065613,76.644859 494.519226,78.051971 503.098389,73.027504 
	C504.025177,74.042282 504.996002,75.105286 506.742859,77.018005 
	C503.491638,78.512299 500.870789,80.423546 498.015045,80.886848 
	C491.444611,81.952805 485.293671,80.799606 481.395142,74.551910 
	C477.912720,68.970985 478.795380,62.180546 483.871826,55.831669 
M494.438171,64.661758 
	C496.851013,64.661758 499.263855,64.661758 501.852081,64.661758 
	C500.247772,59.272884 496.927368,56.567364 492.868408,57.246780 
	C489.124542,57.873459 486.208466,59.656635 485.747803,64.660912 
	C488.631073,64.660912 491.073029,64.660912 494.438171,64.661758 
z"/>
<path fill="#737475" opacity="1.000000" stroke="none" 
	d="
M301.092834,130.623932 
	C306.844391,135.197876 310.081635,135.239975 317.352295,130.731766 
	C318.245483,131.604141 319.269592,132.604370 320.456360,133.763474 
	C317.404388,137.931244 313.830444,139.064804 309.697388,139.148407 
	C299.680481,139.351028 293.075562,133.517151 293.275665,124.597717 
	C293.465332,116.144554 299.679413,110.026901 307.927704,110.173065 
	C316.656189,110.327736 322.061096,116.671341 321.547760,126.693634 
	C314.515747,126.693634 307.431793,126.693634 299.677887,126.693634 
	C300.211060,128.328918 300.531281,129.311050 301.092834,130.623932 
M314.266266,118.299965 
	C311.472412,115.520805 308.158081,114.011055 304.501434,116.031364 
	C302.411499,117.186035 300.899902,119.387337 299.127899,121.117393 
	C299.476532,121.528069 299.825134,121.938751 300.173737,122.349426 
	C305.315979,122.349426 310.458191,122.349426 316.102478,122.349426 
	C315.530090,120.905273 315.132233,119.901489 314.266266,118.299965 
z"/>
<path fill="#737475" opacity="1.000000" stroke="none" 
	d="
M631.764526,123.321709 
	C632.371521,126.691597 630.626038,126.995552 628.310364,126.966209 
	C622.330017,126.890419 616.348206,126.940811 610.348389,126.940811 
	C610.970581,134.388062 618.321960,136.160324 627.105774,131.020889 
	C628.028625,132.046707 628.992737,133.118378 629.851257,134.072678 
	C628.895203,137.676636 621.555664,139.983719 615.044067,138.983597 
	C608.084534,137.914688 603.093140,131.733948 603.295532,124.435669 
	C603.513123,116.585815 608.839844,110.891197 616.597351,110.215042 
	C624.371521,109.537453 629.781616,114.078568 631.764526,123.321709 
M610.851135,118.695709 
	C610.465393,119.806107 610.079651,120.916504 609.640015,122.182007 
	C615.498108,122.182007 620.671509,122.182007 626.024048,122.182007 
	C622.832825,114.521721 617.727295,113.244949 610.851135,118.695709 
z"/>
<path fill="#737476" opacity="1.000000" stroke="none" 
	d="
M344.635864,137.694092 
	C340.717041,137.922485 337.012848,138.971954 333.318298,138.939102 
	C328.613495,138.897247 325.235626,135.340637 325.225616,131.104691 
	C325.214691,126.486076 327.578461,123.527512 332.214844,122.865616 
	C335.968292,122.329773 339.773834,122.158821 343.552094,121.826393 
	C343.765686,115.102379 339.291107,113.940323 328.340210,118.038177 
	C327.588470,116.915085 326.794891,115.729538 326.049896,114.616547 
	C329.894867,109.706993 340.272217,108.856781 344.558807,111.884254 
	C346.971008,113.587906 349.363739,116.831055 349.712280,119.635780 
	C350.481720,125.827263 349.951477,132.180267 349.951477,139.284256 
	C348.002472,138.806290 346.428619,138.420319 344.635864,137.694092 
M331.854645,132.577576 
	C334.820190,135.571136 338.288879,135.442123 341.342529,133.249527 
	C342.956665,132.090530 343.655609,129.656952 345.272766,126.955109 
	C340.843658,126.955109 338.023743,126.757103 335.245026,127.010551 
	C332.442719,127.266159 330.462677,128.570511 331.854645,132.577576 
z"/>
<path fill="#737476" opacity="1.000000" stroke="none" 
	d="
M257.501312,131.615875 
	C259.158081,132.233322 260.502502,133.075989 261.939056,133.976395 
	C256.794922,139.767685 247.583313,140.862946 241.474670,136.945953 
	C235.594589,133.175522 233.383865,125.138443 236.377258,118.414436 
	C239.240250,111.983345 246.210480,108.883003 253.446777,110.821938 
	C260.449036,112.698158 263.945953,118.354813 263.032196,126.763641 
	C255.994156,126.763641 248.905243,126.763641 241.745712,126.763641 
	C243.199783,134.065414 249.817307,136.091797 257.501312,131.615875 
M253.824005,116.451080 
	C247.158310,113.963165 243.406967,115.641212 241.368927,122.195297 
	C246.827896,122.195297 252.213654,122.195297 258.673248,122.195297 
	C256.825195,119.884476 255.630646,118.390808 253.824005,116.451080 
z"/>
<path fill="#737475" opacity="1.000000" stroke="none" 
	d="
M494.421387,117.775833 
	C499.181458,110.995369 505.511108,108.716942 512.309265,111.068275 
	C518.345032,113.155922 521.355713,118.479279 520.812683,126.827652 
	C513.712463,126.827652 506.531860,126.827652 499.146942,126.827652 
	C501.964264,134.718124 508.106628,136.065933 516.515686,130.993668 
	C517.424255,131.997314 518.377625,133.050446 519.292664,134.061234 
	C515.314453,139.346252 506.590973,140.872086 500.267517,137.600555 
	C493.658386,134.181229 491.359100,126.760994 494.421387,117.775833 
M513.018616,117.560646 
	C506.200043,113.236320 500.276367,115.298149 499.533722,122.168793 
	C504.717255,122.168793 509.896362,122.168793 515.789795,122.168793 
	C514.803833,120.354416 514.193542,119.231438 513.018616,117.560646 
z"/>
<path fill="#727375" opacity="1.000000" stroke="none" 
	d="
M576.625977,74.074135 
	C573.984924,67.758263 574.031555,61.937580 578.445496,56.924351 
	C582.437561,52.390263 587.695801,51.305611 593.468079,52.880939 
	C600.160461,54.707367 603.452087,60.190807 602.790894,68.739250 
	C595.744812,68.739250 588.643860,68.739250 581.463013,68.739250 
	C583.035522,76.510963 589.851685,78.132126 598.601807,72.998344 
	C599.498535,74.044273 600.432129,75.133278 601.330994,76.181709 
	C594.920776,83.936295 583.288940,82.972404 576.625977,74.074135 
M597.077942,63.685024 
	C596.421326,58.962418 593.021240,57.216549 588.964600,57.278545 
	C584.913635,57.340450 581.835815,59.443142 580.992615,64.327011 
	C586.406433,64.327011 591.476868,64.327011 597.077942,63.685024 
z"/>
<path fill="#727375" opacity="1.000000" stroke="none" 
	d="
M435.929321,80.993896 
	C434.344452,80.075386 432.262512,79.171486 432.232117,78.203163 
	C431.971710,69.909195 432.082703,61.603546 432.082703,53.044247 
	C433.192810,52.831100 434.557190,52.170883 434.976166,52.551479 
	C438.424316,55.683693 441.645142,53.032612 444.959656,52.423092 
	C453.011902,50.942341 458.796661,55.465618 459.089996,63.593685 
	C459.269867,68.576180 459.159027,73.569496 459.153229,78.557930 
	C459.152496,79.195923 458.997650,79.833725 458.880768,80.727203 
	C457.166718,80.727203 455.588654,80.727203 453.489929,80.727203 
	C453.489929,76.001045 453.589752,71.371788 453.465973,66.748512 
	C453.290924,60.211540 451.167969,57.703815 446.107361,57.720516 
	C441.002167,57.737362 438.135284,60.965496 438.018555,66.947037 
	C437.947205,70.604324 438.108337,74.270111 437.912231,77.918488 
	C437.856079,78.962929 436.917358,79.959915 435.929321,80.993896 
z"/>
<path fill="#727374" opacity="1.000000" stroke="none" 
	d="
M533.507202,128.996826 
	C533.506287,132.439911 533.506287,135.407547 533.506287,138.687805 
	C531.472717,138.687805 529.919983,138.687805 528.091187,138.687805 
	C528.091187,129.539703 528.091187,120.455620 528.091187,110.235703 
	C530.283569,110.903679 532.218018,111.493088 534.756470,112.266510 
	C536.479492,111.765747 539.108521,110.598579 541.835083,110.288078 
	C548.822998,109.492348 554.062012,113.497246 554.638977,120.462311 
	C555.128540,126.372292 554.739929,132.355011 554.739929,138.653946 
	C552.826843,138.653946 551.135132,138.653946 548.990723,138.653946 
	C548.990723,133.710541 549.055725,128.922150 548.973938,124.136261 
	C548.876282,118.420364 546.749268,115.910759 542.044312,115.722023 
	C537.136597,115.525154 534.260132,118.176559 533.684265,123.545303 
	C533.507751,125.191360 533.560364,126.862000 533.507202,128.996826 
z"/>
<path fill="#727374" opacity="1.000000" stroke="none" 
	d="
M264.016327,68.984489 
	C264.016266,73.117477 264.016266,76.754791 264.016266,81.440842 
	C261.845337,80.778053 260.206604,80.109558 258.503387,79.818237 
	C257.409760,79.631172 256.134308,79.766052 255.088547,80.155022 
	C244.874817,83.953934 237.310944,78.986046 237.080536,68.179085 
	C236.974503,63.206005 237.062469,58.228790 237.062469,52.864601 
	C239.014435,52.864601 240.727646,52.864601 243.002625,52.864601 
	C243.002625,57.905586 242.914169,62.841167 243.026184,67.772194 
	C243.151291,73.278694 245.603226,75.982254 250.206802,75.986862 
	C254.705292,75.991364 257.807068,73.095978 258.042694,68.136826 
	C258.277679,63.191723 258.094238,58.226738 258.094238,52.869343 
	C260.124176,52.702110 261.699036,52.572369 264.016388,52.381454 
	C264.016388,58.004185 264.016388,63.246498 264.016327,68.984489 
z"/>
<path fill="#737476" opacity="1.000000" stroke="none" 
	d="
M276.220276,75.248085 
	C279.373962,75.523994 282.177551,75.898560 284.930878,75.669449 
	C285.907410,75.588188 287.360962,74.112381 287.483398,73.133911 
	C287.582550,72.341339 286.172638,70.869095 285.152954,70.524689 
	C282.662018,69.683372 279.974152,69.446960 277.429932,68.736534 
	C273.531677,67.648018 270.187469,65.754166 270.269470,61.055294 
	C270.350708,56.399578 273.169220,53.917740 277.521820,52.829876 
	C282.730682,51.528008 287.562012,52.469147 292.468506,54.593426 
	C291.782288,58.036179 291.040039,59.819355 287.129883,58.462414 
	C284.490753,57.546547 281.302429,57.993347 278.391357,58.225819 
	C277.601959,58.288857 276.399963,59.760403 276.355011,60.635189 
	C276.313873,61.435780 277.425781,62.761612 278.299225,63.056023 
	C280.945435,63.947948 283.746826,64.365395 286.442627,65.127396 
	C290.321808,66.223885 293.652191,68.003487 293.674683,72.741600 
	C293.694397,76.891441 290.528198,80.354698 285.708710,80.889221 
	C280.274292,81.491928 274.753082,81.757973 269.538055,77.936066 
	C270.139252,76.519104 270.742584,75.097038 271.432831,73.470184 
	C273.119629,74.095879 274.485016,74.602348 276.220276,75.248085 
z"/>
<path fill="#737475" opacity="1.000000" stroke="none" 
	d="
M269.326477,113.372826 
	C275.949341,108.679398 282.391785,109.929146 289.105133,112.510857 
	C288.679993,116.228264 287.657227,118.070328 283.687408,116.284752 
	C281.961670,115.508545 279.701477,115.273537 277.843750,115.628586 
	C276.146149,115.953026 274.664093,117.405296 273.087067,118.360535 
	C274.442413,119.552032 275.627319,121.114609 277.198486,121.836182 
	C278.956421,122.643532 281.097382,122.567673 283.013123,123.090607 
	C287.097473,124.205505 290.511780,125.961609 290.203644,131.122772 
	C289.946625,135.427994 287.100769,138.489120 282.059265,138.936737 
	C276.620728,139.419632 271.089264,139.729523 266.077576,135.737991 
	C266.781891,134.425293 267.446899,133.185852 268.080353,132.005219 
	C268.837189,132.005219 269.330963,131.927505 269.791931,132.017639 
	C273.167725,132.677567 276.518250,133.701065 279.917297,133.893631 
	C281.300140,133.971954 282.783905,132.267700 284.221771,131.374512 
	C283.018951,130.261047 281.990753,128.732895 280.570831,128.134964 
	C278.623749,127.315041 276.349152,127.315216 274.268066,126.763382 
	C267.084076,124.858444 265.252228,120.182472 269.326477,113.372826 
z"/>
<path fill="#737475" opacity="1.000000" stroke="none" 
	d="
M403.329376,116.839813 
	C401.395233,118.696404 400.041168,119.661797 397.592163,117.698051 
	C393.437378,114.366554 388.053619,115.076462 385.097809,118.692581 
	C382.084473,122.379066 382.347046,128.164124 385.677521,131.466110 
	C389.151154,134.910019 393.932770,134.905457 398.215302,131.451126 
	C398.602936,131.138443 398.977142,130.809082 399.650726,130.239655 
	C400.925598,130.993423 402.287323,131.798538 403.639618,132.598068 
	C400.489624,138.395233 394.969147,140.501404 387.790863,138.867416 
	C381.777344,137.498581 377.348511,131.937347 377.070007,125.405449 
	C376.780426,118.613487 380.767792,112.877121 387.097626,110.979294 
	C394.100189,108.879776 400.062500,110.881577 403.329376,116.839813 
z"/>
<path fill="#747576" opacity="1.000000" stroke="none" 
	d="
M651.292358,52.900978 
	C656.064270,53.014000 655.271667,49.503098 655.393616,46.624416 
	C657.341797,46.624416 658.907471,46.624416 660.757019,46.624416 
	C660.951599,48.319283 661.135559,49.921444 661.385315,52.097107 
	C663.687622,52.292862 666.079651,52.496246 668.764038,52.724487 
	C668.764038,54.236816 668.764038,55.629921 668.764038,57.165440 
	C666.292969,57.362968 664.002319,57.546074 661.129822,57.775688 
	C661.129822,62.541924 660.985535,67.157936 661.179260,71.759720 
	C661.314087,74.964424 663.240112,76.939384 666.484009,75.916649 
	C669.940125,74.826988 670.447083,76.612038 670.831543,79.103104 
	C662.410156,83.941208 655.328064,80.180351 655.306152,71.649117 
	C655.294678,67.174095 655.304138,62.699024 655.304138,58.093372 
	C652.355530,57.460644 649.333679,57.088123 651.292358,52.900978 
z"/>
<path fill="#747576" opacity="1.000000" stroke="none" 
	d="
M313.776428,54.977173 
	C311.443085,56.389946 309.118042,57.401005 305.933746,58.785706 
	C305.933746,62.729763 305.556335,67.685539 306.036072,72.556892 
	C306.552979,77.805695 310.606934,75.846878 313.726501,75.399048 
	C316.325989,78.873451 315.096863,80.494324 311.290649,81.032616 
	C303.717041,82.103729 300.056976,78.926155 299.982635,71.153679 
	C299.944458,67.163704 299.951111,63.173306 299.919861,59.183239 
	C299.917328,58.860798 299.777618,58.539440 299.650391,58.000343 
	C297.541016,57.109818 293.333344,57.704315 295.578766,52.846031 
	C296.797729,52.603607 298.209625,52.322819 299.761688,52.014153 
	C299.904938,50.241379 300.036804,48.609413 300.203094,46.551609 
	C301.835022,46.464371 303.413635,46.379982 305.274994,46.280483 
	C305.603607,48.323952 305.882660,50.059334 306.056610,51.141041 
	C308.899963,52.404652 311.342316,53.490055 313.776428,54.977173 
z"/>
<path fill="#737475" opacity="1.000000" stroke="none" 
	d="
M569.746460,138.847565 
	C565.401367,137.118637 564.173889,133.820526 564.096863,129.936707 
	C564.008240,125.463837 564.076294,120.987862 564.076294,117.444199 
	C562.102234,115.439552 560.706421,114.022156 559.310669,112.604767 
	C560.562256,111.598267 561.813904,110.591774 563.845398,108.958092 
	C563.921997,108.352669 564.142090,106.612106 564.396179,104.603012 
	C566.135254,104.603012 567.714478,104.603012 569.631165,104.603012 
	C569.853638,106.423965 570.066345,108.164742 570.311157,110.168190 
	C572.695557,110.340027 574.958191,110.503090 577.658447,110.697701 
	C577.745117,112.116699 577.828369,113.480667 577.929993,115.144844 
	C575.265564,115.338142 572.985229,115.503578 570.052368,115.716354 
	C570.052368,120.681664 569.881714,125.588753 570.112488,130.476898 
	C570.266113,133.730682 572.651001,134.135284 575.484863,134.121353 
	C576.996582,134.113922 578.513794,135.227768 580.028564,135.835556 
	C579.867310,136.636490 579.706055,137.437424 579.544800,138.238358 
	C576.412048,138.475449 573.279358,138.712540 569.746460,138.847565 
z"/>
<path fill="#797A7C" opacity="1.000000" stroke="none" 
	d="
M371.285522,62.998856 
	C371.285706,55.708076 371.285706,48.916866 371.285706,41.679657 
	C373.253845,41.679657 374.921417,41.679657 376.860474,41.679657 
	C376.860474,54.661922 376.860474,67.538651 376.860474,80.790962 
	C375.174530,80.874054 373.600128,80.951645 371.285370,81.065735 
	C371.285370,74.991211 371.285370,69.244820 371.285522,62.998856 
z"/>
<path fill="#747576" opacity="1.000000" stroke="none" 
	d="
M646.002441,67.988846 
	C646.002441,72.450859 646.002441,76.414833 646.002441,80.693550 
	C643.926453,80.693550 642.228516,80.693550 640.301025,80.693550 
	C640.301025,67.708824 640.301025,54.949013 640.301025,41.557823 
	C641.958313,41.473595 643.644775,41.387886 646.002502,41.268063 
	C646.002502,50.309231 646.002502,58.900017 646.002441,67.988846 
z"/>
<path fill="#737475" opacity="1.000000" stroke="none" 
	d="
M600.938660,113.100998 
	C600.184509,114.333794 599.571716,115.646751 598.654785,115.913200 
	C592.776001,117.621567 591.136841,119.540634 591.023132,125.718681 
	C590.944580,129.986694 591.008057,134.257339 591.008057,138.761566 
	C588.905273,138.761566 587.315186,138.761566 585.396301,138.761566 
	C585.396301,129.541336 585.396301,120.362312 585.396301,110.090187 
	C587.848267,110.861549 589.875366,111.499252 591.902466,112.136948 
	C594.759949,112.568695 597.774170,107.090462 600.938660,113.100998 
z"/>
<path fill="#747576" opacity="1.000000" stroke="none" 
	d="
M326.817902,72.018921 
	C326.817566,75.123451 326.817566,77.750557 326.817566,80.705360 
	C324.812805,80.839958 323.229980,80.946228 321.304443,81.075500 
	C321.304443,71.600060 321.304443,62.388790 321.304443,52.123135 
	C323.603821,52.836567 325.642090,53.468983 327.581055,54.070591 
	C330.163269,53.613861 332.990662,52.992989 335.845764,52.813618 
	C336.103882,52.797405 336.540741,55.626396 336.881744,57.079273 
	C327.400208,59.834332 326.864441,60.637878 326.817902,72.018921 
z"/>
<path fill="#6F7072" opacity="1.000000" stroke="none" 
	d="
M364.904663,122.590096 
	C364.857452,128.147995 364.857452,133.267731 364.857452,138.686462 
	C362.450745,138.686462 360.902374,138.686462 359.090912,138.686462 
	C359.090912,129.507431 359.090912,120.433090 359.090912,110.190170 
	C361.228577,110.926338 363.051849,111.554245 365.752350,112.484245 
	C367.296356,111.938812 370.197418,110.913994 373.747284,109.659996 
	C373.964417,111.954872 374.111237,113.506783 374.258057,115.058693 
	C373.819122,114.747528 373.380188,114.436363 372.941223,114.125198 
	C370.278107,116.800774 367.614990,119.476357 364.904663,122.590096 
z"/>
<path fill="#727374" opacity="1.000000" stroke="none" 
	d="
M391.998657,63.051414 
	C391.998566,69.158249 391.998566,74.774986 391.998566,80.732391 
	C390.020477,80.844391 388.437866,80.933990 386.452271,81.046417 
	C386.452271,71.560173 386.452271,62.375515 386.452271,52.838985 
	C388.196136,52.838985 389.902435,52.838985 391.998718,52.838985 
	C391.998718,56.310837 391.998718,59.436077 391.998657,63.051414 
z"/>
<path fill="#747576" opacity="1.000000" stroke="none" 
	d="
M527.208252,68.449554 
	C522.456604,68.732239 518.047302,68.732239 513.270447,68.732239 
	C513.182007,67.222664 513.101746,65.851944 512.984680,63.853703 
	C516.890564,63.853703 520.470032,64.019424 524.026794,63.806499 
	C527.495056,63.598877 528.531921,64.969940 527.208252,68.449554 
z"/>
<path fill="#797A7C" opacity="1.000000" stroke="none" 
	d="
M385.849243,46.182606 
	C386.418243,44.175327 386.837952,42.141972 388.076477,40.985466 
	C388.611694,40.485683 391.451447,41.391747 392.119934,42.402718 
	C392.757843,43.367447 392.242828,46.446140 391.695679,46.593437 
	C389.942108,47.065483 387.938843,46.609779 385.849243,46.182606 
z"/>
<path fill="#F5FEFF" opacity="1.000000" stroke="none" 
	d="
M105.937241,42.990944 
	C110.220551,40.645958 112.048164,41.303440 112.090820,45.585743 
	C112.216888,58.241856 112.166679,70.900482 112.054184,83.556953 
	C112.043777,84.726646 111.098427,85.888023 109.897018,87.190033 
	C108.471344,87.264664 107.735863,87.202515 107.000374,87.140366 
	C106.772194,86.898384 106.546982,86.653679 106.186035,85.736343 
	C105.935295,78.383492 105.823242,71.700546 105.711197,65.017593 
	C105.758659,58.660667 105.806122,52.303745 105.944244,45.151459 
	C106.002342,43.901051 105.969788,43.445995 105.937241,42.990944 
z"/>
<path fill="#E5F7FB" opacity="1.000000" stroke="none" 
	d="
M115.087051,114.125900 
	C113.932777,115.873932 112.854767,117.283386 111.762085,118.712029 
	C113.070030,120.716316 114.410484,122.770424 115.826431,124.940224 
	C108.693375,128.803513 109.228279,118.060394 103.406960,119.287201 
	C103.204788,121.122795 102.995255,123.025215 102.596985,126.641235 
	C100.699036,125.037788 98.496063,124.069405 98.428833,122.970375 
	C98.076073,117.203255 98.263863,111.403061 98.263863,105.721489 
	C111.173126,103.615723 116.449699,106.347397 115.087051,114.125900 
M103.755219,114.739517 
	C106.500214,114.936989 110.343674,115.891808 110.529243,112.078239 
	C110.710854,108.346268 106.912758,109.212875 104.338005,109.305099 
	C104.051468,109.315361 103.774483,109.592064 103.209938,109.899284 
	C103.209938,111.209816 103.209938,112.662498 103.755219,114.739517 
z"/>
<path fill="#E9F8FC" opacity="1.000000" stroke="none" 
	d="
M129.837555,125.824417 
	C126.574692,124.432213 123.056526,123.629700 120.981964,121.451965 
	C117.743187,118.052147 118.159004,112.485619 120.835800,109.008865 
	C123.510735,105.534515 129.421539,103.902122 133.483047,105.516083 
	C137.637680,107.167053 140.349045,111.518494 139.977081,116.288101 
	C139.576859,121.419838 136.700745,124.400673 131.643478,125.312325 
	C131.158707,125.399712 130.700134,125.632385 129.837555,125.824417 
M135.201309,116.237587 
	C135.342407,112.157043 133.600677,108.935120 129.403580,109.339859 
	C127.342102,109.538658 124.336189,112.326668 123.982521,114.334770 
	C123.635727,116.303848 125.566299,119.727570 127.467133,120.810211 
	C130.962357,122.800934 133.727325,120.744568 135.201309,116.237587 
z"/>
<path fill="#F5FEFF" opacity="1.000000" stroke="none" 
	d="
M95.053589,52.999577 
	C95.053589,52.999577 95.205666,52.742767 95.542328,52.419525 
	C97.235962,51.761234 98.592934,51.426193 99.949913,51.091148 
	C99.949913,51.091152 99.995239,51.009529 100.062576,51.264221 
	C100.330177,51.801464 100.597572,51.987549 100.932098,52.077175 
	C100.932098,52.077175 100.990288,52.003273 100.957687,52.368385 
	C101.218353,53.575840 101.511620,54.418186 101.804878,55.260532 
	C101.772346,63.785362 101.739815,72.310188 101.555038,81.546570 
	C101.168610,83.086769 100.934448,83.915421 100.700287,84.744072 
	C100.700279,84.744072 100.837166,84.905785 100.408562,84.863892 
	C98.670021,84.838638 97.360077,84.855286 96.050140,84.871933 
	C96.050140,84.871933 95.794243,84.465797 95.582489,83.875717 
	C95.265030,73.190285 95.159309,63.094933 95.053589,52.999577 
z"/>
<path fill="#E9F8FC" opacity="1.000000" stroke="none" 
	d="
M81.289490,114.814133 
	C83.915077,118.168709 83.839973,121.418396 81.372559,124.161392 
	C78.821381,126.997528 72.423607,126.015938 68.128273,122.465240 
	C70.076042,115.816086 76.906120,126.218033 78.976837,118.949898 
	C76.708817,118.096970 74.058434,117.723351 72.306885,116.267982 
	C70.521355,114.784363 68.549423,112.181786 68.653206,110.172104 
	C68.744148,108.410995 71.413116,105.691200 73.279045,105.374809 
	C75.938545,104.923859 78.915581,106.240280 81.715523,106.962471 
	C81.899811,107.010002 82.048645,108.737602 81.658302,109.127647 
	C80.985603,109.799820 79.888245,110.346954 78.946426,110.384964 
	C77.197418,110.455574 75.432083,110.121925 73.673546,109.956581 
	C73.535927,110.350609 73.398315,110.744629 73.260696,111.138657 
	C75.840263,112.272675 78.419823,113.406685 81.289490,114.814133 
z"/>
<path fill="#F2FDFD" opacity="1.000000" stroke="none" 
	d="
M84.356560,43.114540 
	C84.592743,42.952927 84.760147,42.737797 85.349113,42.228699 
	C87.161018,42.135315 88.482574,42.282375 89.804138,42.429436 
	C89.930969,42.775055 90.057793,43.120674 90.243011,44.144585 
	C90.464310,47.903145 90.627213,50.983414 90.790123,54.063679 
	C90.771263,54.783611 90.752403,55.503544 90.574387,56.940880 
	C90.250969,63.094067 90.086708,68.529854 89.922447,73.965637 
	C89.922447,73.965637 89.997742,73.987053 89.713333,74.079987 
	C88.957748,74.492729 88.486572,74.812538 88.015396,75.132347 
	C87.565804,75.131508 87.116219,75.130669 86.156357,74.955399 
	C85.646080,74.780975 85.211327,74.586876 85.211327,74.586876 
	C85.211327,74.586876 85.051773,74.249435 84.857773,73.908218 
	C84.502686,73.307747 84.283752,73.113754 84.006958,72.985016 
	C84.006958,72.985016 83.998161,72.998955 84.028961,72.530060 
	C84.158691,62.412289 84.257629,52.763416 84.356560,43.114540 
z"/>
<path fill="#E5F7FB" opacity="1.000000" stroke="none" 
	d="
M54.495258,109.368958 
	C50.281761,111.664780 49.858723,115.181046 51.523411,118.545021 
	C53.240864,122.015633 56.602371,121.450768 59.880531,120.526268 
	C61.094471,120.183914 62.588821,120.835876 64.434555,121.104004 
	C60.155849,126.533562 53.962868,127.206207 49.464153,123.488663 
	C45.507771,120.219276 44.737839,112.989426 47.912170,108.915169 
	C51.803940,103.920074 58.287773,103.413467 65.173607,108.882843 
	C62.377064,109.326721 60.797039,109.746811 59.209011,109.779640 
	C57.761974,109.809547 56.306259,109.419304 54.495258,109.368958 
z"/>
<path fill="#F0FBFD" opacity="1.000000" stroke="none" 
	d="
M78.876610,77.949791 
	C76.514610,79.603043 74.589890,79.391594 73.205231,75.849457 
	C73.188835,66.441742 73.229622,57.817837 73.270416,49.193928 
	C73.270416,49.193928 73.042793,49.125851 73.477455,49.056141 
	C75.270370,48.664192 76.628616,48.341957 77.986870,48.019718 
	C77.986870,48.019718 78.000000,47.999695 78.205124,48.371498 
	C78.664917,50.820431 79.040321,52.891197 79.150261,54.975964 
	C79.415016,59.997139 79.555511,65.024872 79.746124,70.049957 
	C79.734474,70.440735 79.722824,70.831505 79.554001,71.846542 
	C79.223427,74.297134 79.050018,76.123466 78.876610,77.949791 
z"/>
<path fill="#E9F8FC" opacity="1.000000" stroke="none" 
	d="
M67.208199,80.869835 
	C63.481426,82.289406 62.170834,80.561623 62.113613,77.515465 
	C62.014118,72.218521 61.817303,66.895737 62.254284,61.633022 
	C62.387821,60.024769 64.463661,58.577789 65.650002,57.056953 
	C66.738136,58.601452 68.765404,60.155148 68.750374,61.688839 
	C68.688293,68.026634 68.007645,74.358368 67.208199,80.869835 
z"/>
<path fill="#F2FDFD" opacity="1.000000" stroke="none" 
	d="
M116.859833,75.694870 
	C116.861641,70.737679 116.589386,66.216850 117.020935,61.764233 
	C117.180504,60.117825 118.995567,58.631874 120.055603,57.072746 
	C121.080200,58.697456 122.837227,60.257092 122.988449,61.959385 
	C123.399208,66.583122 123.114799,71.267357 123.135780,75.927483 
	C123.147369,78.500702 123.199135,81.535011 119.725792,81.162834 
	C118.606277,81.042877 117.809410,77.911858 116.859833,75.694870 
z"/>
<path fill="#E5F7FB" opacity="1.000000" stroke="none" 
	d="
M92.983215,116.948486 
	C92.982826,119.905151 92.982826,122.377541 92.982826,125.235596 
	C91.310181,125.235596 89.961090,125.235596 88.376282,125.235596 
	C88.376282,118.639137 88.376282,112.227364 88.376282,105.639038 
	C91.322563,104.481606 93.191864,104.631210 93.006424,108.500221 
	C92.879478,111.149170 92.983078,113.809158 92.983215,116.948486 
z"/>
<path fill="#E5F7FB" opacity="1.000000" stroke="none" 
	d="
M105.745605,95.674477 
	C105.823555,92.408012 107.096291,90.507980 110.279099,91.565559 
	C111.272583,91.895676 112.506851,93.488365 112.462708,94.449440 
	C112.407906,95.642677 111.171478,97.714905 110.389824,97.740990 
	C108.909050,97.790390 107.388649,96.652184 105.745605,95.674477 
z"/>
<path fill="#79B6D1" opacity="1.000000" stroke="none" 
	d="
M80.080162,69.779503 
	C79.555511,65.024872 79.415016,59.997139 79.150261,54.975964 
	C79.040321,52.891197 78.664917,50.820431 78.195953,48.379410 
	C78.947914,49.163624 80.718742,50.293476 80.745262,51.462894 
	C80.881561,57.472683 80.569603,63.492641 80.080162,69.779503 
z"/>
<path fill="#71AEC6" opacity="1.000000" stroke="none" 
	d="
M90.278458,73.785568 
	C90.086708,68.529854 90.250969,63.094067 90.611969,57.299358 
	C90.750626,62.495457 90.692543,68.050484 90.278458,73.785568 
z"/>
<path fill="#79B6D1" opacity="1.000000" stroke="none" 
	d="
M94.760590,53.297119 
	C95.159309,63.094933 95.265030,73.190285 95.424286,83.695221 
	C95.016159,83.481583 94.150780,82.856750 94.153267,82.235397 
	C94.191460,72.688217 94.342667,63.141495 94.760590,53.297119 
z"/>
<path fill="#71AEC6" opacity="1.000000" stroke="none" 
	d="
M83.982956,43.322956 
	C84.257629,52.763416 84.158691,62.412289 84.036484,72.529236 
	C83.679192,70.609062 83.049988,68.218849 83.065979,65.832947 
	C83.115829,58.398212 83.409958,50.965107 83.982956,43.322956 
z"/>
<path fill="#79B6D1" opacity="1.000000" stroke="none" 
	d="
M72.911987,49.406792 
	C73.229622,57.817837 73.188835,66.441742 73.079803,75.529671 
	C72.690956,71.959030 72.160042,67.927269 72.104446,63.888966 
	C72.039009,59.135490 72.385620,54.376343 72.911987,49.406792 
z"/>
<path fill="#79B6D1" opacity="1.000000" stroke="none" 
	d="
M105.477577,65.351173 
	C105.823242,71.700546 105.935295,78.383492 106.037903,85.535751 
	C105.766960,79.231628 105.505463,72.458191 105.477577,65.351173 
z"/>
<path fill="#71AEC6" opacity="1.000000" stroke="none" 
	d="
M91.108597,53.798172 
	C90.627213,50.983414 90.464310,47.903145 90.386246,44.381653 
	C90.789749,47.137836 91.108414,50.335251 91.108597,53.798172 
z"/>
<path fill="#79B6D1" opacity="1.000000" stroke="none" 
	d="
M79.168968,77.766846 
	C79.050018,76.123466 79.223427,74.297134 79.592178,72.137604 
	C79.678780,73.730896 79.570053,75.657402 79.168968,77.766846 
z"/>
<path fill="#79B6D1" opacity="1.000000" stroke="none" 
	d="
M77.930740,47.690529 
	C76.628616,48.341957 75.270370,48.664192 73.582237,49.112106 
	C74.262230,47.304581 74.972801,44.634129 77.930740,47.690529 
z"/>
<path fill="#71AEC6" opacity="1.000000" stroke="none" 
	d="
M89.752029,42.074875 
	C88.482574,42.282375 87.161018,42.135315 85.435867,42.040672 
	C86.404251,39.665958 87.927917,39.138416 89.752029,42.074875 
z"/>
<path fill="#79B6D1" opacity="1.000000" stroke="none" 
	d="
M99.741432,50.810219 
	C98.592934,51.426193 97.235962,51.761234 95.562111,52.271610 
	C96.674477,51.807724 98.103714,51.168507 99.741432,50.810219 
z"/>
<path fill="#79B6D1" opacity="1.000000" stroke="none" 
	d="
M96.259186,85.164322 
	C97.360077,84.855286 98.670021,84.838638 100.367561,84.766205 
	C99.326187,84.959190 97.897202,85.207954 96.259186,85.164322 
z"/>
<path fill="#79B6D1" opacity="1.000000" stroke="none" 
	d="
M107.162567,87.370529 
	C107.735863,87.202515 108.471344,87.264664 109.550896,87.460167 
	C109.038223,87.595917 108.181496,87.598305 107.162567,87.370529 
z"/>
<path fill="#79B6D1" opacity="1.000000" stroke="none" 
	d="
M101.037537,84.618912 
	C100.934448,83.915421 101.168610,83.086769 101.600815,81.996765 
	C101.657494,82.654861 101.516144,83.574310 101.037537,84.618912 
z"/>
<path fill="#71AEC6" opacity="1.000000" stroke="none" 
	d="
M88.211899,75.329819 
	C88.486572,74.812538 88.957748,74.492729 89.686386,74.051605 
	C89.432022,74.462616 88.920212,74.994949 88.211899,75.329819 
z"/>
<path fill="#79B6D1" opacity="1.000000" stroke="none" 
	d="
M101.880417,54.900223 
	C101.511620,54.418186 101.218353,53.575840 100.917274,52.392441 
	C101.258293,52.880898 101.607124,53.710407 101.880417,54.900223 
z"/>
<path fill="#79B6D1" opacity="1.000000" stroke="none" 
	d="
M105.738617,43.145905 
	C105.969788,43.445995 106.002342,43.901051 105.930664,44.684196 
	C105.730957,44.441814 105.635475,43.871338 105.738617,43.145905 
z"/>
<path fill="#71AEC6" opacity="1.000000" stroke="none" 
	d="
M85.190865,74.792000 
	C85.211327,74.586876 85.646080,74.780975 85.819290,74.944344 
	C85.718475,75.070854 85.444435,75.033989 85.190865,74.792000 
z"/>
<path fill="#71AEC6" opacity="1.000000" stroke="none" 
	d="
M84.067429,73.199944 
	C84.283752,73.113754 84.502686,73.307747 84.722702,73.779434 
	C84.488220,73.885109 84.270309,73.692780 84.067429,73.199944 
z"/>
<path fill="#79B6D1" opacity="1.000000" stroke="none" 
	d="
M100.852501,51.833252 
	C100.597572,51.987549 100.330177,51.801464 100.026123,51.293385 
	C100.205856,51.241676 100.489380,51.415501 100.852501,51.833252 
z"/>
<path fill="#FAFAFB" opacity="1.000000" stroke="none" 
	d="
M216.168213,122.494141 
	C212.787643,122.594353 209.823975,122.594353 206.435989,122.594353 
	C206.435989,117.632988 206.435989,112.624809 206.435989,106.983887 
	C209.257355,106.983887 212.171921,106.904625 215.080673,107.000748 
	C220.738922,107.187752 223.871445,109.639450 224.213470,114.009514 
	C224.594437,118.877098 222.591614,121.078438 216.168213,122.494141 
z"/>
<path fill="#F7F8F8" opacity="1.000000" stroke="none" 
	d="
M216.728561,67.002777 
	C213.352859,67.002930 210.424591,67.002930 206.863083,67.002930 
	C209.349609,61.400631 211.580780,56.373653 214.198166,50.476505 
	C216.769455,56.325165 218.920914,61.218880 221.326370,66.690376 
	C219.606537,66.819771 218.391266,66.911201 216.728561,67.002777 
z"/>
<path fill="#F5F5F5" opacity="1.000000" stroke="none" 
	d="
M620.030945,68.775833 
	C622.098572,68.772629 623.725708,68.772629 625.343872,68.772629 
	C625.322632,74.554443 621.310669,78.020363 616.478821,76.432220 
	C614.813477,75.884857 613.676575,73.729958 612.298279,72.309418 
	C613.736877,71.186096 615.085144,69.905334 616.652588,69.006699 
	C617.422302,68.565369 618.598328,68.832504 620.030945,68.775833 
z"/>
<path fill="#F5F5F5" opacity="1.000000" stroke="none" 
	d="
M415.652802,74.663895 
	C412.709198,75.354271 410.008636,76.235970 407.404755,76.008965 
	C406.276031,75.910561 404.684906,73.585861 404.559875,72.162079 
	C404.477020,71.218246 406.523376,69.343788 407.791626,69.171043 
	C410.990265,68.735359 414.287933,69.026718 418.425385,69.026718 
	C417.380035,71.284554 416.657562,72.845001 415.652802,74.663895 
z"/>
<path fill="#F7F8F8" opacity="1.000000" stroke="none" 
	d="
M356.401672,69.139114 
	C356.749237,74.860268 352.263062,78.223160 347.258179,76.173256 
	C345.889893,75.612846 344.165405,73.695076 344.230316,72.487556 
	C344.295502,71.273972 346.240784,69.450974 347.621948,69.169403 
	C350.327881,68.617783 353.214386,68.952003 356.401672,69.139114 
z"/>
<path fill="#ECECED" opacity="1.000000" stroke="none" 
	d="
M493.976562,64.661331 
	C491.073029,64.660912 488.631073,64.660912 485.747803,64.660912 
	C486.208466,59.656635 489.124542,57.873459 492.868408,57.246780 
	C496.927368,56.567364 500.247772,59.272884 501.852081,64.661758 
	C499.263855,64.661758 496.851013,64.661758 493.976562,64.661331 
z"/>
<path fill="#ECECED" opacity="1.000000" stroke="none" 
	d="
M314.500336,118.598831 
	C315.132233,119.901489 315.530090,120.905273 316.102478,122.349426 
	C310.458191,122.349426 305.315979,122.349426 300.173737,122.349426 
	C299.825134,121.938751 299.476532,121.528069 299.127899,121.117393 
	C300.899902,119.387337 302.411499,117.186035 304.501434,116.031364 
	C308.158081,114.011055 311.472412,115.520805 314.500336,118.598831 
z"/>
<path fill="#ECECED" opacity="1.000000" stroke="none" 
	d="
M611.091125,118.381912 
	C617.727295,113.244949 622.832825,114.521721 626.024048,122.182007 
	C620.671509,122.182007 615.498108,122.182007 609.640015,122.182007 
	C610.079651,120.916504 610.465393,119.806107 611.091125,118.381912 
z"/>
<path fill="#F7F8F8" opacity="1.000000" stroke="none" 
	d="
M331.631134,132.259125 
	C330.462677,128.570511 332.442719,127.266159 335.245026,127.010551 
	C338.023743,126.757103 340.843658,126.955109 345.272766,126.955109 
	C343.655609,129.656952 342.956665,132.090530 341.342529,133.249527 
	C338.288879,135.442123 334.820190,135.571136 331.631134,132.259125 
z"/>
<path fill="#ECECED" opacity="1.000000" stroke="none" 
	d="
M254.130051,116.674103 
	C255.630646,118.390808 256.825195,119.884476 258.673248,122.195297 
	C252.213654,122.195297 246.827896,122.195297 241.368927,122.195297 
	C243.406967,115.641212 247.158310,113.963165 254.130051,116.674103 
z"/>
<path fill="#ECECED" opacity="1.000000" stroke="none" 
	d="
M513.300903,117.834549 
	C514.193542,119.231438 514.803833,120.354416 515.789795,122.168793 
	C509.896362,122.168793 504.717255,122.168793 499.533722,122.168793 
	C500.276367,115.298149 506.200043,113.236320 513.300903,117.834549 
z"/>
<path fill="#ECECED" opacity="1.000000" stroke="none" 
	d="
M596.812622,64.006020 
	C591.476868,64.327011 586.406433,64.327011 580.992615,64.327011 
	C581.835815,59.443142 584.913635,57.340450 588.964600,57.278545 
	C593.021240,57.216549 596.421326,58.962418 596.812622,64.006020 
z"/>
<path fill="#57A7C6" opacity="1.000000" stroke="none" 
	d="
M103.482574,114.427353 
	C103.209938,112.662498 103.209938,111.209816 103.209938,109.899284 
	C103.774483,109.592064 104.051468,109.315361 104.338005,109.305099 
	C106.912758,109.212875 110.710854,108.346268 110.529243,112.078239 
	C110.343674,115.891808 106.500214,114.936989 103.482574,114.427353 
z"/>
<path fill="#57A7C6" opacity="1.000000" stroke="none" 
	d="
M135.138550,116.636742 
	C133.727325,120.744568 130.962357,122.800934 127.467133,120.810211 
	C125.566299,119.727570 123.635727,116.303848 123.982521,114.334770 
	C124.336189,112.326668 127.342102,109.538658 129.403580,109.339859 
	C133.600677,108.935120 135.342407,112.157043 135.138550,116.636742 
z"/>
</svg>