<?xml version="1.0" standalone="no"?>
<!DOCTYPE svg PUBLIC "-//W3C//DTD SVG 20010904//EN"
 "http://www.w3.org/TR/2001/REC-SVG-20010904/DTD/svg10.dtd">
<svg version="1.0" xmlns="http://www.w3.org/2000/svg"
 width="718.000000pt" height="174.000000pt" viewBox="0 0 718.000000 174.000000"
 preserveAspectRatio="xMidYMid meet">

<g transform="translate(0.000000,174.000000) scale(0.100000,-0.100000)"
fill="#000000" stroke="none">
<path d="M3857 1334 c-4 -4 -7 -18 -7 -31 0 -19 5 -23 31 -23 27 0 30 3 27 28
-3 26 -34 43 -51 26z"/>
<path d="M3710 1135 l0 -195 25 0 25 0 0 195 0 195 -25 0 -25 0 0 -195z"/>
<path d="M6400 1135 l0 -195 25 0 25 0 0 195 0 195 -25 0 -25 0 0 -195z"/>
<path d="M6760 1135 l0 -195 25 0 c25 0 25 1 25 91 0 87 1 92 29 120 36 36 73
37 106 4 23 -22 25 -32 25 -120 l0 -95 26 0 26 0 -4 116 c-3 113 -4 116 -31
140 -34 29 -119 34 -155 8 l-22 -15 0 70 c0 69 -1 71 -25 71 l-25 0 0 -195z"/>
<path d="M2025 1134 c-44 -97 -81 -180 -83 -185 -2 -5 9 -9 25 -9 24 0 31 7
46 45 l19 45 99 0 100 0 19 -45 c16 -36 24 -45 45 -45 14 0 25 4 25 9 0 4 -36
86 -79 182 -74 163 -81 174 -108 177 -28 3 -30 -1 -108 -174z m147 29 l35 -78
-70 -3 c-38 -2 -71 -1 -74 1 -6 6 59 157 68 157 3 0 22 -35 41 -77z"/>
<path d="M5350 1125 l0 -185 25 0 c24 0 24 2 27 83 l3 82 103 3 102 3 0 -86
c0 -84 0 -85 25 -85 l25 0 0 185 0 185 -25 0 c-25 0 -25 -1 -25 -80 l0 -80
-105 0 -105 0 0 80 c0 79 0 80 -25 80 l-25 0 0 -185z"/>
<path d="M2990 1251 c0 -23 -5 -30 -22 -33 -13 -2 -23 -10 -23 -18 0 -8 10
-16 23 -18 21 -3 22 -8 22 -83 0 -106 17 -146 64 -155 49 -9 88 2 84 24 -3 12
-12 16 -36 14 -48 -3 -64 28 -60 119 l3 74 38 3 c28 2 37 8 37 22 0 14 -9 20
-37 22 -33 3 -38 7 -41 31 -3 21 -9 27 -28 27 -20 0 -24 -5 -24 -29z"/>
<path d="M6548 1253 c-2 -20 -9 -29 -25 -31 -15 -2 -23 -10 -23 -22 0 -12 8
-20 23 -22 21 -3 22 -8 25 -100 3 -91 4 -98 29 -118 42 -33 130 -21 116 16 -4
11 -14 14 -34 10 -47 -9 -59 13 -59 110 l0 84 40 0 c33 0 40 3 40 20 0 17 -7
20 -40 20 -38 0 -40 2 -40 30 0 25 -4 30 -24 30 -19 0 -25 -6 -28 -27z"/>
<path d="M2370 1114 c0 -58 5 -114 10 -125 24 -45 109 -62 164 -34 35 18 36
18 36 0 0 -9 9 -15 25 -15 l25 0 0 140 0 140 -25 0 c-24 0 -25 -2 -25 -74 0
-121 -21 -156 -94 -156 -54 0 -66 26 -66 137 0 93 0 93 -25 93 l-25 0 0 -106z"/>
<path d="M2726 1199 c-20 -16 -26 -29 -26 -59 0 -45 22 -66 81 -76 59 -10 89
-25 89 -45 0 -33 -46 -43 -110 -26 -41 12 -56 13 -62 4 -13 -21 -9 -28 27 -43
64 -26 165 -12 185 26 29 54 3 100 -65 115 -79 17 -96 26 -93 48 4 31 48 44
101 30 31 -9 44 -9 49 0 22 35 -2 47 -93 47 -42 0 -63 -5 -83 -21z"/>
<path d="M3200 1080 l0 -140 25 0 c24 0 25 2 26 73 0 101 15 139 59 153 43 14
56 54 18 54 -13 0 -33 -7 -44 -15 -25 -19 -34 -19 -34 0 0 9 -9 15 -25 15
l-25 0 0 -140z"/>
<path d="M3407 1204 c-23 -12 -26 -18 -17 -34 9 -18 13 -18 45 -4 19 7 45 14
57 14 35 0 68 -27 68 -56 0 -23 -3 -24 -60 -24 -75 0 -116 -19 -123 -57 -15
-79 81 -131 163 -88 27 14 30 14 30 0 0 -10 9 -15 26 -15 l27 0 -5 108 c-5
113 -15 143 -55 161 -34 16 -123 13 -156 -5z m155 -164 c-5 -54 -82 -80 -122
-40 -38 38 0 71 80 67 42 -2 45 -4 42 -27z"/>
<path d="M3858 1089 c-2 -72 0 -136 3 -141 4 -5 15 -8 25 -6 17 3 19 15 22
141 l3 137 -25 0 -25 0 -3 -131z"/>
<path d="M4018 1208 c-29 -10 -34 -23 -19 -46 7 -12 14 -11 39 2 43 22 88 20
113 -5 38 -38 22 -53 -59 -59 -62 -4 -77 -9 -93 -29 -33 -41 -24 -93 22 -116
36 -19 86 -19 122 -1 23 13 27 13 27 0 0 -8 10 -14 26 -14 l26 0 -4 116 c-3
113 -4 116 -31 140 -23 20 -39 24 -85 23 -31 0 -69 -5 -84 -11z m150 -160 c5
-26 -42 -68 -77 -68 -34 0 -64 25 -59 48 8 40 129 57 136 20z"/>
<path d="M4320 1080 l0 -140 25 0 c25 0 25 1 25 89 0 49 3 97 6 106 10 25 62
47 95 40 48 -11 59 -38 59 -142 0 -93 0 -93 25 -93 l25 0 0 100 c0 112 -12
149 -55 168 -36 17 -107 15 -131 -3 -25 -19 -34 -19 -34 0 0 8 -9 15 -20 15
-19 0 -20 -7 -20 -140z"/>
<path d="M4833 1186 c-33 -30 -37 -39 -40 -92 -5 -72 16 -112 72 -138 45 -22
121 -18 160 8 25 16 26 19 10 36 -15 17 -17 17 -49 0 -20 -10 -47 -15 -65 -12
-33 5 -84 48 -78 66 2 7 45 12 110 14 l107 3 0 30 c0 70 -57 119 -139 119 -44
0 -56 -5 -88 -34z m152 -31 c46 -45 35 -55 -60 -55 -88 0 -99 6 -72 41 34 44
96 51 132 14z"/>
<path d="M5809 1205 c-63 -34 -86 -143 -43 -202 45 -62 146 -80 209 -39 21 14
24 20 15 36 -10 19 -12 19 -35 4 -52 -34 -146 -7 -153 45 -3 20 0 21 109 21
l112 0 -6 37 c-7 44 -34 83 -68 100 -32 17 -108 16 -140 -2z m132 -55 c17 -16
28 -34 24 -40 -3 -5 -42 -10 -86 -10 -71 0 -79 2 -79 19 0 27 46 61 82 61 19
0 40 -10 59 -30z"/>
<path d="M6098 1208 c-29 -10 -34 -23 -19 -46 7 -12 14 -11 39 2 43 22 88 20
113 -5 38 -38 22 -53 -59 -59 -62 -4 -77 -9 -93 -29 -33 -41 -24 -93 22 -116
36 -19 86 -19 122 -1 23 13 27 13 27 0 0 -8 10 -14 26 -14 l26 0 -4 116 c-3
113 -4 116 -31 140 -23 20 -39 24 -85 23 -31 0 -69 -5 -84 -11z m150 -160 c5
-26 -42 -68 -77 -68 -34 0 -64 25 -59 48 8 40 129 57 136 20z"/>
<path d="M5120 1090 c0 -18 7 -20 70 -20 63 0 70 2 70 20 0 18 -7 20 -70 20
-63 0 -70 -2 -70 -20z"/>
<path d="M4090 555 l0 -195 25 0 c25 0 25 1 25 85 0 94 11 128 47 144 37 17
62 13 88 -14 23 -22 25 -32 25 -120 l0 -95 26 0 26 0 -4 116 c-3 113 -4 116
-31 140 -34 29 -119 34 -155 8 l-22 -15 0 70 c0 69 -1 71 -25 71 l-25 0 0
-195z"/>
<path d="M2000 545 l0 -185 25 0 c24 0 25 3 25 55 0 30 5 55 10 56 14 1 77 1
93 0 6 -1 29 -26 50 -56 32 -46 43 -55 68 -55 l30 0 -42 60 -42 61 33 27 c28
24 34 36 38 83 3 45 0 59 -19 83 -33 43 -76 56 -179 56 l-90 0 0 -185z m202
124 c19 -10 38 -47 38 -75 0 -9 -13 -29 -29 -45 -27 -26 -36 -29 -95 -29 l-66
0 0 78 c0 43 3 81 6 85 9 9 124 -2 146 -14z"/>
<path d="M4655 707 c-96 -54 -119 -169 -55 -272 41 -66 154 -94 237 -60 58 24
67 35 47 56 -16 18 -18 18 -49 -1 -39 -24 -104 -26 -146 -5 -71 37 -93 145
-42 206 29 34 78 59 115 59 12 0 41 -9 65 -21 35 -17 46 -19 58 -9 12 10 13
15 3 28 -39 46 -166 57 -233 19z"/>
<path d="M5638 673 c-2 -20 -9 -29 -25 -31 -15 -2 -23 -10 -23 -22 0 -12 8
-20 23 -22 21 -3 22 -8 25 -88 3 -111 7 -124 37 -138 52 -24 114 -10 101 23
-4 12 -13 15 -28 12 -12 -3 -30 -2 -40 4 -15 8 -18 23 -18 99 l0 90 40 0 c33
0 40 3 40 20 0 17 -7 20 -40 20 -38 0 -40 2 -40 30 0 25 -4 30 -24 30 -19 0
-25 -6 -28 -27z"/>
<path d="M2409 623 c-38 -23 -61 -67 -61 -118 0 -84 46 -134 130 -143 78 -7
148 34 109 66 -8 7 -18 6 -31 -4 -33 -24 -103 -18 -131 11 -48 48 -37 55 86
55 l112 0 -6 42 c-4 32 -15 51 -41 75 -31 29 -43 33 -88 33 -31 0 -64 -7 -79
-17z m114 -35 c26 -13 46 -38 47 -55 0 -10 -23 -13 -85 -13 -95 0 -106 10 -60
55 26 27 63 32 98 13z"/>
<path d="M2694 617 c-20 -17 -27 -33 -27 -57 0 -43 27 -65 98 -80 61 -13 84
-32 66 -54 -19 -23 -55 -27 -107 -11 -49 14 -63 10 -64 -21 0 -18 85 -37 136
-31 108 12 131 121 31 148 -100 27 -107 30 -107 49 0 35 68 53 112 29 16 -9
24 -7 37 6 15 15 15 17 -3 31 -12 9 -44 14 -82 14 -52 0 -68 -4 -90 -23z"/>
<path d="M3005 630 c-44 -18 -69 -58 -72 -118 -5 -70 17 -110 72 -136 45 -22
121 -18 160 8 25 16 26 19 11 35 -16 17 -18 17 -54 0 -22 -11 -48 -16 -64 -12
-31 6 -80 51 -75 67 2 7 45 12 110 14 l107 3 0 30 c0 39 -25 82 -60 103 -30
17 -101 20 -135 6z m120 -55 c46 -45 35 -55 -60 -55 -47 0 -85 2 -85 5 0 2 5
15 11 29 23 49 95 61 134 21z"/>
<path d="M3277 624 c-24 -13 -27 -18 -15 -32 7 -9 13 -18 14 -20 0 -1 15 5 32
14 44 22 91 15 115 -18 11 -14 16 -31 13 -37 -4 -6 -34 -11 -67 -11 -59 0 -96
-12 -111 -34 -14 -20 -8 -74 10 -96 24 -29 98 -38 141 -17 26 13 31 13 31 1 0
-8 10 -14 25 -14 25 0 25 1 25 88 0 157 -24 192 -127 192 -32 -1 -71 -8 -86
-16z m159 -149 c4 -8 -1 -26 -10 -40 -32 -49 -118 -44 -124 8 -3 21 2 29 20
36 38 16 108 13 114 -4z"/>
<path d="M3580 500 l0 -140 25 0 c25 0 25 1 25 80 0 98 16 136 63 148 22 6 33
15 35 30 4 27 -24 30 -68 7 -27 -14 -30 -14 -30 0 0 9 -9 15 -25 15 l-25 0 0
-140z"/>
<path d="M3845 630 c-57 -23 -88 -94 -73 -165 16 -72 80 -113 160 -102 45 6
88 31 88 51 0 21 -29 27 -53 12 -69 -44 -147 -5 -147 74 0 82 83 127 144 79
26 -20 29 -21 44 -5 16 16 15 19 -11 42 -22 19 -39 24 -80 23 -29 0 -61 -4
-72 -9z"/>
<path d="M4984 622 c-65 -41 -80 -150 -28 -212 44 -52 140 -64 200 -26 20 14
23 20 14 37 -10 18 -13 18 -33 4 -50 -35 -157 -4 -157 46 0 18 7 19 106 18 58
0 108 2 111 5 12 12 -10 79 -36 108 -24 27 -36 32 -87 35 -46 3 -66 0 -90 -15z
m137 -51 c16 -16 29 -34 29 -40 0 -7 -31 -11 -85 -11 -77 0 -85 2 -85 19 0 27
46 61 82 61 19 0 40 -10 59 -29z"/>
<path d="M5270 500 l0 -140 25 0 c25 0 25 1 25 91 0 87 1 92 29 120 35 34 68
37 105 8 25 -20 26 -24 26 -120 0 -99 0 -99 25 -99 l25 0 0 111 c0 109 0 111
-29 140 -24 24 -38 29 -78 29 -26 0 -60 -7 -75 -14 -24 -13 -28 -13 -28 0 0 8
-10 14 -25 14 l-25 0 0 -140z"/>
<path d="M5850 499 c0 -140 0 -140 23 -137 21 3 22 8 25 93 3 96 19 130 65
137 11 2 24 13 28 26 7 19 5 22 -19 22 -16 0 -37 -7 -48 -15 -25 -19 -34 -19
-34 0 0 8 -9 15 -20 15 -19 0 -20 -7 -20 -141z"/>
<path d="M6105 630 c-42 -17 -68 -58 -73 -113 -6 -70 15 -110 70 -138 49 -25
121 -23 163 5 25 16 26 19 11 35 -16 17 -18 17 -54 0 -30 -15 -44 -17 -74 -9
-36 10 -74 52 -63 70 3 6 53 10 111 10 l104 0 0 31 c0 39 -25 82 -60 103 -30
17 -101 20 -135 6z m120 -55 c46 -45 35 -55 -60 -55 -88 0 -99 6 -72 41 34 44
96 51 132 14z"/>
</g>
</svg>
