<?xml version="1.0" encoding="UTF-8"?>
<svg xmlns="http://www.w3.org/2000/svg" version="1.1" viewBox="0 0 1397.8 217.34">
  <!-- Generator: Adobe Illustrator 30.0.0, SVG Export Plug-In . SVG Version: 2.1.1 Build 123)  -->
  <defs>
    <style>
      .st0 {
        fill-rule: evenodd;
      }

      .st0, .st1, .st2 {
        fill: #fff;
      }

      .st3 {
        fill: none;
        stroke: #fff;
        stroke-miterlimit: 3.86;
        stroke-width: 1.28px;
      }

      .st4 {
        fill: #fca2f8;
      }

      .st4, .st5 {
        display: none;
      }

      .st2 {
        font-family: TimesNewRomanPS-BoldMT, 'Times New Roman';
        font-size: 24px;
        font-weight: 700;
      }

      .st5 {
        fill: #2c22f2;
      }

      .st6 {
        letter-spacing: -.03em;
      }

      .st7 {
        letter-spacing: -.02em;
      }

      .st8 {
        letter-spacing: -.03em;
      }

      .st9 {
        letter-spacing: 0em;
      }

      .st10 {
        letter-spacing: -.01em;
      }

      .st11 {
        letter-spacing: 0em;
      }

      .st12 {
        letter-spacing: .03em;
      }

      .st13 {
        letter-spacing: .02em;
      }

      .st14 {
        letter-spacing: .03em;
      }

      .st15 {
        letter-spacing: 0em;
      }

      .st16 {
        letter-spacing: .01em;
      }

      .st17 {
        letter-spacing: 0em;
      }
    </style>
  </defs>
  <g id="Coat_of_arms">
    <path d="M43.46,158.55c-.08.14-.19.26-.33.33"/>
    <path class="st1" d="M46.48,134.95c.35,0,.63-.28.63-.64s-.28-.64-.63-.64-.63.29-.63.64.28.64.63.64h0Z"/>
    <path class="st1" d="M75.72,108.28h0s-22.74-.01-22.74-.01h0s0,.01,0,.01l.02,18.37c0,1.77.75,3.32,1.79,3.8l8.75,5.22c.19.22.48.36.8.36.28,0,.52-.11.71-.28l8.88-5.31c1.04-.48,1.79-2.03,1.79-3.8l.02-18.37h0ZM60.54,113.6h-1.97v-4.7h1.97v4.7h0ZM59.11,115.24l.28-.29-.18-.32.37.04.22-.39.22.38.37-.03-.17.32.28.29-.36.07v.4l-.34-.25-.34.25v-.4l-.36-.07h0ZM53.62,121.09v-4.46h2.39v4.46h-2.39ZM54.01,114.63l.37.04.22-.39.22.38.37-.03-.17.32.28.29-.36.07v.4l-.34-.25-.34.25v-.4l-.36-.07.28-.29-.17-.32h0ZM56.71,119.17l.37.04.22-.39.22.38.37-.03-.17.32.28.29-.36.07v.4l-.34-.25-.34.25v-.4l-.36-.07.28-.29-.17-.32h0ZM58.3,115.58c-.02-.12-.17-.15-.24-.15-.21,0-.3.35-.48.36-.13,0-.23.02-.23-.14,0-.12.27-.21.37-.31-1.47,0-1.5.68-1.73.68-.39,0,.32-.71.53-.92-.3-.05-.47-.42-.8-.6.15-.22.24-.13.43.03,0-.16.12-.34.46-.34.66,0,.47.64.58.64s0-.64.44-.64c.65,0,1.47,1.68.73,1.68-.32,0-.06-.24-.07-.28h0ZM56.6,110.66l.28-.29-.17-.32.37.04.22-.39.22.38.37-.03-.17.32.28.29-.36.07v.4l-.34-.25-.34.25v-.4l-.36-.07h0ZM56.01,108.9v4.7h-2.39v-4.7h2.39ZM60.54,133.16l-5.44-3.25c-.91-.62-1.36-1.71-1.48-3.03v-5.17h6.92v11.45h0ZM58.57,121.09v-4.46h1.97v4.46h-1.97ZM67.55,133.53l-2.51,1.5h-.04c-.18.14-.41.23-.66.23s-.49-.09-.67-.24l-2.5-1.49v-11.82h6.39v11.82h0ZM67.55,121.09h-6.39v-12.19h6.39v12.19h0ZM75.08,126.88c-.12,1.32-.57,2.41-1.48,3.03l-5.44,3.25v-11.45h6.92v5.17h0ZM75.08,121.09h-6.92v-12.19h6.92v12.19h0Z"/>
    <path class="st1" d="M60.17,125.92c-.03-.07-.87.28-.63.25.02-.25.49-.75.69-.93-.04-.29-.41-.03-.8.18,1.29-1.85.46-1.09-.26-.96,1.16-1.25.85-1.22,0-.84.67-.53.81-1.16.71-1.35-.63.84-1.21.71-1.21,1.48,0,.51-.18,1.35-.45,1.63-.34.37-.08-1.37-.97-1.37-.28,0-.95-.02-1.16.32.18,0,.45.46.45.64s.17.69-.14.69-.66-.64-.66-.94-.02-.23-.02-.67c0-.73-1.2-1.77-1.68-1.77,0,.51.67.63.67,1.29-.28,0-.69-.53-.69-.2s.43.39.43.67-.49-.1-.49.2c0,.27.27.22.33.49-.2-.06-.37-.03-.41.07-.03.09.06.2.21.29-.07.06-.13.22-.13.65,0,1.45.91,2.12,1.58,2.12.47,0,.4-.33.46-.49.02.25.25-.12.25.31s-.46.25-.46.64c0,.52.73-.02.73.56,0,.69-.09.68-.09.94,0,.18.76-.25.72-.33.18.07.18.61.51.59.22,0,.27-.55.44-.6-.1.03.69.52.69.27,0-.68-.28-.39-.28-.85,0-.43.94-.35.79-.56-.12-.18-.21-.07-.31-.39.02.06-.74-1.07.16-.49.94.61,1.04-1.43.99-1.53h0Z"/>
    <path class="st1" d="M84.43,130.73c.41,0,.75-.3.75-.66s-.33-.66-.75-.66-.75.29-.75.66.33.66.75.66h0Z"/>
    <path class="st1" d="M81.41,132.52c.41,0,.75-.29.75-.66s-.33-.66-.75-.66-.75.3-.75.66.33.66.75.66h0Z"/>
    <path class="st1" d="M45.46,136.67c.41,0,.75-.3.75-.66s-.34-.66-.75-.66-.75.3-.75.66.34.66.75.66h0Z"/>
    <path class="st1" d="M47.79,136.87c.41,0,.75-.3.75-.66s-.33-.66-.75-.66-.75.29-.75.66.33.66.75.66h0Z"/>
    <path class="st1" d="M112.51,105.5c1.11,1.32,1.35,3.44.56,4.95-.44-.04-.36-.6-.44-.92-.79-1.48-1.43-3.36-.71-5.03.52.08.32.72.6,1h0Z"/>
    <path class="st1" d="M17.55,107.3c-.24.96-.24,2.28,0,3.16-.2.2-.16-.2-.36-.16-1.55-1.12-.83-3.32-1.23-4.87.08-.12.28-.16.4-.08.71.48,1.03,1.16,1.19,1.96h0Z"/>
    <path class="st1" d="M115.92,107.42c.24.44-.2.88-.52,1.08-.36.08-.75-.12-.99-.44-.12-.44.12-.84.48-1.04.4-.04.79.04,1.03.4h0Z"/>
    <path class="st1" d="M15.13,109.18c-.08.36-.2.72-.51.88-.24,0-.6,0-.75-.2-.24-.2-.28-.56-.16-.84.16-.28.48-.32.75-.36.28.12.56.2.67.52h0Z"/>
    <path class="st1" d="M117.46,109.86c.08.24.08.4,0,.64-.28.36-.67.52-1.07.36-.28-.16-.36-.44-.44-.68.08-.32.4-.6.67-.72.36,0,.59.2.83.4h0Z"/>
    <path class="st1" d="M115.2,109.9c.32.16.08.56.04.8-.2.2-.48.52-.83.4-.2-.2-.43-.2-.51-.48,0-.4.16-.8.56-.92.32-.08.52.08.75.2h0Z"/>
    <path class="st1" d="M112.31,110.5c0,.44.04,1-.48,1.08-.48.16-.79-.24-.91-.56-.04-.4.2-.8.59-.96.32,0,.6.2.79.44h0Z"/>
    <path class="st1" d="M19.45,110.7c.12.4-.28.64-.51.84-.28.08-.64-.16-.8-.44-.28-.28.08-.52.16-.76.4-.36.99-.08,1.15.36h0Z"/>
    <path class="st1" d="M17.07,110.82c0,.32-.16.64-.43.76-.32.12-.63-.12-.79-.36-.2-.4.04-.76.36-.92.44-.16.71.24.87.52h0Z"/>
    <path class="st1" d="M102.71,110.97c.4.84.71,1.84.79,2.88-.16.76.12,1.76-.44,2.28-.56-.2-.59-.88-.95-1.24-.71-1.4-.08-3.04.16-4.4.32-.12.32.28.44.48h0Z"/>
    <path class="st1" d="M15.21,111.45c.12.48-.24.72-.52,1-.48.12-.79-.24-.99-.56-.04-.4.2-.8.52-.96.4-.04.79.16.99.52h0Z"/>
    <path class="st1" d="M108.97,112.61c.52,1.16.56,2.56.2,3.84l-.24.2c-.56-1.08-1.35-2.08-1.63-3.24,0-.84.16-1.6.48-2.28.28-.2.44.04.55.28.04.44.24.96.63,1.2h0Z"/>
    <path class="st1" d="M113.97,111.89c-.04.4-.2.84-.6.96-.4.08-.79-.04-.91-.48-.12-.4.12-.76.44-.96.44-.24.87.16,1.07.48h0Z"/>
    <path class="st1" d="M17.11,113.13c0,.32-.28.68-.6.76-.32.24-.55-.16-.83-.28-.12-.32-.2-.6,0-.92.12-.24.4-.24.64-.32.36.2.71.36.79.76h0Z"/>
    <path class="st1" d="M18.85,112.93c.16.4-.28.6-.44.8-.48.16-.71-.2-.91-.48-.08-.4.16-.64.44-.88.48-.12.71.2.91.56h0Z"/>
    <path class="st1" d="M115.08,112.81c-.04.52-.83,1.04-.91,1.56-.44,1.08-1.39,1.88-2.46,2.24-.24.2-.56.48-.91.52-.08-.8.64-1.52,1.07-2.24.83-1.08,1.98-1.76,3.21-2.08h0Z"/>
    <path class="st1" d="M16.32,114.49c.59.68.91,1.28,1.63,1.88.04.16-.08.4-.28.4-1.94-.12-3.25-2.12-4.2-3.52.12-.44.63-.08.91-.12.67.52,1.43.68,1.94,1.36h0Z"/>
    <path class="st1" d="M115.64,115.05c-.08,1.72-.91,3.48-2.46,4.31-.44.16-.91.6-1.35.32.83-1.72,2.1-3.12,3.49-4.63h.32Z"/>
    <path class="st1" d="M108.02,116.21c.12.6-.2.96-.67,1.16-.44.04-.71-.32-.91-.64-.04-.4.2-.76.56-.88.12-.12.32-.12.48-.12.24.08.36.28.56.48h0Z"/>
    <path class="st1" d="M14.13,116.57c.75.52,1.43,1.24,2.14,1.88-.51.36-1.15.04-1.75.04-1.35-.48-2.26-1.64-3.65-2.04.04-.44.55-.28.83-.4.87-.08,1.59.32,2.42.52h0Z"/>
    <path class="st1" d="M56.62,104.74c-2.22-.88-3.69,1.44-5.95,1.16-.28.16-.2.44-.36.64-.12.12-.32.04-.44-.04-.12-.96-.44-1.84-.56-2.76-.24-.4-.12-.96-.32-1.36-1.27-3.48,3.09-.84,3.97-2.88.76-1.76-1.47-1.96-2.14-3.2v-.52c-.63-.64-1.31-.84-1.71-1.68.28-1,.4-2.08.12-3.08-.04-.24-.2-.56-.55-.44-.75,1.04-1.31,1.88-2.02,2.88-.75-.56-1.47-1.28-2.34-1.76-.6-.08-1.15-.68-1.82-.44-.12.24,0,.44.12.6.04,1.56.83,2.8,1.94,3.92l.12.6c-.71,1.64-.52,3.51-.71,5.27-1.79,4.55-4.68,8.95-8.61,12.1-2.26,2.56-4.96,5.03-5.32,8.55-.12.56.08,1.24-.36,1.64-1.31-.48-2.62-1.12-3.69-1.96-1.82-1.28-4.44-1.12-5.63-3.44-.48-.92.12-1.84.55-2.52,1.35-1.28,1.15-3.56.44-5.11-.16-.04-.2.16-.32.2-.12,2.36-1.98,4-1.27,6.59.16.76.56,1.24.75,1.96-.28-.08-.67-.08-.91-.2-.87-.12-1.75-.48-2.66-.36-1.82.84-4.32-.2-5.79,1.48-.24.04-.56.08-.48.44.87,0,1.7.24,2.58.2,1.39.24,2.3-.92,3.25-1.44h.24c.4-.4,1.07-.16,1.59-.24,2.5.28,4.44,1.48,6.5,2.72v.16c-.79.36-1.7.6-2.5,1.04-.91.68-1.94,1.56-2.22,2.68-.63,1,.2,1.88.6,2.72.04.4.08.88.44,1.04,1.27-1.36.08-3.04.28-4.59.32-1.2,1.43-1.76,2.58-2.08,2.26-.96,3.89.88,5.71,1.92-.04,1.84.2,3.6-.2,5.39-.56.2-1.27.32-1.87.28-3.13.24-5.59,1.96-8.41,2.92-1.27.44-2.78.4-4.05.88.99.28,2.02-.08,3.05-.12,3.89-.56,6.86-3.56,11.07-3.04l.08.12c-.48,1-1.11,1.84-1.86,2.6-.12-.44-.16-.8-.56-1.04-.32-.16-.67,0-.91.32-.12.2-.12.44,0,.6.2.36.52.44.87.56-.08.36-.52.52-.75.84-1.11,1.88-3.37,1.12-4.68,2.44-.2.28-.91.44-.6.88,1.51.16,2.98-.24,4.09-1.04,1.47-1.64,3.02-3.19,4.48-4.75.24,1.28-.12,2.6-.87,3.64-.36-.2-.64-.48-1.07-.6-.4.08-.67.48-.71.8.16.28.32.6.59.8-1.35.96-3.05,1.04-4.6,1.48-2.89.36-5.71.6-8.65.64-1.39-.08-2.98.4-4.28,0-1.51.28-3.13-.2-4.36.64-.16.2.04.4.04.6,1.83,1.2,4.33.24,6.39.6h15.63c1.15-.04,2.3-.08,3.21-.6,2.02-1.16,3.13-3.24,4.17-5.27.4-.72.67-1.56.83-2.4.4-1.36,1.63-2.32,2.97-2.44.2,2.08-.2,4.15-.67,6.07-.24,1.28-1.07,2.52-.56,3.87.12.64.79.64,1.31.72,4.8-.08,9.6-.28,14.68.08.91.16,1.71.44,2.7.4.08-.12.36-.16.24-.4-.12-.44-.44-1-.95-1.12-.08-.24-.44-.16-.56-.32-2.54-1.44-5.59-.68-8.57-.64-1.55.16-3.09.44-4.4-.44-.59-.72-.16-3-.16-3,0-.9,2.18-7.19,2.46-7.71.08-.6.32-1.16.24-1.84.32-.8.24-1.84.24-2.72.16-1.28.79-2.48,1.23-3.72.24-.6.44-1.24.67-1.84.24-.76.32-1.48.79-2.08,1.29.82,2.56.8,3.18,2.26l.55,3.33c0,.2.16.6.44.36,1.03-.68.71-2.2.71-3.24.24-1.24-.63-1.84-.99-2.92-.28-.2-.73-1.15-.73-1.15-.16-.88-2.08-1.48-1.65-2.56.24-.92.48-1.76,1.35-2.28.13.09.18.18.2.28l.48-.33.05-3.34c1.28,0,3.2.16,4.51.16.36.12.64.4,1.03.44l.32-.44,3.21-.63c-1.36.15-2.19-1.42-3.49-1.42h0Z"/>
    <path class="st1" d="M25.56,117.29c.04.48-.24.76-.6.92-.32-.12-.55-.16-.75-.48-.16-.44.24-.76.55-.92.32.08.71.12.79.48h0Z"/>
    <path class="st1" d="M22.98,117.29c.24.24.28.64.16.92-.28.24-.71.44-.95.12-.24-.24-.48-.52-.28-.84.28-.28.75-.52,1.07-.2h0Z"/>
    <path class="st1" d="M108.42,118.41c.16.44-.2.76-.51.92-.4-.12-.91-.2-.91-.72.04-.32.32-.52.59-.6.36-.12.67.16.83.4h0Z"/>
    <path class="st1" d="M110.52,118.33c.12.2.4.52.08.72-.16.12-.28.16-.4.32-.44.08-.83-.08-.95-.48-.08-.44.28-.64.6-.84.28-.08.48.12.67.28h0Z"/>
    <path class="st1" d="M13.02,118.81c-.16.48-.56.68-1.07.52-.12-.12-.24-.32-.32-.52.04-.28.12-.56.44-.68.48.04.83.24.95.68h0Z"/>
    <path class="st1" d="M26.39,119.48c-.04.32-.4.6-.67.76-.4.04-.68-.28-.87-.56,0-.32.16-.72.48-.8.44-.16.91.16,1.07.6h0Z"/>
    <path class="st1" d="M24.05,119.2c.12.12.24.44.12.64-.24.2-.6.56-.99.32-.24-.2-.52-.36-.44-.76.16-.16.36-.4.6-.48.32-.08.48.12.71.28h0Z"/>
    <path class="st1" d="M116.59,119.68c0,.32-.32.64-.52.76-.32.12-.67.04-.87-.2-.24-.08-.16-.4-.16-.6.2-.28.48-.44.75-.52.36.08.6.32.79.56h0Z"/>
    <path class="st1" d="M119.13,120.04c-.12.36-.4.68-.75.72-.24-.04-.67-.12-.59-.48,0-.28.16-.56.36-.64.4-.2.87,0,.99.4h0Z"/>
    <path class="st1" d="M17.55,120.6c.08.48-.08.8-.48.96-.28.16-.56-.04-.75-.2-.2-.2-.36-.52-.2-.8.08-.36.44-.28.67-.44.36.04.56.2.75.48h0Z"/>
    <path class="st1" d="M19.49,120.96c.12.32-.24.44-.32.68-.2.12-.48.24-.71.08-.28-.24-.6-.6-.32-.96.32-.6,1.15-.28,1.35.2h0Z"/>
    <path class="st1" d="M114.25,120.76c.04.4-.32.68-.55.92-.36.08-.71-.16-.79-.48-.04-.32.16-.56.44-.76.36-.04.71,0,.91.32h0Z"/>
    <path class="st1" d="M117.5,121.4c-.08.36-.04.76-.44,1-.32.08-.71.04-.95-.16-.24-.2-.28-.56-.16-.84.2-.32.56-.56.95-.48.28.16.36.36.6.48h0Z"/>
    <path class="st1" d="M16.04,122.24c.16.32-.2.4-.32.56-.28.16-.56.04-.79-.08-.28-.16-.16-.56-.12-.76.36-.68,1.07-.2,1.23.28h0Z"/>
    <path class="st1" d="M115,123c.16.04.08.28.04.36-.95.48-2.38.6-3.21-.16-.48-.4-1.07-.56-1.59-.88.2-.52.91-.48,1.43-.6,1.15.16,2.06,1.24,3.33,1.28h0Z"/>
    <path class="st1" d="M17.94,122.64c.08.32-.16.44-.24.68-.16.24-.48.16-.67.08-.36-.24-.52-.68-.28-1,.44-.44.95-.2,1.19.24h0Z"/>
    <path class="st1" d="M21.43,122.88c.16.36-.08.68-.4.88-.28.16-.52-.08-.75-.12-.2-.28-.56-.6-.2-.92.36-.6,1.07-.28,1.35.16h0Z"/>
    <path class="st1" d="M67.29,124.57c-.07.8-1.39-.11-1.21.95.19.76.34,1.67.79,2.24.38.53.19,1.37.15,2.01-.34.57-.9.99-1.51,1.29-1.13-.11-2.79.57-3.32-.83-.23-.61-.64-1.21-.64-1.9.11-.08.27-.08.38-.19,0-.27-.3-.42-.26-.68,1.28-.23-.53-1.37.57-1.44.9.95,2.37.65,3.16,1.67.19.15.34.38.57.49-.15-.95-.6-1.9-.75-2.92-.11-.53.08-1.02.45-1.33.68-.53,1.24.23,1.62.64h0Z"/>
    <path class="st1" d="M24.92,124.32c.12.4-.2.64-.44.84-.36.16-.56-.24-.71-.44-.12-.4.16-.6.4-.8.28,0,.59.12.75.4h0Z"/>
    <path class="st1" d="M49.4,124.72c.48,1.56.32,3.16-.48,4.47-.04.32.08.84-.36.8-1.07-1.48-.28-3.56.16-5.11.08-.4.55-.56.67-.16h0Z"/>
    <path class="st1" d="M83.35,125.48c.55,1.12.59,2.6.08,3.72l-.32.32c-.44-.92-.79-1.84-.91-2.84.2-.72.44-1.36.48-2.12.56-.12.52.6.67.92h0Z"/>
    <path class="st1" d="M28.02,125.92c-.24.48-.91.6-1.35.92-.95.72-2.34.88-3.53.68,1.03-1.44,2.62-2.28,4.52-1.88.08.16.28.08.36.28h0Z"/>
    <path class="st1" d="M11.72,127.35c1.47,1.04,1.86,2.48,2.74,3.91.12.16.52.2.36.52-.32.24-.63-.24-1.07-.16-1.51-.68-2.46-2.36-2.42-4.11,0-.16.24-.16.4-.16h0Z"/>
    <path class="st1" d="M81.8,128.59c.04.4-.04.8-.36.92-.44.12-.79-.12-.91-.48-.12-.28.12-.44.2-.64.32-.32.87-.16,1.07.2h0Z"/>
    <path class="st1" d="M98.54,130.71c0-.76.2-1.48.28-2.2.12-.24.2-.52.16-.84.95-1.28,2.9-.88,4.4-.76.6.32,1.35.28,1.98.44.28-.2.67-.24.99-.2,1.27-.68.44-2.16.52-3.32l-.48-1.2c-.12-.24-.24-.52-.32-.8-.24-.28-.4-.8-.63-1.08-.67-1.76-1.98-2.76-3.09-4.15-2.02-2.64-5.2-4.12-8.37-5.15-3.13-1.08-6.31.32-9.12,1.32-.87-.24-1.31-.92-1.55-1.68-.16-1.52.16-3,.75-4.23.12-1,.79-1.76,1.07-2.68.71-2.24,1.47-4.43,1.63-6.87.08-1.48-1.03-2.52-2.14-3.16-.75-.2-1.63-.16-2.18.44-.52,1.08-1.63,1.8-2.58,2.32-.08.68.75.24,1.03.48.87.16,1.87-.12,2.58.44.08,1.6-.83,2.92-1.67,4.11-1.35,2-2.78,4.04-3.61,6.23l-.16-.16.19,9.77c1.26,2.1,2.84,4.5,5.2,5.3,1.27,1.04,2.86,2.28,4.56,1.36.91-.28.99,1,1.43,1.52.48,1.48-.59,2.52-.67,3.87l-1.03,2.2c-1.19,2.32-2.26,4.79-4.08,6.75-.6,0-.95.64-1.55.68-.32.44-.95.12-1.35.28-1.23.52-2.98.2-3.81,1.36.08.12.2.16.32.2,2.42.04,5.12.2,7.69.08.32-.12.6-.4.63-.76-.36-.68.12-1.28.44-1.8.2-.96.83-1.56,1.11-2.48.83-1.64,1.78-3.24,2.7-4.87l1.23-2c.28-.68.75-1.52,1.23-2.24.32-.32.48-.68.71-1.08.04-.4-.16-.56-.4-.84.28-.28.71-.2,1.07-.28.99.6,2.02,1.56,2.22,2.64l.36,1.04.16.48-.08,1.32.16,1.24c.2,1.92-.16,3.87-.36,5.79-.68,2.32-3.33,2.08-5.24,2.6-.48.32-1.39.16-1.39.96,2.3.48,5,.2,7.46.16.4-.16.48-.52.67-.88.08-.52.6-.96.44-1.52-.44-.56-.04-1.44-.16-2.2.08-.2.08-.48,0-.76.32-1.16.24-2.56.48-3.68l.16-1.52h0Z"/>
    <path class="st1" d="M118.06,129.15c-1.27,1.8-2.62,3.83-4.84,4.47-.16,0-.32.08-.4-.12,1.35-1.44,2.06-3.68,4.17-4.2.32-.16.75-.32,1.07-.16h0Z"/>
    <path class="st1" d="M9.77,131.11c-.2.16-.04.52-.4.56-.32.16-.67-.04-.83-.36-.16-.4.2-.8.51-.88.32.16.63.28.71.68h0Z"/>
    <path class="st1" d="M21.2,131.67c.12.36-.28.36-.48.44-1.67.6-3.37.04-4.56-1.16,0-.16,0-.32.16-.36,1.63.4,3.53.08,4.88,1.08h0Z"/>
    <path class="st1" d="M11.95,131.15c.08.16.12.44.08.6-.24.36-.6.44-.99.36-.24-.12-.36-.28-.52-.52.04-.4.36-.64.67-.76.32.04.56.12.75.32h0Z"/>
    <path class="st1" d="M49.12,131.35c.08.36-.24.6-.48.76-.36.08-.67-.08-.83-.32-.12-.28,0-.68.28-.76.36-.08.91-.04,1.03.32h0Z"/>
    <path class="st1" d="M119.56,131.51c.12.4-.24.6-.51.84-.24.12-.52,0-.75-.12-.04-.2-.28-.36-.2-.64.16-.36.51-.52.91-.48.2.16.36.2.55.4h0Z"/>
    <path class="st1" d="M122.18,131.35c.24.36.04.64-.16.92-.16.28-.48.36-.71.24-.24-.24-.56-.36-.59-.72,0-.32.36-.56.59-.68.4-.16.56.24.87.24h0Z"/>
    <path class="st1" d="M8.11,132.51c.04.28-.2.44-.28.68-.2.08-.4.24-.64.16-.28-.12-.48-.36-.59-.64.08-.36.32-.68.71-.8.32.08.68.24.79.6h0Z"/>
    <path class="st1" d="M91.64,132.51c.08.16.04.36.04.52-.24.32-.56.6-.95.4-.24-.24-.52-.48-.4-.84.32-.44.99-.6,1.31-.08h0Z"/>
    <path class="st1" d="M14.49,133.11c-.08.28-.2.56-.56.6-.36.04-.48-.28-.67-.44,0-.36-.04-.72.32-.92.48-.16.91.24.91.76h0Z"/>
    <path class="st1" d="M10.68,133.19c.12.4-.16.68-.4.88-.48.16-.87-.2-1.07-.56.04-.36.32-.8.71-.92.36,0,.56.4.75.6h0Z"/>
    <path class="st1" d="M94.26,133.11c.08.4-.04.8-.44.96-.48.16-.87-.24-1.07-.56.2-.32.24-.76.71-.84.36,0,.6.16.79.44h0Z"/>
    <path class="st1" d="M12.55,133.27c.12.28-.12.4-.2.6-.2,0-.32.24-.55.16-.16-.2-.48-.28-.52-.56-.04-.4.24-.6.52-.76.4-.04.64.24.75.56h0Z"/>
    <path class="st1" d="M117.38,133.59c-.12.32-.36.48-.67.64-.32.08-.52-.2-.75-.32-.2-.16-.12-.52-.04-.72.4-.68,1.47-.36,1.47.4h0Z"/>
    <path class="st1" d="M120.4,133.75c-.12.44-.55.64-.95.68-.36-.16-.75-.44-.48-.92.16-.16.24-.32.48-.36.48-.16.83.2.95.6h0Z"/>
    <path class="st1" d="M101.56,134.03c.2.52-.28.68-.59.92-.28-.04-.52-.16-.75-.32-.08-.44.12-.84.56-1.04.36,0,.55.16.79.44h0Z"/>
    <path class="st1" d="M90.65,134.51c.2.08.12.36.08.48-.24.16-.55.56-.91.32-.28-.16-.48-.4-.4-.76.2-.44,1.03-.48,1.23-.04h0Z"/>
    <path class="st1" d="M92.87,134.79c.04.32-.04.48-.32.64-.28.28-.6-.04-.87-.12-.08-.16-.16-.4-.04-.6.12-.16.32-.28.52-.32.28.08.6.08.71.4h0Z"/>
    <path class="st1" d="M25.56,134.83c.24.24-.04.52-.08.76-.2.24-.63.44-.99.2-.4-.16-.36-.68-.28-1,.24-.08.24-.36.55-.36.36.04.56.2.79.4h0Z"/>
    <path class="st1" d="M105.8,134.99c.08.4-.32.56-.59.64-.48.16-.71-.2-.91-.52,0-.24.24-.4.32-.6.56-.24.91.16,1.19.48h0Z"/>
    <path class="st1" d="M103.66,134.99c.16.4-.28.6-.44.8-.28.12-.63.08-.87-.16-.2-.12-.2-.36-.2-.6.24-.2.36-.44.64-.52.36,0,.71.2.87.48h0Z"/>
    <path class="st1" d="M121.55,135.46c.08.56-.63.28-.91.44-1.67,1-3.81.24-5.4-.36.12-.52.71-.32,1.03-.52,1.71-1.08,3.45.24,5.15.32l.12.12h0Z"/>
    <path class="st1" d="M12.98,134.99l-.16.28c-1.47.88-3.37,1.48-5.12.92l-.16-.24c1.47-1.08,3.41-1.36,5.32-1.08l.12.12h0Z"/>
    <path class="st1" d="M109.85,135.26c0,.32-.16.6-.4.76-.4.12-.91,0-1.03-.44-.12-.32.2-.64.52-.76.28,0,.75.04.91.44h0Z"/>
    <path class="st1" d="M20.08,135.42c-.16.32-.08.64-.48.8-.4.16-.87-.2-.99-.52-.12-.44.2-.56.4-.76.48-.24.83.12,1.07.48h0Z"/>
    <path class="st1" d="M17.27,135.62c.12.28-.12.44-.2.64-.2.24-.56.2-.79.12-.28-.24-.55-.52-.44-.96.24-.2.36-.32.64-.44.36.08.71.24.79.64h0Z"/>
    <path class="st1" d="M112.62,136.54c-.04.36-.32.64-.63.72-.32.04-.6-.2-.75-.4-.12-.24-.08-.56.16-.76.08-.12.36-.12.52-.2.36.04.64.32.71.64h0Z"/>
    <path class="st1" d="M14.33,136.1c.12.32-.16.44-.2.68-.12.68-.55,1.12-.87,1.72-.75.92-1.83.92-2.9,1.2l-.16-.32c1.15-1.48,2.38-2.64,4.01-3.36l.12.08h0Z"/>
    <path class="st1" d="M110.64,136.98c.08.48-.32.56-.59.76-.36,0-.63-.2-.79-.48-.12-.44.28-.6.52-.8.4-.08.75.2.87.52h0Z"/>
    <path class="st1" d="M18.89,136.98c-.04.08.04.16.12.2-.04.44-.36.56-.6.76-.36,0-.63-.12-.87-.4-.16-.36,0-.8.4-.92.36-.04.83,0,.95.36h0Z"/>
    <path class="st1" d="M117.94,138.18c.4-.04.47-.52.91-.6.4-.08.75.16.95.44.16.48-.2.72-.52.92-.28.2-.87-.24-.83.28.28.2.52.48.56.8-.08.16-.36.12-.48.04-1.15-.48-2.38-1.28-2.86-2.48-.16-.36-.91-.64-.48-.96,1.15-.08,2.1.84,2.74,1.56h0Z"/>
    <path class="st1" d="M121.75,136.94c.2.2.12.56-.04.76-.2.4-.79.24-1.15.2-.2-.2-.4-.4-.32-.72.16-.24.32-.4.6-.52.36-.08.63.08.91.28h0Z"/>
    <path class="st1" d="M107.35,139.1c.36.44.71,1.12.87,1.6-.08.12-.28.08-.36.08-1.35-.76-3.09-1.6-3.61-3.2-.12-.16-.44-.36-.4-.64,1.03-.2,2.02.56,2.74,1.12.28.4.59.6.75,1.04h0Z"/>
    <path class="st1" d="M16.67,137.58c.16.36-.16.64-.36.8-.44.08-.67-.08-.91-.32-.28-.44.24-.8.56-.96.32-.04.52.28.71.48h0Z"/>
    <path class="st1" d="M112.31,138.5c.04.24-.28.4-.4.56-.32.04-.63.16-.91-.12-.08-.2-.28-.52-.04-.72.44-.56,1.07-.12,1.35.28h0Z"/>
    <path class="st1" d="M122.18,139.06c.12.48-.24.8-.56,1-.4.12-.71-.16-.95-.36-.2-.24-.04-.48,0-.76.28-.24.63-.44,1.03-.28.16.12.32.2.48.4h0Z"/>
    <path class="st1" d="M94.73,144.57c0,.48-.87.36-1.23.72-1.23.64-2.7.64-4.16.6v-.24c1.43-1.2,3.49-1.64,5.39-1.08h0Z"/>
    <path class="st1" d="M36.86,146.29c-.04.36-.24.56-.6.68-.28,0-.56-.16-.67-.4-.16-.48.24-.68.52-.88.36.04.67.32.75.6h0Z"/>
    <path class="st1" d="M94.06,146.73c-.08.36-.2.76-.6.92-.36.08-.6-.12-.87-.28-.2-.16-.08-.44-.12-.64.28-.72,1.31-.72,1.59,0h0Z"/>
    <path class="st1" d="M101.95,146.89c-.99.64-2.1,1.4-3.41,1.4l-2.14-.04-.2-.16c1.31-1.6,3.69-1.6,5.75-1.44v.24h0Z"/>
    <path class="st1" d="M25.99,147.85c0,.36-.16.64-.52.76-.4.08-.67-.08-.83-.36-.16-.36,0-.72.32-.92.44-.28.87.2,1.03.52h0Z"/>
    <path class="st1" d="M27.98,148.25c.12.2-.08.32-.16.52-.24.12-.55.2-.75,0-.28-.16-.36-.44-.24-.68.12-.24.36-.2.48-.36.28.12.56.24.67.52h0Z"/>
    <path class="st1" d="M12.79,152.28c-.4.48-1.03-.12-1.47-.36-1.39-.8-1.35-2.36-2.74-3.28.16-.48.51.04.79-.04.24.16.56.32.83.44,1.35.76,1.67,2.04,2.58,3.24h0Z"/>
    <path class="st1" d="M128.41,136.78c-.63-1.16-1.71-1.64-2.98-1.64-1.03.08-1.79.76-2.22,1.64-.24.88.08,1.68.75,2.2.28.12.63.08.79-.2.2-.52-.36-.52-.44-.92-.16-.56.04-1.04.44-1.4.4-.4,1.07-.2,1.55-.2.48.32.95.6,1.19,1.16.24.68.24,1.44,0,2.12-.44,1-1.43,1.8-2.46,2-3.29.48-39.43.32-39.43.32-4.24.4-9.08-.8-12.73,1.44-1.67.8-2.5,2.64-2.94,4.27-1.07.96-2.22,2.08-3.09,3.16l-.12-.12c.2-.96.63-1.8.83-2.76.59-.8.59-1.88,1.03-2.76,1.51-2.44,2.93-4.91,5.28-6.63.99-1.32,2.74-1.08,4.24-1.08,1.63.76,3.53,1,5.51.8.08-.08.12-.16.12-.28-.56-.52-1.47-.72-2.1-1.24-1.59-.76-3.09.24-4.76.12-.08-.08-.16-.12-.12-.24,1.51-1.12,3.21-1.92,4.92-2.64,1.39-.76,2.86-1.16,4.32-1.72.6,0,1.15-.52,1.71-.16l2.1-.56c.08.04.16.16.32.12,1.78-.6,4.05-.04,6.07-.08l.28.24,1.9.48c.71.08,1.03.92,1.79.96.4-.56-.44-.8-.63-1.16.87-.2,1.86.04,2.66.4l-.39.44c-.24.44.12.76.48.92.28.08.48-.12.67-.2.52-.36-.04-.72.12-1.04,2.94.52,5.75,1.24,8.45,2.4.75.24,1.47.8,2.3.76-.83-.76-1.98-1.16-3.02-1.6-.67-.4-1.63-.44-2.14-1,.12-.2.4-.12.51-.28,1.35-.16,2.5-1.16,3.45-2.24.08-.24.51-.16.48-.48-.36-.4-.95.12-1.43.08-1.67.32-2.38,2.28-4.05,2.64-2.02-.48-4.09-.96-6.11-1.48-.99-.16-2.06-.24-2.97-.64l-2.22-.2h-4.05c-.04-.08-.16-.12-.12-.24,1.43-.36,2.66-1.2,4.09-1.56l10.63-4.87c1.11-1,2.1-2.12,3.01-3.28.04-.32-.16-.64-.44-.76-.28-.12-.59-.08-.79.16-.48.36,0,.8,0,1.24-.48.64-1.23,1.2-1.82,1.56-.16-.04-10.95,4.91-10.95,4.91-1.59.68-3.17,1.44-4.84,1.8l-2.3.36c-.16.48-.55.76-.99.92-.63.12-1.15.52-1.82.52-5.16,2-10.51,4.12-14.6,8.19.24-.48.36-1.08.4-1.68-.08-.6-.04-1.28-.44-1.76-.09-.22-.38-.86-.29-1.09l-.58.38c-.36.88-.67,2.48-.32,3.4.12.72.71,1.56.16,2.2-1.9,2.32-2.98,5.11-4.24,7.75-.48-.08-.71-.52-.91-.96,1.35-1.72,2.42-3.64,2.82-5.83.28-.2.08-.72.36-.96-.08-.64.36-1.28.04-1.8.25-.87-1.16-1.68-.26-2.24l-.75.36c-1.71,2.24.89,5.59-1.06,7.75v.16c-.56.72-.83,1.44-1.59,1.92-.95-.4-1.31-1.48-1.86-2.28-.87-.84-.87-2.56-.36-3.72.36-1.16-.24-2.16-.36-3.2l-.4-.24c-.95,1.24-1.31,3.2-.56,4.67.4.72.44,1.72,1.03,2.32.36,1.16,1.07,1.92,1.71,2.95.16.4-.24.48-.44.68-.44-.28-.36-.92-.75-1.2-1.31-2.8-3.01-5.03-5.08-7.31-.08-.36-.44-.68-.24-1.08.75-.72.91-2.12.52-3.04-.08-.2-.32-.44-.28-.64l-.6-.48c.08,1.4-.83,2.64-.44,4.11v.08c-4.09-3.08-8.6-5.82-13.2-7.98l-.37,1.01c1.16.29,4.25,2.17,4.25,2.17,1.39.52,2.66,1.36,3.97,2.12,5.39,3,8.96,7.95,11.38,13.46.04.44.44.92.16,1.36-.83-1.28-2.02-2-3.01-3.04-.28-1.88-1.39-3.67-3.02-4.43-.6-.88-1.86-.96-2.86-1.24l-14.44-.08c-11.74-.16-22.45.36-34.11.16-1.63-.16-3.61-.72-4.09-2.44-.32-.6-.32-1.64,0-2.2.44-.76,1.23-1,2.02-1.08.63.08,1.07.68,1.35,1.12,0,.52-.44,1-.64,1.44.04.16.2.48.48.36.52-.2.91-.76,1.03-1.28.04-.28.16-.68-.12-.88-.24-.84-1.11-1.44-1.86-1.64-.99-.08-2.02.2-2.7.92-.95.8-.91,2.24-.63,3.36.63,1.76,2.5,2.96,4.28,3.2l38.6.16c3.77.2,8.01-.44,11.82.32,1.39.44,2.86,1.48,3.21,3.04-.04.08-.16.04-.28.04-3.13-2.04-7.26-2.8-11.27-2.32-1.59-.08-3.01.52-4.44.92-.75.16-1.47-.2-1.94-.64-1.43-1.28-3.93-1.2-5.75-.72,0,.12-.04.24.04.28,1.94-.16,3.09,1.52,4.84,1.72.4.08.71-.36,1.07-.04-1.82.88-3.57,1.92-5.51,2.48-.6-.12-.91-.68-1.39-1-.75-.84-2.14-.48-3.17-.56-.36.08-.67-.16-.91,0,.32.64,1.03,1,1.71,1.32.99.44,2.14-.04,3.05.56-.24.28-.56.36-.83.56-1.86.72-3.41,2.4-5.47,2.28-2.18.24-4.4-.4-5.87-1.92-.63-1.56-2.26-2.4-4.01-2.32-.12.08-.28.08-.24.28.87.52,1.55,1.56,2.42,2.16.56.68,1.63,0,2.14.76.76.52,1.71.96,2.58,1.12.63.28,1.35.4,2.06.56l-.28.16c-3.61,1.2-7.77,1.32-11.82,1.16-1.19-.04-2.34-.4-3.53-.36.2.24.6.44.95.56-.32.2-.67.28-1.07.32-.48.12-1.03.16-1.51.4-.63-.04-1.19.2-1.7.4-.67.72-1.47,1.48-2.26,1.84,0,.16-.04.4.16.4.75-.32,1.71-.08,2.46-.4,1.31-.12,2.06-1.56,3.09-2.16,1.11-.88,2.7-.68,4.05-.48.79.2-.08.52.16,1.04.32.28.59.6,1.03.48.08-.08.16-.16.28-.2.24-.32.2-.68.04-1,.56-.36,1.31.04,1.9-.2,1.51-.04,3.02-.36,4.48-.4.24-.04.52-.28.75-.04-.12.32-.52.36-.36.8.08.36.48.52.79.6.4-.16.75-.44.6-.96-.08-.28-.4-.32-.6-.44.83-.4,1.79-.52,2.62-.92.6-.12,1.15-.32,1.67-.56.52-.04.95-.52,1.43-.32-.2.68-.48,1.32-.83,1.92-.63,2.12-1.11,4.91,0,6.95.12.04.16-.04.24-.08-.83-2.12-.36-4.55.36-6.55.56-3.4,4.05-4.39,6.55-5.67l.12.16c-.67,1.76-1.67,3.44-1.51,5.55.08.36-.16.72,0,.96.67-.36,1.11-1.16,1.47-1.84.28-1.8-.75-4.03,1.07-5.35,3.25-1.28,6.31-2.96,10.07-3,.12.12.4-.08.44.16-.79.88-1.94,1.72-2.3,2.8-1.27,1.76-1.23,4.75-.67,6.91.36,1.24-.71,1.92-1.23,2.88-.25.34-.32.92-.54,1.31l.78.09c.67-.72,1.31-1.6,1.35-2.64.08.4.44.72.75.8.28-.44-.24-.76-.28-1.2.64-.36.91.44,1.43.6.83.2,1.55.56,2.42.56l.28-.28c-.87-1.36-2.62-1.6-4.13-1.68-.79-1.32-.79-2.96-.71-4.55.16-.84.32-1.72.79-2.48.2-.56.75-1.08,1.11-1.52.71-.68,1.63-1.16,2.5-1.36h.12c0,.08.04.12.04.12-1.07.84-1.19,2-1.82,3.04-.68,1-.99,2.36-.36,3.47.24.52.12,1.32.67,1.68.51-.72.56-1.64.83-2.44-.12-1.32-.91-2.56-.16-3.83.4-1,1.23-1.4,2.14-1.76,2.18-.2,4.09.92,5.99,1.76.4.28,1.07.52,1.15,1.08-.04,1.08-.63,2.16-1.47,2.68-1.07.64-2.62.72-3.61-.04-.59-.6-.83-1.64-.63-2.44.44-.48,1.03-.88,1.75-.64.4.2.75.6,1.27.36.2-.12.28-.44.16-.64-.44-.24-.59-.84-1.19-.92-.75-.12-1.67-.08-2.18.44-.83.72-1.15,1.8-.91,2.8.28,1.28,1.23,2.2,2.46,2.56,1.83.44,3.73-.12,4.88-1.68.48-.52.59-1.08.87-1.72,1.9,1.16,3.33,3.2,4.09,5.27,0,.68.2,1.4.04,2l1.39.12c-.12-.32,0-.68.12-.96.52-2.64,2.14-4.83,4.08-6.55.67-.4.52.52.67.8.59,1.52,1.98,2.6,3.45,3.04,1.66.28,3.25-.12,4.28-1.4.52-.96,1.15-2.36.28-3.36-.55-.68-1.31-1.04-2.18-1.04-1.03,0-1.67.72-2.18,1.48,0,.32-.04.68.24.84.16,0,.48.04.6-.2.08-.6.59-.88,1.07-1.2.44-.24.91,0,1.27.24.44.36.52.96.55,1.56-.08.76-.59,1.56-1.31,1.88-1.15.6-2.82.32-3.81-.36-.48-.52-.75-1.12-1.11-1.76-.08-.64-.32-1.2,0-1.84,1.74-1.04,3.57-1.8,5.67-2,.83.16,1.55.72,2.1,1.32,1.82,1.88-.4,4.55.87,6.63.48-.08.48-.72.67-1.12.6-1.44-.16-3-.51-4.39-.48-.88-.75-1.64-1.51-2.36.2-.08.28-.08.48-.08.83.56,1.75,1.2,2.42,2.08,1.15,1.88,1.75,4.11,1.55,6.55-.32,1.2-1.59,1.76-2.58,2.2-.4.32-.87.8-1.07,1.28.48.28,1.15,0,1.63-.2.75-.28,1.19-1.24,1.71-1.68.08.04.04.16.08.24.04.44-.2,1.04.2,1.16.2-.56.24-1.36.36-2.04.52.56.59,1.28.75,2,.36.72.95,1.68,1.9,1.8.24-.36-.04-.72-.12-1.04-.12-1-.95-1.52-1.51-2.24-1.39-1.92-.75-4.91-1.82-7.07-.4-1.16-1.23-2-2.14-2.96l.16-.16c1.94-.04,3.57.6,5.35.96,2.18,1.08,5.35.84,6.39,3.68.44,1.6,1.15,3.08,2.26,4.31l.12-.08c.24-.4.24-1.08,0-1.48-.24-2-1.98-2.48-2.9-4.15l.12-.16c.95.28,1.94.52,2.9.92,3.17.88,5.39,4,5.79,7.23,0,2.56-.48,4.67-1.47,6.83-.12.32-.67.68-.32.96.44-.32.52-.84.75-1.2,1.31-2.2,1.98-5.23,1.31-8.03-.04-.52-.63-.92-.36-1.44.2.24.44.28.68.36.24-.16.6-.16.75-.44.04-.24.2-.52,0-.72-.24-.36-.75-.36-1.15-.28-.2.24-.44.56-.48.88-.4-.68-.79-1.56-1.43-2.12l.08-.12c1.79.6,3.41,1.48,5.24,1.96.4.24.83.44,1.39.44,1.55.6,3.25.84,4.88,1.24,1.19-.12,2.18.44,3.37.16v-.08l-.04.04c-.44-.56-1.39-.04-1.9-.44-2.74-.28-5.35-1-7.81-1.96.04-.12.2-.08.32-.08.4-.2.67-.56.63-1-.2-.28-.52-.44-.91-.44-.24.12-.56.4-.6.68.04.32.32.68.6.76-.08.08-.24.04-.36.04-1.23-.56-2.42-1.08-3.61-1.64-.44-.08-.79-.44-1.23-.52-.91-.44-1.82-.88-2.74-1.24-2.54-1.32-5.35-2.04-8.05-3-.6-.16-1.15-.32-1.71-.48-.99-.28-1.98-.52-2.97-.8-3.37-.84-7.89-.92-10.83.92-.48-.16-.75.6-.99.12.83-2.2,3.25-2.92,5.43-3,15.91-.16,30.82-.28,46.49-.52,1.83,0,3.61-.64,4.56-2.28.67-.96.79-2.6.28-3.68h0ZM65.34,151.52c-.16.48-.48.88-.44,1.4l-.16.08c.12-.6-.48-.96-.32-1.6-.32-.48-.32-1.08-.59-1.6-.36-.64.32-.92.59-1.36.56.24.75.76,1.15,1.24.24.68-.28,1.2-.24,1.84h0Z"/>
    <path class="st1" d="M108.38,149.01c0,.12.24.16.16.36-1.39,1.24-3.33,1.6-5.31,1.68-.16.04-.32.16-.51.12-.12-.08-.16-.2-.08-.28,1.43-1.56,3.61-2.36,5.75-1.88h0Z"/>
    <path class="st1" d="M101.99,149.65c.16.56-.2.88-.64,1.08-.44-.04-.67-.32-.87-.64-.12-.32.16-.48.28-.68.32-.32,1.07-.32,1.23.24h0Z"/>
    <path class="st1" d="M26.59,149.73c.08.28.04.64-.2.84-.16.2-.52.24-.72.2-.28-.04-.44-.36-.51-.6,0-.36.2-.56.51-.76.32,0,.67-.04.91.32h0Z"/>
    <path class="st1" d="M19.49,152.32v.28c-.95.2-1.86-.04-2.58-.6-.55-.8-1.19-1.6-2.1-2,0-.12-.24-.28,0-.36,1.98,0,3.17,1.6,4.68,2.68h0Z"/>
    <path class="st1" d="M114.41,149.69c-.91,1.36-1.71,3.04-3.33,3.64-.28,0-.52.4-.75.12.64-1.52,1.98-3.16,3.53-3.8.16,0,.39-.04.55.04h0Z"/>
    <path class="st1" d="M28.89,150.17c.04.44-.28.52-.56.76-.32.04-.48-.2-.68-.44-.16-.4.2-.56.4-.76.32-.08.68.16.83.44h0Z"/>
    <path class="st1" d="M119.41,150.41c-.36.52-.2,1.28-.55,1.84-.79.92-1.47,1.96-2.74,2.16-.2-.4.28-.8.48-1.16.56-1.2,1.35-2.56,2.62-3.08l.2.24h0Z"/>
    <path class="st1" d="M7.19,150.76c.12.28.24.56,0,.88-.24.2-.59.28-.91.16-.36-.2-.48-.64-.32-.96.24-.36.95-.56,1.23-.08h0Z"/>
    <path class="st1" d="M4.93,151.24c.04.2.16.36.12.56-.12.2-.32.44-.55.48-.44.08-.71-.16-.91-.52-.04-.36.08-.68.39-.84.36-.16.76.04.95.32h0Z"/>
    <path class="st1" d="M9.61,151.48c.08.32.16.88-.32.96-.56.24-.87-.16-1.19-.48,0-.36.2-.64.48-.8.4-.04.75,0,1.03.32h0Z"/>
    <path class="st1" d="M16.12,152c-.04.28.04.68-.28.76-.2.2-.56.12-.75.08-.08-.24-.52-.44-.28-.72.16-.2.32-.32.55-.44.24.12.6,0,.75.32h0Z"/>
    <path class="st1" d="M123.21,152.28c-.12.28-.28.64-.6.64-.36-.04-.71-.08-.91-.44-.16-.44.2-.68.52-.8.4,0,.91.16.99.6h0Z"/>
    <path class="st1" d="M115.96,152.48c.04.32-.32.56-.48.68-.56.24-1.03-.16-1.23-.6.08-.36.36-.6.68-.72.51-.04.79.24,1.03.64h0Z"/>
    <path class="st1" d="M120.87,152.4c0,.28-.16.56-.36.68-.32.12-.71.08-.95-.16-.36-.32-.08-.6.16-.84.36-.2,1.03-.16,1.15.32h0Z"/>
    <path class="st1" d="M6.16,153.08c.08.44-.08.84-.48,1-.36,0-.75-.2-.87-.56-.04-.36.08-.72.4-.84.4-.12.71.12.95.4h0Z"/>
    <path class="st1" d="M113.97,153.52c.12.44-.12.84-.56,1.04-.32.08-.52-.08-.75-.28-.16-.2-.36-.64-.04-.84.32-.6,1.11-.36,1.35.08h0Z"/>
    <path class="st1" d="M27.5,153.96c.16.44-.32.52-.44.76-.16.08-.48.12-.6-.04-.2-.24-.44-.48-.32-.84.2-.16.28-.32.52-.4.44-.12.6.28.83.52h0Z"/>
    <path class="st1" d="M122.5,154.24c.08.28-.16.4-.2.6-.24.2-.63.24-.91.16-.36-.2-.36-.52-.36-.88.24-.16.28-.36.56-.44.36,0,.79.16.91.56h0Z"/>
    <path class="st1" d="M120.04,154.36c.16.48-.28.72-.6.84-.16.04-.4-.08-.44.16,1.03.52,1.67,1.36,2.46,2.12v.32c-1.43-.04-2.9-.4-3.93-1.52-.28-.2-.75-.2-1.07-.48.52-.52,1.47-.32,2.18-.36.52-.56-.6-.96.08-1.44.24-.04.4-.28.71-.2.28.12.44.32.6.56h0Z"/>
    <path class="st1" d="M103.82,154.4c.08.2-.16.44-.2.64-.24.24-.6.28-.87.16-.2-.28-.52-.52-.4-.92.32-.6,1.35-.48,1.47.12h0Z"/>
    <path class="st1" d="M15.13,155.8c-.12.36-.28.6-.67.64-.32-.04-.59-.16-.71-.48-.04-.28.16-.44.2-.64.44-.36,1.23-.12,1.19.48h0Z"/>
    <path class="st1" d="M18.34,155.28c0,.56-.6.88-.79,1.44-.6,1.32-1.66,2.52-3.17,2.64-.16-.36.52-.8.67-1.16.63-1.36,1.9-2.08,3.05-2.92h.24Z"/>
    <path class="st1" d="M102.87,155.84c.04.44-.36.76-.68.92-.36.12-.63-.16-.83-.32-.32-.32-.12-.64.04-.96.48-.48,1.15-.08,1.47.36h0Z"/>
    <path class="st1" d="M105.33,156.12c-.04.44-.32.76-.71.88-.08-.12-.28-.04-.4-.08-.28-.16-.52-.4-.52-.72.2-.2.28-.52.56-.56.36-.04.95,0,1.07.48h0Z"/>
    <path class="st1" d="M24.49,156.08c.04.44-.28.68-.59.84-.36.04-.6-.2-.75-.48-.08-.36.28-.6.48-.8.48-.16.6.2.87.44h0Z"/>
    <path class="st1" d="M27.23,156.24c-.12.36-.36.6-.75.68-.28-.08-.59-.16-.71-.48-.04-.4.28-.6.55-.8.4,0,.83.16.91.6h0Z"/>
    <path class="st1" d="M113.85,159.04c.2.16.55.36.47.64-.63.28-1.15-.44-1.74-.56-.95-.96-1.67-2-2.06-3.2.36-.36.75.08,1.07.2.91.76,1.78,1.76,2.26,2.92h0Z"/>
    <path class="st1" d="M115.32,156.24c.12.28.08.6-.08.88-.24.4-.75.32-1.11.24-.2-.24-.56-.56-.32-.92.12-.32.48-.4.75-.52.28-.04.48.2.75.32h0Z"/>
    <path class="st1" d="M30.87,157.28c.04.32.12.8-.28,1-.36.08-.83-.04-.95-.48-.2-.48.24-.56.48-.8.32-.08.51.08.75.28h0Z"/>
    <path class="st1" d="M105.21,159.87c.55.8.95,1.8,1.03,2.84-.12.28.2.56-.04.76h-.16c-1.79-1.28-2.18-3.08-2.86-4.87-.16-.08-.2-.24-.16-.4.4-.36.67.36,1.07.48l1.11,1.2h0Z"/>
    <path class="st1" d="M36.03,158.52s0,.08.04.08c-1.59,1.12-3.81,1.8-5.63.72-.04-.12.04-.32.2-.36,1.15-.36,2.26-.92,3.49-.76l1.9.32h0Z"/>
    <path class="st1" d="M26.99,158.72c-1.35.84-2.58,2.48-4.24,2.88-.32.12-.51.56-.91.32.71-2.16,3.05-3.32,5.16-3.52v.32h0Z"/>
    <path class="st1" d="M102.87,160.51c.12.32,0,.76-.32.84-.2.2-.59.2-.75,0-.36-.16-.36-.52-.36-.8.12-.28.4-.32.59-.44.36.08.63.08.83.4h0Z"/>
    <path class="st1" d="M99.57,160.71c-.24.56-.91.88-1.43,1.04-1.35.48-2.58-.16-3.77-.48.04-.32.44-.2.63-.4,1.31-.28,2.66-.56,4.04-.2.12-.08.4-.12.52.04h0Z"/>
    <path class="st1" d="M26.99,161.87c-.12.16-.16.52-.48.64-.28.12-.55,0-.79-.16-.08-.24-.36-.44-.16-.72.08-.28.4-.36.63-.44.4.04.71.28.79.68h0Z"/>
    <path class="st1" d="M29.33,162.23c-.12.24-.24.6-.55.76-.32.08-.56-.08-.79-.28-.12-.24-.24-.52-.12-.8.08-.2.36-.24.56-.36.4-.04.75.36.91.68h0Z"/>
    <path class="st1" d="M102.11,162.63c.04.32-.12.52-.28.76-.2.28-.59.32-.87.16-.28-.04-.36-.36-.48-.56-.24-.32.16-.52.28-.8.44-.36,1.15-.16,1.35.44h0Z"/>
    <path class="st1" d="M103.86,162.55c.04.2.16.4.08.56-.24.2-.4.72-.87.52-.24.08-.36-.24-.47-.32-.16-.4-.04-1,.47-1.08.36-.12.6.2.79.32h0Z"/>
    <path class="st1" d="M27.9,163.71c.08.44-.08.84-.4,1.08-.44.08-.99.08-1.15-.44-.04-.4,0-.92.48-1.16.4-.04.87.04,1.07.52h0Z"/>
    <path class="st1" d="M30.16,163.55c-.08,1.12-.32,2.48-1.43,3.12-.64.12-1.27.72-1.9.32v-.2c.83-1.2,2.34-2.12,3.33-3.24h0Z"/>
    <path class="st1" d="M95.89,164.47c.16.24-.12.44-.24.64-.24.28-.68.16-.95.04-.28-.12-.32-.52-.2-.8.08-.24.32-.36.52-.44.36-.04.67.28.87.56h0Z"/>
    <path class="st1" d="M34.13,166.31c.55.92.24,2.16.55,3.16-.67.08-.95-.68-1.39-1.08-.87-1.2-.75-2.8-1.15-4.19.08-.12.2-.12.28-.08.59.4,1.03,1.16,1.51,1.68-.08.28.24.28.2.52h0Z"/>
    <path class="st1" d="M97.87,164.79c0,.32-.36.4-.56.6-.28-.04-.52-.16-.75-.36-.12-.4.2-.52.4-.72.4-.16.79.04.91.48h0Z"/>
    <path class="st1" d="M102.59,168.34c0,.12-.04.36-.24.28h-.16c-1.15-1.04-2.3-2.2-2.14-3.79l.24-.04c1.07.92,2.26,1.92,2.3,3.56h0Z"/>
    <path class="st1" d="M99.61,167.06c.04.32-.16.56-.36.76-.44.12-1.11.08-1.19-.52-.04-.4.4-.6.6-.8.48-.12.79.2.95.56h0Z"/>
    <path class="st1" d="M96.99,167.9c-.55,1.48-2.06,2.24-3.09,3.36-.2-.12-.12-.44-.08-.6.4-1.52,1.59-3,3.05-3.6.63.08,0,.52.12.84h0Z"/>
    <path class="st1" d="M99.97,169.1c0,.36-.36.52-.55.72-.32-.04-.63-.12-.87-.44-.04-.4.28-.52.51-.72.4-.08.75.12.91.44h0Z"/>
    <path class="st1" d="M70.46,96.57c.54,0,.98.44.98.99s-.44.99-.98.99h-11.76c-.54,0-.98-.44-.98-.99s.44-.99.98-.99h11.76ZM62.14,98.28c1.15,0,.06-1.39-.56-1.39h-1.15c-1.15,0-.06,1.39.55,1.39h1.15ZM66.96,98.28c1.15,0,.06-1.39-.56-1.39h-1.15c-1.15,0-.06,1.39.56,1.39h1.15ZM70.51,96.89h-.44c-1.15,0-.17,1.39.44,1.39.77,0,.82-1.39,0-1.39h0Z"/>
    <path class="st1" d="M69.42,110.07l2.25.86,2.21-.86-.87,3.31,1.75-.36-.6,2,.6,1.92-1.55-.42.68,3.57-2.21-.86-2.25.86.92-3.57-1.79.5.48-2.01-.48-1.92,1.71.28-.84-3.31h0ZM72.74,116.03c.5,0,.55-.7.55-1.3,0-1.36-1.08,0-1.63-1.28-.4,1.08-1.51.08-1.51,1.24,0,.8,0,1.34.79,1.34h1.8ZM70.54,114.81c0,.52.7.17,1.21.17s1.21.35,1.21-.17c0-.74-.7-.48-1.21-.48s-1.21-.26-1.21.48h0Z"/>
    <polygon class="st1" points="64.16 114.93 64.16 114.51 63.79 114.44 64.08 114.14 63.9 113.8 64.29 113.84 64.52 113.43 64.75 113.83 65.14 113.8 64.95 114.14 65.25 114.44 64.87 114.51 64.87 114.93 64.52 114.67 64.16 114.93 64.16 114.93"/>
    <polygon class="st1" points="62.42 117.18 62.42 116.76 62.04 116.69 62.34 116.38 62.16 116.05 62.54 116.09 62.78 115.68 63 116.08 63.39 116.05 63.21 116.38 63.51 116.69 63.13 116.76 63.13 117.18 62.78 116.91 62.42 117.18 62.42 117.18"/>
    <polygon class="st1" points="65.38 116.9 65.38 116.47 65 116.4 65.3 116.1 65.12 115.76 65.5 115.8 65.74 115.39 65.96 115.79 66.35 115.76 66.17 116.1 66.47 116.4 66.09 116.47 66.09 116.9 65.74 116.63 65.38 116.9 65.38 116.9"/>
    <polygon class="st1" points="65.73 118.57 65.73 118.33 65.52 118.29 65.68 118.12 65.58 117.93 65.8 117.95 65.93 117.72 66.06 117.95 66.28 117.93 66.18 118.12 66.34 118.29 66.13 118.33 66.13 118.57 65.93 118.42 65.73 118.57 65.73 118.57"/>
    <polygon class="st1" points="62.98 120.49 62.98 119.77 62.33 119.65 62.84 119.12 62.53 118.55 63.19 118.62 63.59 117.91 63.98 118.61 64.65 118.55 64.34 119.12 64.84 119.65 64.2 119.77 64.2 120.49 63.59 120.04 62.98 120.49 62.98 120.49"/>
    <polygon class="st1" points="64.38 82.81 65.78 86.24 69.31 85.2 67.52 88.44 70.53 90.58 66.9 91.19 67.12 94.89 64.38 92.41 61.64 94.89 61.86 91.19 58.23 90.58 61.24 88.44 59.44 85.2 62.98 86.24 64.38 82.81 64.38 82.81"/>
    <path class="st1" d="M51.58,159.85c-.42.16-.58.27-.48.71l.5,2.11c.09.39.12,1-.14,1.38-.31.45-.96.74-1.44.85-.35.08-1.09.22-1.7-.03-.4-.17-.66-.35-.82-1.07l-.52-2.21c-.13-.55-.34-.52-.79-.45l-.04-.16,2.66-.64.04.16c-.52.14-.76.21-.62.79l.52,2.21c.09.38.31,1.29,1.44,1.01,1.38-.33,1.16-1.35,1.06-1.77l-.48-2.01c-.09-.4-.24-.61-.93-.47l-.04-.17,1.73-.41.04.16h0Z"/>
    <path class="st1" d="M55.52,160.29c-.24-.43-.88-1.09-1.82-.88-.41.09-.8.39-.71.82.08.36.26.47.99.6l1.27.22c.29.05.98.3,1.14,1.03.13.58-.2,1.5-1.65,1.82-.75.17-1.16.02-1.4.08-.17.04-.18.17-.19.28l-.23.05-.36-1.64.23-.05c.31.63.93,1.28,1.93,1.06.95-.21.84-.88.82-.96-.1-.44-.5-.52-1.06-.61l-.58-.09c-1.47-.24-1.6-.81-1.66-1.12-.09-.4-.04-1.36,1.46-1.69.63-.14,1.05,0,1.28-.06.18-.04.2-.15.21-.28l.24-.05.32,1.44-.22.05h0Z"/>
    <path class="st1" d="M60.76,162.91l-2.88.28-.02-.17c.58-.1.78-.13.72-.7l-.34-3.56c-.56.08-1.39.19-1.45,1.29l-.23.02-.1-1.36,4.83-.46.14,1.36-.23.02c-.26-1.07-1.1-1.02-1.66-.99l.34,3.56c.06.57.25.57.85.54l.02.17h0Z"/>
    <path class="st1" d="M67.48,162.91l-1.66-.03-1.63-2.16h-.22s-.03,1.33-.03,1.33c-.01.54.17.57.7.64v.17s-2.74-.05-2.74-.05v-.17c.55-.04.72-.06.73-.61l.06-3c.01-.58-.24-.6-.7-.64v-.17s2.61.05,2.61.05c.57.01,2.28.1,2.26,1.24-.02.84-.85,1.03-1.29,1.14l1.59,1.97c.11.12.23.13.33.14v.17h0ZM63.98,160.5c1.06.01,1.48-.13,1.5-1.01.01-.69-.31-.99-.96-1-.44,0-.46.07-.51.28l-.03,1.73h0Z"/>
    <path class="st1" d="M72.79,163.59l-2.6-.33.02-.17c.5.03.65.04.67-.18.02-.18-.17-.71-.26-.94l-1.81-.23c-.28.46-.45.72-.46.82-.03.26.35.32.62.37l-.02.17-1.63-.2.02-.17c.44,0,.58-.21.88-.69l2.24-3.47.23.03,1.35,3.77c.27.77.37,1.01.76,1.05l-.02.17h0ZM70.54,161.69l-.61-1.74-.96,1.54,1.57.2h0Z"/>
    <path class="st1" d="M77.5,164.55l-4.6-.84.03-.17c.45.03.7.06.77-.35l.59-3.23c.08-.44-.24-.51-.6-.6l.03-.17,2.78.51-.03.17c-.56-.08-.81-.12-.92.47l-.57,3.15c-.06.32.11.41.64.5,1.2.22,1.75-.25,2.25-.94l.23.04-.6,1.46h0Z"/>
    <path class="st1" d="M80.56,165.23l-2.77-.58.04-.17c.43.06.75.1.83-.32l.66-3.21c.09-.44-.28-.53-.64-.63l.03-.16,2.77.58-.03.17c-.37-.06-.76-.14-.85.31l-.67,3.21c-.09.43.23.51.65.63l-.03.17h0Z"/>
    <path class="st1" d="M86.18,165.95l-2.61-.27.02-.17c.5.02.65.03.67-.2.02-.18-.19-.71-.28-.94l-1.81-.19c-.28.46-.43.73-.44.83-.03.26.36.32.63.36l-.02.17-1.64-.17.02-.17c.44,0,.58-.23.87-.71l2.16-3.51.23.02,1.43,3.74c.29.76.39,1,.78,1.03l-.02.17h0ZM83.89,164.1l-.65-1.73-.92,1.56,1.57.16h0Z"/>
    <path class="st1" d="M65.49,111.17c0-1.63-.91-.1-1.42-1.49-.37,1.17-1.47.19-1.47,1.45,0,.48.13.76.36.91v.48c0,.13.1.23.22.23h1.73c.12,0,.22-.1.22-.23v-.52c.21-.18.35-.46.35-.83h0ZM64.08,111.48c-.48,0-1.12.33-1.12-.24,0-.8.54-.62,1.02-.62s1.21-.18,1.21.62c0,.56-.64.24-1.12.24h0Z"/>
    <path class="st1" d="M79.69,131.18c.41,0,.75-.29.75-.66s-.33-.66-.75-.66-.75.3-.75.66.33.66.75.66h0Z"/>
    <path class="st1" d="M76.17,107.02s-.35.59-.35.7c0,.22.16.39.36.39s.36-.18.36-.39c0-.01-.36-.7-.36-.7h0Z"/>
    <path class="st1" d="M52.21,107.02s-.35.59-.35.7c0,.22.16.39.36.39s.36-.18.36-.39c0-.01-.36-.7-.36-.7h0Z"/>
    <path class="st1" d="M58.2,107.02s-.35.59-.35.7c0,.22.16.39.36.39s.36-.18.36-.39c0-.01-.36-.7-.36-.7h0Z"/>
    <path class="st1" d="M64.19,107.02s-.35.59-.35.7c0,.22.16.39.35.39s.36-.18.36-.39c0-.01-.36-.7-.36-.7h0Z"/>
    <path class="st1" d="M70.18,107.02s-.35.59-.35.7c0,.22.16.39.36.39s.36-.18.36-.39c0-.01-.36-.7-.36-.7h0Z"/>
    <path class="st1" d="M52.23,115.25s.35.59.35.7c0,.22-.16.39-.36.39s-.36-.17-.36-.39c0-.01.36-.7.36-.7h0Z"/>
    <path class="st1" d="M52.23,123.24s.35.59.35.7c0,.22-.16.39-.36.39s-.36-.17-.36-.39c0-.01.36-.7.36-.7h0Z"/>
    <path class="st1" d="M53.18,129.56s.35.59.35.7c0,.21-.16.39-.36.39s-.36-.18-.36-.39c0-.01.36-.7.36-.7h0Z"/>
    <path class="st1" d="M58.21,132.92s.35.59.35.7c0,.22-.16.39-.35.39s-.36-.17-.36-.39c0-.01.36-.7.36-.7h0Z"/>
    <path class="st1" d="M76.48,115.25s-.35.59-.35.7c0,.22.16.39.35.39s.36-.17.36-.39c0-.01-.36-.7-.36-.7h0Z"/>
    <path class="st1" d="M76.48,123.24s-.35.59-.35.7c0,.22.16.39.35.39s.36-.17.36-.39c0-.01-.36-.7-.36-.7h0Z"/>
    <path class="st1" d="M75.52,129.56s-.35.59-.35.7c0,.21.16.39.36.39s.35-.18.35-.39c0-.01-.36-.7-.36-.7h0Z"/>
    <path class="st1" d="M70.49,132.92s-.35.59-.35.7c0,.22.16.39.36.39s.36-.17.36-.39c0-.01-.36-.7-.36-.7h0Z"/>
    <path class="st1" d="M64.38,136.49s-.35.59-.35.7c0,.22.16.39.35.39s.36-.18.36-.39c0-.01-.36-.7-.36-.7h0Z"/>
    <path class="st1" d="M74.12,124.57c.08.11.26.15.5.07l.23-.64s-.26-.3-.43-.26c-.64.15-1.32.23-1.69.84,0,.42.3.8.6.99.23-.08.26.15.41.27.04.19-.08.34-.26.34-.45-.46-1.24.15-1.58-.42.15-.57.45-1.21-.04-1.75.04-.11.23-.23.11-.34-.19-.53-.75-.11-1.09-.11-.56-.08-1.02.23-1.36.68.04.19.11.38.3.57.15-.04.23,0,.26.15l-.38.23c.11.11.11.27.15.42-.26.11-.53-.26-.64-.46,0-.3.04-.83-.38-.91-.07,0-.33.11-.33.11-.09.12-.15.35-.15.63s.15.68.15.68c0,0,1.16.86,1.43,1.39-.34.68-.34,1.63-1.13,2.01-.23.15-.23.38-.23.61l.19.15c.49-.27,1.43-.34,1.36-1.18.19-.34.38-.72.71-.99.38-.08.72.11.87.42-.11.57-.49.95-1.02,1.14-.08.08-.04.19-.04.3.15.27.57.15.79.11.64-.42.91-1.18,1.47-1.4.07.38-.75.49-.23.87.34-.08.79.04,1.02-.42-.26-.64.9-.95.19-1.52,0-.57.6-.8.56-1.4-.23-.61-.94-.61-1.13-1.18.23-.15.56-.11.79,0h0Z"/>
    <path class="st1" d="M46.6,131.47c.41,0,.75-.29.75-.66s-.34-.66-.75-.66-.75.29-.75.66.33.66.75.66h0Z"/>
    <path class="st1" d="M7.75,154.17c.41,0,.74-.32.74-.71s-.33-.71-.74-.71-.74.32-.74.71.33.71.74.71h0Z"/>
    <path class="st1" d="M32.48,159.68h-.05l-.05-.06h0v.04s0,.02.02.02h0s-.08,0-.08,0h0s.02,0,.02-.02v-.09s0-.02-.02-.02h0s.07,0,.07,0c.02,0,.07,0,.07.04,0,.02-.02.03-.04.03l.05.06s0,0,0,0h0ZM32.37,159.61s.04,0,.04-.03c0-.02-.01-.03-.03-.03-.01,0-.01,0-.02,0v.05h0Z"/>
    <path class="st1" d="M32.58,159.58s-.02-.04-.05-.04c-.01,0-.02,0-.02.02,0,.01,0,.02.02.02h.03s.03.03.03.05-.02.04-.06.04c-.02,0-.03,0-.04,0,0,0,0,0,0,0h0v-.05h0s.02.04.05.04c.03,0,.03-.02.03-.02,0-.01-.01-.02-.03-.02h-.02s-.04-.04-.04-.05c0-.01,0-.04.05-.04.02,0,.03,0,.04,0,0,0,0,0,0,0h0v.04h0Z"/>
    <path class="st1" d="M32.83,159.55s-.01,0-.02.01l-.05.12h0l-.04-.09h0l-.04.09h0l-.05-.12s0-.01-.02-.01h0s.07,0,.07,0h0s-.01,0-.01.01c0,0,0,0,0,0l.03.07h0l.03-.06v-.02s-.01,0-.03,0h0s.08,0,.08,0h0s-.02,0-.02.01c0,0,0,0,0,.01l.02.07h0l.03-.07s0,0,0,0c0,0,0,0-.02,0h0s.04,0,.04,0h0Z"/>
    <path class="st1" d="M32.84,159.68s.05-.01.06-.05c0,0,0,0-.01,0,0,0,0,0-.01,0-.02,0-.04,0-.04-.04,0-.01,0-.04.05-.04.02,0,.05.01.05.06,0,.04-.03.07-.1.08h0ZM32.89,159.62s.01,0,.01,0c0,0,0-.01,0-.02,0-.04,0-.05-.02-.05-.01,0-.01.01-.01.03,0,.03,0,.04.02.04h0Z"/>
    <path class="st1" d="M32.97,159.59s.03,0,.05,0c.01,0,.03.02.03.04,0,.03-.03.05-.07.05-.02,0-.03,0-.03-.02,0,0,0-.01.01-.01.02,0,.03.02.04.02,0,0,.02,0,.02-.02,0-.01-.01-.02-.03-.03-.02,0-.03,0-.05,0l.02-.07h.08v.03h-.08v.02h0Z"/>
    <path class="st1" d="M78.16,106.07v-.02h-27.64v.02h0l.02,21.12c0,2.15.91,4.04,2.17,4.62l10.63,6.75c.23.27.58.44.97.44.34,0,.64-.13.86-.34l10.8-6.85c1.26-.58,2.17-2.46,2.17-4.62l.02-21.12h0ZM77.38,127.48c-.14,1.6-.69,2.93-1.79,3.68l-10.42,6.62h-.06c-.22.17-.5.28-.8.28s-.59-.11-.82-.29l-10.4-6.61c-1.11-.75-1.65-2.08-1.79-3.68v-20.66h26.09v20.66h0Z"/>
    <path class="st1" d="M68.06,136.86l.34-.16c-.14.05-.24.11-.34.16h0Z"/>
    <path class="st1" d="M47.21,165.74l-2.61.3-.02-.17c.5-.09.64-.11.61-.34-.02-.18-.34-.65-.47-.85l-1.81.21c-.17.51-.27.8-.25.91.03.26.42.23.69.21l.02.17-1.63.19-.02-.17c.43-.1.51-.35.7-.88l1.36-3.9.23-.03,2.2,3.34c.45.68.6.89.98.84l.02.17h0ZM44.58,164.43l-1-1.54-.57,1.73,1.57-.18h0Z"/>
    <path class="st1" d="M92.99,155.84c-.48-1.24-1.47-2.08-2.7-2.48-1.27-.28-2.62-.08-3.45.88-1.43,1.16-.44,3.08-.4,4.63,0,.32.04.56-.28.72-5.75-.52-11.11-1.96-16.82-2.56-1.31-.23-2.63-.17-3.88-.43l-1.6-.17c-4.96.16-9.92.44-14.56,1.64-.99.32-2.1.4-3.09.76-.71-.12-1.31.4-1.98.2l-1.31.31c-.12.02-.27.01-.44-.03-.63-1.64,1.27-2.64.67-4.23-.52-.92-1.55-1.8-2.74-1.64-1.35-.16-2.54.6-3.17,1.64-.91,2,.24,4.08.6,6.03-.08.64.64,1.36,0,1.88-1.27-.88-2.94-1.36-4.48-.92-.48.24-1.35-.08-1.59.48,1.71.92,3.89.8,5.79.72.24-.08.4-.12.6.04.16,1.04-.2,2.44.44,3.36.71.96,1.9,1.2,3.05,1.32,3.65-.12,6.9-1.2,10.23-2.04.52-.04.91-.32,1.47-.32,1.78-.4,3.73-.72,5.63-.76-.83,1.08-1.31,2.28-1.67,3.6-.48,1.08.83,1.24,1.23,1.84-1.23.36-2.1,1.2-3.25,1.68-2.54-.08-4.68.88-7.06,1.16-.04.52.83.36.91.88-.12.36-.48.4-.75.6-.04.24,0,.28.24.32.24-.28.75-.08.99-.36.79,0,1.47-.24,2.22-.28.68-.28,1.43-.32,2.02-.8.83-.24,1.35-.8,2.18-1.04,1.19,0,2.26-.4,3.37-.48v.24c-.91,1.48-1.86,3-2.82,4.39-.16.28.04.56.28.64.56.16,1.11,0,1.55-.24.83-1.44,1.59-2.8,2.26-4.27.28-1.36,1.27-2.08,2.26-3,.16-.08.4-.32.56-.08-.79.92-1.31,1.8-1.9,2.8-.32,1.12-.4,2.56.59,3.48.48.4,1.19.28,1.83.32,1.55-.8,3.53.48,4.72-1.04.71-.12.83.72,1.23,1.12.67.2,1.39.88,2.06.4-.04-.44-.52-.84-.75-1.24-.48-.84-1.07-1.52-1.51-2.28-.2-.56-.55-.92-.64-1.48.72.24,1.35.72,2.14.84.67.28,1.51.24,2.14.64.52.68,1.31,1.08,1.98,1.52.99.48,2.1.56,3.13.96.4.04.99.36,1.27,0-.16-.2-.36-.32-.59-.44-.12-.52.71-.24.99-.64-.1-.2-.27-.27-.46-.3-.57-.3-1.98-.41-2.36-.62-.48-.08-.91-.28-1.39-.44-2.38,0-3.69-2.16-5.59-2.96.44-.4,1.11-.72,1.39-1.32.36-.56.48-1.48.12-2.12-.36-1.24-1.94-1.08-2.86-1.76l.12-.12c1.55-.08,2.9.28,4.28.56,3.81.52,7.34,1.96,11.31,2.04,2.18,0,4.92.12,5.99-2,.2-1.24.44-2.48.63-3.71.48-2,1.78-3.84,1.59-6.03h0ZM50.15,174.06l-.55-.52c.28-.36.87-.16,1.31-.4,1.03-.32,2.22-.72,3.37-.48-1.19.96-2.74,1.08-4.13,1.4h0ZM74.91,173.42c.95.43,2.86.85,4.23,1-.12.54-1.09.03-.98.8-1.23-.48-2.66-.72-3.57-1.68.08-.04.16-.16.32-.12h0ZM37.7,156.44c.12-.72.28-1.48.95-2,.95-.52,2.26-.4,3.13.12.28.16.48.4.64.76.2.68-.12,1.4-.6,1.8h-.4c0-.64,0-1.28.24-1.8-.04-.48-.44-.52-.75-.72-.67-.2-1.27.12-1.79.4-.4.48-.75,1.08-.51,1.76.28.44.04,1.04.2,1.52l-.12.16c-.47-.52-1.11-1.08-.99-2h0ZM39.56,157.58c.59.44,1.43.24,2.14.36.12.44.12,1-.2,1.36-.67-.16-1.55-.08-1.9-.72.08-.28-.12-.68-.04-1h0ZM39.44,156.24c.12-.32,0-.8.44-.88.28-.08.71-.08.75.24-.04.48-.08.96-.2,1.4-.56.04-.83-.28-.99-.76h0ZM58.04,169.06c-.2-1.4.36-2.6,1.27-3.6.55-.12,1.19-.24,1.7.08-1.03.28-2.34.52-2.58,1.84.04.52-.12.8.12,1.24.44.76,1.43.44,1.98,1.04,0,.2-.16.44-.36.48-.68-.4-1.51-.56-2.14-1.08h0ZM56.62,171.82c.95-.4,1.94-1.24,3.02-.88-.75.6-1.98.84-3.02.88h0ZM60.38,172.22c-.55,1.28-1.19,2.52-1.94,3.75-.08.2-.4.24-.63.28,0-.56.56-1,.79-1.48.83-1.08,1.07-2.24,2.02-3.28.24.24-.24.4-.24.72h0ZM61.38,169.9v.16h-.08v-.2h.16s-.12,0-.16.04h.08ZM61.02,168.82c-.67-.08-1.31-.28-1.9-.48-.4-.4,0-.84,0-1.28.56-.88,2.14-1.32,2.9-.52-.12.88-.44,1.64-.99,2.28h0ZM61.89,168.82c.12-.52.36-1.2.63-1.68-.04.52-.28,1.24-.63,1.68h0ZM62.33,165.59c-.52-.12-.79-.72-1.35-.72.48-.16.95-.12,1.51-.04.2.28-.12.52-.16.76h0ZM62.8,166.79h-.04v-.44h.04v.44h0ZM62.84,168.62c-.04-.16.08-.36.12-.56.2-.2.4.16.48.28-.12.2-.36.32-.6.28h0ZM63.44,166.15c.2-.56.24-1.04.6-1.48.4,0,.75,0,1.07.16.08.8,1.07,1.88,0,2.56-.36.16-.87.52-1.27.16-.52-.44-.6-.84-.4-1.4h0ZM66.33,165.03c-.08-.36.36-.08.52-.24l1.23.08c-.64-.08-1.43,1.4-1.75.16h0ZM68.32,165.55c-.48.16-.83.72-1.31.84.24-.44.83-.88,1.31-.84h0ZM66.65,168.02v.12h-.04v-.12h.04ZM66.73,170.46c-.04.08.04.2-.08.28l-.91-.72c.44-.08.75.12.99.44h0ZM65.66,169.22c.08-.08.28-.08.36,0h-.36ZM65.1,168.62c.16-.24.36-.6.63-.6,0,.04.04.08.08.12-.24.2-.44.4-.71.48h0ZM64.19,168.54h-.16l.24-.24c.12.08-.04.16-.08.24h0ZM64.31,170.06c.52-.56.99.32,1.19.76.6.88,2.14,1.68,1.55,2.88-.75.68-1.94.04-2.78.56-.44-.04-1.19.08-1.43-.36.44-1.28.83-2.72,1.47-3.84h0ZM63.2,170.82l.2-.32c-.32.96-.79,1.96-1.31,2.88-.24-.96.75-1.72,1.11-2.56h0ZM64.95,175.57c-.75.04-1.9.48-2.62-.16.04-.32-.32-.48-.28-.8.63-.24,1.19.52,1.79-.04.91.04,1.86-.12,2.78.08.44.12,1.11-.72,1.19.12-.32,1.32-1.9.4-2.85.8h0ZM67.25,169.82v-.12h.08v.12h-.08ZM67.48,172.34c.04.4.44.56.2.92-.08-.16-.32-.52-.2-.92h0ZM68.6,174.74l-.2.08c-.2-.16-.12-.6-.08-.84.24.2.44.48.28.76h0ZM70.58,175.69c-.04.12-.24.12-.32.04-1.19-1.52-1.75-3.12-2.5-4.79l.16-.04c.95,1.56,1.71,3.28,2.66,4.79h0ZM72.05,172.02c-.08.04-.08.12-.08.16-1.15.04-1.9-.64-2.78-1.24l-.04-.2c1.07.08,1.94.76,2.9,1.28h0ZM71.01,166.71c.48.12.52.64.56,1.04-.04.88-.52,1.64-1.35,1.96-.44.24-1.11.32-1.55.16.95-.04,1.98-.4,2.38-1.36l-.04-1.8h0ZM70.14,166.54c.2.56.55,1.08.36,1.76-.4.76-1.19.76-1.9.92-.36.04-.64-.08-.91-.28.04-.16-.04-.28-.16-.4.12-.52-.91-1.04-.2-1.48.63-.6,2.14-1.96,2.82-.52h0ZM90.29,163.63c-.32.4-.04,1.04-.44,1.4,0,.72-.6,1.08-1.11,1.36-4.72,1.04-9.36-.56-13.92-1.36-6.39-1.4-13.84-1.8-20.35-.32-3.05.56-6.03,1.28-8.96,2.12-1.83.24-3.81.52-5.55-.04-1.43-.68-.83-2.52-1.27-3.8.08-1-.28-1.8-.32-2.76-.12-.32-.2-.72-.16-1.04.59.08,1.19.52,1.82.68,3.33.64,6.31-.44,9.4-1,2.98-.64,6.03-1.16,9.16-1.4,3.57-.04,7.22-.24,10.63.36,1.11.04,2.06.32,3.13.4,2.22.28,4.29.88,6.55,1.04.36.12.79.12,1.19.2,3.57.56,7.58,1.56,10.99,0,0,1.44-.59,2.76-.79,4.16h0ZM89.18,158.76c.04.64-.56.48-.87.72h-.95c-.2-.32-.12-.8-.12-1.12.63.12,1.35.12,1.94.4h0ZM88.74,157.76c.44-.44-.12-2.96,1.11-1.32,0,.32.04.8-.28,1.04-.2.16-.52.48-.83.28h0ZM91.96,157.36c-.36.72-.91,1.24-1.71,1.36.04-.96.91-1.64.6-2.72-.52-.76-1.55-1-2.5-.8-.36.24-.2.64-.32,1l-.16,1.32c-.79,0-.83-.72-1.07-1.28.04-.84.4-1.68,1.23-2.08.63-.32,1.67-.28,2.3.08.52.12,1.11.36,1.31.84.6.56.44,1.56.32,2.28h0Z"/>
  </g>
  <g id="Aus_Govt">
    <g>
      <path class="st0" d="M151.59,124.81h-6.17l-.73,1.7c-.24.57-.36,1.04-.36,1.41,0,.49.2.85.59,1.08.23.14.8.24,1.71.31v.48h-5.81v-.48c.63-.09,1.14-.35,1.55-.77.4-.43.9-1.31,1.5-2.64l6.25-13.95h.24l6.3,14.33c.6,1.36,1.1,2.21,1.48,2.56.29.27.7.42,1.24.46v.48h-8.46v-.48h.35c.68,0,1.16-.09,1.43-.28.19-.14.28-.33.28-.59,0-.15-.03-.31-.08-.48-.02-.08-.15-.4-.39-.97l-.93-2.18h0ZM151.15,123.85l-2.6-6.02-2.68,6.02h5.29Z"/>
      <path class="st1" d="M170.09,117.73v9.44c0,.92.09,1.5.26,1.73.17.22.52.37,1.04.43v.46h-4.91v-1.61c-.58.69-1.15,1.19-1.73,1.51-.58.31-1.22.46-1.93.46s-1.28-.21-1.82-.62c-.52-.42-.88-.91-1.06-1.47-.18-.56-.27-1.53-.27-2.93v-4.78c0-.91-.09-1.48-.26-1.7-.16-.22-.51-.37-1.04-.44v-.48h4.91v8.24c0,.86.04,1.41.12,1.66.09.25.21.44.39.57.18.13.39.19.62.19.31,0,.59-.08.84-.25.34-.22.76-.67,1.24-1.35v-6.45c0-.91-.09-1.48-.26-1.7-.16-.22-.51-.37-1.04-.44v-.48h4.91Z"/>
      <path class="st1" d="M179.83,117.39l.19,4.11h-.44c-.52-1.22-1.07-2.05-1.64-2.5-.56-.45-1.12-.67-1.68-.67-.35,0-.65.12-.9.36-.25.23-.37.5-.37.81,0,.23.09.46.26.67.27.35,1.04.96,2.31,1.82,1.26.85,2.09,1.58,2.49,2.18.4.59.61,1.26.61,2,0,.67-.17,1.33-.5,1.97-.34.64-.81,1.14-1.42,1.48-.61.34-1.29.52-2.02.52-.58,0-1.34-.18-2.31-.54-.26-.09-.43-.14-.53-.14-.28,0-.52.21-.71.64h-.43l-.21-4.33h.44c.39,1.13.92,1.99,1.59,2.55.68.57,1.32.85,1.92.85.41,0,.75-.12,1.01-.37.27-.26.4-.57.4-.93,0-.41-.13-.77-.39-1.07-.26-.3-.83-.76-1.73-1.37-1.31-.91-2.17-1.61-2.55-2.09-.57-.7-.85-1.48-.85-2.33,0-.93.32-1.77.95-2.51.64-.76,1.57-1.13,2.78-1.13.65,0,1.28.16,1.9.48.23.13.42.19.57.19.15,0,.28-.03.37-.09.09-.07.24-.25.45-.55h.44Z"/>
      <path class="st1" d="M186.21,113.32v4.41h2.86v1.28h-2.86v7.44c0,.7.03,1.15.09,1.35.07.2.18.36.35.49.16.12.31.18.45.18.56,0,1.09-.43,1.59-1.28l.39.28c-.7,1.65-1.83,2.47-3.39,2.47-.77,0-1.41-.21-1.95-.63-.52-.43-.86-.91-1.01-1.43-.09-.29-.13-1.08-.13-2.37v-6.51h-1.57v-.45c1.08-.76,2-1.57,2.76-2.41.76-.84,1.43-1.78,2-2.82h.43Z"/>
      <path class="st1" d="M194.96,117.73v2.73c.8-1.25,1.5-2.07,2.1-2.47.6-.41,1.18-.62,1.74-.62.48,0,.86.15,1.15.45.29.29.44.71.44,1.25,0,.58-.14,1.02-.43,1.34-.28.32-.61.48-1.01.48-.46,0-.85-.15-1.19-.44-.34-.29-.53-.46-.59-.49-.09-.05-.18-.08-.3-.08-.25,0-.49.09-.71.28-.35.29-.62.71-.8,1.25-.27.83-.41,1.75-.41,2.76v3.49c.01.49.04.8.1.94.1.23.25.4.45.52.21.1.55.17,1.03.19v.46h-6.51v-.46c.52-.04.88-.18,1.06-.43.19-.25.28-.9.28-1.95v-6.66c0-.69-.03-1.13-.1-1.31-.09-.24-.21-.42-.37-.53-.16-.11-.45-.19-.86-.23v-.48h4.92Z"/>
      <path class="st0" d="M207,128c-1.47,1.3-2.79,1.95-3.96,1.95-.69,0-1.26-.22-1.71-.67-.46-.46-.68-1.02-.68-1.7,0-.92.4-1.74,1.19-2.48.79-.74,2.51-1.72,5.17-2.94v-1.21c0-.91-.05-1.48-.15-1.71-.09-.24-.28-.45-.55-.62-.28-.18-.58-.27-.93-.27-.56,0-1.02.12-1.38.37-.22.15-.33.33-.33.54,0,.18.12.4.36.67.33.37.49.73.49,1.07,0,.42-.16.78-.48,1.08-.31.29-.72.44-1.22.44-.54,0-1-.16-1.37-.49-.36-.33-.54-.71-.54-1.15,0-.62.25-1.21.73-1.77.49-.57,1.17-1,2.05-1.3.88-.3,1.79-.45,2.73-.45,1.14,0,2.05.24,2.71.73.67.48,1.1,1.01,1.3,1.57.12.36.18,1.19.18,2.49v4.68c0,.55.02.9.06,1.04.04.14.11.24.19.31.09.07.18.1.3.1.22,0,.45-.16.68-.48l.39.31c-.43.64-.88,1.1-1.34,1.39-.46.28-.98.42-1.56.42-.69,0-1.22-.16-1.61-.48-.39-.33-.62-.82-.71-1.47h0ZM207,127.06v-4.03c-1.04.61-1.81,1.26-2.32,1.96-.34.46-.5.93-.5,1.41,0,.4.14.74.43,1.04.21.23.52.35.9.35.43,0,.93-.24,1.5-.72h0Z"/>
      <path class="st1" d="M217.48,112.3v14.98c0,.85.1,1.4.3,1.64.2.23.58.37,1.16.4v.46h-6.51v-.46c.53-.02.93-.17,1.19-.46.17-.2.26-.72.26-1.57v-12.48c0-.84-.1-1.38-.3-1.61-.2-.24-.58-.38-1.15-.41v-.48h5.05Z"/>
      <path class="st0" d="M223,111.89c.56,0,1.03.2,1.42.59.39.39.58.85.58,1.41s-.2,1.02-.59,1.4c-.39.39-.86.58-1.41.58s-1.02-.19-1.4-.58c-.39-.39-.58-.85-.58-1.4s.19-1.02.58-1.41c.39-.39.85-.59,1.4-.59h0ZM224.8,117.73v9.55c0,.85.1,1.4.3,1.64.2.23.58.37,1.16.4v.46h-6.51v-.46c.53-.02.93-.17,1.19-.46.17-.2.26-.72.26-1.57v-7.04c0-.85-.1-1.39-.3-1.62-.2-.24-.58-.38-1.15-.41v-.48h5.05Z"/>
      <path class="st0" d="M233.29,128c-1.47,1.3-2.79,1.95-3.96,1.95-.69,0-1.26-.22-1.71-.67-.46-.46-.68-1.02-.68-1.7,0-.92.4-1.74,1.19-2.48.79-.74,2.51-1.72,5.17-2.94v-1.21c0-.91-.05-1.48-.15-1.71-.09-.24-.28-.45-.55-.62-.27-.18-.58-.27-.93-.27-.56,0-1.02.12-1.38.37-.22.15-.34.33-.34.54,0,.18.12.4.36.67.33.37.49.73.49,1.07,0,.42-.16.78-.48,1.08-.31.29-.72.44-1.22.44-.54,0-1-.16-1.37-.49-.36-.33-.54-.71-.54-1.15,0-.62.24-1.21.73-1.77.49-.57,1.17-1,2.05-1.3.88-.3,1.79-.45,2.73-.45,1.14,0,2.05.24,2.71.73.67.48,1.1,1.01,1.3,1.57.12.36.18,1.19.18,2.49v4.68c0,.55.02.9.06,1.04.04.14.11.24.19.31.09.07.18.1.3.1.22,0,.45-.16.68-.48l.39.31c-.43.64-.88,1.1-1.34,1.39-.46.28-.98.42-1.56.42-.69,0-1.22-.16-1.61-.48-.39-.33-.62-.82-.71-1.47h0ZM233.29,127.06v-4.03c-1.04.61-1.81,1.26-2.32,1.96-.33.46-.5.93-.5,1.41,0,.4.14.74.43,1.04.21.23.51.35.9.35.43,0,.93-.24,1.5-.72h0Z"/>
      <path class="st1" d="M243.71,117.73v1.56c.62-.67,1.21-1.16,1.78-1.46.57-.31,1.18-.46,1.83-.46.78,0,1.43.22,1.95.66.52.43.86.97,1.03,1.61.14.49.21,1.43.21,2.82v4.69c0,.93.08,1.51.24,1.74.17.22.52.37,1.06.43v.46h-6.1v-.46c.45-.06.78-.25.98-.57.14-.21.21-.75.21-1.6v-5.36c0-.99-.04-1.61-.12-1.87-.08-.26-.21-.46-.4-.59-.18-.15-.38-.22-.61-.22-.74,0-1.43.53-2.06,1.59v6.46c0,.9.08,1.47.24,1.71.17.24.49.39.94.45v.46h-6.1v-.46c.51-.05.87-.21,1.08-.49.15-.19.22-.75.22-1.68v-6.81c0-.91-.09-1.48-.26-1.7-.16-.22-.51-.37-1.04-.44v-.48h4.91Z"/>
      <path class="st1" d="M275.54,111.9v6.16h-.48c-.58-1.68-1.44-2.96-2.59-3.84-1.15-.88-2.41-1.31-3.78-1.31s-2.39.37-3.26,1.11c-.87.73-1.48,1.75-1.84,3.07-.36,1.31-.54,2.66-.54,4.05,0,1.68.2,3.15.59,4.41.4,1.26,1.03,2.19,1.91,2.78.89.59,1.93.89,3.15.89.42,0,.85-.04,1.29-.13.45-.09.9-.23,1.37-.4v-3.64c0-.69-.05-1.13-.14-1.33-.09-.21-.29-.39-.59-.55-.29-.16-.65-.24-1.07-.25h-.45v-.48h8.5v.48c-.64.04-1.1.13-1.35.27-.25.13-.44.35-.58.66-.08.16-.12.56-.12,1.2v3.64c-1.12.5-2.28.87-3.49,1.12-1.2.26-2.45.39-3.75.39-1.66,0-3.04-.22-4.14-.67-1.09-.46-2.06-1.05-2.9-1.78-.83-.74-1.49-1.57-1.96-2.49-.6-1.19-.9-2.51-.9-3.98,0-2.63.92-4.85,2.77-6.66,1.85-1.81,4.17-2.72,6.97-2.72.87,0,1.65.07,2.35.21.38.07.99.27,1.83.59.85.32,1.35.48,1.51.48.24,0,.46-.09.67-.26.21-.18.39-.52.57-1.01h.48Z"/>
      <path class="st0" d="M283.91,117.37c1.05,0,2.02.27,2.93.81.9.54,1.59,1.31,2.05,2.31.47,1,.71,2.09.71,3.27,0,1.71-.43,3.14-1.3,4.29-1.05,1.39-2.5,2.09-4.34,2.09s-3.21-.64-4.19-1.91c-.98-1.27-1.47-2.75-1.47-4.42s.5-3.23,1.5-4.51c1-1.29,2.38-1.93,4.12-1.93h0ZM283.96,118.28c-.44,0-.82.17-1.13.5-.31.33-.52.98-.62,1.96-.09.97-.14,2.32-.14,4.06,0,.92.06,1.78.18,2.58.09.61.3,1.07.61,1.39.31.32.66.48,1.06.48s.71-.11.97-.32c.33-.29.56-.7.67-1.22.17-.82.26-2.47.26-4.95,0-1.46-.08-2.46-.25-3-.16-.55-.4-.95-.72-1.2-.22-.18-.52-.27-.88-.27h0Z"/>
      <path class="st1" d="M295.28,130.14l-4.06-9.35c-.49-1.13-.87-1.84-1.15-2.14-.2-.22-.49-.37-.88-.45v-.48h6.41v.48c-.4,0-.68.07-.83.22-.21.19-.31.41-.31.67,0,.32.19.92.57,1.79l1.99,4.52,1.58-3.91c.46-1.12.68-1.91.68-2.37,0-.27-.1-.48-.3-.64-.19-.17-.53-.27-1.02-.28v-.48h3.95v.48c-.38.05-.69.19-.93.43-.24.23-.6.92-1.08,2.05l-4.02,9.46h-.61Z"/>
      <path class="st0" d="M311.4,123.32h-6.61c.08,1.6.5,2.86,1.28,3.79.59.71,1.31,1.07,2.14,1.07.52,0,.98-.14,1.41-.43.42-.29.87-.81,1.35-1.56l.44.28c-.65,1.33-1.37,2.28-2.17,2.84-.79.55-1.71.82-2.75.82-1.79,0-3.14-.69-4.06-2.06-.74-1.11-1.11-2.48-1.11-4.12,0-2.01.54-3.61,1.62-4.8,1.09-1.19,2.37-1.79,3.83-1.79,1.22,0,2.28.5,3.17,1.51.9,1,1.39,2.48,1.46,4.45h0ZM308.23,122.46c0-1.38-.08-2.33-.23-2.85-.15-.52-.38-.91-.7-1.17-.18-.15-.42-.23-.72-.23-.45,0-.81.22-1.1.66-.51.77-.76,1.81-.76,3.15v.45h3.51Z"/>
      <path class="st1" d="M317.12,117.73v2.73c.8-1.25,1.5-2.07,2.1-2.47.6-.41,1.18-.62,1.74-.62.48,0,.86.15,1.15.45.29.29.44.71.44,1.25,0,.58-.14,1.02-.42,1.34-.28.32-.61.48-1,.48-.46,0-.85-.15-1.19-.44-.33-.29-.53-.46-.59-.49-.09-.05-.19-.08-.3-.08-.25,0-.49.09-.71.28-.35.29-.62.71-.8,1.25-.28.83-.41,1.75-.41,2.76v3.49c.01.49.04.8.1.94.1.23.25.4.45.52.21.1.55.17,1.03.19v.46h-6.51v-.46c.52-.04.88-.18,1.06-.43.19-.25.28-.9.28-1.95v-6.66c0-.69-.04-1.13-.1-1.31-.09-.24-.21-.42-.37-.53-.16-.11-.45-.19-.86-.23v-.48h4.92Z"/>
      <path class="st1" d="M328.23,117.73v1.56c.62-.67,1.21-1.16,1.78-1.46.57-.31,1.18-.46,1.83-.46.78,0,1.43.22,1.95.66.52.43.86.97,1.03,1.61.14.49.21,1.43.21,2.82v4.69c0,.93.08,1.51.25,1.74.17.22.52.37,1.06.43v.46h-6.1v-.46c.46-.06.78-.25.98-.57.14-.21.21-.75.21-1.6v-5.36c0-.99-.04-1.61-.12-1.87-.08-.26-.21-.46-.4-.59-.18-.15-.38-.22-.61-.22-.74,0-1.43.53-2.06,1.59v6.46c0,.9.08,1.47.24,1.71.17.24.49.39.94.45v.46h-6.1v-.46c.51-.05.87-.21,1.08-.49.15-.19.22-.75.22-1.68v-6.81c0-.91-.09-1.48-.26-1.7-.16-.22-.51-.37-1.04-.44v-.48h4.91Z"/>
      <path class="st1" d="M342.2,117.73v1.59c.66-.72,1.27-1.22,1.83-1.51.57-.29,1.19-.44,1.86-.44.77,0,1.42.18,1.95.54.52.36.93.91,1.21,1.65.69-.77,1.34-1.33,1.97-1.68.64-.34,1.3-.52,1.99-.52.83,0,1.5.19,1.99.58.5.38.84.86,1.03,1.46.2.58.3,1.52.3,2.81v4.94c0,.93.08,1.5.24,1.73.17.22.52.37,1.06.44v.46h-6.23v-.46c.49-.04.85-.23,1.08-.57.15-.23.23-.76.23-1.6v-5.18c0-1.07-.04-1.76-.13-2.05-.09-.29-.22-.51-.41-.64-.18-.15-.4-.22-.64-.22-.37,0-.74.14-1.12.41-.38.27-.76.67-1.15,1.21v6.47c0,.87.07,1.41.22,1.64.2.32.58.49,1.13.53v.46h-6.24v-.46c.33-.02.6-.1.79-.24.2-.15.33-.34.39-.54.07-.21.1-.67.1-1.38v-5.18c0-1.09-.04-1.77-.13-2.05s-.23-.49-.44-.64c-.2-.15-.41-.23-.64-.23-.34,0-.66.09-.94.27-.4.27-.83.72-1.29,1.37v6.47c0,.85.08,1.41.24,1.69.17.27.52.43,1.06.48v.46h-6.21v-.46c.51-.05.87-.21,1.08-.49.15-.19.22-.75.22-1.68v-6.81c0-.91-.09-1.48-.26-1.7-.16-.22-.51-.37-1.04-.44v-.48h4.91Z"/>
      <path class="st0" d="M368.34,123.32h-6.61c.08,1.6.5,2.86,1.28,3.79.59.71,1.31,1.07,2.14,1.07.52,0,.98-.14,1.41-.43.42-.29.87-.81,1.35-1.56l.44.28c-.65,1.33-1.37,2.28-2.17,2.84-.79.55-1.71.82-2.75.82-1.79,0-3.14-.69-4.06-2.06-.74-1.11-1.11-2.48-1.11-4.12,0-2.01.54-3.61,1.62-4.8,1.09-1.19,2.37-1.79,3.83-1.79,1.22,0,2.28.5,3.17,1.51.9,1,1.39,2.48,1.46,4.45h0ZM365.17,122.46c0-1.38-.08-2.33-.23-2.85-.15-.52-.38-.91-.7-1.17-.18-.15-.42-.23-.72-.23-.45,0-.81.22-1.1.66-.51.77-.76,1.81-.76,3.15v.45h3.51Z"/>
      <path class="st1" d="M373.72,117.73v1.56c.62-.67,1.21-1.16,1.78-1.46.57-.31,1.18-.46,1.83-.46.78,0,1.43.22,1.95.66.52.43.86.97,1.03,1.61.14.49.21,1.43.21,2.82v4.69c0,.93.08,1.51.25,1.74.17.22.52.37,1.06.43v.46h-6.1v-.46c.46-.06.78-.25.98-.57.14-.21.21-.75.21-1.6v-5.36c0-.99-.04-1.61-.12-1.87-.08-.26-.21-.46-.4-.59-.18-.15-.38-.22-.61-.22-.74,0-1.43.53-2.06,1.59v6.46c0,.9.08,1.47.25,1.71.17.24.49.39.94.45v.46h-6.1v-.46c.51-.05.87-.21,1.08-.49.15-.19.22-.75.22-1.68v-6.81c0-.91-.09-1.48-.26-1.7-.16-.22-.51-.37-1.04-.44v-.48h4.91Z"/>
      <path class="st1" d="M386.94,113.32v4.41h2.86v1.28h-2.86v7.44c0,.7.03,1.15.09,1.35.07.2.18.36.35.49.16.12.31.18.45.18.56,0,1.09-.43,1.59-1.28l.39.28c-.7,1.65-1.83,2.47-3.39,2.47-.76,0-1.41-.21-1.95-.63-.52-.43-.86-.91-1.01-1.43-.09-.29-.13-1.08-.13-2.37v-6.51h-1.57v-.45c1.08-.76,2-1.57,2.76-2.41.76-.84,1.43-1.78,2-2.82h.42Z"/>
    </g>
  </g>
  <g id="Department">
    <text class="st2" transform="translate(140.49 169.96)"><tspan class="st9" x="0" y="0">Depar</tspan><tspan class="st12" x="63.38" y="0">t</tspan><tspan class="st10" x="71.98" y="0">ment</tspan><tspan x="123" y="0"> </tspan><tspan class="st6" x="129" y="0">of</tspan><tspan x="147.79" y="0" xml:space="preserve"> Hea</tspan><tspan class="st10" x="195.11" y="0">lt</tspan><tspan class="st17" x="209.29" y="0">h,</tspan><tspan class="st7" x="229.12" y="0"> </tspan><tspan class="st9" x="234.52" y="0">D</tspan><tspan class="st15" x="251.73" y="0">is</tspan><tspan class="st8" x="267.98" y="0">a</tspan><tspan class="st10" x="279.38" y="0">b</tspan><tspan class="st14" x="292.49" y="0">il</tspan><tspan class="st11" x="307.02" y="0">i</tspan><tspan class="st13" x="313.45" y="0">t</tspan><tspan class="st10" x="322.04" y="0">y an</tspan><tspan class="st13" x="364.43" y="0">d </tspan><tspan x="384.98" y="0">A</tspan><tspan class="st10" x="402.31" y="0">ge</tspan><tspan class="st16" x="424.48" y="0">i</tspan><tspan class="st9" x="431.39" y="0">ng</tspan></text>
    <line class="st3" x1="140.81" y1="142.46" x2="595.38" y2="142.46"/>
  </g>
  <g id="Medical_Research_Future_Fund">
    <g>
      <g>
        <g>
          <polygon class="st4" points="1049.34 117.53 1031.08 85.9 994.56 85.9 976.3 117.53 982.77 128.72 1042.87 128.72 1049.34 117.53"/>
          <polygon class="st1" points="1031.08 149.15 1042.87 128.72 982.77 128.72 994.56 149.15 1031.08 149.15"/>
          <polygon class="st1" points="975.73 117.53 994.27 85.4 1031.37 85.4 1049.91 117.53 1043.45 128.72 1044.03 128.72 1050.49 117.53 1031.66 84.9 993.98 84.9 975.15 117.53 981.61 128.72 982.19 128.72 975.73 117.53"/>
          <polygon class="st5" points="1031.66 150.15 1044.03 128.72 1043.45 128.72 1031.37 149.65 994.27 149.65 982.19 128.72 981.61 128.72 993.98 150.15 1031.66 150.15"/>
          <polygon class="st1" points="1031.37 85.4 994.27 85.4 975.73 117.53 982.19 128.72 982.77 128.72 976.3 117.53 994.56 85.9 1031.08 85.9 1049.34 117.53 1042.87 128.72 1043.45 128.72 1049.91 117.53 1031.37 85.4"/>
          <polygon class="st5" points="1031.08 149.15 994.56 149.15 982.77 128.72 982.19 128.72 994.27 149.65 1031.37 149.65 1043.45 128.72 1042.87 128.72 1031.08 149.15"/>
        </g>
        <polygon class="st1" points="1199.35 118.5 1161.68 118.5 1142.85 151.12 1161.68 183.75 1199.35 183.75 1218.19 151.12 1199.35 118.5"/>
        <polygon class="st1" points="1257.3 84.9 1219.63 84.9 1200.79 117.53 1219.63 150.15 1257.3 150.15 1276.13 117.53 1257.3 84.9"/>
        <path class="st1" d="M1256.72,153.1l18.26,31.62-18.26,31.62h-36.52l-18.26-31.62,18.26-31.62h36.52M1257.3,152.1h-37.67l-18.84,32.62,18.84,32.62h37.67l18.84-32.62-18.84-32.62h0Z"/>
      </g>
      <path class="st1" d="M1141.12,152.12l-.58-1,.58-1,12.36-21.4h-109.44l-12.37,21.43h-37.67l-12.37-21.43h-339.64v44.81h511.5l-12.36-21.4ZM680.17,142.47h-11.39v5.45h9.87v4.03h-9.87v9.74h-5.18v-23.57h16.57v4.36ZM699.83,161.68h-4.46v-2.38h-.1c-1.19,1.91-3.17,2.84-5.25,2.84-4.46,0-6.21-2.24-6.21-6.93v-10.59h4.69v9.67c0,2.61.69,4.16,3,4.16,2.57,0,3.63-1.49,3.63-4.85v-8.98h4.69v17.06ZM713.92,147.76h-3.43v8.45c0,1.58.4,1.98,1.98,1.98.53,0,1.06-.03,1.45-.13v3.66c-.79.13-1.85.17-2.77.17-3.6,0-5.35-1.09-5.35-4.13v-10h-2.84v-3.14h2.84v-5.12h4.69v5.12h3.43v3.14ZM733.33,161.68h-4.46v-2.38h-.1c-1.19,1.91-3.17,2.84-5.25,2.84-4.46,0-6.21-2.24-6.21-6.93v-10.59h4.69v9.67c0,2.61.69,4.16,3,4.16,2.57,0,3.63-1.49,3.63-4.85v-8.98h4.69v17.06ZM749.03,148.68c-.46-.1-1.02-.17-1.68-.17-3.4,0-4.62,2.34-4.62,5.48v7.69h-4.69v-17.06h4.46v3.17h.07c.89-2.15,3.1-3.63,5.45-3.63.46,0,.79.1,1.02.17v4.36ZM767.62,154.29h-12.31c.13,2.94,1.49,4.32,4.16,4.32,1.78,0,3.37-1.02,3.73-2.21h4.12c-1.25,3.86-3.89,5.74-7.99,5.74-5.41,0-8.71-3.73-8.71-8.98s3.56-9.01,8.71-9.01,8.32,4.22,8.32,9.27c0,.26-.03.86-.03.86ZM798.93,142.47h-11.39v5.45h9.87v4.03h-9.87v9.74h-5.18v-23.57h16.57v4.36ZM818.6,161.68h-4.46v-2.38h-.1c-1.19,1.91-3.17,2.84-5.25,2.84-4.46,0-6.21-2.24-6.21-6.93v-10.59h4.69v9.67c0,2.61.69,4.16,3,4.16,2.57,0,3.63-1.49,3.63-4.85v-8.98h4.69v17.06ZM839.32,161.68h-4.69v-9.67c0-2.81-.83-4.16-3-4.16-2.9,0-3.63,1.91-3.63,4.95v8.88h-4.69v-17.06h4.46v2.38h.1c1.12-1.82,3.04-2.84,5.25-2.84,4.32,0,6.21,2.11,6.21,6.9v10.63ZM860.67,161.68h-4.46v-2.18h-.07c-1.02,1.75-2.84,2.64-5.18,2.64-5.08,0-7.66-4.29-7.66-9.14s2.64-8.85,7.56-8.85c2.05,0,4.03.89,5.05,2.54h.07v-8.58h4.69v23.57Z"/>
      <path class="st1" d="M762.93,151.32c-.46-2.57-1.58-3.63-3.76-3.63s-3.66,1.39-3.86,3.63h7.62Z"/>
      <path class="st1" d="M852.12,158.61c2.67,0,4.03-2.08,4.03-5.51,0-3.1-1.19-5.41-4.06-5.41-2.67,0-4.09,2.15-4.09,5.45,0,2.71,1.25,5.48,4.12,5.48Z"/>
      <g>
        <path class="st1" d="M666.18,99.83l6.11,21.09,5.91-21.09h3v23.7h-1.75v-21.82l-6.34,21.82h-1.81l-6.27-21.82v21.82h-1.72v-23.7h2.87Z"/>
        <path class="st1" d="M686.54,114.68c.07,3.2.13,3.73.5,4.98.56,1.95,1.75,2.97,3.53,2.97,2.24,0,3.4-1.42,3.83-4.65h1.68c-.43,4.03-2.28,5.97-5.61,5.97-3.93,0-5.78-2.9-5.78-9.14s1.98-9.21,6.01-9.21c3.8,0,5.58,2.71,5.58,8.52v.56h-9.74ZM694.43,113.39c0-1.55-.1-2.44-.33-3.4-.46-1.98-1.68-3.07-3.43-3.07-2.71,0-3.99,2.05-4.09,6.47h7.86Z"/>
        <path class="st1" d="M710.34,99.83v23.7h-1.68v-2.84c-.46,1.22-.79,1.78-1.35,2.25-.73.66-1.82.99-3.04.99-3.66,0-5.51-3.14-5.51-9.34,0-3.07.43-5.25,1.25-6.63.99-1.55,2.44-2.34,4.32-2.34,2.01,0,3.4.92,4.32,2.87v-8.65h1.68ZM701.26,109.5c-.46,1.12-.69,2.87-.69,5.25,0,2.67.26,4.46.86,5.61.73,1.39,1.85,2.14,3.2,2.14,1.45,0,2.67-.89,3.37-2.47.46-1.09.69-2.87.69-5.18,0-2.74-.26-4.52-.86-5.68-.69-1.35-1.88-2.14-3.2-2.14-1.45,0-2.67.89-3.37,2.47Z"/>
        <path class="st1" d="M715.98,99.83v3.04h-1.82v-3.04h1.82ZM715.98,106v17.53h-1.82v-17.53h1.82Z"/>
        <path class="st1" d="M730.4,117.78c-.2,3.96-2.18,6.17-5.58,6.17-3.89,0-5.71-2.94-5.71-9.17s1.95-9.21,6.01-9.21c3.1,0,5.05,2.01,5.28,5.45h-1.81c-.3-2.81-1.42-4.06-3.57-4.06-2.84,0-4.12,2.41-4.12,7.76s1.22,7.89,4.06,7.89c2.24,0,3.63-1.78,3.76-4.82h1.68Z"/>
        <path class="st1" d="M733.11,110.89c0-3.6,1.72-5.35,5.25-5.35,2.28,0,3.89.79,4.55,2.18.33.69.43,1.45.43,3.56v8.71c0,1.82.23,2.31,1.09,2.31.13,0,.33-.03.53-.07v1.22c-.46.1-1.02.17-1.29.17-1.16,0-1.91-.79-1.91-1.98v-.69c-.46.89-.73,1.29-1.12,1.65-.83.79-2.11,1.25-3.63,1.25-2.87,0-4.46-1.72-4.46-4.85,0-1.62.5-2.9,1.39-3.73.69-.63,1.35-.92,3.86-1.58,3.73-.99,3.86-1.12,3.86-3.5s-1.09-3.37-3.33-3.37c-1.19,0-2.15.4-2.74,1.12-.56.63-.76,1.35-.83,2.94h-1.65ZM741.66,113.1c-.56.83-.96,1.02-2.74,1.55-2.34.66-2.94.89-3.53,1.45-.69.63-1.02,1.55-1.02,2.8,0,2.28,1.12,3.6,3.1,3.6,1.35,0,2.54-.63,3.3-1.75.66-.92.89-1.88.89-3.66v-3.99Z"/>
        <path class="st1" d="M749.28,99.83v23.7h-1.75v-23.7h1.75Z"/>
        <path class="st1" d="M765.97,99.83c2.18,0,3.33.23,4.36.89,1.65,1.06,2.51,2.84,2.51,5.21,0,2.05-.66,3.8-1.82,4.79-.73.63-1.42.89-2.94,1.19,3.93.36,4.55,1.52,4.69,8.22.1,2.11.2,2.51.73,3.4l-2.15-.03c-.4-.92-.43-1.39-.59-5.21-.1-4.59-1.22-5.74-5.51-5.71h-3.7v10.96h-1.82v-23.7h6.24ZM761.55,111.18h3.86c1.72,0,2.94-.3,3.76-.92,1.19-.92,1.78-2.28,1.78-4.09,0-2.05-.76-3.56-2.18-4.32-.63-.33-1.91-.56-3.17-.56h-4.06v9.9Z"/>
        <path class="st1" d="M777.69,114.68c.07,3.2.13,3.73.5,4.98.56,1.95,1.75,2.97,3.53,2.97,2.24,0,3.4-1.42,3.83-4.65h1.68c-.43,4.03-2.28,5.97-5.61,5.97-3.93,0-5.78-2.9-5.78-9.14s1.98-9.21,6.01-9.21c3.8,0,5.58,2.71,5.58,8.52v.56h-9.74ZM785.58,113.39c0-1.55-.1-2.44-.33-3.4-.46-1.98-1.68-3.07-3.43-3.07-2.71,0-3.99,2.05-4.09,6.47h7.86Z"/>
        <path class="st1" d="M791.35,118.08v.59c0,2.57,1.29,3.96,3.66,3.96s3.66-1.32,3.66-3.5c0-1.09-.36-1.98-1.06-2.54-.63-.53-1.09-.76-3.5-1.62-3.07-1.12-4.09-2.31-4.09-4.75,0-2.9,1.88-4.59,5.05-4.59s4.85,1.62,4.85,4.82v.4h-1.68c-.03-1.39-.1-1.85-.36-2.41-.53-1.02-1.45-1.52-2.84-1.52-2.08,0-3.33,1.16-3.33,3.1,0,1.75.79,2.61,3.23,3.5,2.38.82,3.1,1.15,3.89,1.78,1.02.76,1.55,1.98,1.55,3.53,0,3.23-2.01,5.12-5.48,5.12-2.34,0-3.99-.86-4.72-2.44-.33-.76-.5-1.88-.5-3.43h1.65Z"/>
        <path class="st1" d="M804.29,114.68c.07,3.2.13,3.73.5,4.98.56,1.95,1.75,2.97,3.53,2.97,2.24,0,3.4-1.42,3.83-4.65h1.68c-.43,4.03-2.28,5.97-5.61,5.97-3.93,0-5.78-2.9-5.78-9.14s1.98-9.21,6.01-9.21c3.8,0,5.58,2.71,5.58,8.52v.56h-9.74ZM812.17,113.39c0-1.55-.1-2.44-.33-3.4-.46-1.98-1.68-3.07-3.43-3.07-2.71,0-3.99,2.05-4.09,6.47h7.86Z"/>
        <path class="st1" d="M816.83,110.89c0-3.6,1.72-5.35,5.25-5.35,2.28,0,3.89.79,4.55,2.18.33.69.43,1.45.43,3.56v8.71c0,1.82.23,2.31,1.09,2.31.13,0,.33-.03.53-.07v1.22c-.46.1-1.02.17-1.29.17-1.16,0-1.91-.79-1.91-1.98v-.69c-.46.89-.73,1.29-1.12,1.65-.83.79-2.11,1.25-3.63,1.25-2.87,0-4.46-1.72-4.46-4.85,0-1.62.5-2.9,1.39-3.73.69-.63,1.35-.92,3.86-1.58,3.73-.99,3.86-1.12,3.86-3.5s-1.09-3.37-3.33-3.37c-1.19,0-2.15.4-2.74,1.12-.56.63-.76,1.35-.83,2.94h-1.65ZM825.37,113.1c-.56.83-.96,1.02-2.74,1.55-2.34.66-2.94.89-3.53,1.45-.69.63-1.02,1.55-1.02,2.8,0,2.28,1.12,3.6,3.1,3.6,1.35,0,2.54-.63,3.3-1.75.66-.92.89-1.88.89-3.66v-3.99Z"/>
        <path class="st1" d="M832.63,106v3.33c.56-1.55,1.02-2.21,1.91-2.84.79-.5,1.65-.76,2.71-.76h.59v1.75c-3.33-.26-5.38,1.85-5.21,5.41v10.63h-1.72v-17.53h1.72Z"/>
        <path class="st1" d="M850.39,117.78c-.2,3.96-2.18,6.17-5.58,6.17-3.89,0-5.71-2.94-5.71-9.17s1.95-9.21,6.01-9.21c3.1,0,5.05,2.01,5.28,5.45h-1.81c-.3-2.81-1.42-4.06-3.56-4.06-2.84,0-4.13,2.41-4.13,7.76s1.22,7.89,4.06,7.89c2.24,0,3.63-1.78,3.76-4.82h1.68Z"/>
        <path class="st1" d="M854.78,108.28c1.02-1.88,2.48-2.74,4.62-2.74,1.95,0,3.37.89,3.99,2.54.3.73.4,1.68.4,3.53v11.92h-1.78v-11.42c0-1.91-.07-2.67-.33-3.3-.43-1.16-1.52-1.82-2.9-1.82-1.52,0-2.94.96-3.56,2.41-.36.73-.43,1.32-.43,2.97v11.16h-1.75v-23.7h1.75v8.45Z"/>
      </g>
    </g>
  </g>
</svg>