<?xml version="1.0" encoding="UTF-8" standalone="no"?>
<svg
   id="Layer_1"
   version="1.1"
   viewBox="0 0 170 50"
   sodipodi:docname="e607c9f0-5805-482e-9007-4acfb6f04c31.svg"
   xmlns:inkscape="http://www.inkscape.org/namespaces/inkscape"
   xmlns:sodipodi="http://sodipodi.sourceforge.net/DTD/sodipodi-0.dtd"
   xmlns="http://www.w3.org/2000/svg"
   xmlns:svg="http://www.w3.org/2000/svg">
  <sodipodi:namedview
     id="namedview65"
     pagecolor="#ffffff"
     bordercolor="#000000"
     borderopacity="0.25"
     inkscape:showpageshadow="2"
     inkscape:pageopacity="0.0"
     inkscape:pagecheckerboard="0"
     inkscape:deskcolor="#d1d1d1" />
  <!-- Generator: Adobe Illustrator 30.0.0, SVG Export Plug-In . SVG Version: 2.1.1 Build 123)  -->
  <defs
     id="defs1">
    <style
       id="style1">
      .st0 {
        fill: none;
      }

      .st1 {
        fill: #fff;
      }

      .st2 {
        clip-path: url(#clippath);
      }
    </style>
    <clipPath
       id="clippath">
      <rect
         class="st0"
         x="5"
         y=".76"
         width="160"
         height="48.47"
         id="rect1" />
    </clipPath>
  </defs>
  <g
     class="st2"
     clip-path="url(#clippath)"
     id="g65">
    <g
       id="g64">
      <path
         class="st1"
         d="M66.49,20.36h-2.83v5.08h-3.72V8.51h6.91c4.04,0,6.48,2.39,6.48,5.85v.05c0,3.92-3.05,5.95-6.85,5.95ZM69.56,14.43c0-1.67-1.16-2.56-3.02-2.56h-2.88v5.18h2.95c1.86,0,2.95-1.11,2.95-2.56v-.05Z"
         id="path1" />
      <path
         class="st1"
         d="M86.34,20.24h-9.02c.36,1.67,1.52,2.54,3.17,2.54,1.23,0,2.13-.39,3.14-1.33l2.11,1.86c-1.21,1.5-2.95,2.42-5.3,2.42-3.89,0-6.77-2.73-6.77-6.7v-.05c0-3.7,2.64-6.75,6.41-6.75,4.33,0,6.31,3.36,6.31,7.04v.05c0,.36-.02.58-.05.92ZM80.08,15.18c-1.52,0-2.52,1.09-2.81,2.76h5.54c-.22-1.64-1.18-2.76-2.73-2.76Z"
         id="path2" />
      <path
         class="st1"
         d="M92.05,25.66c-2.25,0-3.77-.89-3.77-3.89v-6.14h-1.55v-3.14h1.55v-3.31h3.68v3.31h3.05v3.14h-3.05v5.54c0,.85.36,1.26,1.18,1.26.68,0,1.28-.17,1.81-.46v2.95c-.77.46-1.67.75-2.9.75h0Z"
         id="path3" />
      <path
         class="st1"
         d="M108.4,20.24h-9.02c.36,1.67,1.52,2.54,3.17,2.54,1.23,0,2.13-.39,3.15-1.33l2.1,1.86c-1.21,1.5-2.95,2.42-5.3,2.42-3.89,0-6.77-2.73-6.77-6.7v-.05c0-3.7,2.64-6.75,6.41-6.75,4.33,0,6.31,3.36,6.31,7.04v.05c0,.36-.03.58-.05.92h0ZM102.14,15.18c-1.52,0-2.52,1.09-2.81,2.76h5.54c-.22-1.64-1.18-2.76-2.73-2.76h0Z"
         id="path4" />
      <path
         class="st1"
         d="M117.34,16.08c-2.44,0-3.94,1.48-3.94,4.57v4.79h-3.68v-12.96h3.68v2.61c.75-1.79,1.96-2.95,4.14-2.85v3.84h-.2Z"
         id="path5" />
      <path
         class="st1"
         d="M134.92,25.44v-11.05l-4.76,7.23h-.1l-4.72-7.16v10.98h-3.65V8.51h4.02l4.45,7.16,4.45-7.16h4.02v16.93h-3.7Z"
         id="path6" />
      <path
         class="st1"
         d="M148.15,25.44v-1.4c-.9.99-2.13,1.65-3.92,1.65-2.44,0-4.45-1.4-4.45-3.97v-.05c0-2.83,2.15-4.13,5.22-4.13,1.31,0,2.25.22,3.17.53v-.22c0-1.52-.94-2.37-2.78-2.37-1.4,0-2.39.27-3.58.7l-.92-2.81c1.43-.63,2.83-1.04,5.03-1.04,4.02,0,5.78,2.08,5.78,5.59v7.52h-3.56ZM148.23,20.21c-.63-.29-1.45-.48-2.35-.48-1.57,0-2.54.63-2.54,1.79v.05c0,.99.82,1.57,2.01,1.57,1.71,0,2.88-.94,2.88-2.27v-.65h0Z"
         id="path7" />
      <path
         class="st1"
         d="M159.7,25.73c-3.89,0-6.75-3-6.75-6.7v-.05c0-3.7,2.83-6.75,6.8-6.75,2.44,0,3.97.82,5.18,2.18l-2.25,2.42c-.82-.87-1.65-1.43-2.95-1.43-1.84,0-3.14,1.62-3.14,3.53v.05c0,1.98,1.29,3.58,3.29,3.58,1.23,0,2.08-.53,2.97-1.38l2.15,2.18c-1.26,1.38-2.71,2.37-5.3,2.37h0Z"
         id="path8" />
      <path
         class="st1"
         d="M61.79,35.43h-.98v1.59h-.87v-4.95h1.95c1.15,0,1.88.65,1.88,1.66,0,1.12-.89,1.7-1.98,1.7ZM61.82,32.86h-1.01v1.78h1.01c.66,0,1.07-.36,1.07-.89,0-.59-.42-.89-1.07-.89Z"
         id="path9" />
      <path
         class="st1"
         d="M66.04,36.4c.42,0,.71-.16,1.01-.44l.5.44c-.35.43-.84.7-1.53.7-1.08,0-1.92-.79-1.92-1.95,0-1.08.76-1.95,1.83-1.95,1.19,0,1.79.94,1.79,2.02,0,.08,0,.15-.02.23h-2.75c.1.61.52.95,1.08.95h0ZM66.87,34.89c-.06-.55-.38-.98-.95-.98-.52,0-.89.4-.97.98h1.92Z"
         id="path10" />
      <path
         class="st1"
         d="M69.32,35.85c0,.33.17.47.46.47.19,0,.36-.04.53-.13v.7c-.21.12-.45.19-.77.19-.63,0-1.07-.28-1.07-1.09v-1.97h-.48v-.74h.48v-1.03h.85v1.03h1.01v.74h-1.01v1.83h0Z"
         id="path11" />
      <path
         class="st1"
         d="M72.57,36.4c.42,0,.71-.16,1.01-.44l.5.44c-.35.43-.84.7-1.53.7-1.08,0-1.91-.79-1.91-1.95,0-1.08.76-1.95,1.82-1.95,1.19,0,1.79.94,1.79,2.02,0,.08,0,.15-.02.23h-2.74c.1.61.52.95,1.08.95ZM73.41,34.89c-.06-.55-.38-.98-.95-.98-.52,0-.89.4-.97.98h1.92Z"
         id="path12" />
      <path
         class="st1"
         d="M75.71,37.02h-.85v-3.73h.85v.84c.23-.56.67-.94,1.32-.91v.91h-.05c-.75,0-1.27.49-1.27,1.48v1.42Z"
         id="path13" />
      <path
         class="st1"
         d="M82.01,35.8h-.03l-1.55-2.32v3.54h-.86v-4.95h.93l1.51,2.34,1.51-2.34h.93v4.95h-.87v-3.55l-1.57,2.34Z"
         id="path14" />
      <path
         class="st1"
         d="M87.48,37.02v-.46c-.25.3-.64.54-1.21.54-.71,0-1.33-.4-1.33-1.16h0c0-.82.65-1.22,1.51-1.22.45,0,.74.06,1.03.16v-.09c0-.52-.33-.8-.92-.8-.42,0-.73.09-1.07.23l-.23-.69c.41-.18.81-.31,1.42-.31,1.1,0,1.64.58,1.64,1.58v2.21h-.85,0ZM87.5,35.43c-.22-.09-.52-.15-.86-.15-.54,0-.85.22-.85.6h0c0,.37.32.57.72.57.57,0,.99-.32.99-.78v-.23h0Z"
         id="path15" />
      <path
         class="st1"
         d="M90.81,37.1c-1.11,0-1.93-.87-1.93-1.94s.82-1.96,1.94-1.96c.71,0,1.15.26,1.49.64l-.53.57c-.26-.28-.54-.47-.97-.47-.62,0-1.07.54-1.07,1.19s.46,1.21,1.12,1.21c.4,0,.7-.19.97-.46l.51.51c-.37.41-.8.7-1.53.7Z"
         id="path16" />
      <path
         class="st1"
         d="M95.31,37.1c-1.44,0-2.52-1.13-2.52-2.56s1.05-2.57,2.55-2.57c.91,0,1.46.32,1.94.77l-.56.64c-.4-.37-.82-.62-1.39-.62-.95,0-1.63.78-1.63,1.75s.69,1.77,1.63,1.77c.61,0,1-.25,1.42-.64l.56.57c-.51.54-1.08.88-2.01.88h0Z"
         id="path17" />
      <path
         class="st1"
         d="M100.25,37.02v-.46c-.26.3-.64.54-1.21.54-.71,0-1.33-.4-1.33-1.16h0c0-.82.64-1.22,1.51-1.22.45,0,.75.06,1.03.16v-.09c0-.52-.33-.8-.92-.8-.42,0-.73.09-1.07.23l-.23-.69c.41-.18.81-.31,1.42-.31,1.1,0,1.64.58,1.64,1.58v2.21h-.85ZM100.28,35.43c-.22-.09-.52-.15-.85-.15-.54,0-.86.22-.86.6h0c0,.37.32.57.72.57.57,0,.99-.32.99-.78v-.23h0Z"
         id="path18" />
      <path
         class="st1"
         d="M101.79,37.02v-5.16h.86v5.16h-.86Z"
         id="path19" />
      <path
         class="st1"
         d="M103.35,37.02v-5.16h.85v5.16h-.85Z"
         id="path20" />
      <path
         class="st1"
         d="M107.37,33.29h.85v3.73h-.85v-.58c-.24.35-.59.66-1.17.66-.84,0-1.33-.57-1.33-1.44v-2.37h.85v2.12c0,.58.29.91.8.91s.84-.35.84-.92v-2.11Z"
         id="path21" />
      <path
         class="st1"
         d="M113.32,33.2c.81,0,1.31.52,1.31,1.43v2.38h-.86v-2.12c0-.59-.28-.91-.76-.91s-.8.32-.8.93v2.11h-.86v-2.13c0-.58-.28-.9-.76-.9s-.8.36-.8.93v2.1h-.86v-3.73h.86v.56c.24-.33.57-.64,1.14-.64.54,0,.91.26,1.11.66.3-.4.7-.66,1.26-.66h0Z"
         id="path22" />
      <path
         class="st1"
         d="M119.88,37.1c-1.44,0-2.52-1.13-2.52-2.56s1.06-2.57,2.55-2.57c.91,0,1.47.32,1.94.77l-.56.64c-.4-.37-.82-.62-1.39-.62-.94,0-1.63.78-1.63,1.75s.69,1.77,1.63,1.77c.61,0,1-.25,1.42-.64l.56.57c-.52.54-1.08.88-2.01.88h0Z"
         id="path23" />
      <path
         class="st1"
         d="M124.85,37.02v-.46c-.25.3-.64.54-1.21.54-.71,0-1.33-.4-1.33-1.16h0c0-.82.64-1.22,1.51-1.22.45,0,.74.06,1.03.16v-.09c0-.52-.33-.8-.92-.8-.42,0-.73.09-1.07.23l-.23-.69c.41-.18.81-.31,1.42-.31,1.1,0,1.64.58,1.64,1.58v2.21h-.85,0ZM124.87,35.43c-.22-.09-.52-.15-.86-.15-.54,0-.85.22-.85.6h0c0,.37.32.57.72.57.56,0,.99-.32.99-.78v-.23h0Z"
         id="path24" />
      <path
         class="st1"
         d="M127.27,37.02h-.85v-3.73h.85v.58c.24-.35.59-.66,1.17-.66.84,0,1.33.57,1.33,1.44v2.38h-.86v-2.12c0-.58-.29-.91-.8-.91s-.84.35-.84.93v2.11h0Z"
         id="path25" />
      <path
         class="st1"
         d="M132.25,37.1c-1.11,0-1.93-.87-1.93-1.94s.82-1.96,1.94-1.96c.71,0,1.15.26,1.49.64l-.53.57c-.26-.28-.53-.47-.97-.47-.62,0-1.08.54-1.08,1.19s.46,1.21,1.12,1.21c.4,0,.7-.19.97-.46l.52.51c-.37.41-.8.7-1.53.7Z"
         id="path26" />
      <path
         class="st1"
         d="M135.99,36.4c.42,0,.72-.16,1.01-.44l.5.44c-.35.43-.84.7-1.53.7-1.08,0-1.92-.79-1.92-1.95,0-1.08.76-1.95,1.83-1.95,1.19,0,1.79.94,1.79,2.02,0,.08,0,.15-.01.23h-2.75c.1.61.52.95,1.08.95h0ZM136.83,34.89c-.06-.55-.38-.98-.95-.98-.53,0-.89.4-.97.98h1.92,0Z"
         id="path27" />
      <path
         class="st1"
         d="M139.19,37.02h-.85v-3.73h.85v.84c.23-.56.67-.94,1.32-.91v.91h-.05c-.75,0-1.27.49-1.27,1.48v1.42Z"
         id="path28" />
      <path
         class="st1"
         d="M145.49,37.1c-1.44,0-2.52-1.13-2.52-2.56s1.06-2.57,2.55-2.57c.91,0,1.46.32,1.94.77l-.56.64c-.4-.37-.82-.62-1.39-.62-.95,0-1.63.78-1.63,1.75s.69,1.77,1.63,1.77c.61,0,1-.25,1.42-.64l.56.57c-.51.54-1.08.88-2.01.88h0Z"
         id="path29" />
      <path
         class="st1"
         d="M149.8,36.4c.42,0,.72-.16,1.01-.44l.5.44c-.35.43-.84.7-1.53.7-1.08,0-1.92-.79-1.92-1.95,0-1.08.76-1.95,1.82-1.95,1.19,0,1.79.94,1.79,2.02,0,.08,0,.15-.01.23h-2.75c.1.61.52.95,1.08.95h0ZM150.64,34.89c-.05-.55-.38-.98-.95-.98-.52,0-.89.4-.97.98h1.92Z"
         id="path30" />
      <path
         class="st1"
         d="M152.97,37.02h-.85v-3.73h.85v.58c.24-.35.59-.66,1.17-.66.84,0,1.33.57,1.33,1.44v2.38h-.86v-2.12c0-.58-.29-.91-.8-.91s-.84.35-.84.93v2.11Z"
         id="path31" />
      <path
         class="st1"
         d="M157.27,35.85c0,.33.17.47.46.47.19,0,.36-.04.53-.13v.7c-.21.12-.45.19-.77.19-.63,0-1.08-.28-1.08-1.09v-1.97h-.47v-.74h.47v-1.03h.85v1.03h1.01v.74h-1.01v1.83h0Z"
         id="path32" />
      <path
         class="st1"
         d="M159.77,37.02h-.85v-3.73h.85v.84c.23-.56.67-.94,1.32-.91v.91h-.05c-.75,0-1.28.49-1.28,1.48v1.42Z"
         id="path33" />
      <path
         class="st1"
         d="M163.29,36.4c.42,0,.72-.16,1.01-.44l.5.44c-.35.43-.84.7-1.53.7-1.08,0-1.92-.79-1.92-1.95,0-1.08.76-1.95,1.82-1.95,1.19,0,1.79.94,1.79,2.02,0,.08,0,.15-.01.23h-2.75c.1.61.52.95,1.08.95h0ZM164.12,34.89c-.05-.55-.38-.98-.95-.98-.52,0-.89.4-.97.98h1.92Z"
         id="path34" />
      <path
         class="st1"
         d="M63.36,40.83h.94l-2.06,4.99h-.76l-2.06-4.99h.96l1.49,3.81,1.48-3.81h0Z"
         id="path35" />
      <path
         class="st1"
         d="M64.81,41.48v-.81h.92v.81h-.92ZM64.84,45.79v-3.74h.85v3.74h-.85Z"
         id="path36" />
      <path
         class="st1"
         d="M68.23,45.87c-1.11,0-1.93-.87-1.93-1.94s.82-1.96,1.94-1.96c.71,0,1.15.26,1.49.64l-.53.57c-.26-.28-.53-.47-.97-.47-.62,0-1.08.54-1.08,1.19s.46,1.21,1.12,1.21c.4,0,.7-.19.97-.47l.52.51c-.37.41-.8.7-1.53.7h0Z"
         id="path37" />
      <path
         class="st1"
         d="M71.51,44.62c0,.33.17.47.46.47.19,0,.36-.04.53-.13v.7c-.21.12-.45.19-.77.19-.63,0-1.08-.28-1.08-1.1v-1.97h-.47v-.74h.47v-1.03h.86v1.03h1v.74h-1v1.83Z"
         id="path38" />
      <path
         class="st1"
         d="M74.81,45.87c-1.14,0-1.98-.87-1.98-1.94s.85-1.96,1.99-1.96,1.99.87,1.99,1.95-.85,1.95-2,1.95h0ZM74.81,42.72c-.69,0-1.12.54-1.12,1.19s.47,1.21,1.14,1.21,1.13-.54,1.13-1.19-.48-1.21-1.15-1.21Z"
         id="path39" />
      <path
         class="st1"
         d="M78.29,45.79h-.85v-3.74h.85v.84c.23-.56.67-.94,1.32-.91v.91h-.05c-.75,0-1.27.49-1.27,1.48v1.42Z"
         id="path40" />
      <path
         class="st1"
         d="M80.1,41.48v-.81h.92v.81h-.92ZM80.14,45.79v-3.74h.85v3.74h-.85Z"
         id="path41" />
      <path
         class="st1"
         d="M84.13,45.79v-.46c-.25.3-.64.54-1.21.54-.71,0-1.33-.4-1.33-1.15v-.02c0-.81.64-1.2,1.51-1.2.46,0,.74.06,1.03.16v-.09c0-.52-.32-.8-.92-.8-.42,0-.73.09-1.07.23l-.23-.69c.41-.18.81-.31,1.42-.31,1.1,0,1.64.58,1.64,1.58v2.22h-.85ZM84.15,44.2c-.22-.09-.52-.15-.86-.15-.54,0-.86.22-.86.6v.02c0,.35.32.55.72.55.57,0,.99-.32.99-.78v-.23h0Z"
         id="path42" />
      <path
         class="st1"
         d="M92.53,45.79h-.92l-.5-1.19h-2.34l-.51,1.19h-.89l2.18-4.99h.81l2.18,4.99ZM89.93,41.84l-.85,1.98h1.71l-.86-1.98Z"
         id="path43" />
      <path
         class="st1"
         d="M95.3,42.05h.86v3.74h-.86v-.58c-.24.36-.59.66-1.17.66-.84,0-1.33-.57-1.33-1.44v-2.38h.86v2.12c0,.58.29.91.8.91s.84-.35.84-.93v-2.11h0Z"
         id="path44" />
      <path
         class="st1"
         d="M98.25,45.86c-.53,0-1.12-.19-1.59-.56l.38-.58c.4.3.84.46,1.22.46s.58-.16.58-.4h0c0-.3-.4-.4-.84-.54-.55-.16-1.17-.38-1.17-1.1v-.02c0-.71.59-1.14,1.33-1.14.47,0,.98.16,1.37.42l-.34.61c-.36-.22-.74-.35-1.05-.35-.33,0-.53.16-.53.37v.02c0,.27.4.38.84.52.54.17,1.16.42,1.16,1.09h0c0,.8-.61,1.19-1.39,1.19h0Z"
         id="path45" />
      <path
         class="st1"
         d="M101.32,44.62c0,.33.17.47.46.47.19,0,.36-.04.53-.13v.7c-.21.12-.45.19-.77.19-.63,0-1.07-.28-1.07-1.1v-1.97h-.47v-.74h.47v-1.03h.86v1.03h1v.74h-1v1.83h0Z"
         id="path46" />
      <path
         class="st1"
         d="M103.79,45.79h-.85v-3.74h.85v.84c.23-.56.67-.94,1.33-.91v.91h-.05c-.75,0-1.27.49-1.27,1.48v1.42h0Z"
         id="path47" />
      <path
         class="st1"
         d="M107.84,45.79v-.46c-.26.3-.64.54-1.21.54-.71,0-1.33-.4-1.33-1.15v-.02c0-.81.64-1.2,1.51-1.2.45,0,.74.06,1.03.16v-.09c0-.52-.33-.8-.92-.8-.42,0-.73.09-1.07.23l-.23-.69c.41-.18.81-.31,1.42-.31,1.1,0,1.64.58,1.64,1.58v2.22h-.85ZM107.86,44.2c-.22-.09-.53-.15-.86-.15-.54,0-.85.22-.85.6v.02c0,.35.32.55.72.55.57,0,.99-.32.99-.78v-.23Z"
         id="path48" />
      <path
         class="st1"
         d="M109.51,45.79v-5.16h.85v5.16h-.85Z"
         id="path49" />
      <path
         class="st1"
         d="M111.15,41.48v-.81h.92v.81h-.92ZM111.18,45.79v-3.74h.85v3.74h-.85Z"
         id="path50" />
      <path
         class="st1"
         d="M115.17,45.79v-.46c-.26.3-.64.54-1.21.54-.71,0-1.33-.4-1.33-1.15v-.02c0-.81.64-1.2,1.51-1.2.45,0,.74.06,1.03.16v-.09c0-.52-.32-.8-.92-.8-.42,0-.73.09-1.07.23l-.23-.69c.41-.18.81-.31,1.42-.31,1.1,0,1.64.58,1.64,1.58v2.22h-.85,0ZM115.19,44.2c-.22-.09-.52-.15-.85-.15-.54,0-.86.22-.86.6v.02c0,.35.32.55.72.55.57,0,.99-.32.99-.78v-.23Z"
         id="path51" />
      <path
         class="st1"
         d="M29.48,12.09l-8.09-3.44-.12,6.8,8.21-3.36Z"
         id="path52" />
      <path
         class="st1"
         d="M20.85,15.99h0l.12-6.66-7.47,16.45,4.52-2.15,2.83-7.65Z"
         id="path53" />
      <path
         class="st1"
         d="M35.19,13.03l7.22-9.84L25.85.76l4.39,11.17,4.95,1.1Z"
         id="path54" />
      <path
         class="st1"
         d="M25.84,44.28l1.76,4.15,14.18.8,1.68-7.63-17.62,2.67Z"
         id="path55" />
      <path
         class="st1"
         d="M13.07,26.53l-6.42,7.03,20.38,14.57-3.49-8.22-10.47-13.38Z"
         id="path56" />
      <path
         class="st1"
         d="M29.73,11.75L25.43.81,5.72,10.86l15.49-2.73,8.52,3.62Z"
         id="path57" />
      <path
         class="st1"
         d="M20.84,8.61l-15.84,2.79,1.5,21.71,6.4-7.01,7.94-17.49Z"
         id="path58" />
      <path
         class="st1"
         d="M45.79,29.53h4.2l1.9-3.69-6.09-4.35v8.04Z"
         id="path59" />
      <path
         class="st1"
         d="M42.25,48.99l7.22-13.27.38-5.27-5.93,10.98-1.67,7.55Z"
         id="path60" />
      <path
         class="st1"
         d="M43.61,41.14l6.05-11.21h-4.05l-9.93,10.52,7.93.68Z"
         id="path61" />
      <path
         class="st1"
         d="M45.81,20.96v.02l6.28,4.49.77-1.5L42.74,3.43l-7.17,9.77,10.24,7.75Z"
         id="path62" />
      <path
         class="st1"
         d="M13.4,26.29l10.06,12.85-5.41-15.06-4.65,2.21Z"
         id="path63" />
      <path
         class="st1"
         d="M35.32,40.85l-11.28-.82,1.64,3.87,16.31-2.47-6.66-.58h0Z"
         id="path64" />
    </g>
  </g>
</svg>
