<?xml version="1.0" encoding="UTF-8"?>
<svg id="Layer_2" xmlns="http://www.w3.org/2000/svg" version="1.1" viewBox="0 0 595.28 841.89">
  <!-- Generator: Adobe Illustrator 30.0.0, SVG Export Plug-In . SVG Version: 2.1.1 Build 123)  -->
  <defs>
    <style>
      .st0 {
        fill: #fff;
        fill-rule: evenodd;
      }
    </style>
  </defs>
  <path class="st0" d="M25.33,149.33v543.22h544.61V149.33H25.33ZM220.58,402.65l-93.59-97.46h55.25l14.77,15.13c2.11-4.93,3.52-10.56,3.52-19,0-29.91-25.34-52.77-54.18-52.77s-52.07,24.61-52.07,53.48,23.58,52.76,53.11,52.76c3.17,0,6.06,0,9.5-1.05.48-.16,38.64,40.97,38.36,41.16-10.89,7.75-31.67,11.62-47.86,11.62-56.98,0-101.31-48.55-101.31-103.78s45.03-101.68,102.72-101.68,103.09,46.79,103.09,103.78c.36,22.89-10.9,46.46-16.53,54.55l42.57,43.27h-57.35ZM415.03,348.33c0,10.01-10.38,57.06-75.55,57.06s-77.7-47.15-77.7-57.42l-.08-145.88,50.69.11v140.39c0,3.17.02,16.2,26.93,16.2s25.75-13.21,25.75-15.85v-130.33l49.97,52.31v83.4ZM544.36,251.43h-40.18v150.91h-52v-150.91h-34.45l-47.6-49.31h174.23v49.31Z"/>
</svg>
