<?xml version="1.0" encoding="UTF-8"?>
<svg xmlns="http://www.w3.org/2000/svg" version="1.1" viewBox="0 0 230.19 116.8">
  <!-- Generator: Adobe Illustrator 30.0.0, SVG Export Plug-In . SVG Version: 2.1.1 Build 123)  -->
  <defs>
    <style>
      .st0 {
        fill: none;
      }

      .st1 {
        fill: #5d5d5d;
      }

      .st2, .st3 {
        fill: #fff;
      }

      .st2, .st4 {
        display: none;
      }
    </style>
  </defs>
  <g id="Layer_2" class="st4">
    <rect class="st1" x="-4.77" y="-3.83" width="240.8" height="124.01"/>
  </g>
  <g id="Layer_1">
    <rect class="st2" x="0" y="0" width="230.19" height="116.8"/>
    <rect class="st2" x=".71" y=".71" width="228.77" height="115.39"/>
    <rect class="st0" x="115.09" y="1.71" width="113.39" height="113.39"/>
    <path class="st0" d="M228.58,115.19h-113.59V1.61h113.59v113.59ZM115.19,114.99h113.19V1.81h-113.19v113.19Z"/>
    <g>
      <g>
        <path class="st3" d="M139.67,47.34c-.75-.01-1.23.01-1.94-.26v-.92c.64.52,1.21.58,2.03.59,1.37.05,2.2-.57,2.2-1.65,0-.82-.61-1.25-1.33-1.66l-1.58-.9c-.85-.5-1.34-1.07-1.36-1.99-.01-1.37,1.33-2.18,2.8-2.13.68.02,1.11,0,1.74.25v.89c-.49-.46-.97-.57-1.65-.59-.95-.06-1.99.58-1.91,1.53.06.61.47.95,1.02,1.26l1.38.8c1.04.6,1.91.93,1.97,2.4.07,1.91-1.81,2.4-3.37,2.37Z"/>
        <path class="st3" d="M139.82,47.42c-.05,0-.1,0-.15,0h-.22c-.64-.01-1.1-.02-1.75-.26l-.05-.02v-1.13l.12.1c.63.52,1.2.56,1.98.57.74.03,1.34-.15,1.71-.5.28-.27.42-.63.42-1.07,0-.8-.61-1.21-1.3-1.59l-1.58-.91c-.97-.57-1.38-1.18-1.39-2.06,0-.55.2-1.04.6-1.43.53-.52,1.38-.8,2.27-.78.09,0,.17,0,.25,0,.55.01.96.03,1.51.25l.05.02v1.12l-.13-.12c-.47-.45-.94-.55-1.6-.57-.55-.03-1.14.18-1.49.54-.25.26-.37.57-.34.91.05.56.41.88.98,1.21l1.38.8c.1.06.21.12.31.18.92.51,1.64.92,1.7,2.29.02.64-.17,1.17-.56,1.58-.73.74-1.97.87-2.74.87ZM137.81,47.03c.6.22,1.04.22,1.65.23h.22c.72.02,2.04-.07,2.78-.82.37-.37.54-.86.52-1.46-.05-1.28-.71-1.65-1.62-2.16-.1-.06-.21-.12-.31-.18l-1.38-.8c-.59-.34-1-.7-1.06-1.32-.03-.38.1-.73.38-1.02.36-.37.93-.59,1.49-.59.04,0,.08,0,.12,0,.63.02,1.1.11,1.57.5v-.67c-.51-.2-.89-.21-1.42-.22-.08,0-.16,0-.25,0-.04,0-.08,0-.12,0-.81,0-1.57.27-2.05.74-.37.36-.56.81-.55,1.32,0,.81.4,1.39,1.32,1.93l1.58.9c.69.39,1.37.85,1.37,1.72,0,.47-.16.88-.46,1.17-.37.36-.95.55-1.67.55-.05,0-.1,0-.15,0-.74-.01-1.33-.06-1.95-.51v.71Z"/>
      </g>
      <g>
        <path class="st3" d="M154.43,38.94c-.07.13-.13.21-.17.35l-2.89,8.05-2.28-6.12-2.24,6.17-3.06-8.24c-.03-.13-.07-.21-.16-.32-.1-.13-.17-.2-.31-.28h1.59c-.06.09-.09.15-.1.26-.02.09-.03.16,0,.25l2.12,6.03,1.82-4.85-.43-1.09c-.06-.15-.14-.22-.23-.34-.08-.1-.15-.17-.24-.27h1.58c-.05.08-.07.13-.09.22-.04.16-.01.27.04.42l2.13,5.93,1.97-5.86c.07-.15.12-.25.1-.41-.01-.13-.03-.21-.1-.31h1.28c-.13.15-.2.25-.3.42Z"/>
        <path class="st3" d="M146.84,47.6l-3.13-8.44c-.03-.12-.06-.19-.15-.3-.1-.12-.16-.18-.29-.26l-.24-.14h2l-.07.11c-.06.09-.08.14-.09.22-.02.1-.03.15,0,.22l2.05,5.84,1.74-4.63-.42-1.06c-.04-.1-.09-.16-.15-.24-.02-.02-.04-.05-.07-.08-.08-.1-.14-.16-.23-.26l-.13-.13h.18s1.71,0,1.71,0l-.07.11c-.04.08-.06.12-.08.2-.03.15,0,.24.03.38l2.06,5.72,1.9-5.65c.07-.16.11-.25.1-.38-.01-.12-.03-.19-.09-.28l-.08-.12h1.58l-.11.12c-.12.15-.19.25-.29.41-.02.03-.04.06-.05.09-.05.08-.08.15-.12.24l-2.96,8.24-2.28-6.12-2.24,6.17ZM143.54,38.61s.09.09.14.16c.11.13.14.23.18.35l2.99,8.05,2.24-6.17,2.28,6.12,2.82-7.85c.04-.11.08-.19.13-.27.02-.03.03-.06.05-.09h0c.08-.12.13-.21.21-.31h-.99c.03.07.04.15.05.23.01.17-.04.29-.11.44l-2.04,6.05-.07-.2-2.13-5.93c-.05-.15-.08-.27-.04-.46.01-.05.03-.09.04-.13h-1.28s.08.09.12.15c.02.03.04.05.06.07.07.08.13.15.18.28l.44,1.12v.03s-1.9,5.04-1.9,5.04l-2.19-6.22c-.04-.12-.03-.2,0-.3,0-.06.02-.11.05-.16h-1.23Z"/>
      </g>
      <g>
        <path class="st3" d="M157.11,38.89c-.08.28-.08.36-.08.49v6.37c0,.44,0,.84.03,1.13.02.14.09.21.16.32h-1.36c.07-.1.1-.17.14-.29.07-.16.07-.28.07-.45v-7.05c0-.17-.01-.28-.07-.45-.05-.15-.09-.26-.19-.39h1.43c-.06.12-.09.21-.14.34Z"/>
        <path class="st3" d="M157.36,47.26h-1.63l.08-.12c.07-.1.1-.16.13-.27.07-.16.07-.26.07-.43v-7.05c0-.17,0-.26-.07-.43-.05-.16-.09-.25-.18-.38l-.08-.12h1.69l-.05.11c-.06.11-.09.2-.13.32l-.07-.02.07.02c-.08.27-.08.34-.08.47v6.37c0,.45,0,.83.03,1.12.02.08.05.14.1.21.02.03.04.05.05.08l.07.11ZM156.01,47.11h1.09c-.04-.07-.08-.14-.1-.24-.04-.3-.04-.69-.04-1.14v-6.37c0-.13,0-.22.08-.51h0s.07.02.07.02l-.07-.03c.03-.08.06-.16.09-.23h-1.17c.05.09.09.18.12.3.06.18.07.3.07.47v7.05c0,.18,0,.31-.08.48-.02.07-.04.13-.08.19Z"/>
      </g>
      <g>
        <path class="st3" d="M166.86,38.91c-.04.19-.04.29-.04.46v8.1s-6.99-7.73-6.99-7.73v6.44q0,.26.08.64c.02.14.06.22.1.37h-1.1c.08-.12.13-.19.15-.31.05-.17.05-.29.05-.46v-7.24c0-.14-.02-.24-.09-.37-.06-.13-.13-.2-.24-.27h1.28l6.06,6.92v-5.5c0-.42.02-.68-.06-1.1-.02-.13-.05-.21-.08-.34h.97c-.05.14-.07.23-.09.38Z"/>
        <path class="st3" d="M166.91,47.67l-7-7.73v6.24q0,.25.08.62c.02.1.04.17.07.25.01.03.02.07.04.11l.03.1h-1.35l.08-.12c.08-.11.12-.17.14-.28.05-.17.05-.28.05-.45v-7.24c0-.13-.02-.22-.08-.34-.05-.11-.11-.17-.22-.24l-.23-.14h1.58l.02.03,5.93,6.77v-5.3c0-.08,0-.16,0-.23,0-.3,0-.53-.06-.86-.02-.11-.04-.19-.07-.3l-.03-.12h1.18l-.03.1c-.05.14-.07.23-.09.37h0c-.03.18-.03.28-.03.45v8.3ZM159.75,39.55l.13.14,6.87,7.59v-7.91c-.01-.18-.01-.29.02-.48.02-.11.04-.2.06-.29h-.77c.02.08.04.15.06.25.07.34.06.58.06.89,0,.07,0,.15,0,.23v5.7l-.13-.15-6.04-6.9h-1.03s.07.1.1.16c.07.13.1.24.1.4v7.24c0,.17,0,.3-.05.48-.01.09-.04.15-.08.22h.86s0,0,0-.01c-.03-.09-.05-.16-.07-.27-.08-.38-.08-.39-.08-.65v-6.63Z"/>
      </g>
      <g>
        <path class="st3" d="M170.69,47.2h-2.31c.07-.09.09-.15.14-.24.06-.16.08-.28.08-.45v-7.13c0-.2-.04-.33-.12-.51-.06-.13-.1-.21-.19-.32h2.62c1.12,0,1.99.95,2.05,2.08.02.82-.31,1.26-.94,1.62l-.33.2.35.13c.96.32,1.5,1.03,1.5,2.17-.01,1.53-1.1,2.47-2.86,2.47ZM170.37,39.12h-.85v3.12h.75c1.26,0,1.84-.68,1.81-1.62-.05-.87-.64-1.5-1.72-1.5ZM170.32,42.79c-.29,0-.46,0-.75.07v3.71c.31.09.52.13.85.1,1.14-.07,2.25-.71,2.21-1.96-.04-1.48-1.16-1.89-2.31-1.92Z"/>
        <path class="st3" d="M170.69,47.28h-2.46l.09-.12c.05-.07.08-.12.11-.19l.02-.04c.05-.15.07-.26.07-.42v-7.13c0-.19-.04-.31-.11-.48-.06-.12-.1-.2-.18-.31l-.08-.12h2.76c1.13,0,2.07.94,2.13,2.15.02.79-.26,1.28-.98,1.69l-.19.12.2.07c1.02.35,1.54,1.1,1.54,2.24-.01,1.57-1.14,2.54-2.94,2.54ZM168.53,47.13h2.17c1.71,0,2.78-.92,2.79-2.4,0-1.07-.49-1.77-1.44-2.1l-.5-.18.46-.28c.66-.38.92-.83.9-1.56-.06-1.12-.93-2-1.98-2h-2.48c.04.07.08.13.11.22.08.18.12.32.12.54v7.13c0,.18-.02.3-.09.48l-.02.05s-.03.06-.05.09ZM170.24,46.76c-.25,0-.44-.04-.69-.11l-.05-.02v-3.83h.06c.3-.09.48-.09.77-.09h0c1.53.05,2.35.74,2.38,2,.04,1.31-1.12,1.97-2.29,2.04-.07,0-.13,0-.19,0ZM169.64,46.52c.26.07.46.11.77.09,1.09-.07,2.18-.68,2.14-1.88-.03-1.18-.78-1.81-2.23-1.85-.26,0-.43,0-.68.05v3.6ZM170.28,42.31h-.83v-3.27h.92c1.05,0,1.74.6,1.79,1.57.02.48-.12.89-.41,1.19-.33.34-.84.52-1.48.52ZM169.6,42.16h.68c.6,0,1.07-.16,1.37-.47.25-.26.38-.64.36-1.08-.05-.89-.66-1.42-1.64-1.42h-.77v2.97Z"/>
      </g>
      <g>
        <path class="st3" d="M181.84,38.92c-.02.16-.01.25-.01.42v5.07c0,1.67-1.43,2.89-3.21,2.92-1.91.02-3.47-1.21-3.47-2.97v-4.97c0-.15.01-.24-.01-.39-.02-.19-.05-.29-.1-.45h1.18c-.06.13-.08.21-.1.36-.04.15-.02.25-.02.41v4.95c0,1.33,1.19,2.37,2.53,2.32,1.32-.04,2.25-1.02,2.25-2.25v-4.96c0-.17,0-.28-.02-.44-.03-.15-.06-.24-.12-.38h1.21c-.05.14-.07.23-.09.38Z"/>
        <path class="st3" d="M178.56,47.4c-1.03,0-1.99-.37-2.64-1.01-.56-.55-.85-1.26-.85-2.04v-4.97s0-.08,0-.11c0-.09,0-.17-.01-.27-.02-.19-.05-.29-.1-.44l-.04-.1h1.41l-.05.11c-.06.12-.08.19-.1.34-.03.12-.03.2-.02.3v.09s0,4.95,0,4.95c0,.59.24,1.14.68,1.56.45.44,1.06.68,1.69.68.03,0,.06,0,.08,0,1.26-.03,2.18-.95,2.18-2.17v-4.96c0-.17,0-.27-.02-.43-.03-.15-.05-.23-.11-.36l-.04-.1h1.42l-.03.1c-.05.14-.07.23-.09.37-.02.11-.01.19-.01.29,0,.03,0,.07,0,.11v5.07c0,1.67-1.41,2.96-3.28,3h-.05ZM175.13,38.61c.04.11.05.21.07.37.02.12.02.2.01.3,0,.03,0,.07,0,.11v4.97c0,.74.28,1.41.81,1.93.62.61,1.54.96,2.53.96.02,0,.03,0,.05,0,1.79-.04,3.14-1.26,3.14-2.85v-5.07s0-.08,0-.11c0-.1,0-.19.01-.32h0c.02-.11.03-.2.06-.3h-.99c.04.1.05.18.08.29.03.17.03.28.03.46v4.96c0,1.29-1,2.29-2.32,2.32-.7.02-1.38-.24-1.88-.72-.47-.45-.72-1.05-.72-1.67v-5.04c0-.11,0-.21.03-.33.02-.11.03-.18.06-.27h-.97Z"/>
      </g>
      <g>
        <path class="st3" d="M188.37,47.21l-3.48-4.52c-.09-.12-.13-.2-.23-.28-.05-.05-.09-.07-.15-.1v3.98c0,.19-.01.29.03.48.02.16.07.25.13.42h-1.28c.07-.14.13-.22.14-.36.04-.17.04-.56.04-.88v-6.22c0-.32-.01-.51-.07-.83-.04-.15-.09-.23-.16-.36h2.61c1.14,0,2.16.75,2.12,1.99-.02,1.21-1.08,2.24-2.35,2.04.07.06.1.1.17.16.24.23.38.38.6.66l2.06,2.62c.27.35.48.63.74.86.16.14.27.22.44.35h-1.37ZM185.44,39.05c-.36,0-.58.01-.92.16v2.99c.16.02.48.04.75.02,1.19-.09,1.91-.72,1.84-1.68-.05-.7-.28-1.44-1.68-1.5Z"/>
        <path class="st3" d="M189.97,47.29h-1.63l-3.5-4.55s-.06-.07-.08-.11c-.04-.06-.08-.11-.14-.16,0,0-.02-.02-.03-.03v3.93c0,.13,0,.22.03.36.02.12.05.2.09.3.01.03.03.07.04.11l.04.1h-1.5l.09-.19c.05-.1.08-.16.09-.26.04-.17.04-.56.04-.88v-6.22c0-.31,0-.49-.07-.82-.02-.1-.06-.17-.11-.26l-.1-.19h2.73c.65,0,1.26.24,1.67.66.36.37.55.86.53,1.41-.01.64-.3,1.24-.79,1.65-.41.34-.91.51-1.43.49,0,0,0,0,0,0,.26.25.4.4.61.67l2.12,2.69c.24.32.44.57.68.78.17.14.27.22.44.34l.18.14ZM188.41,47.14h1.11c-.08-.06-.16-.13-.27-.22-.25-.22-.45-.48-.7-.8l-.05-.07-2.06-2.62c-.21-.27-.35-.41-.6-.65-.03-.03-.06-.05-.09-.08-.02-.02-.05-.05-.08-.08l-.21-.17.27.04c.55.08,1.1-.07,1.53-.43.46-.38.72-.94.73-1.54.01-.51-.15-.96-.49-1.3-.38-.39-.95-.61-1.56-.61h-2.48c.04.08.08.15.11.27.06.34.07.54.07.85v6.22c0,.34,0,.71-.04.9,0,.1-.04.18-.09.27h1.04s0,0,0,0c-.04-.1-.07-.2-.09-.33-.04-.15-.04-.26-.04-.4v-.09s0-4.11,0-4.11h.01s0-3.01,0-3.01l.04-.02c.36-.16.59-.17.95-.17h0c1.47.06,1.71.87,1.75,1.57.07.99-.66,1.66-1.91,1.76-.22,0-.47,0-.65-.01.03.02.06.04.09.07.07.05.12.12.16.18.02.03.04.06.08.1l3.46,4.49ZM184.6,42.14c.16.02.42.02.67.01,1.17-.09,1.84-.69,1.77-1.6-.04-.67-.27-1.37-1.61-1.43-.33,0-.54,0-.84.14v2.88Z"/>
      </g>
      <g>
        <path class="st3" d="M198.41,38.91c-.04.19-.04.29-.04.46v8.1s-6.99-7.73-6.99-7.73v6.44q0,.26.08.64c.02.14.06.22.1.37h-1.1c.08-.12.13-.19.15-.31.05-.17.05-.29.05-.46v-7.24c0-.14-.02-.24-.09-.37-.06-.13-.13-.2-.24-.27h1.28l6.07,6.92v-5.5c0-.42.02-.68-.06-1.1-.02-.13-.05-.21-.08-.34h.97c-.05.14-.07.23-.09.38Z"/>
        <path class="st3" d="M198.46,47.67l-7-7.73v6.24q0,.25.08.62c.02.1.04.16.07.25.01.04.02.07.04.12l.03.1h-1.35l.08-.12c.08-.11.12-.17.14-.28.05-.17.05-.28.05-.45v-7.24c0-.13-.02-.22-.08-.34-.05-.11-.11-.17-.22-.24l-.23-.14h1.58l.02.03,5.93,6.77v-5.3c0-.08,0-.15,0-.22,0-.3,0-.53-.06-.87-.02-.12-.04-.2-.08-.33l-.03-.09h.1s1.08,0,1.08,0l-.03.1c-.05.14-.07.23-.09.37h0c-.03.18-.03.28-.03.45v8.3ZM191.31,39.55l.13.14,6.87,7.59v-7.91c-.01-.18-.01-.29.03-.48.02-.11.04-.2.06-.29h-.77c.02.08.04.15.06.25.07.35.06.59.06.9,0,.07,0,.14,0,.22v5.7l-.13-.15-6.04-6.9h-1.03s.07.1.1.16c.07.13.1.25.1.4v7.24c0,.17,0,.3-.05.48-.02.09-.04.15-.08.22h.86s0-.01,0-.02c-.03-.09-.05-.16-.07-.27-.08-.38-.08-.39-.08-.65v-6.63Z"/>
      </g>
      <g>
        <path class="st3" d="M205.02,47.19h-5c.08-.12.12-.2.15-.32.05-.16.02-.28.02-.44v-7.26c0-.15-.02-.24-.07-.37-.05-.1-.08-.16-.16-.24h4.42v.87c-.1-.1-.2-.16-.34-.21-.2-.07-.34-.04-.53-.04h-2.35v2.85h3.22v.82c-.17-.08-.29-.12-.49-.16-.14-.02-.24-.02-.38-.02h-2.32v3.87h2.77c.38,0,.6-.02.96-.14.16-.05.26-.09.4-.19l-.3.97Z"/>
        <path class="st3" d="M205.08,47.26h-5.2l.08-.12c.07-.11.11-.18.14-.3.03-.11.03-.19.02-.3,0-.04,0-.08,0-.12v-7.26c0-.14-.02-.22-.06-.35-.04-.09-.07-.14-.15-.22l-.13-.13h4.67v1.13l-.13-.13c-.1-.1-.18-.15-.31-.19-.13-.05-.23-.04-.36-.04-.05,0-.09,0-.15,0h-2.28v2.7h3.22v1.02l-.11-.05c-.17-.08-.28-.11-.47-.16-.13-.02-.23-.02-.37-.02h-2.24v3.72h2.7c.37,0,.58-.02.94-.14.15-.04.24-.08.38-.18l.18-.12-.38,1.23ZM200.16,47.11h4.81l.23-.73c-.08.04-.15.07-.25.09-.37.12-.61.14-.98.14h-2.85v-4.02h2.39c.14,0,.25,0,.39.02.16.04.27.07.4.12v-.63h-3.22v-3h2.43s.1,0,.14,0c.13,0,.26-.01.42.04.09.03.17.07.24.12v-.63h-4.18s.05.08.07.14c.05.14.08.24.08.4v7.26s0,.08,0,.11c0,.11,0,.21-.03.35-.02.09-.05.16-.09.23Z"/>
      </g>
      <g>
        <path class="st3" d="M135.11,53.83c-.02.16-.01.25-.01.42v5.07c0,1.67-1.43,2.89-3.21,2.92-1.91.02-3.47-1.21-3.47-2.97v-4.97c0-.15.01-.24-.01-.39-.02-.19-.05-.29-.1-.45h1.18c-.06.13-.08.21-.1.36-.04.15-.02.25-.02.41v4.95c0,1.33,1.2,2.37,2.53,2.32,1.32-.04,2.25-1.02,2.25-2.25v-4.96c0-.17,0-.28-.02-.44-.04-.15-.06-.24-.12-.38h1.21c-.05.14-.07.23-.09.38Z"/>
        <path class="st3" d="M131.83,62.32c-1.03,0-1.99-.37-2.64-1.01-.56-.55-.85-1.25-.85-2.04v-4.97s0-.08,0-.11c0-.09,0-.17-.01-.27-.02-.19-.05-.29-.1-.44l-.04-.1h1.41l-.05.11c-.06.12-.08.2-.1.34-.03.12-.03.2-.02.3v.09s0,4.95,0,4.95c0,.59.24,1.14.68,1.56.45.44,1.06.68,1.69.68.03,0,.06,0,.08,0,1.26-.03,2.18-.95,2.18-2.17v-4.96c0-.17,0-.27-.02-.43-.03-.14-.05-.23-.11-.36l-.04-.1h1.42l-.03.1c-.05.13-.07.22-.09.37-.02.11-.01.19-.01.29,0,.04,0,.07,0,.12v5.07c0,1.67-1.41,2.96-3.29,3h-.05ZM128.41,53.53c.04.11.05.21.07.37.02.11.02.2.01.29,0,.03,0,.07,0,.11v4.97c0,.74.28,1.41.81,1.93.62.61,1.54.96,2.53.96.02,0,.03,0,.05,0,1.79-.03,3.14-1.26,3.14-2.85v-5.07s0-.08,0-.12c0-.1,0-.19.01-.31h0c.02-.12.04-.2.06-.3h-.99c.03.1.05.18.08.29.02.17.02.28.02.46v4.96c0,1.29-1,2.29-2.32,2.32-.03,0-.06,0-.09,0-.66,0-1.31-.26-1.79-.72-.47-.45-.72-1.04-.72-1.67v-5.04c0-.11,0-.21.03-.34.02-.11.03-.18.07-.27h-.97Z"/>
      </g>
      <g>
        <path class="st3" d="M144.61,53.82c-.04.19-.04.29-.04.46v8.1s-6.99-7.73-6.99-7.73v6.44q0,.26.08.64c.02.14.06.22.1.37h-1.1c.08-.12.13-.19.15-.31.05-.17.05-.29.05-.46v-7.24c0-.14-.02-.24-.09-.37-.06-.13-.13-.2-.24-.27h1.28l6.06,6.92v-5.5c0-.42.02-.68-.06-1.1-.02-.13-.05-.21-.08-.34h.97c-.05.14-.07.23-.09.38Z"/>
        <path class="st3" d="M144.67,62.59l-7-7.73v6.24q0,.25.08.62c.02.1.04.17.07.26.01.03.02.07.03.11l.03.1h-1.35l.08-.12c.08-.11.12-.17.14-.28.05-.17.05-.28.05-.45v-7.24c0-.13-.02-.22-.08-.34-.05-.11-.11-.17-.22-.24l-.23-.14h1.58l.02.03,5.93,6.77v-5.3c0-.08,0-.16,0-.23,0-.3,0-.53-.06-.86-.02-.12-.04-.2-.08-.33l-.03-.1h1.18l-.03.1c-.05.14-.07.23-.09.37h0c-.03.18-.03.28-.03.45v8.3ZM137.51,54.46l.13.14,6.87,7.59v-7.91c-.01-.18-.01-.29.02-.48.02-.11.04-.2.06-.29h-.77c.02.08.04.15.06.25.07.34.06.59.06.89,0,.07,0,.14,0,.22v5.7l-.13-.15-6.04-6.9h-1.03s.07.1.1.16c.07.13.1.25.1.4v7.24c0,.17,0,.3-.05.48-.01.09-.04.15-.08.22h.86s0,0,0,0c-.03-.09-.06-.17-.07-.28-.08-.38-.08-.39-.08-.65v-6.63Z"/>
      </g>
      <g>
        <path class="st3" d="M147.57,53.8c-.08.28-.08.36-.08.49v6.37c0,.44,0,.84.04,1.13.02.14.09.21.16.32h-1.36c.07-.1.1-.17.14-.29.07-.16.07-.28.07-.45v-7.05c0-.17-.01-.28-.07-.45-.05-.15-.09-.25-.18-.39h1.42c-.06.12-.09.21-.14.34Z"/>
        <path class="st3" d="M147.82,62.18h-1.63l.08-.12c.07-.1.1-.17.13-.27.07-.16.07-.26.07-.43v-7.05c0-.16,0-.26-.07-.43-.05-.16-.09-.25-.18-.38l-.08-.12h1.69l-.05.11c-.05.11-.09.2-.13.32l-.07-.02.07.02c-.08.27-.08.34-.08.47v6.37c0,.45,0,.83.03,1.12.01.08.05.14.1.21.02.03.04.05.05.08l.07.11ZM146.47,62.03h1.08c-.04-.07-.08-.14-.1-.24-.04-.3-.04-.69-.04-1.14v-6.37c0-.13,0-.22.08-.51h0s.07.02.07.02l-.07-.03c.03-.08.06-.15.09-.23h-1.17c.05.09.09.18.12.3.06.19.07.3.07.48v7.05c0,.18,0,.31-.08.48-.02.07-.04.12-.07.18Z"/>
      </g>
      <g>
        <path class="st3" d="M157.28,53.88c-.08.13-.13.21-.19.34l-3.79,8.06-4.05-8.27c-.05-.1-.07-.19-.14-.29-.08-.13-.15-.2-.28-.28h1.39c-.05.08-.06.14-.06.21,0,.09.02.15.06.24l3.11,6.54,2.92-6.27c.06-.14.13-.23.14-.39,0-.12-.01-.2-.05-.31h1.21c-.12.15-.19.26-.28.43Z"/>
        <path class="st3" d="M153.3,62.45l-4.12-8.41s-.02-.06-.03-.08c-.03-.07-.05-.13-.1-.2-.07-.12-.14-.18-.25-.26l-.22-.14h1.78l-.07.11c-.04.07-.05.11-.05.17,0,.07.02.12.05.2l3.04,6.4,2.86-6.13s.03-.07.05-.1c.04-.08.08-.16.08-.26,0-.11-.01-.18-.04-.29l-.03-.1h1.46l-.09.12c-.11.14-.18.24-.27.42h0c-.08.13-.12.21-.18.33l-3.86,8.2ZM149.05,53.51s.08.1.12.16c.06.08.08.15.11.23,0,.02.02.05.03.07l3.98,8.12,3.73-7.92c.06-.13.11-.22.19-.34.07-.13.13-.22.19-.32h-.96c.02.08.02.15.02.24,0,.14-.05.23-.1.32-.02.03-.03.06-.05.1l-2.99,6.42-3.18-6.7c-.03-.09-.06-.16-.06-.26,0-.04,0-.09.02-.13h-1.06Z"/>
      </g>
      <g>
        <path class="st3" d="M163.86,62.1h-5c.08-.12.12-.2.15-.32.05-.16.02-.28.02-.44v-7.26c0-.15-.02-.24-.07-.37-.05-.1-.08-.16-.16-.24h4.42v.87c-.1-.1-.2-.16-.34-.21-.2-.07-.34-.04-.53-.04h-2.35v2.85h3.22v.82c-.17-.08-.29-.12-.49-.16-.14-.02-.24-.02-.38-.02h-2.32v3.87h2.77c.38,0,.6-.02.96-.14.16-.05.25-.09.39-.19l-.3.97Z"/>
        <path class="st3" d="M163.91,62.18h-5.2l.08-.12c.07-.11.11-.18.14-.3.03-.11.03-.2.02-.3,0-.04,0-.08,0-.12v-7.26c0-.14-.02-.22-.07-.35-.04-.09-.07-.14-.14-.22l-.13-.13h4.67v1.13l-.13-.13c-.1-.1-.18-.15-.31-.19-.13-.05-.23-.04-.36-.04-.05,0-.09,0-.15,0h-2.28v2.7h3.22v1.02l-.11-.05c-.17-.08-.28-.11-.47-.16-.13-.02-.23-.02-.37-.02h-2.24v3.72h2.7c.37,0,.58-.02.94-.14.15-.04.24-.08.38-.18l.18-.12-.38,1.23ZM159,62.03h4.81l.23-.73c-.08.04-.15.07-.24.09-.37.12-.61.14-.98.14h-2.85v-4.02h2.39c.14,0,.25,0,.4.02.16.04.27.07.4.12v-.63h-3.22v-3h2.43s.1,0,.14,0c.13,0,.26-.01.42.04.09.03.17.07.24.12v-.63h-4.18s.05.09.07.14c.05.14.08.24.08.4v7.26s0,.08,0,.11c0,.11,0,.22-.03.35-.02.09-.05.16-.09.23Z"/>
      </g>
      <g>
        <path class="st3" d="M170.34,62.12l-3.48-4.52c-.09-.12-.13-.2-.23-.28-.05-.05-.09-.07-.15-.1v3.98c0,.19-.01.29.03.48.02.16.07.25.13.42h-1.27c.07-.14.13-.22.14-.36.03-.17.03-.56.03-.88v-6.22c0-.32-.01-.51-.07-.84-.04-.15-.09-.23-.16-.36h2.61c1.14,0,2.16.75,2.12,1.99-.02,1.21-1.08,2.24-2.35,2.04.07.06.1.1.17.16.24.23.38.38.6.66l2.06,2.62c.27.35.48.63.74.86.16.14.27.22.44.35h-1.37ZM167.41,53.96c-.36,0-.58.01-.92.16v2.99c.16.02.48.04.75.02,1.19-.09,1.91-.72,1.84-1.68-.05-.7-.28-1.44-1.68-1.5Z"/>
        <path class="st3" d="M171.94,62.2h-1.63l-3.5-4.55s-.05-.07-.08-.11c-.04-.06-.08-.11-.14-.16,0,0-.02-.02-.03-.03v3.93c0,.13,0,.22.03.36.02.12.05.2.09.31.01.03.03.07.04.1l.04.1h-1.5l.09-.19c.05-.1.08-.16.09-.25.03-.18.03-.56.03-.88v-6.22c0-.31,0-.49-.07-.82-.02-.1-.06-.17-.11-.26l-.1-.19h2.73c.65,0,1.26.24,1.66.66.36.37.55.86.53,1.41-.01.64-.3,1.24-.79,1.65-.38.32-.84.49-1.33.49-.03,0-.07,0-.1,0,0,0,0,0,0,0,.26.25.4.4.61.67l2.1,2.67c.25.32.45.58.69.8.17.14.27.22.44.34l.18.14ZM170.38,62.05h1.11c-.08-.06-.16-.13-.26-.22-.26-.23-.46-.49-.71-.82l-.04-.05-2.06-2.62c-.21-.27-.35-.41-.6-.65-.03-.03-.06-.06-.09-.08-.02-.02-.05-.05-.08-.07l-.21-.17.27.04c.55.09,1.1-.07,1.53-.43.46-.38.72-.94.74-1.54.01-.51-.16-.96-.49-1.3-.38-.39-.95-.61-1.56-.61h-2.48c.04.08.08.15.11.27.06.35.07.54.07.85v6.22c0,.33,0,.71-.04.9,0,.1-.04.18-.09.27h1.04s0,0,0,0c-.04-.11-.07-.2-.09-.33-.04-.15-.04-.26-.04-.4v-.09s0-4.11,0-4.11h.01s0-3.01,0-3.01l.04-.02c.36-.16.59-.17.95-.17h0c1.46.06,1.71.87,1.75,1.57.07.99-.66,1.66-1.91,1.76-.22,0-.47,0-.65-.01.03.02.06.04.09.07.07.06.12.12.16.19.02.03.04.06.07.1l3.46,4.49ZM166.57,57.05c.17.02.45.02.68.02,1.17-.09,1.84-.69,1.77-1.6-.05-.71-.28-1.37-1.61-1.43-.33,0-.53,0-.84.14v2.88Z"/>
      </g>
      <g>
        <path class="st3" d="M174.23,62.25c-.75-.01-1.23.01-1.94-.26v-.92c.64.52,1.21.58,2.03.59,1.37.05,2.2-.57,2.2-1.65,0-.82-.61-1.25-1.33-1.66l-1.58-.9c-.85-.5-1.35-1.07-1.36-1.99-.01-1.37,1.33-2.18,2.79-2.13.68.02,1.11,0,1.74.25v.89c-.49-.46-.97-.57-1.65-.59-.95-.06-2,.58-1.91,1.53.06.61.48.95,1.02,1.26l1.38.8c1.04.6,1.91.93,1.97,2.4.07,1.91-1.81,2.4-3.37,2.37Z"/>
        <path class="st3" d="M174.38,62.33c-.05,0-.1,0-.15,0h-.21c-.64-.01-1.1-.02-1.75-.26l-.05-.02v-1.13l.12.1c.63.52,1.2.56,1.98.57.75.03,1.34-.15,1.71-.5.28-.27.42-.63.42-1.07,0-.8-.61-1.21-1.3-1.59l-1.58-.91c-.97-.57-1.38-1.18-1.4-2.06,0-.55.2-1.04.6-1.43.53-.52,1.38-.81,2.27-.78h.25c.55.02.96.03,1.51.26l.05.02v1.12l-.13-.12c-.47-.45-.94-.55-1.6-.57-.56-.03-1.14.18-1.49.54-.25.26-.37.57-.34.91.05.56.41.88.98,1.21l1.38.8c.11.06.21.12.31.18.92.51,1.64.92,1.7,2.29.02.64-.17,1.17-.56,1.58-.73.74-1.97.87-2.73.87ZM172.37,61.94c.6.22,1.04.22,1.65.23h.22c.71.02,2.03-.07,2.78-.82.37-.37.54-.87.52-1.46-.05-1.28-.71-1.65-1.62-2.16-.1-.06-.21-.12-.31-.18l-1.38-.8c-.59-.34-1-.7-1.06-1.32-.03-.38.1-.73.38-1.03.38-.39,1.01-.62,1.61-.59.63.02,1.1.11,1.57.5v-.67c-.51-.2-.89-.21-1.42-.22-.08,0-.16,0-.25,0-.85-.02-1.66.25-2.16.74-.37.36-.56.81-.55,1.32,0,.81.41,1.39,1.32,1.93l1.58.9c.69.39,1.37.85,1.37,1.72,0,.47-.16.88-.46,1.17-.37.36-.95.55-1.67.55-.05,0-.1,0-.15,0-.74-.01-1.33-.06-1.95-.51v.71Z"/>
      </g>
      <g>
        <path class="st3" d="M179.88,53.8c-.08.28-.08.36-.08.49v6.37c0,.44,0,.84.04,1.13.02.14.09.21.16.32h-1.36c.07-.1.1-.17.14-.29.07-.16.07-.28.07-.45v-7.05c0-.17-.01-.28-.07-.45-.05-.15-.09-.25-.18-.39h1.43c-.06.12-.09.21-.14.34Z"/>
        <path class="st3" d="M180.13,62.18h-1.63l.08-.12c.07-.1.1-.16.13-.27.07-.16.07-.26.07-.43v-7.05c0-.16,0-.26-.07-.43-.05-.16-.09-.25-.18-.38l-.08-.12h1.69l-.05.11c-.06.11-.09.19-.13.33-.08.27-.08.34-.08.46v6.37c0,.45,0,.83.03,1.12.01.08.05.14.1.21.02.03.04.05.05.08l.07.11ZM178.78,62.03h1.08c-.04-.07-.08-.14-.1-.24-.04-.3-.04-.69-.04-1.14v-6.37c0-.13,0-.22.08-.51h0c.03-.09.06-.16.09-.24h-1.17c.05.09.09.18.12.3.06.19.07.3.07.47v7.05c0,.18,0,.31-.08.48-.02.07-.04.13-.07.18Z"/>
      </g>
      <g>
        <path class="st3" d="M187.41,54.16c-.19-.06-.31-.08-.51-.08h-1.89v7.25c0,.17-.01.14.05.46.01.12.06.2.13.31h-1.35c.06-.1.08-.17.12-.28.03-.17.01-.29.01-.48v-7.24h-2.18c-.12,0-.19.01-.3.05-.18.04-.3.09-.45.19l.18-.89h6.5l.08.85c-.14-.07-.24-.1-.39-.14Z"/>
        <path class="st3" d="M185.32,62.18h-1.61l.06-.11c.06-.1.08-.17.11-.27.02-.1.02-.19.01-.3,0-.05,0-.1,0-.15v-7.16h-2.11c-.1,0-.17,0-.28.04-.18.03-.29.09-.43.18l-.15.09.23-1.12h6.63l.1,1.05-.12-.06c-.13-.06-.22-.1-.38-.13h0c-.19-.06-.31-.08-.49-.08h-1.82v7.24c0,.1,0,.11.05.38,0,.1.05.17.12.29l.07.11ZM183.96,62.03h1.09c-.04-.07-.06-.14-.07-.23-.05-.27-.05-.29-.05-.4v-7.39h1.97c.19,0,.33.02.53.08.11.03.2.05.29.09l-.06-.65h-6.37l-.14.67c.1-.05.2-.09.33-.11.12-.04.2-.05.32-.05h2.26v7.31c0,.05,0,.1,0,.15,0,.11,0,.21-.02.34-.02.07-.04.13-.07.19Z"/>
      </g>
      <g>
        <path class="st3" d="M195.09,53.76c-.1.14-.16.23-.26.38l-2.39,3.58v3.84c0,.1.01.17.03.29.02.09.04.15.07.25h-1.12c.05-.1.07-.17.08-.27.02-.08.01-.14.01-.23v-3.88l-2.35-3.7c-.08-.13-.13-.2-.22-.32-.08-.09-.14-.16-.25-.26h1.39c-.01.12,0,.2.02.3.05.15.1.23.19.36l1.81,2.93,1.97-3.12c.06-.09.1-.16.13-.27.01-.08.01-.14,0-.22h1.18c-.13.12-.2.2-.29.32Z"/>
        <path class="st3" d="M192.65,62.19h-1.34l.05-.11c.05-.11.06-.17.07-.25.02-.06.01-.1.01-.16,0-.02,0-.04,0-.07v-3.86l-2.34-3.68c-.08-.13-.13-.2-.22-.32-.08-.09-.13-.16-.24-.24l-.17-.13h1.69v.08c-.02.1,0,.18.01.28.04.12.08.19.15.3l.02.04,1.75,2.83,1.91-3.02c.06-.1.1-.16.12-.24.01-.07.01-.12,0-.19v-.09s1.45,0,1.45,0l-.15.13c-.13.12-.19.2-.28.31h0c-.1.13-.15.22-.24.37l-2.38,3.58v3.82c0,.1,0,.16.03.28v.05c.03.06.04.11.07.2l.03.1ZM191.54,62.04h.91s-.02-.07-.03-.11v-.05c-.04-.13-.05-.2-.05-.31v-3.86l2.4-3.6c.1-.15.15-.25.26-.39.06-.08.1-.14.17-.2h-.91c0,.05,0,.1,0,.16-.03.12-.07.19-.13.28l-2.04,3.24-.06-.1-1.83-2.97c-.07-.11-.13-.2-.17-.34-.02-.09-.03-.16-.03-.25h-1.12s.07.08.11.12c.1.14.15.21.24.34l2.37,3.72v3.91s0,.04,0,.06c0,.06,0,.12-.02.19,0,.06-.02.11-.04.17Z"/>
      </g>
      <g>
        <path class="st3" d="M204.29,62.11c-2.39-.08-4.33-2.03-4.33-4.43s2.04-4.49,4.52-4.42c2.47.09,4.27,2.02,4.31,4.4.05,2.6-2.05,4.51-4.51,4.45ZM204.42,53.97c-2.07-.02-3.43,1.72-3.47,3.66-.03,1.95,1.34,3.71,3.36,3.76,2.01.05,3.55-1.75,3.55-3.73-.02-1.96-1.41-3.65-3.44-3.69Z"/>
        <path class="st3" d="M204.4,62.19s-.07,0-.11,0h0c-2.47-.08-4.4-2.06-4.4-4.5,0-1.2.5-2.38,1.37-3.23.84-.82,1.94-1.27,3.1-1.27.04,0,.08,0,.13,0,2.45.09,4.34,2.01,4.39,4.47.02,1.23-.44,2.38-1.29,3.23-.83.83-1.99,1.3-3.19,1.3ZM204.29,62.04c1.19.03,2.36-.43,3.19-1.26.82-.82,1.27-1.93,1.24-3.12-.05-2.37-1.87-4.23-4.24-4.32-1.16-.04-2.27.4-3.12,1.23-.84.82-1.33,1.96-1.33,3.12,0,2.36,1.87,4.27,4.25,4.35h0ZM204.39,61.47s-.05,0-.08,0c-1.96-.04-3.47-1.73-3.44-3.83.03-1.82,1.27-3.74,3.5-3.74h.04c1.98.03,3.49,1.65,3.52,3.76,0,1.06-.43,2.09-1.18,2.82-.65.64-1.49.99-2.37.99ZM204.38,54.05c-2.13,0-3.32,1.84-3.35,3.59-.04,2.02,1.41,3.64,3.29,3.68.02,0,.05,0,.07,0,.84,0,1.64-.33,2.26-.94.72-.7,1.14-1.69,1.14-2.71-.02-2.03-1.47-3.58-3.37-3.61h0s-.03,0-.04,0Z"/>
      </g>
      <g>
        <path class="st3" d="M214.1,57.57c-.2-.01-.31,0-.5,0h-2.32v3.17c0,.43.01.61.07,1.12.01.12.06.15.08.25h-1.26c.07-.13.1-.21.14-.34.03-.16.01-.28.01-.45v-7.26c0-.14-.02-.23-.07-.36-.04-.1-.08-.17-.14-.26h4.37v.87c-.12-.09-.19-.15-.32-.2-.19-.05-.34-.04-.56-.04h-2.35v2.84h3.25v.71c-.15-.03-.24-.07-.39-.07Z"/>
        <path class="st3" d="M211.53,62.19h-1.48l.06-.11c.07-.12.1-.2.13-.32.02-.1.02-.18.01-.28,0-.05,0-.09,0-.15v-7.26c0-.13-.02-.22-.06-.33-.03-.1-.08-.16-.13-.24l-.09-.12h4.59v1.1l-.12-.1c-.12-.1-.18-.14-.3-.18-.14-.04-.26-.03-.42-.03h-.11s-2.28,0-2.28,0v2.69h3.25v.88l-.09-.02s-.07-.02-.1-.02c-.1-.02-.17-.04-.28-.04h0c-.13,0-.22,0-.32,0-.05,0-.11,0-.18,0h-2.24v3.09c0,.43.01.62.07,1.12,0,.05.02.09.04.12.01.03.03.07.04.12l.02.09ZM210.29,62.04h1.04s0,0,0,0c-.02-.04-.04-.09-.05-.17-.06-.5-.07-.7-.07-1.13v-3.24h2.39c.06,0,.12,0,.17,0,.1,0,.2,0,.33,0,.12,0,.21.02.31.05,0,0,0,0,0,0v-.54h-3.25v-2.99h2.54c.17,0,.3,0,.47.04.1.03.16.07.23.12v-.64h-4.16s.05.1.07.16c.05.13.07.23.07.38v7.26c0,.05,0,.1,0,.14,0,.1,0,.2-.02.33-.03.1-.05.17-.09.25Z"/>
      </g>
      <g>
        <path class="st3" d="M137.06,69.07c-.19-.06-.31-.08-.51-.08h-1.89v7.25c0,.17-.01.14.05.46.01.12.06.2.13.31h-1.35c.06-.11.08-.17.12-.28.04-.17.01-.29.01-.48v-7.24h-2.18c-.12,0-.18.01-.3.05-.19.04-.3.09-.45.19l.19-.89h6.5l.08.85c-.14-.07-.24-.1-.39-.14Z"/>
        <path class="st3" d="M134.97,77.09h-1.61l.06-.11c.05-.1.07-.16.11-.26.02-.11.02-.2.01-.3,0-.05,0-.1,0-.16v-7.16h-2.11c-.1,0-.17,0-.28.04-.18.03-.29.09-.44.18l-.15.09.23-1.12h6.63l.1,1.05-.12-.06c-.13-.06-.23-.1-.38-.13h0c-.19-.06-.31-.08-.49-.08h-1.81v7.25c0,.09,0,.11.04.38.01.11.05.18.12.29l.07.11ZM133.61,76.94h1.09c-.04-.07-.06-.14-.07-.23-.05-.26-.05-.29-.05-.4v-.07s0-7.32,0-7.32h1.96c.2,0,.33.02.53.08.11.03.2.05.29.09l-.06-.65h-6.38l-.14.67c.1-.05.2-.09.33-.11.12-.04.2-.05.31-.05h2.26v7.31c0,.05,0,.1,0,.15,0,.11,0,.21-.02.34-.02.07-.04.13-.07.19Z"/>
      </g>
      <g>
        <path class="st3" d="M143.92,77.01h-5c.08-.12.12-.2.15-.32.05-.16.02-.28.02-.44v-7.26c0-.15-.02-.24-.07-.37-.05-.1-.08-.16-.16-.24h4.42v.87c-.1-.1-.2-.16-.34-.21-.2-.07-.33-.04-.53-.04h-2.35v2.85h3.22v.82c-.17-.08-.29-.12-.49-.16-.14-.02-.24-.02-.38-.02h-2.32v3.87h2.77c.38,0,.6-.02.96-.14.16-.05.25-.09.39-.19l-.3.97Z"/>
        <path class="st3" d="M143.98,77.09h-5.2l.08-.12c.07-.1.11-.18.14-.3.03-.11.03-.2.02-.3,0-.04,0-.08,0-.12v-7.26c0-.14-.02-.23-.06-.34-.04-.1-.07-.15-.15-.22l-.12-.13h4.67v1.13l-.13-.13c-.1-.1-.18-.15-.31-.19-.14-.05-.24-.04-.36-.04-.05,0-.09,0-.15,0h-2.28v2.7h3.22v1.02l-.11-.05c-.17-.08-.28-.11-.47-.16-.13-.02-.23-.02-.37-.02h-2.24v3.72h2.7c.36,0,.58-.02.94-.14.15-.04.24-.08.38-.18l.17-.12-.38,1.23ZM139.06,76.94h4.81l.23-.74c-.08.04-.15.07-.25.09-.38.12-.61.14-.98.14h-2.85v-4.02h2.39c.14,0,.25,0,.4.02.16.04.27.07.4.12v-.63h-3.22v-3h2.43s.1,0,.14,0c.13,0,.26-.01.42.04.09.03.17.07.24.12v-.63h-4.18s.05.08.07.14c.05.13.08.24.08.4v7.26s0,.08,0,.12c0,.11,0,.21-.03.35-.03.09-.05.16-.09.23Z"/>
      </g>
      <g>
        <path class="st3" d="M151.68,76.86c-.77.28-1.26.28-2.09.3-2.89.13-4.97-1.84-4.99-4.43-.01-2.59,2.1-4.51,4.89-4.49.79.01,1.3.06,2.04.37v.85c-.7-.4-1.21-.53-2.02-.55-2.33-.05-3.93,1.68-3.95,3.82-.04,2.25,1.74,3.79,4.01,3.73.79-.01,1.72-.16,2.56-.75l-.46,1.15Z"/>
        <path class="st3" d="M149.33,77.24c-1.34,0-2.56-.46-3.44-1.3-.87-.83-1.35-1.97-1.36-3.21,0-1.2.45-2.32,1.28-3.15.92-.91,2.21-1.42,3.64-1.42h.05c.84.01,1.34.07,2.07.38l.05.02v1.03l-.11-.06c-.68-.39-1.18-.52-1.98-.54-.03,0-.06,0-.09,0-1.03,0-1.98.37-2.67,1.03-.71.69-1.11,1.66-1.12,2.71-.02,1.01.33,1.91,1.01,2.58.71.7,1.7,1.08,2.8,1.08.04,0,.08,0,.12,0,1-.01,1.83-.26,2.52-.74l.21-.14-.57,1.41h-.03c-.74.28-1.24.29-1.99.31h-.12c-.09,0-.18,0-.26,0ZM149.45,68.32c-1.39,0-2.64.49-3.53,1.37-.8.8-1.24,1.88-1.24,3.04,0,1.2.47,2.3,1.31,3.1.86.82,2.04,1.26,3.34,1.26.08,0,.17,0,.26,0h.12c.73-.02,1.21-.04,1.91-.29l.36-.89c-.67.41-1.46.62-2.4.63-1.19.03-2.27-.37-3.03-1.12-.7-.69-1.07-1.65-1.06-2.69.01-1.09.43-2.09,1.17-2.81.72-.7,1.7-1.08,2.77-1.08.03,0,.06,0,.09,0,.78.01,1.29.14,1.94.49v-.67c-.68-.28-1.16-.33-1.97-.35h-.05Z"/>
      </g>
      <g>
        <path class="st3" d="M158.87,77c.1-.13.14-.22.17-.37.01-.1,0-.17,0-.3v-3.87h-4.7v3.5c0,.31-.04.39.06.79.03.11.09.17.16.28h-1.33c.07-.09.1-.15.15-.24.06-.16.05-.28.05-.45v-7.17c0-.17,0-.29-.05-.45-.06-.14-.1-.22-.2-.35h1.36c-.07.12-.09.19-.14.3-.08.25-.07.43-.07.71v2.45h4.71v-2.56c0-.19.02-.31-.04-.49-.05-.16-.1-.27-.22-.39h1.36c-.06.13-.09.22-.13.36-.07.28-.05.46-.05.75v6.77c0,.14.01.24.05.39.04.13.07.22.14.35h-1.29Z"/>
        <path class="st3" d="M154.71,77.1h-1.62l.09-.12c.07-.09.1-.14.14-.23.04-.12.04-.21.04-.35v-.07s0-7.17,0-7.17c0-.17,0-.28-.04-.43-.05-.13-.09-.2-.19-.32l-.09-.12h1.64l-.07.11c-.06.09-.08.15-.11.24l-.02.05c-.07.21-.07.36-.06.58v.1s0,2.37,0,2.37h4.56v-2.49s0-.08,0-.12c0-.12,0-.22-.03-.34-.04-.15-.1-.25-.2-.37l-.11-.12h1.64l-.05.11c-.05.12-.09.21-.12.35-.05.21-.05.37-.04.56,0,.05,0,.11,0,.17v6.77c0,.13.01.23.04.38.04.13.07.21.13.33l.06.11h-1.57l.1-.12c.09-.12.12-.2.16-.34,0-.05,0-.1,0-.16,0-.04,0-.08,0-.12v-3.8h-4.55v3.43c0,.07,0,.14,0,.19,0,.18,0,.29.06.58.02.07.06.12.11.19l.12.18ZM153.38,76.95h1.05c-.04-.05-.07-.11-.09-.18-.08-.32-.07-.44-.07-.62,0-.05,0-.11,0-.19v-3.58h4.85v3.95s0,.08,0,.12c0,.06,0,.12,0,.19-.03.11-.05.2-.1.29h1.02c-.04-.08-.06-.16-.09-.25-.04-.16-.05-.27-.05-.41v-6.77c0-.06,0-.12,0-.17,0-.2,0-.37.05-.6.03-.1.05-.18.09-.27h-1.09c.06.09.1.18.14.3.05.14.04.26.04.39,0,.04,0,.08,0,.12v2.64h-4.86v-2.62c0-.22,0-.4.07-.63l.02-.05c.02-.05.04-.1.06-.15h-1.09c.05.08.08.15.12.24.05.18.05.31.05.48v7.24c0,.14,0,.26-.05.41-.03.06-.05.1-.08.14Z"/>
      </g>
      <g>
        <path class="st3" d="M169.73,68.73c-.04.19-.04.29-.04.46v8.1s-6.99-7.73-6.99-7.73v6.43q0,.26.08.64c.02.14.06.22.1.37h-1.1c.08-.12.13-.19.15-.31.05-.17.05-.29.05-.46v-7.24c0-.14-.02-.24-.09-.37-.06-.13-.13-.2-.24-.27h1.28l6.06,6.92v-5.5c0-.42.02-.68-.06-1.1-.02-.13-.05-.21-.08-.34h.97c-.05.14-.07.23-.09.38Z"/>
        <path class="st3" d="M169.79,77.5l-7-7.73v6.24q0,.25.08.62c.02.1.04.16.07.25.01.04.02.07.04.12l.03.1h-1.35l.08-.12c.08-.11.12-.17.14-.28.05-.17.05-.28.05-.45v-7.24c0-.13-.02-.22-.08-.33-.05-.11-.11-.17-.22-.24l-.23-.14h1.58l.02.03,5.93,6.77v-5.3c0-.08,0-.15,0-.22,0-.3,0-.53-.06-.86-.02-.11-.04-.19-.07-.29l-.04-.13h1.17l-.03.1c-.05.14-.07.23-.09.37h0c-.03.18-.03.28-.03.45v8.3ZM162.63,69.37l.13.14,6.87,7.59v-7.91c-.01-.18-.01-.29.02-.48.02-.11.04-.2.06-.29h-.77c.02.08.04.15.06.25.07.34.06.59.06.89,0,.07,0,.14,0,.22v5.7l-.13-.15-6.04-6.9h-1.03s.07.1.1.16c.07.13.1.24.1.4v7.24c0,.17,0,.3-.05.48-.01.09-.04.15-.08.22h.86s0-.01,0-.02c-.03-.09-.05-.16-.07-.27-.08-.38-.08-.39-.08-.65v-6.63Z"/>
      </g>
      <g>
        <path class="st3" d="M175.49,77.02c-2.39-.08-4.33-2.03-4.33-4.43s2.04-4.49,4.52-4.42c2.47.09,4.27,2.02,4.31,4.39.05,2.6-2.05,4.51-4.51,4.45ZM175.61,68.88c-2.08-.02-3.43,1.72-3.47,3.66-.04,1.95,1.34,3.71,3.36,3.76,2.01.05,3.55-1.75,3.55-3.73-.02-1.96-1.41-3.65-3.44-3.69Z"/>
        <path class="st3" d="M175.59,77.1s-.07,0-.11,0h0c-2.47-.08-4.4-2.06-4.4-4.5,0-1.2.5-2.38,1.37-3.22.84-.82,1.94-1.27,3.1-1.27.04,0,.08,0,.13,0,2.45.09,4.34,2.01,4.39,4.47.02,1.23-.44,2.38-1.29,3.23-.84.83-1.99,1.3-3.19,1.3ZM175.49,76.95c1.19.03,2.36-.43,3.19-1.26.82-.82,1.27-1.93,1.24-3.12-.05-2.37-1.87-4.23-4.24-4.32-1.17-.03-2.27.4-3.12,1.23-.84.82-1.33,1.96-1.33,3.12,0,2.36,1.87,4.27,4.25,4.35ZM175.58,76.38s-.05,0-.08,0c-1.96-.04-3.47-1.73-3.44-3.83.03-1.82,1.27-3.74,3.5-3.74h.04c1.98.03,3.49,1.65,3.52,3.76,0,1.06-.43,2.09-1.18,2.82-.65.64-1.49.99-2.37.99ZM175.57,68.96c-2.13,0-3.32,1.84-3.35,3.59-.04,2.02,1.41,3.64,3.29,3.68.02,0,.05,0,.07,0,.84,0,1.64-.33,2.26-.94.72-.7,1.13-1.69,1.13-2.71-.02-2.03-1.47-3.58-3.37-3.61h-.04Z"/>
      </g>
      <g>
        <path class="st3" d="M186.48,77h-5.02c.06-.08.1-.15.14-.24.07-.16.06-.28.06-.46v-7.1c0-.17-.01-.27-.06-.44-.05-.15-.09-.26-.19-.38h1.34c-.06.12-.09.2-.13.32-.07.27-.05.44-.05.73v6.91s3.35-.01,3.35-.01c.2,0,.31-.01.51-.08.17-.06.12.01.41-.24l-.37,1Z"/>
        <path class="st3" d="M186.53,77.08h-5.22l.08-.12c.06-.09.1-.14.13-.23.06-.13.05-.22.05-.36v-.07s0-7.1,0-7.1c0-.17-.01-.26-.05-.42-.05-.15-.09-.25-.17-.36l-.09-.12h1.61l-.05.11c-.06.11-.09.19-.12.31-.05.2-.05.34-.05.54,0,.05,0,.11,0,.17v6.84s3.28-.01,3.28-.01c.2,0,.3-.01.48-.08.04-.01.07-.02.1-.03.06-.01.07-.02.28-.2l.12.08-.39,1.05ZM181.6,76.93h4.83l.25-.69s-.08.04-.13.06c-.02,0-.05.01-.08.02-.2.07-.33.08-.53.08h-3.41s0-.06,0-.06v-6.91c-.01-.06-.01-.11-.01-.17,0-.2,0-.36.05-.58.02-.09.05-.16.08-.23h-1.09c.05.08.08.17.12.29.05.18.06.28.06.46v7.17c0,.15,0,.27-.06.42-.02.05-.04.1-.07.14Z"/>
      </g>
      <g>
        <path class="st3" d="M191.33,77.02c-2.39-.08-4.33-2.03-4.33-4.43s2.04-4.49,4.52-4.42c2.47.09,4.27,2.02,4.31,4.39.05,2.6-2.05,4.51-4.51,4.45ZM191.46,68.88c-2.08-.02-3.43,1.72-3.47,3.66-.04,1.95,1.34,3.71,3.36,3.76,2.01.05,3.55-1.75,3.55-3.73-.02-1.96-1.41-3.65-3.44-3.69Z"/>
        <path class="st3" d="M191.43,77.1s-.07,0-.11,0h0c-2.47-.08-4.4-2.06-4.4-4.5,0-1.2.5-2.38,1.37-3.22.84-.82,1.94-1.27,3.1-1.27.04,0,.08,0,.13,0,2.45.09,4.34,2.01,4.39,4.47.02,1.23-.44,2.38-1.29,3.23-.84.83-1.99,1.3-3.19,1.3ZM191.33,76.95c1.19.03,2.36-.43,3.19-1.26.82-.82,1.27-1.93,1.24-3.12-.05-2.37-1.87-4.23-4.24-4.32-1.16-.03-2.27.4-3.12,1.23-.84.82-1.33,1.96-1.33,3.12,0,2.36,1.87,4.27,4.25,4.35ZM191.43,76.38s-.05,0-.08,0c-1.96-.04-3.47-1.73-3.44-3.83.03-1.82,1.27-3.74,3.5-3.74h.04c1.98.03,3.49,1.65,3.52,3.76,0,1.06-.43,2.09-1.18,2.82-.65.64-1.49.99-2.37.99ZM191.42,68.96c-2.14,0-3.32,1.84-3.35,3.59-.04,2.02,1.41,3.64,3.29,3.68.02,0,.05,0,.07,0,.84,0,1.64-.33,2.26-.94.72-.7,1.14-1.69,1.14-2.71-.02-2.03-1.47-3.58-3.37-3.61h-.04Z"/>
      </g>
      <g>
        <path class="st3" d="M204.98,73.02c-.05.13-.03.22-.03.36v2.89c-.6.41-1.72.81-2.88.86-2.77.12-4.95-1.88-4.92-4.41.05-2.85,2.05-4.49,4.71-4.46.88.01,1.44.05,2.25.36v.89c-.82-.5-1.69-.57-2.42-.57-2.45.04-3.64,1.94-3.6,3.77.07,2.15,1.74,3.76,4.01,3.65.73-.04,1.28-.15,1.96-.54v-1.66c0-.38.02-.66-.09-1.02-.06-.19-.14-.28-.27-.42h1.44c-.08.1-.13.17-.16.3Z"/>
        <path class="st3" d="M201.83,77.21c-1.33,0-2.55-.48-3.45-1.35-.86-.84-1.32-1.95-1.31-3.14.04-2.72,1.94-4.54,4.73-4.54h.05c.86.01,1.44.04,2.28.37l.05.02v1.08l-.11-.07c-.81-.49-1.66-.56-2.38-.56-1.03.01-1.9.37-2.54,1.03-.65.68-1.01,1.65-.99,2.66.03,1.03.45,1.96,1.16,2.62.68.63,1.58.96,2.57.96.07,0,.13,0,.2,0,.68-.03,1.21-.13,1.89-.51v-1.78c0-.3,0-.54-.09-.83-.05-.17-.12-.25-.25-.39l-.11-.13h1.76l-.09.12c-.08.1-.12.16-.15.28h0c-.03.1-.03.17-.03.27v.07s.01,2.93.01,2.93l-.03.02c-.56.37-1.66.82-2.93.87-.08,0-.16,0-.24,0ZM201.8,68.33c-2.74,0-4.53,1.72-4.58,4.39-.02,1.14.43,2.22,1.26,3.03.87.85,2.05,1.31,3.35,1.31.08,0,.15,0,.23,0,1.13-.04,2.22-.44,2.82-.82v-2.91c-.01-.11-.02-.2.03-.31.02-.09.05-.15.09-.2h-1.13c.07.09.13.18.17.32.1.32.1.58.1.88v.16s0,1.7,0,1.7l-.04.02c-.73.42-1.3.52-1.99.55-1.11.05-2.13-.3-2.88-1-.74-.69-1.17-1.66-1.21-2.73-.03-1.06.35-2.07,1.03-2.77.66-.69,1.58-1.06,2.64-1.07.71,0,1.54.06,2.35.51v-.71c-.79-.3-1.35-.33-2.18-.34h-.06Z"/>
      </g>
      <g>
        <path class="st3" d="M211.98,68.67c-.1.14-.16.23-.25.38l-2.39,3.58v3.84c0,.1.01.17.04.29.02.09.03.15.07.25h-1.12c.05-.1.07-.17.08-.27.02-.08.01-.14.01-.23v-3.88l-2.35-3.7c-.08-.13-.13-.2-.22-.32-.08-.09-.14-.16-.25-.26h1.39c-.01.12,0,.2.02.3.05.15.1.23.18.36l1.81,2.93,1.97-3.12c.06-.09.1-.16.13-.27.01-.08.01-.14,0-.22h1.18c-.13.12-.2.2-.29.32Z"/>
        <path class="st3" d="M209.55,77.1h-1.35l.05-.11c.05-.1.06-.16.08-.25.02-.06.01-.1.01-.15,0-.02,0-.04,0-.07v-3.86l-2.34-3.68c-.08-.13-.13-.19-.22-.32h-.01c-.07-.1-.12-.16-.23-.24l-.17-.13h1.69v.08c-.02.1,0,.18.01.28.04.12.08.19.15.3l.02.03,1.75,2.83,1.91-3.02c.06-.1.1-.16.12-.24,0-.07,0-.12,0-.19v-.09s1.45,0,1.45,0l-.15.13c-.13.12-.2.2-.28.31h0c-.1.14-.16.22-.25.37l-2.38,3.57v3.82c0,.1,0,.16.03.27v.04c.03.07.04.12.07.21l.03.1ZM208.43,76.95h.91s-.02-.08-.03-.12v-.04c-.03-.12-.05-.19-.05-.31v-3.88s2.4-3.58,2.4-3.58c.09-.15.15-.25.26-.38.06-.08.1-.14.17-.21h-.92c0,.05,0,.1,0,.16-.03.12-.08.19-.13.28l-2.04,3.23-.06-.1-1.83-2.96c-.07-.11-.13-.2-.17-.35-.02-.09-.03-.16-.03-.25h-1.12s.07.07.1.11l.02.02c.1.13.14.2.23.33l2.37,3.72v3.91s0,.04,0,.06c0,.06,0,.12-.02.19,0,.06-.02.11-.04.17Z"/>
      </g>
    </g>
    <rect class="st4" x="1.71" y="1.71" width="113.39" height="113.39"/>
    <path class="st3" d="M115.19,115.19H1.61V1.61h113.59v113.59ZM1.81,114.99h113.19V1.81H1.81v113.19Z"/>
    <g class="st4">
      <path class="st3" d="M20.11,39.74c-2.53-.04-4.13.04-6.51-.86v-3.08c2.14,1.75,4.05,1.95,6.82,1.99,4.6.16,7.41-1.91,7.41-5.53,0-2.77-2.07-4.21-4.48-5.57l-5.3-3.04c-2.85-1.68-4.52-3.59-4.56-6.7-.04-4.6,4.48-7.33,9.39-7.17,2.3.08,3.74,0,5.85.86v3c-1.64-1.56-3.27-1.91-5.54-1.99-3.2-.2-6.7,1.95-6.43,5.15.2,2.07,1.6,3.2,3.43,4.25l4.64,2.69c3.51,2.03,6.43,3.12,6.63,8.07.23,6.43-6.08,8.07-11.34,7.95Z"/>
      <path class="st3" d="M67.27,12.97c-.22.41-.41.66-.55,1.11l-9.2,25.63-7.28-19.5-7.13,19.65-9.75-26.26c-.11-.41-.22-.66-.52-1.03-.33-.41-.55-.63-1-.89h5.06c-.18.3-.3.48-.33.81-.07.3-.11.52,0,.81l6.76,19.2,5.8-15.44-1.37-3.47c-.18-.48-.44-.7-.74-1.07-.26-.33-.48-.55-.78-.85h5.02c-.15.26-.22.41-.3.7-.11.52-.04.85.11,1.33l6.8,18.87,6.28-18.65c.22-.48.37-.81.33-1.29-.04-.41-.11-.67-.33-1h4.06c-.41.48-.63.81-.96,1.33Z"/>
      <path class="st3" d="M71.45,19.69h-3.37l.1.15c.19.29.3.51.4.86.13.39.15.62.15.99v15.8c0,.38,0,.63-.15.98h0s0,.01,0,.01c-.07.24-.14.39-.3.62l-.1.15h3.38l-.09-.14c-.04-.07-.08-.13-.12-.18-.11-.17-.2-.3-.23-.51-.08-.64-.08-1.5-.08-2.51v-14.27c0-.28,0-.45.18-1.07.1-.28.18-.48.31-.74l.07-.14h-.15Z"/>
      <path class="st3" d="M101.17,12.86c-.11.59-.11.92-.11,1.48l.04,25.81-22.31-24.63v20.5q0,.81.26,2.03c.07.44.18.7.33,1.18h-3.51c.26-.37.41-.59.48-1,.15-.55.15-.92.15-1.48V13.71c0-.44-.07-.77-.3-1.18-.18-.41-.41-.63-.78-.85h4.06l19.31,22.05v-17.5c0-1.33.07-2.18-.19-3.51-.07-.41-.15-.67-.26-1.07h3.1c-.15.44-.22.74-.3,1.22Z"/>
      <path class="st3" d="M32.97,71.77h-7.35c.22-.29.3-.48.44-.78.18-.52.26-.89.26-1.44v-22.71c0-.63-.11-1.03-.37-1.62-.18-.41-.33-.66-.59-1.03h8.35c3.58,0,6.35,3.03,6.54,6.61.07,2.62-1,4.03-2.99,5.17l-1.03.63,1.11.41c3.06,1.03,4.76,3.29,4.76,6.91-.04,4.88-3.51,7.87-9.12,7.87ZM31.93,46.03h-2.7v9.93h2.4c4.03,0,5.87-2.18,5.76-5.17-.15-2.77-2.03-4.76-5.47-4.76ZM31.78,57.73c-.92,0-1.48,0-2.4.22v11.82c1,.29,1.66.41,2.7.33,3.62-.22,7.16-2.25,7.05-6.24-.11-4.73-3.69-6.02-7.35-6.13Z"/>
      <path class="st3" d="M67.88,45.4c-.07.52-.04.81-.04,1.33v16.14c0,5.32-4.54,9.2-10.23,9.31-6.09.07-11.04-3.84-11.04-9.45v-15.84c0-.48.04-.78-.04-1.26-.07-.59-.15-.92-.33-1.44h3.77c-.18.41-.26.67-.33,1.14-.11.48-.07.81-.07,1.29v15.77c0,4.25,3.8,7.53,8.05,7.39,4.21-.11,7.17-3.25,7.17-7.16v-15.81c0-.55,0-.89-.07-1.4-.11-.48-.18-.78-.37-1.22h3.84c-.15.44-.22.74-.3,1.22Z"/>
      <path class="st3" d="M89.62,71.81l-11.08-14.4c-.3-.37-.41-.63-.74-.89-.15-.15-.3-.22-.48-.33v12.67c0,.59-.04.92.11,1.51.07.52.22.81.41,1.33h-4.06c.22-.44.41-.7.44-1.14.11-.55.11-1.77.11-2.81v-19.8c0-1.03-.04-1.62-.22-2.66-.11-.48-.3-.74-.52-1.15h8.31c3.62,0,6.87,2.4,6.76,6.35-.07,3.84-3.43,7.13-7.5,6.5.22.18.33.33.55.52.78.74,1.22,1.22,1.92,2.1l6.57,8.35c.85,1.11,1.51,1.99,2.36,2.73.52.44.85.7,1.4,1.11h-4.36ZM80.28,45.81c-1.14,0-1.85.04-2.92.52v9.53c.52.07,1.51.11,2.4.07,3.8-.3,6.09-2.29,5.87-5.35-.15-2.22-.89-4.58-5.36-4.76Z"/>
      <path class="st3" d="M60.79,77.86c-.11.59-.11.92-.11,1.48l.04,25.82-22.31-24.63v20.5q0,.81.26,2.03c.07.44.18.7.33,1.18h-3.51c.26-.37.41-.59.48-1,.15-.55.15-.92.15-1.48v-23.04c0-.44-.07-.78-.29-1.18-.18-.41-.41-.63-.78-.85h4.06l19.31,22.05v-17.51c0-1.33.07-2.18-.18-3.51-.07-.41-.15-.66-.26-1.07h3.1c-.15.44-.22.74-.3,1.22Z"/>
      <path class="st3" d="M82.95,104.23h-15.92c.26-.37.37-.63.48-1.03.15-.52.07-.89.07-1.4v-23.12c0-.48-.07-.78-.22-1.18-.15-.33-.26-.52-.52-.78h14.07v2.77c-.33-.33-.63-.52-1.07-.67-.63-.22-1.07-.11-1.7-.11h-7.5v9.08h10.27v2.62c-.55-.26-.92-.37-1.55-.52-.44-.07-.78-.07-1.22-.07h-7.39v12.33h8.83c1.22,0,1.92-.07,3.06-.44.52-.15.81-.3,1.26-.59l-.96,3.1Z"/>
      <path class="st3" d="M17.88,85.45s.18-.05.21-.03c.03.02.53.3.53.3,0,0,.45.02.57.03.04,0,.3.03.34.04.04,0,.67.4.69.42.06.07.25.44.28.51.08.19.03.49.04.68,0,.06-.04.25-.06.31-.03.09-.06.42-.05.43.01.18.27.45.4.46.19.03.57-.23.56-.43,0-.07-.04-.06-.05-.12-.02-.15-.42-.67-.03-1.51.2-.42.69-.66,1.08-.71.2-.03.44.02.65-.02.19-.04.36-.15.55-.23,0,0,.12.1.14.14.03.07-.03.24-.06.32-.09.28.13.94.15,1,.05.18-.1.8-.19.96-.09.14-.24.33-.45.43-.37.17-1.29-.03-1.43.6-.01.06-.05.19-.02.25.03.06.29.24.33.24,0,0,.07-.01.07-.01.31-.03.46-.22.82-.41.15-.08.63-.23.78-.23l.04.05s.18-.02.23,0c.08.02.37.1.4.12.23.17.43.64.52.86.07.18.31.63.23.78-.1.19-.46.35-.62.51-.11.11-.28.32-.49.42-.08.04-.34.08-.41.09-.35.05-1.03-.26-1.29-.72-.12-.2-.07-.47-.27-.68-.15-.15-.58-.23-.79,0-.03.03-.12.31-.11.35,0,.07.06.08.07.15,0,.01-.05.1-.04.11.09.22.46.3.61.48.12.14.17.32.22.43.07.15.16.54.15.56-.01.13,0,.38-.04.5-.11.27-.4.54-.68.71-.27.16-.4.44-.64.49-.26.05-.5-.36-.71-.57-.05-.05-.21-.15-.26-.21-.31-.35-.34-.7-.33-.99,0-.11-.03-.23.01-.32.05-.13.3-.51.35-.56.18-.18.41-.25.49-.42.03-.06.06-.28.04-.34-.04-.11-.3-.32-.31-.33-.19-.11-.62.41-.64.44-.02.06-.4.66-.45.71-.15.13-.4.24-.56.27-.06.01-.41.07-.5.07-.2,0-.67-.22-.83-.4-.17-.19-.55-.45-.55-.45,0,0-.06,0-.07.01-.07-.17-.12-.2-.08-.34.05-.15.2-.24.28-.39.11-.2.16-.53.32-.73.04-.05.11-.07.16-.11.09-.08.28-.29.39-.35.2-.11.66-.11.84-.04.1.04.48.22.53.26.06.05.09.16.15.21.03.03.14.09.21.13l.05-.04c.16.02.35.02.49-.14.04-.06.11-.22.07-.29-.03-.06-.7-.49-.74-.5-.05-.01-.17.02-.23,0-.12-.04-.17-.12-.29-.19-.06-.03-.2-.05-.26-.09-.35-.25-.69-.76-.7-1.17,0-.3.16-.62.23-.91.07-.27-.1-.42-.11-.67,0-.07.06-.15.08-.22Z"/>
      <path class="st3" d="M98.94,85.45s-.18-.05-.21-.03c-.03.02-.53.3-.53.3,0,0-.45.02-.57.03-.04,0-.3.03-.34.04-.04,0-.67.4-.69.42-.06.07-.25.44-.28.51-.08.19-.03.5-.04.68,0,.06.04.25.06.31.03.09.06.42.05.43-.01.18-.27.44-.4.47-.19.03-.57-.23-.56-.43,0-.07.04-.06.05-.12.02-.15.42-.67.03-1.51-.2-.42-.69-.66-1.08-.71-.2-.03-.44.02-.65-.02-.19-.04-.36-.15-.55-.23,0,0-.12.1-.14.14-.03.07.03.24.06.31.09.29-.13.94-.15,1-.05.17.1.8.19.96.09.14.24.33.45.43.37.17,1.29-.03,1.43.6.01.06.05.19.02.25-.03.06-.29.24-.33.24,0,0-.07,0-.07,0-.31-.03-.46-.22-.82-.41-.15-.08-.62-.23-.78-.23l-.04.05s-.18-.02-.23,0c-.08.02-.37.1-.4.12-.23.17-.43.64-.52.86-.07.18-.31.63-.23.78.1.19.46.35.62.51.11.11.28.32.49.42.08.04.34.08.41.09.35.05,1.03-.26,1.29-.72.12-.2.07-.46.27-.67.15-.15.58-.23.79,0,.03.03.12.3.11.35,0,.07-.06.09-.07.15,0,.01.05.1.04.11-.09.22-.46.31-.61.48-.12.14-.17.32-.22.43-.07.15-.16.54-.15.56.01.13,0,.38.04.5.11.27.4.54.68.71.27.16.4.44.64.49.26.05.5-.36.71-.57.05-.05.21-.15.26-.21.31-.35.34-.7.33-.99,0-.11.03-.23-.01-.32-.05-.13-.3-.51-.35-.56-.18-.18-.41-.25-.49-.42-.03-.06-.06-.28-.04-.34.05-.11.3-.33.31-.33.19-.11.62.41.64.44.02.06.4.66.45.71.15.13.4.24.56.27.06.01.41.07.5.07.2,0,.66-.22.83-.4.17-.18.55-.45.55-.45,0,0,.06,0,.07.01.07-.17.12-.2.08-.34-.05-.15-.2-.24-.28-.39-.11-.2-.16-.53-.32-.73-.04-.05-.11-.07-.16-.11-.09-.08-.28-.29-.39-.35-.2-.11-.66-.11-.84-.04-.1.04-.48.22-.53.26-.06.05-.09.16-.15.21-.03.03-.14.09-.21.13l-.05-.04c-.16.02-.36.02-.49-.14-.04-.06-.11-.22-.07-.29.03-.06.7-.49.74-.5.05-.01.17.02.23,0,.12-.04.17-.12.29-.19.06-.03.2-.05.26-.09.35-.25.69-.76.7-1.17,0-.3-.16-.62-.23-.91-.07-.27.1-.42.11-.67,0-.07-.06-.15-.08-.22Z"/>
    </g>
    <g>
      <path class="st3" d="M1.71,1.71v113.39h113.39V1.71H1.71ZM71.45,19.69h.15l-.07.14c-.13.25-.2.46-.31.74-.18.61-.18.78-.18,1.07v14.27c0,1,0,1.87.08,2.51.04.21.12.35.23.51.04.06.08.12.12.18l.09.14h-3.38l.1-.15c.16-.24.23-.38.3-.62h0s0-.01,0-.01c.15-.35.15-.6.15-.98v-15.8c0-.37-.02-.6-.15-.99-.11-.35-.21-.57-.4-.86l-.1-.15h3.37ZM36.92,11.68c-.18.3-.3.48-.33.81-.07.3-.11.52,0,.81l6.76,19.2,5.8-15.44-1.37-3.47c-.18-.48-.44-.7-.74-1.07-.26-.33-.48-.55-.78-.85h5.02c-.15.26-.22.41-.3.7-.11.52-.04.85.11,1.33l6.8,18.87,6.28-18.65c.22-.48.37-.81.33-1.29-.04-.41-.11-.67-.33-1h4.06c-.41.48-.63.81-.96,1.33-.22.41-.41.66-.55,1.11l-9.2,25.63-7.28-19.5-7.13,19.65-9.75-26.26c-.11-.41-.22-.66-.52-1.03-.33-.41-.55-.63-1-.89h5.06ZM23.35,26.68l-5.3-3.04c-2.85-1.68-4.52-3.59-4.56-6.7-.04-4.6,4.48-7.33,9.39-7.17,2.3.08,3.74,0,5.85.86v3c-1.64-1.56-3.27-1.91-5.54-1.99-3.2-.2-6.7,1.95-6.43,5.15.2,2.07,1.6,3.2,3.43,4.25l4.64,2.69c3.51,2.03,6.43,3.12,6.63,8.07.23,6.43-6.08,8.07-11.34,7.95-2.53-.04-4.13.04-6.51-.86v-3.08c2.14,1.75,4.05,1.95,6.82,1.99,4.6.16,7.41-1.91,7.41-5.53,0-2.77-2.07-4.21-4.48-5.57ZM25.15,90.69c-.11.19-.46.35-.62.51-.11.11-.28.32-.49.42-.08.04-.34.08-.41.09-.35.05-1.03-.26-1.29-.72-.12-.21-.07-.47-.27-.68-.15-.15-.58-.23-.79,0-.03.03-.12.31-.11.35,0,.07.06.08.07.15,0,.01-.05.1-.04.11.09.22.46.3.61.48.12.14.17.32.22.43.07.15.16.54.15.56-.01.13,0,.38-.04.5-.11.27-.4.54-.68.71-.27.16-.4.44-.64.49-.26.05-.5-.36-.71-.57-.05-.05-.21-.15-.26-.21-.31-.35-.34-.7-.33-.99,0-.11-.03-.23.01-.32.05-.13.3-.51.36-.56.18-.18.41-.25.49-.42.03-.06.06-.28.04-.34-.04-.11-.3-.32-.31-.33-.19-.11-.62.41-.64.44-.02.06-.4.66-.45.71-.15.13-.4.24-.56.27-.06.01-.41.07-.5.07-.2,0-.67-.22-.83-.4-.17-.19-.55-.45-.55-.45,0,0-.06,0-.07.01-.07-.17-.12-.2-.08-.34.05-.15.2-.24.28-.39.11-.2.16-.53.32-.73.04-.05.11-.07.16-.11.09-.08.28-.29.39-.35.2-.11.66-.11.84-.04.1.04.48.22.53.26.06.05.09.16.15.21.03.03.14.09.21.13l.05-.04c.16.02.36.02.49-.14.04-.06.11-.22.07-.29-.03-.06-.7-.49-.74-.5-.05-.01-.17.02-.23,0-.12-.04-.17-.12-.29-.19-.06-.03-.2-.05-.26-.09-.35-.25-.69-.76-.7-1.17,0-.3.16-.62.23-.91.07-.27-.1-.42-.11-.67,0-.07.06-.15.09-.22.02,0,.18-.05.21-.03.03.02.53.3.53.3,0,0,.45.02.57.03.04,0,.3.03.34.04.04,0,.67.4.69.42.06.07.25.44.28.51.08.19.03.49.04.68,0,.06-.04.25-.06.31-.03.09-.06.42-.05.43.01.18.27.45.4.46.19.03.57-.23.56-.43,0-.07-.04-.06-.05-.12-.02-.15-.42-.67-.03-1.51.2-.42.69-.66,1.08-.71.2-.03.44.02.65-.02.19-.04.36-.15.55-.23,0,0,.12.1.14.14.03.07-.03.24-.06.32-.09.28.13.94.15,1,.05.18-.1.8-.19.96-.09.14-.24.33-.45.43-.37.17-1.29-.03-1.43.6-.01.06-.05.19-.02.25.03.06.29.24.33.24,0,0,.07-.01.07-.01.31-.03.46-.22.82-.41.15-.08.63-.23.78-.23l.04.05s.18-.02.23,0c.08.02.37.1.4.12.23.17.43.64.52.86.07.18.31.63.23.78ZM25.62,71.77c.22-.29.3-.48.44-.78.18-.52.26-.89.26-1.44v-22.71c0-.63-.11-1.03-.37-1.62-.18-.41-.33-.67-.59-1.03h8.35c3.58,0,6.35,3.03,6.54,6.61.07,2.62-1,4.03-2.99,5.17l-1.03.63,1.11.41c3.06,1.03,4.76,3.29,4.76,6.91-.04,4.88-3.51,7.87-9.12,7.87h-7.35ZM60.79,77.86c-.11.59-.11.92-.11,1.48l.04,25.82-22.31-24.63v20.5q0,.81.26,2.03c.07.44.18.7.33,1.18h-3.51c.26-.37.41-.59.48-1,.15-.55.15-.92.15-1.48v-23.04c0-.44-.07-.78-.29-1.18-.18-.41-.41-.63-.78-.85h4.06l19.31,22.05v-17.51c0-1.33.07-2.18-.18-3.51-.07-.41-.15-.66-.26-1.07h3.1c-.15.44-.22.74-.3,1.22ZM57.62,72.17c-6.09.07-11.04-3.84-11.04-9.45v-15.84c0-.48.04-.78-.04-1.26-.07-.59-.15-.92-.33-1.44h3.77c-.18.41-.26.67-.33,1.14-.11.48-.07.81-.07,1.29v15.77c0,4.25,3.8,7.53,8.05,7.39,4.21-.11,7.16-3.25,7.16-7.16v-15.81c0-.55,0-.89-.07-1.4-.11-.48-.18-.78-.37-1.22h3.84c-.15.44-.22.74-.3,1.22-.07.52-.04.81-.04,1.33v16.14c0,5.32-4.54,9.2-10.23,9.31ZM82.95,104.23h-15.92c.26-.37.37-.63.48-1.03.15-.52.07-.89.07-1.4v-23.12c0-.48-.07-.78-.22-1.18-.15-.33-.26-.52-.52-.78h14.07v2.77c-.33-.33-.63-.52-1.07-.67-.63-.22-1.07-.11-1.7-.11h-7.5v9.08h10.27v2.62c-.55-.26-.92-.37-1.55-.52-.44-.07-.78-.07-1.22-.07h-7.39v12.33h8.83c1.22,0,1.92-.07,3.06-.44.52-.15.81-.3,1.26-.59l-.96,3.1ZM78.54,57.4c-.3-.37-.41-.63-.74-.89-.15-.15-.3-.22-.48-.33v12.67c0,.59-.04.92.11,1.51.07.52.22.81.41,1.33h-4.06c.22-.44.41-.7.44-1.14.11-.55.11-1.77.11-2.81v-19.79c0-1.03-.04-1.62-.22-2.66-.11-.48-.3-.74-.52-1.15h8.31c3.62,0,6.87,2.4,6.76,6.35-.07,3.84-3.43,7.13-7.5,6.5.22.18.33.33.55.52.78.74,1.22,1.22,1.92,2.1l6.57,8.35c.85,1.11,1.51,1.99,2.36,2.73.52.44.85.7,1.4,1.11h-4.36l-11.08-14.4ZM100.33,91.02s-.07-.01-.07-.01c0,0-.37.26-.55.45-.17.18-.63.41-.83.4-.09,0-.44-.06-.5-.07-.16-.03-.41-.14-.56-.27-.06-.05-.43-.65-.45-.71-.01-.04-.45-.56-.64-.44-.02,0-.27.23-.31.33-.03.06,0,.28.04.34.08.17.32.24.49.42.05.05.31.43.35.56.04.1.01.22.01.32,0,.29-.02.64-.33.99-.05.06-.21.16-.26.21-.21.21-.45.62-.71.57-.24-.05-.38-.33-.64-.49-.28-.17-.57-.44-.68-.71-.05-.12-.03-.37-.04-.5,0-.02.08-.41.15-.56.06-.12.1-.29.22-.43.15-.17.52-.26.61-.48,0,0-.04-.09-.04-.11,0-.07.06-.08.07-.15,0-.05-.08-.32-.11-.35-.21-.23-.64-.15-.79,0-.2.21-.16.47-.27.67-.26.46-.94.77-1.29.72-.07-.01-.33-.05-.41-.09-.21-.1-.38-.31-.49-.42-.16-.16-.52-.32-.62-.51-.08-.16.16-.61.23-.78.08-.21.29-.69.52-.86.03-.02.31-.1.4-.12.06-.01.19.04.23,0l.04-.05c.16,0,.64.15.78.23.36.19.5.38.82.41,0,0,.07.01.07,0,.04,0,.3-.18.33-.24.03-.06,0-.19-.02-.25-.13-.63-1.06-.43-1.43-.6-.21-.1-.36-.29-.45-.43-.1-.16-.25-.79-.19-.96.02-.06.24-.71.15-1-.02-.07-.08-.24-.06-.31.02-.04.14-.14.14-.14.19.07.36.19.55.23.21.04.46,0,.65.02.39.05.88.29,1.08.71.39.85,0,1.36-.03,1.51,0,.07-.04.06-.05.12-.01.2.37.46.56.43.14-.02.39-.28.4-.47,0,0-.02-.34-.05-.43-.02-.06-.06-.25-.06-.31.01-.18-.04-.49.04-.68.03-.08.22-.45.28-.51.02-.02.65-.42.69-.42.04,0,.3-.03.34-.04.13,0,.57-.03.57-.03,0,0,.49-.28.53-.3.03-.02.2.03.21.03.02.07.09.15.08.22-.01.25-.18.4-.11.67.07.29.24.61.23.91,0,.41-.34.92-.7,1.17-.06.04-.2.06-.26.09-.12.07-.17.15-.29.19-.06.02-.18-.02-.23,0-.05.01-.72.45-.74.5-.03.07.03.23.07.29.13.17.33.17.49.14l.05.04c.07-.04.18-.1.21-.13.06-.05.09-.16.15-.21.06-.04.44-.22.53-.26.18-.07.64-.07.84.04.11.06.3.27.39.35.05.04.12.06.16.11.16.2.21.54.32.73.08.15.23.24.28.39.04.14,0,.17-.08.34ZM101.17,12.86c-.11.59-.11.92-.11,1.48l.04,25.82-22.31-24.63v20.5q0,.81.26,2.03c.07.44.18.7.33,1.18h-3.51c.26-.37.41-.59.48-1,.15-.55.15-.92.15-1.48V13.71c0-.44-.07-.77-.3-1.18-.18-.41-.41-.63-.78-.85h4.06l19.32,22.05v-17.5c0-1.33.07-2.18-.19-3.51-.07-.41-.15-.66-.26-1.07h3.1c-.15.44-.22.74-.3,1.22Z"/>
      <path class="st3" d="M37.4,50.79c-.15-2.77-2.03-4.76-5.47-4.76h-2.7v9.93h2.4c4.03,0,5.87-2.18,5.76-5.17Z"/>
      <path class="st3" d="M85.63,50.57c-.15-2.22-.89-4.58-5.35-4.76-1.14,0-1.85.04-2.92.52v9.53c.52.07,1.51.11,2.4.07,3.8-.3,6.09-2.29,5.87-5.35Z"/>
      <path class="st3" d="M31.78,57.73c-.92,0-1.48,0-2.4.22v11.82c1,.29,1.66.41,2.7.33,3.62-.22,7.16-2.25,7.05-6.24-.11-4.73-3.69-6.02-7.35-6.13Z"/>
    </g>
    <path class="st3" d="M110.09,5.93v105.16H6.07V5.93h104.03M115.09.93H1.07v115.16h114.03V.93h0Z"/>
    <path class="st3" d="M0,0v116.8h230.19V0H0ZM228.58,115.19H1.61V1.61h226.97v113.59Z"/>
  </g>
</svg>