<?xml version="1.0" encoding="UTF-8" standalone="no"?>
<svg
   id="Layer_1"
   version="1.1"
   viewBox="0 0 841.89 595.28"
   sodipodi:docname="50555f57-3c5b-42a6-99f6-bbf8ce96707a.svg"
   xmlns:inkscape="http://www.inkscape.org/namespaces/inkscape"
   xmlns:sodipodi="http://sodipodi.sourceforge.net/DTD/sodipodi-0.dtd"
   xmlns="http://www.w3.org/2000/svg"
   xmlns:svg="http://www.w3.org/2000/svg">
  <sodipodi:namedview
     id="namedview22"
     pagecolor="#ffffff"
     bordercolor="#000000"
     borderopacity="0.25"
     inkscape:showpageshadow="2"
     inkscape:pageopacity="0.0"
     inkscape:pagecheckerboard="0"
     inkscape:deskcolor="#d1d1d1" />
  <!-- Generator: Adobe Illustrator 30.0.0, SVG Export Plug-In . SVG Version: 2.1.1 Build 123)  -->
  <defs
     id="defs1">
    <style
       id="style1">
      .st0 {
        fill: none;
      }

      .st1 {
        fill: #fff;
      }
    </style>
  </defs>
  <rect
     class="st0"
     x="176.52"
     y="152.55"
     width="486.43"
     height="299.47"
     id="rect1" />
  <g
     id="g22">
    <polygon
       class="st1"
       points="409.3 298.26 409.3 319.23 405.97 319.23 393.95 304.11 393.95 319.23 390.41 319.23 390.41 298.26 393.82 298.26 405.83 313.42 405.83 298.26 409.3 298.26"
       id="polygon1" />
    <polygon
       class="st1"
       points="427.4 319.23 414.33 319.23 414.33 298.26 427.05 298.26 427.05 300.97 418.05 300.97 418.05 307.08 424.61 307.08 424.61 309.79 418.05 309.79 418.05 316.53 427.4 316.53 427.4 319.23"
       id="polygon2" />
    <polygon
       class="st1"
       points="438.4 319.41 436.49 319.41 429.36 298.26 433.22 298.26 438.05 313.02 441.16 304.34 439.16 298.26 442.97 298.26 447.62 312.62 452.63 298.26 456.09 298.26 448.15 319.41 446.25 319.41 442.57 308.41 438.4 319.41"
       id="polygon3" />
    <g
       id="g21">
      <path
         class="st1"
         d="M475.73,317.85c-1.47.93-3.46,1.82-7.62,1.82-7.36,0-11.26-5.54-11.26-10.95s3.9-10.9,11.26-10.9c4.12,0,6.29,1.24,7.17,1.64l-1.15,2.53c-.71-.31-2.57-1.42-5.89-1.42-4.57,0-7.32,3.41-7.32,8.15s2.88,8.2,7.66,8.2c3.32,0,5.01-.93,5.99-1.38l1.15,2.31Z"
         id="path3" />
      <path
         class="st1"
         d="M480.86,319.23h-3.64l9.26-21.05h1.42l8.24,21.05h-3.94l-2-5.23h-7.17l-2.17,5.23ZM486.74,305.04l-2.61,6.25h5.06l-2.45-6.25Z"
         id="path4" />
      <path
         class="st1"
         d="M505.07,316.97c1.99,0,3.63-1.16,3.63-2.76,0-1.76-2.13-2.79-4.52-4.07-2.08-1.11-5.45-2.88-5.45-6.65,0-3.01,2.7-5.67,6.65-5.67,2.79,0,4.65.67,5.8,1.24l-1.01,2.4c-1.12-.49-2.48-.93-4.74-.93-2.09,0-3.29,1.33-3.29,2.48,0,1.82,2.08,2.97,4.35,4.21,1.95,1.07,5.89,2.7,5.89,6.52,0,4.12-4.79,5.95-7.3,5.95-3.55,0-5.68-1.2-6.87-1.78l1.15-2.44c.98.44,2.97,1.51,5.72,1.51"
         id="path5" />
      <polygon
         class="st1"
         points="514.1 298.26 531.6 298.26 531.6 300.97 524.69 300.97 524.69 319.23 520.97 319.23 520.97 300.97 514.1 300.97 514.1 298.26"
         id="polygon5" />
      <polygon
         class="st1"
         points="538.33 316.52 546.35 316.52 546.35 319.23 534.61 319.23 534.61 298.26 538.33 298.26 538.33 316.52"
         id="polygon6" />
      <polygon
         class="st1"
         points="562.18 319.23 549.11 319.23 549.11 298.26 561.82 298.26 561.82 300.97 552.84 300.97 552.84 307.08 559.39 307.08 559.39 309.79 552.84 309.79 552.84 316.53 562.18 316.53 562.18 319.23"
         id="polygon7" />
      <path
         class="st1"
         d="M391.71,337.89h-1.75l4.46-10.13h.68l3.97,10.13h-1.9l-.96-2.52h-3.46l-1.05,2.52ZM394.55,331.06l-1.25,3.01h2.43l-1.17-3.01Z"
         id="path7" />
      <path
         class="st1"
         d="M410.3,334.45c0,1.36-.81,3.65-4.16,3.65-2.66,0-4.16-1.3-4.16-3.65v-6.66h1.78v6.66c0,1.54.86,2.35,2.42,2.35,1.66,0,2.41-1.11,2.41-2.35v-6.66h1.71v6.66Z"
         id="path8" />
      <path
         class="st1"
         d="M417.14,336.8c.96,0,1.75-.56,1.75-1.33,0-.85-1.02-1.34-2.18-1.96-1-.54-2.62-1.39-2.62-3.2,0-1.45,1.3-2.73,3.2-2.73,1.34,0,2.24.32,2.79.6l-.49,1.15c-.54-.23-1.19-.45-2.28-.45-1,0-1.58.64-1.58,1.2,0,.88,1,1.43,2.09,2.02.93.51,2.84,1.31,2.84,3.14,0,1.98-2.3,2.86-3.52,2.86-1.71,0-2.73-.58-3.31-.86l.55-1.17c.47.21,1.43.72,2.75.72"
         id="path9" />
      <polygon
         class="st1"
         points="423.47 327.79 431.9 327.79 431.9 329.1 428.57 329.1 428.57 337.89 426.77 337.89 426.77 329.1 423.47 329.1 423.47 327.79"
         id="polygon9" />
      <path
         class="st1"
         d="M441.07,338.08l-2.79-4.65h-1.13v4.46h-1.81v-10.09h3.09c2.49,0,3.45,1.5,3.45,2.56,0,1.47-1.09,2.39-1.94,2.73l3.09,4.8-1.96.19ZM437.89,332.13c1.36-.03,2.18-.73,2.18-1.58s-.74-1.47-2.15-1.47h-.79v3.05h.76Z"
         id="path10" />
      <path
         class="st1"
         d="M447.45,337.89h-1.75l4.46-10.13h.68l3.96,10.13h-1.9l-.95-2.52h-3.46l-1.05,2.52ZM450.3,331.06l-1.26,3.01h2.43l-1.17-3.01Z"
         id="path11" />
      <polygon
         class="st1"
         points="459.95 336.58 463.81 336.58 463.81 337.89 458.15 337.89 458.15 327.79 459.95 327.79 459.95 336.58"
         id="polygon11" />
      <rect
         class="st1"
         x="467.12"
         y="327.79"
         width="1.79"
         height="10.09"
         id="rect11" />
      <path
         class="st1"
         d="M473.94,337.89h-1.75l4.45-10.13h.69l3.96,10.13h-1.9l-.96-2.52h-3.45l-1.05,2.52ZM476.77,331.06l-1.25,3.01h2.43l-1.18-3.01Z"
         id="path12" />
      <path
         class="st1"
         d="M322.5,254.46s.04.02.04.05c0,.02-.02.03-.04.04-14.23,4.98-18.75,22.3-18.75,22.3,0,.02,0,.05.02.07.03.02.06.02.09-.01,25.76-33.74,49.76-22.83,49.76-22.83.04.01.07.05.06.1-.01.04-.04.07-.08.06-.46-.05-7.56-.62-9.92,5.93l35.77,39.94c0,1.16-.45,2.19-1.17,3.1-.37-.55-1.9-1.27-2.92-1.59-1.4-.45-2.7-.67-2.7-1.72,0-.75.66-.96,1-.96.31,0,.47.15.47.15.01,0,.02,0,.02,0,0,0,.01-.02,0-.02,0,0-.25-.53-.96-.54-.69-.02-1.8.48-1.87,1.8-.05,1.09.47,1.68,1.26,2.22.78.54,2.31,1.23,2.31,2.38s-.87,1.4-1.06,1.5c-.38.18-3.62,1.64-6.8,2.24-.16-.55-.2-2.37-3.42-5.66-6.96-7.12-28.62-.43-28.62-16.73,0-7.42,7.02-9.61,10.5-9.61,2.9,0,4.68,1.2,4.93,1.36.02.01.05.01.07,0,.04-.02.05-.07.02-.1,0,0-2.47-5.43-9.49-5.43-7.76,0-18.67,5.68-18.67,18.08,0,25.75,36.06,24.13,36.06,45.88,0,8.49-4.98,12.83-11.25,15.06,0,0,3-2.12,3-6.17,0-18.4-42.64-14.45-42.64-34.66,0-7.87,6.72-10.72,8.44-10.72.04,0,.07-.03.07-.07,0-.02,0-.05-.03-.06-.2-.13-1.29-.7-3.34-.7-5.34,0-15.52,4.8-15.52,17.04,0,14.57,18.95,23.74,18.95,30.77,0,3.07-1.92,5.14-1.92,5.14-15.57-4.97-35.48-20.58-35.48-48.43,0-33.67,31.46-49.17,43.79-49.17"
         id="path13" />
      <polygon
         class="st1"
         points="389.78 278.96 398.18 278.96 398.18 280.25 394.86 280.25 394.86 289.02 393.07 289.02 393.07 280.25 389.78 280.25 389.78 278.96"
         id="polygon13" />
      <polygon
         class="st1"
         points="408.12 284.49 403.39 284.49 403.39 289.02 401.6 289.02 401.6 278.96 403.39 278.96 403.39 283.19 408.12 283.19 408.12 278.96 409.9 278.96 409.9 289.02 408.12 289.02 408.12 284.49"
         id="polygon14" />
      <polygon
         class="st1"
         points="420.7 289.02 414.42 289.02 414.42 278.96 420.53 278.96 420.53 280.25 416.21 280.25 416.21 283.19 419.35 283.19 419.35 284.49 416.21 284.49 416.21 287.73 420.7 287.73 420.7 289.02"
         id="polygon15" />
      <path
         class="st1"
         d="M439.78,285.6c0,1.36-.81,3.63-4.15,3.63-2.66,0-4.15-1.29-4.15-3.63v-6.64h1.79v6.64c0,1.53.85,2.34,2.4,2.34,1.66,0,2.4-1.11,2.4-2.34v-6.64h1.7v6.64Z"
         id="path15" />
      <polygon
         class="st1"
         points="453.38 278.96 453.38 289.02 451.79 289.02 446.02 281.77 446.02 289.02 444.31 289.02 444.31 278.96 445.96 278.96 451.72 286.23 451.72 278.96 453.38 278.96"
         id="polygon16" />
      <rect
         class="st1"
         x="458.02"
         y="278.96"
         width="1.79"
         height="10.06"
         id="rect16" />
      <polygon
         class="st1"
         points="467.53 289.11 466.66 289.11 463.23 278.96 465.04 278.96 467.3 285.85 469.71 278.96 471.36 278.96 467.53 289.11"
         id="polygon17" />
      <polygon
         class="st1"
         points="481.08 289.02 474.81 289.02 474.81 278.96 480.91 278.96 480.91 280.25 476.59 280.25 476.59 283.19 479.74 283.19 479.74 284.49 476.59 284.49 476.59 287.73 481.08 287.73 481.08 289.02"
         id="polygon18" />
      <path
         class="st1"
         d="M490.91,289.21l-2.79-4.64h-1.12v4.45h-1.8v-10.06h3.09c2.48,0,3.45,1.49,3.45,2.55,0,1.47-1.09,2.38-1.93,2.72l3.08,4.78-1.96.19ZM487.73,283.28c1.37-.02,2.18-.72,2.18-1.58,0-.9-.74-1.47-2.15-1.47h-.79v3.04h.76Z"
         id="path18" />
      <path
         class="st1"
         d="M498.72,287.94c.96,0,1.74-.55,1.74-1.32,0-.85-1.02-1.34-2.17-1.96-1-.53-2.61-1.38-2.61-3.19,0-1.45,1.29-2.73,3.19-2.73,1.34,0,2.24.32,2.79.6l-.49,1.14c-.53-.23-1.19-.44-2.27-.44-1,0-1.58.64-1.58,1.19,0,.88,1.01,1.43,2.09,2.02.93.51,2.83,1.3,2.83,3.13,0,1.98-2.3,2.85-3.51,2.85-1.71,0-2.73-.57-3.3-.85l.55-1.17c.47.22,1.43.73,2.75.73"
         id="path19" />
      <rect
         class="st1"
         x="506.22"
         y="278.96"
         width="1.79"
         height="10.06"
         id="rect19" />
      <polygon
         class="st1"
         points="511.46 278.96 519.87 278.96 519.87 280.25 516.55 280.25 516.55 289.02 514.77 289.02 514.77 280.25 511.46 280.25 511.46 278.96"
         id="polygon19" />
      <polygon
         class="st1"
         points="531.56 278.96 528.2 284.15 528.2 289.02 526.41 289.02 526.41 284.15 522.96 278.96 524.86 278.96 527.41 282.92 529.81 278.96 531.56 278.96"
         id="polygon20" />
      <path
         class="st1"
         d="M552.01,283.98c0,3.26-2.38,5.25-5.28,5.25s-5.3-1.97-5.3-5.25c0-3.04,2.24-5.23,5.3-5.23,3.24,0,5.28,2.1,5.28,5.23M543.39,283.98c0,2.38,1.34,3.96,3.34,3.96s3.32-1.58,3.32-3.96-1.32-3.94-3.32-3.94-3.34,1.58-3.34,3.94"
         id="path20" />
      <polygon
         class="st1"
         points="556.11 289.02 556.11 278.96 561.88 278.96 561.88 280.25 557.9 280.25 557.9 283.19 560.7 283.19 560.7 284.49 557.9 284.49 557.9 289.02 556.11 289.02"
         id="polygon21" />
    </g>
  </g>
</svg>
