<?xml version="1.0" encoding="UTF-8"?>
<svg id="Layer_1" xmlns="http://www.w3.org/2000/svg" version="1.1" viewBox="0 0 595.28 841.89">
  <!-- Generator: Adobe Illustrator 30.0.0, SVG Export Plug-In . SVG Version: 2.1.1 Build 123)  -->
  <defs>
    <style>
      .st0 {
        fill: #fffffc;
      }
    </style>
  </defs>
  <path class="st0" d="M378.33,419.73h-3.11v.62h.16c.46,0,.71.08.85.28l.17.18c.19.2.35.38.59.67v8.52c0,.45-.43.69-.86.69h-.23v.62h3.41v-.62h-.21c-.44,0-.88-.21-.88-.69v-7.05l7.14,8.3.05.06h.47v-10.27c0-.45.42-.69.84-.69h.28v-.62h-3.36v.62h.16c.43,0,.88.26.88.69v6.03l-6.29-7.29-.05-.06ZM338.98,444.99l.79-1.8.78,1.8h-1.57ZM336.9,447.34h-.23v.38h1.92v-.38h-.19c-.1,0-.2-.05-.25-.12-.04-.06-.04-.11-.02-.18l.58-1.36h2.14l.59,1.36c.04.09,0,.16-.02.2-.04.06-.12.1-.19.1h-.28v.38h2.44v-.38h-.17c-.19,0-.35-.16-.5-.49l-2.49-5.74s-.06-.13-.18-.15c-.05-.01-.13,0-.22.1l-2.39,5.76c-.11.24-.3.52-.56.52M331.64,441.09h-2.53v.39h.17c.22,0,.47.06.47.57v4.72c0,.4-.14.57-.47.57h-.17v.39h2.53v-.39h-.14c-.34,0-.49-.17-.49-.57v-4.72c0-.51.28-.57.49-.57h.14v-.39ZM320.04,431.32h8.62l1.07-3.34h-.66l-.03.11c-.47,1.48-1.22,2.11-2.5,2.11h-2.84c-.2,0-.41-.15-.41-.43v-4h3.08c.47,0,.72.47.72.93v.2h.6v-3.43h-.6v.23c0,.44-.22.91-.72.91h-3.08v-3.77h3.34c.82,0,1.36.64,1.43,1.67v.15h.59l-.21-2.92h-8.39v.62h.21c.59,0,.88.34.88,1.05v8.3c0,.7-.28,1.02-.88,1.02h-.21v.6ZM321.16,441.09h-2.53v.39h.16c.12,0,.47,0,.47.6v4.69c0,.52-.27.58-.47.58h-.16v.38h4.85l.59-1.96h-.41l-.02.07c-.26.84-.69,1.22-1.41,1.22h-1.5c-.11,0-.23-.15-.23-.3v-4.69c0-.42.15-.6.5-.6h.15v-.39ZM309.27,431.32h8.67l1.02-3.34h-.64l-.03.11c-.46,1.46-1.23,2.11-2.5,2.11h-2.81c-.23,0-.46-.15-.46-.43v-4h3.13c.42,0,.67.47.67.93v.2h.6v-3.44h-.6v.23c0,.44-.23.91-.67.91h-3.13v-3.77h3.34c.85,0,1.41.64,1.45,1.67v.15h.59l-.21-2.91h-8.41v.62h.23c.61,0,.88.32.88,1.05v8.3c0,.71-.27,1.03-.88,1.03h-.23v.6ZM309.19,444.99l.79-1.8.78,1.8h-1.56ZM307.1,447.34h-.23v.38h1.92v-.38h-.19c-.1,0-.2-.05-.25-.12-.04-.06-.04-.11-.02-.18l.58-1.36h2.14l.59,1.36c.03.09,0,.16-.02.2-.04.06-.12.1-.19.1h-.28v.38h2.45v-.38h-.17c-.19,0-.36-.16-.5-.49l-2.49-5.74s-.06-.13-.18-.15c-.05-.01-.13,0-.22.1l-2.39,5.76c-.11.24-.3.52-.56.52M297.72,441.78c.23-.09.42-.07.43-.07.73,0,1.3.52,1.3,1.19s-.58,1.24-1.3,1.24h-.43v-2.36ZM297.62,441.09h-1.79v.39h.17c.32,0,.47.19.47.57v4.72c0,.5-.25.57-.47.57h-.17v.38h2.52v-.38h-.15c-.34,0-.49-.17-.49-.57v-2.01h.26l2.25,2.96h1.61v-.38h-.15c-.17,0-.31-.17-.46-.34l-1.86-2.42c.84-.3,1.39-.96,1.39-1.67h0c0-.54-.16-.94-.47-1.24-.49-.46-1.37-.65-2.67-.58M285.13,441.23l-.06,1.59h.36v-.1c.04-.63.27-.94.71-.94h1.19v5.02c0,.37-.15.53-.51.53h-.13v.39h2.5v-.39h-.13c-.36,0-.49-.14-.49-.53v-5.02h1.17c.3,0,.64.11.69.94v.1h.38l-.07-1.59c0-.07-.07-.15-.14-.15h-5.31c-.07,0-.15.07-.15.14M269.52,425.77h3.13c.61,0,.64.77.64.93v.2h.62v-3.43h-.62v.23c0,.15-.03.91-.64.91h-3.13v-3.77h3.88c.79,0,1.37.67,1.43,1.67v.15h.59l-.21-2.92h-8.93v.62h.23c.61,0,.88.33.88,1.07v8.27c0,.71-.27,1.03-.88,1.03h-.23v.6h4.38v-.6h-.28c-.6,0-.86-.3-.86-1v-3.95ZM266.92,441.09h-2.46v.39h.12c.27,0,.46.27.46.51v3.46c0,1.38,1.09,2.34,2.65,2.34s2.56-.89,2.56-2.22v-3.76c0-.15.05-.34.31-.34h.31v-.39h-1.96v.39h.28c.21,0,.34.13.34.34v3.76c0,1-.88,1.52-1.75,1.52s-1.44-.66-1.44-1.6v-3.5c0-.26.22-.51.45-.51h.14v-.39ZM255.01,444.99l.79-1.8.78,1.8h-1.56ZM252.93,447.34h-.23v.38h1.92v-.38h-.19c-.1,0-.2-.05-.25-.12-.04-.06-.04-.11-.02-.18l.58-1.36h2.14l.59,1.36c.03.09,0,.16-.02.2-.04.06-.12.1-.19.1h-.28v.38h2.45v-.38h-.17c-.19,0-.36-.16-.5-.49l-2.49-5.74s-.06-.13-.17-.15c-.05-.01-.13,0-.22.1l-2.39,5.76c-.11.24-.3.52-.56.52M206.8,419.99h1.05c-.08-.32-.29-.56-.52-.56s-.44.24-.53.56M207.85,420.55h-1.05c.08.32.29.56.53.56s.44-.24.52-.56M206.8,415.22h1.05c-.08-.32-.29-.56-.52-.56s-.44.24-.53.56M207.85,415.78h-1.05c.08.32.29.56.53.56s.44-.24.52-.56M221.71,423.29q-1.04,0-1.71.28c-.37.16-.87.36-1.42.36s-1.05-.21-1.42-.37q-.67-.28-1.7-.28h-5.15v-2.18h-2.08c-.2.34-.53.56-.9.56-.54,0-.99-.48-1.1-1.12h-.3c-.15,0-.28-.12-.28-.28s.12-.28.28-.28h.3c.1-.64.56-1.12,1.1-1.12.37,0,.69.22.9.56h2.08v-3.09h-2.08c-.2.34-.53.56-.9.56-.54,0-.99-.48-1.1-1.12h-.3c-.15,0-.28-.12-.28-.28s.12-.28.28-.28h.3c.1-.64.56-1.12,1.1-1.12.37,0,.69.22.9.56h2.08v-1.59l1.12-.63v9.73h4.03c1.26,0,1.35.03,2.14.36.23.09.58.28.99.28s.76-.18.99-.28c.8-.33.88-.36,2.14-.36h4.03v-9.6l1.12.5v1.59h2.7c.46,0,.84.38.84.84s-.38.84-.84.84h-2.7v3.09h2.7c.46,0,.84.38.84.84s-.38.84-.84.84h-2.7v2.18h-5.15ZM224.62,421.18h-2.91c-1.38,0-1.61.05-2.57.45v-8.42c0-.83.86-1.33,1.99-1.33,1.67,0,2.57.54,3.49.37v8.93ZM218.02,421.6c-.96-.4-1.18-.45-2.57-.45h-2.91v-8.94c.93.18,1.82-.37,3.5-.37,1.13,0,1.99.5,1.99,1.33v8.42ZM225.74,425.05c5.58.88,8.01,3.01,9.57,6.29h0v-26.89h0c-1.56,3.28-3.99,5.41-9.57,6.29.88-5.58,3.01-8.01,6.29-9.57h0s-26.9,0-26.9,0h0c3.28,1.56,5.41,3.99,6.29,9.58-5.58-.88-8.01-3.01-9.57-6.29h0v26.89h0c1.56-3.28,3.99-5.41,9.57-6.29-.88,5.58-3.01,8.01-6.29,9.57h0s26.9,0,26.9,0h0c-3.28-1.57-5.41-3.99-6.29-9.58M240.04,423.06c0,10.28-8.97,20.77-21.44,24.65-12.51-3.88-21.48-14.38-21.48-24.65v-26.63h42.92v26.63ZM241.16,423.06v-27.75h-45.16v27.75c0,10.9,9.36,21.72,22.26,25.72l.33.1.33-.1c12.88-4.01,22.23-14.83,22.23-25.72M262.57,399.15h.67l-.15-3.56c0-.12-.12-.28-.25-.28h-11.51c-.13,0-.25.16-.25.28l-.15,3.56h.67v-.15c.05-1.02.38-2.24,1.67-2.24h2.48v11.19c0,.63-.51,1.19-1.09,1.19h-.8v.72h6.46v-.72h-.8c-.58,0-1.1-.56-1.1-1.19v-11.19h2.48c1.29,0,1.62,1.22,1.66,2.24v.15ZM261.92,423.94c0,3.79-1.64,6.33-4.08,6.33h-.05c-.84,0-1.62-.33-2.26-.96-1.11-1.09-1.75-3.01-1.76-5.27,0-1.41.28-6.03,4.06-6.23,1.49.08,4,.98,4.08,6.12M264.76,424.04c0-4.31-2.84-7.35-6.91-7.41-.15,0-2.63-.1-4.61,1.7-1.42,1.29-2.2,3.21-2.32,5.72,0,4.28,2.91,7.39,6.92,7.39s6.92-3.11,6.92-7.39M271.44,409.86h4.4v-.62h-.28c-.6,0-.86-.31-.86-1.02v-8.3c0-.71.26-1.02.86-1.02h.28v-.62h-4.4v.62h.23c.62,0,.9.33.9,1.02v3.46h-4.51v-3.46c0-.69.28-1.02.86-1.02h.23v-.62h-4.36v.62h.23c.62,0,.86.29.86,1.02v8.3c0,.75-.23,1.02-.86,1.02h-.23v.62h4.36v-.62h-.23c-.59,0-.86-.32-.86-1.02v-3.72h4.51v3.72c0,.72-.27,1.02-.9,1.02h-.23v.62ZM278.84,441.33c-.95-.46-1.73-.4-2.38.18-.4.38-.61.95-.56,1.5.06.54.37,1.02.88,1.33.16.1.33.2.51.31.57.34,1.17.69,1.41,1.04.32.44.25.88-.21,1.29-.32.27-.74.31-1.17.12-.5-.23-1-.82-1-1.62v-.1h-.4v2.38h.38l.02-.08c.03-.12.08-.2.17-.24.07-.03.15-.02.24.02.39.2.87.35,1.35.35.42,0,.83-.11,1.19-.38.73-.54.97-1.52.56-2.26-.37-.71-1.32-1.24-2.08-1.66l-.13-.07c-.43-.24-.68-.58-.68-.93,0-.28.16-.53.44-.7.3-.19.69-.17,1.06.03.51.28.84.86.84,1.47v.1h.4v-2.31h-.38l-.02.08c-.02.1-.06.17-.12.2-.07.03-.18.02-.33-.04M286.24,409.86l1.04-3.34h-.66l-.03.11c-.43,1.44-1.2,2.08-2.5,2.08h-2.84c-.23,0-.41-.18-.41-.41v-4h3.1c.44,0,.65.47.65.91v.23h.65v-3.44h-.65v.23c0,.38-.2.91-.65.91h-3.1v-3.8h3.34c.82,0,1.36.64,1.43,1.67v.15h.61l-.21-2.89h-8.44v.62h.23c.6,0,.88.33.88,1.02v8.3c0,.71-.27,1.02-.88,1.02h-.23v.62h8.67ZM292.43,424.04c0,3.1-1.25,6.22-4.05,6.22-2.48,0-4.07-2.44-4.07-6.22.02-2.43.59-4.19,1.7-5.24.99-.94,2.11-.98,2.28-.98.01,0,.02,0,.02,0h0c2.05,0,4.11,1.92,4.11,6.23M295.32,424.14c-.09-5.93-4.62-7.51-7-7.51h0c-4,.03-6.91,3.15-6.91,7.41,0,3.73,2.22,6.65,5.51,7.31,2.12,2.17,4.91,3.27,8.28,3.27h.16v-.68h-.15c-2.14-.14-3.75-1.56-4.4-2.88,2.78-.98,4.5-3.62,4.5-6.92M307.03,396.05h.63v-.74h-4.4v.74h.7c.51,0,.79.3.79.84v8.27c0,2.36-2.03,3.44-3.91,3.44s-3.32-1.48-3.32-3.6v-7.78c0-.62.52-1.17,1.12-1.17h.35v-.74h-5.56v.74h.32c.67,0,1.12.6,1.12,1.17v7.71c0,3.02,2.37,5.12,5.76,5.12s5.59-2.01,5.59-4.89v-8.27c0-.57.26-.84.81-.84M307.37,420.35h.51v-.62h-3.39v.62h.46c.39,0,.62.24.62.62v6.59c0,1.77-1.56,2.7-3.11,2.7s-2.56-1.17-2.56-2.84v-6.15c0-.48.39-.93.81-.93h.23v-.62h-4.26v.47l.02.16h.16c.49,0,.84.49.84.93v6.08c0,2.4,1.9,4.08,4.62,4.08s4.46-1.55,4.46-3.87v-6.59c0-.4.2-.62.57-.62M320.03,398.89h.23v-.62h-3.44v.62h.25c.4,0,.84.22.84.69v6.01l-6.32-7.32h-3.11v.62h.16c.44,0,.7.04.9.28.15.16.26.3.4.46.09.11.19.23.32.37v8.54c0,.46-.43.67-.84.67h-.28v.64h3.46v-.64h-.23c-.44,0-.88-.23-.88-.67v-7.05l7.17,8.31.05.05h.47v-10.27c0-.45.43-.69.86-.69M321.64,409.86h4.33v-.62h-.21c-.61,0-.88-.32-.88-1.02v-8.3c0-.7.28-1.02.88-1.02h.21v-.62h-4.33v.62h.2c.64,0,.93.32.93,1.02v8.3c0,.72-.28,1.02-.93,1.02h-.2v.62ZM338.19,398.89h.16v-.62h-2.92v.62h.32c.13,0,.26.07.34.18.05.07.11.2.05.36l-2.65,6.6-2.9-6.6c-.06-.16-.01-.28.04-.36.09-.12.22-.19.32-.19h.53v-.62h-4.14v.62h.16c.35,0,.62.26.9.85l4.3,9.95.02.03c.08.1.21.17.34.17,0,0,.02,0,.03,0,.12,0,.23-.07.29-.18l3.91-9.91c.32-.66.56-.9.9-.9M339.75,421.04v6.03l-6.32-7.29-.05-.05h-3.11v.62h.16c.48,0,.73.08.88.28l.17.18c.19.2.36.38.59.67v8.52c0,.48-.45.69-.86.69h-.25v.62h3.43v-.62h-.23c-.43,0-.86-.21-.86-.69v-7.05l7.14,8.31.05.05h.46v-10.27c0-.45.43-.69.84-.69h.25v-.62h-3.41v.62h.23c.44,0,.89.26.89.69M348.37,409.86l1.07-3.34h-.67l-.03.11c-.46,1.44-1.22,2.09-2.49,2.09h-2.84c-.23,0-.41-.18-.41-.41v-4h3.08c.53,0,.67.57.67.91v.23h.64v-3.44h-.64v.23c0,.35-.18.91-.67.91h-3.08v-3.8h3.34c.8,0,1.36.66,1.43,1.67v.15h.61l-.24-2.89h-8.41v.62h.23c.6,0,.86.32.86,1.02v8.3c0,.72-.26,1.02-.86,1.02h-.23v.62h8.64ZM345.45,422.17c0-.5.28-.95.79-1.25.54-.33,1.23-.31,1.89.06.9.51,1.49,1.53,1.49,2.6v.16h.65v-4h-.62l-.03.13c-.04.19-.11.32-.21.37-.13.07-.34.04-.6-.08-1.66-.8-3.02-.69-4.15.31-.7.66-1.07,1.66-.97,2.61.1.95.65,1.77,1.54,2.31.27.17.57.35.87.52,1.02.61,2.08,1.23,2.51,1.85.57.79.45,1.56-.37,2.29-.56.48-1.32.56-2.08.21-.88-.41-1.78-1.45-1.78-2.88v-.16h-.65v4.1h.62l.02-.1c.05-.21.16-.37.3-.43.13-.06.28-.05.44.04.68.35,1.52.61,2.37.61.72,0,1.45-.19,2.08-.67,1.27-.95,1.68-2.64.97-3.93-.64-1.25-2.3-2.16-3.63-2.89l-.24-.13c-.76-.43-1.21-1.03-1.21-1.65M354.79,403.63h-.79v-4.19c.41-.17.77-.13.79-.13,1.29,0,2.3.93,2.3,2.11s-1.03,2.2-2.3,2.2M358.45,409.86h2.79v-.62h-.23c-.31,0-.57-.3-.83-.61l-3.28-4.28c1.49-.52,2.46-1.67,2.45-2.92,0-.94-.28-1.64-.82-2.15-.85-.8-2.39-1.13-4.68-1.01h-3.11v.62h.28c.58,0,.86.34.86,1.03v8.3c0,.71-.26,1.02-.86,1.02h-.28v.62h4.38v-.62h-.23c-.61,0-.88-.32-.88-1.02v-3.55h.5l3.95,5.2ZM361.19,431.31l1.02-3.39h-.66l-.04.11c-.46,1.49-1.23,2.16-2.5,2.16h-2.62c-.21,0-.43-.28-.43-.55v-8.22c0-.74.28-1.07.91-1.07h.23v-.62h-4.38v.62h.25c.58,0,.86.35.86,1.07v8.22c0,.94-.49,1.05-.86,1.05h-.25v.62h8.48ZM366.59,426.59l1.42-3.26,1.41,3.26h-2.83ZM362.97,430.7h-.37v.62h3.31v-.62h-.3c-.18,0-.36-.09-.46-.23-.07-.1-.08-.22-.04-.33l1.02-2.41h3.79l1.04,2.41c.06.17.02.29-.04.37-.08.12-.22.19-.36.19h-.46v.62h4.24v-.62h-.28c-.35,0-.65-.29-.9-.87l-4.37-10.08s-.1-.22-.28-.25c-.09-.01-.22,0-.36.17l-4.18,10.11c-.2.42-.53.92-1.01.92M369.58,405.32c-.67-1.27-2.35-2.21-3.87-2.99-.74-.42-1.17-1.01-1.18-1.61-.02-.51.26-.98.76-1.31.57-.33,1.27-.29,1.94.09.71.41,1.46,1.29,1.46,2.56v.16h.6v-3.95h-.57l-.02.13c-.03.16-.09.27-.18.32-.13.07-.36.04-.67-.08-1.7-.77-3-.66-4.1.34-.71.66-1.1,1.66-1,2.61.09.94.63,1.75,1.52,2.3.26.16.54.33.82.5.99.59,2.12,1.27,2.56,1.87.6.81.47,1.56-.38,2.29-.56.49-1.31.57-2.06.23-.88-.4-1.77-1.45-1.77-2.9v-.16h-.65v4.14h.61l.03-.11c.06-.22.19-.38.35-.44.12-.05.26-.03.4.04.75.4,1.54.6,2.29.6.8,0,1.55-.23,2.13-.68,1.26-.92,1.68-2.65.97-3.93M371.93,409.85h4.38v-.62h-.23c-.61,0-.88-.32-.88-1.02v-8.3c0-.7.28-1.03.88-1.03h.23v-.62h-4.38v.62h.28c.59,0,.86.32.86,1.03v8.3c0,.72-.26,1.02-.86,1.02h-.28v.62ZM387.51,401.25h.6l-.12-2.76c0-.11-.12-.23-.23-.23h-9.31c-.11,0-.23.12-.23.22l-.1,2.77h.57v-.15c.07-1.12.49-1.67,1.27-1.67h2.11v8.85c0,.67-.28.95-.93.95h-.21v.62h4.34v-.62h-.21c-.63,0-.88-.27-.88-.95v-8.85h2.09c.49,0,1.15.17,1.24,1.67v.15ZM393.15,420.66c1.62-.04,2.87.41,3.72,1.34,1.29,1.41,1.19,3.45,1.19,3.49,0,3.04-1.78,4.78-4.88,4.78-.38,0-.6-.02-.95-.1v-9.39c.36-.2.9-.12.93-.12M393.18,419.73h-4.44v.62h.25c.37,0,.86.11.86,1.07v8.22c0,.73-.26,1.05-.86,1.05h-.25v.62h5.38c3.35,0,5.97-2.55,5.97-5.8.01-.16.14-2.35-1.45-4.01-1.2-1.25-3.04-1.85-5.46-1.77M400.09,398.91v-.65h-3.08v.65h.44c.08,0,.16.06.21.15.05.09.08.24,0,.36l-2.45,4.18-2.69-4.1c-.1-.2-.04-.35,0-.43.07-.11.17-.17.28-.17h.42v-.65h-4.31v.65h.16c.28,0,.65.09,1.05.83l3.42,5.23v3.24c0,.74-.26,1.05-.88,1.05h-.23v.62h4.43v-.62h-.23c-.65,0-.91-.28-.91-1v-3.36l3.05-5.2c.32-.5.73-.78,1.14-.78h.16Z"/>
</svg>