<svg width="160" height="56" viewBox="0 0 160 56" fill="none" xmlns="http://www.w3.org/2000/svg">
<path fill-rule="evenodd" clip-rule="evenodd" d="M52.8324 24.3379C50.8757 24.038 42.8985 22.8388 35.3728 22.8388C27.8472 22.8388 19.87 24.038 17.9133 24.3379V27.1861C17.9133 28.3852 18.0638 29.4345 18.2143 30.4839L18.2144 30.484H31.1584V23.7382C32.6636 23.5883 34.0182 23.5883 35.3728 23.5883C36.1452 23.5883 36.878 23.6278 37.5914 23.6662C38.2683 23.7027 38.9277 23.7382 39.5872 23.7382V30.484H52.5313C52.6818 29.4346 52.8324 28.2354 52.8324 27.1861V24.3379ZM53.4344 9.19736L53.7354 9.34728H53.5849V27.336C53.5849 37.8294 45.6077 47.2735 35.3728 47.2735C25.138 47.2735 17.1608 37.8294 17.1608 27.336V9.34728L17.4618 9.19736C17.4618 9.19736 26.6431 6.34915 35.5234 6.34915C44.1026 6.34915 53.4344 9.19736 53.4344 9.19736ZM56.8962 22.0893V7.84821C56.8962 7.84821 47.8654 5 35.3728 5C24.6864 5 14 7.84821 14 7.84821V22.0893C14 34.8313 23.1813 48.1729 35.5234 50.5714C48.1664 48.023 56.8962 34.9812 56.8962 22.0893ZM47.7149 40.5277C48.1664 40.2279 48.4675 39.7781 48.7685 39.3284C48.618 39.0286 48.1664 38.8787 47.5644 38.7289H39.4367V45.7744C42.5974 44.875 45.4572 43.0761 47.7149 40.5277ZM31.309 38.8787H23.1813C22.7298 38.8787 22.2782 39.0286 21.9772 39.4783C22.1277 39.7033 22.3159 39.8907 22.5041 40.0781C22.6922 40.2654 22.8803 40.4528 23.0308 40.6776C25.2884 43.226 28.1482 45.0249 31.309 45.9243V38.8787ZM37.0285 28.985L38.8346 28.2354L36.878 27.6358L37.781 25.837L35.9749 26.7363L35.3728 24.9375L34.7708 26.7363L32.9646 25.837L33.8677 27.6358L32.0616 28.2354L34.0182 28.985L33.1152 30.7838L34.9213 29.8843L35.5234 31.6833L36.1254 29.8843L37.9316 30.7838L37.0285 28.985ZM49.8221 34.6814L48.016 34.0817L48.919 32.2829L47.1128 33.1823L46.5108 31.3835L45.9088 33.1823L44.1026 32.2829L45.0057 34.0817L43.1995 34.6814L45.0057 35.281L44.1026 37.0799L45.9088 36.1804L46.5108 37.9793L47.1128 36.1804L48.919 37.0799L48.016 35.281L49.8221 34.6814ZM33.4162 10.8463C33.2656 10.8463 33.1152 10.9962 33.1152 10.9962L33.1154 10.9965C33.2658 11.1463 33.4163 11.2962 33.5667 11.5959H33.7172C33.8677 11.5959 33.8677 11.446 33.8677 11.296C33.8677 10.9962 33.7172 10.8463 33.4162 10.8463ZM31.1584 14.7439C31.1584 14.8938 30.8574 15.0437 30.707 15.0437C30.4059 15.0437 30.1049 14.8938 30.1049 14.594C30.1049 14.4441 29.8038 13.5446 29.6534 13.3947C29.3524 12.7951 29.8038 11.446 30.4059 11.296C30.5564 11.296 30.707 11.1461 30.5564 10.9962C30.2554 10.6964 29.9544 10.3966 29.5028 10.3966C29.0513 10.3966 28.5998 10.8463 28.5998 11.296C28.5998 11.6958 28.8005 11.8957 28.9343 12.0289C29.0012 12.0955 29.0513 12.1455 29.0513 12.1955C28.7502 12.6452 28.7502 13.2448 29.0513 13.6945C29.3524 13.9943 29.3524 14.4441 29.3524 14.7439C29.5028 15.0437 29.6534 15.3435 29.9544 15.4934C30.1049 15.4934 30.1049 15.6433 30.1049 15.7933C30.1049 15.9432 30.2554 15.9432 30.2554 15.9432C29.8038 15.9432 29.2018 15.7933 28.9008 15.1936C28.8351 15.0628 28.7122 15.1888 28.5694 15.3351C28.385 15.5241 28.1674 15.7469 27.9977 15.4934C27.6966 14.8938 27.5462 14.594 27.5462 13.8444C27.5462 13.6688 27.4429 13.7504 27.3573 13.818C27.2968 13.8657 27.2452 13.9065 27.2452 13.8444C27.0946 13.5446 26.9441 13.2448 26.9441 12.7951C26.9441 11.446 27.9977 10.2467 29.3524 9.9469C29.4147 9.9469 29.3737 9.86975 29.3258 9.77936C29.2579 9.65152 29.176 9.49718 29.3524 9.49718C29.6534 9.49718 30.4059 9.49718 31.008 9.79699C31.0832 9.79699 31.1208 9.75953 31.1772 9.70333C31.2337 9.64711 31.309 9.57215 31.4595 9.49718H31.61C31.7605 9.57213 31.8358 9.64707 31.8922 9.70329C31.9487 9.75951 31.9863 9.79699 32.0616 9.79699C32.6636 9.49718 33.4162 9.49718 33.7172 9.49718C33.8677 9.49718 33.7924 9.60961 33.7172 9.72204C33.6419 9.83447 33.5667 9.9469 33.7172 9.9469C35.0718 10.2467 36.1254 11.446 36.1254 12.7951C36.1254 13.0949 35.9749 13.5446 35.8244 13.8444C35.8244 13.9065 35.7727 13.8657 35.7122 13.818C35.6267 13.7504 35.5234 13.6688 35.5234 13.8444L35.5231 13.8452C35.3727 14.2947 35.2222 14.7442 34.9213 15.3435C34.7516 15.597 34.534 15.3742 34.3496 15.1851C34.2068 15.0389 34.0839 14.9129 34.0182 15.0437C33.7172 15.4934 33.1152 15.7933 32.6636 15.7933C32.6636 15.7933 32.8141 15.6433 32.8141 15.4934C33.1152 15.3435 33.4162 15.0437 33.4162 14.7439C33.5667 14.4441 33.7172 13.9943 33.7172 13.5446C33.902 13.0845 33.8032 12.6243 33.7341 12.3029C33.6907 12.1008 33.6591 11.9535 33.7172 11.8957C34.0182 11.7458 34.1688 11.446 34.1688 11.1461C34.1688 10.6964 33.7172 10.2467 33.2656 10.2467C32.9646 10.2467 32.6636 10.3966 32.5131 10.5465C32.4556 10.6038 32.3981 10.6392 32.349 10.6694C32.2695 10.7183 32.212 10.7537 32.212 10.8463C32.212 10.8463 32.212 11.1461 32.3626 11.1461C32.9646 11.296 33.4162 12.7951 33.1152 13.2448C32.9646 13.3947 32.6636 14.2942 32.6636 14.4441C32.6636 14.594 32.5131 14.8938 32.212 14.8938C32.0616 14.8938 31.911 14.7439 31.7606 14.594C31.8061 14.5486 31.8793 14.5032 31.9591 14.4537C32.1431 14.3396 32.3626 14.2034 32.3626 13.9943L32.212 13.2448C32.5131 13.2448 32.6636 13.0949 32.6636 12.7951H32.8141L32.8143 12.795C32.9647 12.6451 33.1151 12.4953 32.8141 12.4953C32.5131 12.4953 32.212 12.4953 31.7606 12.7951C31.61 12.7951 31.61 12.945 31.61 12.945C31.61 12.945 31.911 13.9943 31.911 14.1442H31.4595H31.008C31.1584 13.8444 31.309 12.945 31.309 12.945V12.7951C31.309 12.7951 30.4059 12.6452 30.2554 12.6452H30.1049C29.9544 12.7951 30.1049 12.945 30.2554 12.945C30.2554 13.2448 30.4059 13.3947 30.707 13.3947L30.5564 14.1442C30.5564 14.3533 30.7759 14.4895 30.9598 14.6036C31.0397 14.6531 31.1129 14.6985 31.1584 14.7439ZM29.8036 10.9965L29.8038 10.9962C29.8038 10.8463 29.6534 10.8463 29.5028 10.8463C29.2018 10.8463 29.0513 10.9962 29.0513 11.296C29.0513 11.446 29.0513 11.446 29.2018 11.5959H29.3524C29.5027 11.2962 29.6532 11.1463 29.8036 10.9965ZM31.6101 15.1937C31.7606 15.3436 31.9111 15.4934 32.212 15.4934C32.1186 15.7726 31.9672 15.8207 31.8657 15.8529C31.8038 15.8726 31.7606 15.8863 31.7606 15.9432H31.61C31.4922 15.8845 31.3743 15.8717 31.2655 15.86C31.0964 15.8417 30.949 15.8258 30.8574 15.6433V15.4934C31.008 15.4934 31.309 15.3435 31.4595 15.1936H31.61L31.6101 15.1937ZM43.049 11.296C42.8985 11.296 42.748 11.296 42.5974 11.446C42.2964 11.5959 41.0924 12.0456 40.7913 11.446C40.7913 11.446 41.6944 11.446 42.1459 10.9962C42.1459 10.9962 42.5974 10.8463 43.049 11.1461C43.1995 11.1461 43.1995 11.296 43.049 11.296ZM28.9008 16.243C28.9008 16.243 28.5998 16.0931 28.4492 16.0931C27.3917 15.9614 26.3341 15.5984 25.7865 15.4105C25.7106 15.3844 25.6445 15.3617 25.5895 15.3435C25.4936 15.248 25.4894 15.0459 25.4843 14.8052C25.4735 14.2905 25.459 13.599 24.5359 13.3947C24.3854 13.3947 24.5359 13.6945 24.5359 13.6945C24.1713 13.9366 24.1992 14.0809 24.2235 14.2065C24.2293 14.2364 24.2348 14.2653 24.2348 14.2942H24.0844C24.0647 14.2844 24.0431 14.2733 24.0197 14.2613C23.6855 14.0899 22.9914 13.7338 22.4288 14.2942L22.7298 14.4441C22.7298 14.8938 22.8802 15.0437 23.1813 15.1936V15.3435C23.0308 15.3435 22.8802 15.4934 22.8802 15.6433C22.8802 15.7121 22.7852 15.7493 22.6969 15.7839C22.5927 15.8248 22.4978 15.862 22.5792 15.9432C23.3318 16.6926 23.9338 16.243 24.2348 15.9432C24.3854 15.7933 25.2884 15.9432 25.138 16.3928C24.9874 16.9924 24.9874 17.2923 25.138 17.1424C25.2884 16.9924 25.439 16.8425 25.74 16.9924C25.74 16.9924 25.8906 16.9924 25.8906 17.1424C25.74 17.2923 25.5895 17.5921 25.74 17.8919C25.74 18.0418 25.8906 17.8919 25.8906 17.8919C26.342 17.4422 26.9441 17.4422 27.2452 17.742C27.8472 18.0418 29.2018 18.4915 31.008 16.6926C31.008 16.6926 31.008 16.5427 30.8574 16.5427C30.4059 16.6926 29.8038 16.6926 28.9008 16.243ZM47.8654 14.4441C47.7149 15.0437 47.1128 15.3435 47.1128 15.3435C47.1128 15.3435 45.3067 16.6926 48.4674 16.6926C49.1874 16.6926 48.9234 17.0427 48.684 17.36C48.5731 17.5071 48.4674 17.6471 48.4674 17.742C48.4674 17.8919 48.618 18.0418 48.7685 18.1917C48.8368 18.1917 48.8741 18.1917 48.8804 18.2057C48.888 18.2225 48.8507 18.2597 48.7685 18.3416C48.7288 18.3416 48.6996 18.352 48.6642 18.3646C48.5656 18.3998 48.4195 18.452 47.8654 18.3416C47.7149 18.3416 47.7149 18.4915 47.7149 18.4915C47.7149 18.6415 47.8654 18.7914 48.1664 18.7914C48.2417 18.8663 48.2793 18.9038 48.2793 18.9413C48.2793 18.9787 48.2417 19.0162 48.1664 19.0912C48.0159 19.2411 47.7149 19.2411 47.2634 19.2411C46.9624 19.2411 46.5108 19.8407 46.8118 19.9906C46.9624 20.1405 47.2634 20.4403 46.9624 21.3397C46.8802 21.5033 46.7981 21.3992 46.716 21.2951C46.6476 21.2084 46.5792 21.1217 46.5108 21.1898C46.2098 21.3397 45.9089 21.04 45.7583 20.8901L45.7582 20.89C45.7582 20.7401 45.6077 20.7401 45.6077 20.89C45.4572 21.1898 45.1562 21.6396 44.4036 21.1898C44.3376 21.1898 44.2427 21.2474 44.157 21.2995C44.0471 21.3663 43.9521 21.4239 43.9521 21.3397C43.8016 20.7401 44.1026 20.4403 44.4036 20.2904C44.4036 20.2904 44.5542 20.1405 44.4036 20.1405C44.1026 20.1405 43.8016 19.9906 43.8016 19.6908C43.8016 19.6158 43.7263 19.6158 43.6511 19.6158C43.5758 19.6158 43.5006 19.6158 43.5006 19.5409C43.651 19.0912 44.5542 18.7914 45.1562 19.2411C45.7582 19.6908 46.3603 18.4915 45.9088 17.8919C45.7455 17.7293 45.3855 17.7823 44.9569 17.8453C44.1998 17.9567 43.2285 18.0995 42.748 17.1424C42.68 16.8717 42.7041 16.601 42.7233 16.3855C42.7466 16.1236 42.7626 15.9432 42.5974 15.9432C42.5605 15.9432 42.5077 15.9386 42.4409 15.9329C41.9639 15.8921 40.7755 15.7905 39.5872 16.8425C37.0285 18.7914 34.4698 17.742 33.8677 17.2923C33.7172 17.2923 33.7172 17.2923 33.7172 17.4422C33.8677 17.5921 33.8677 17.8919 33.7172 18.0418C33.5667 18.3416 32.6636 18.7914 32.5131 18.7914C31.61 19.0912 31.61 19.8407 31.7606 20.1405C31.7606 20.2154 31.7606 20.2528 31.7418 20.2716C31.723 20.2904 31.6854 20.2904 31.61 20.2904C31.5557 20.2634 31.4916 20.2363 31.4212 20.2066C31.1015 20.0718 30.6526 19.8824 30.4059 19.391H30.2554C29.9544 19.6908 29.9544 20.1405 30.1049 20.2904C30.2554 20.2904 30.2554 20.4403 30.1049 20.4403C29.9544 20.4403 29.8038 20.3654 29.6533 20.2904C29.5028 20.2155 29.3523 20.1405 29.2018 20.1405C28.9008 20.1405 28.7502 20.2904 28.5998 20.4403V20.7401C28.9008 21.9394 28.2988 21.9394 28.2988 21.9394C28.2988 21.7895 28.2988 21.6396 28.1482 21.6396C27.5462 21.7895 27.3956 21.3397 27.3956 21.0399C27.3956 20.89 27.2452 20.89 27.2452 20.89C26.9441 21.0399 26.342 21.3397 26.041 20.89C26.041 20.7974 25.9836 20.8192 25.9041 20.8495C25.855 20.8681 25.7975 20.89 25.74 20.89V20.7401C25.8906 20.1405 26.1916 19.8407 26.4926 19.6908V19.5409C26.4662 19.5146 26.4306 19.4837 26.3905 19.449C26.2022 19.2858 25.9169 19.0386 26.041 18.7914C26.041 18.7914 25.74 18.6415 25.8906 18.6415C26.3486 18.1852 26.9809 18.5968 27.3234 18.8197C27.4311 18.8898 27.5102 18.9413 27.5462 18.9413C27.6966 19.0912 28.2988 19.0912 30.2554 18.1917C31.1584 17.742 31.7606 17.1424 32.0616 16.8425C32.0616 16.8425 32.0616 16.6926 32.212 16.6926C32.8141 16.6926 33.5667 16.5427 34.0182 16.0931C34.0182 15.9432 34.1688 16.0931 34.1688 16.0931C35.2224 16.6926 35.6738 15.1936 35.8244 14.594C35.8244 14.4441 35.8244 14.2942 35.9749 14.2942C39.4367 14.4441 45.9088 14.4441 45.9088 14.4441C45.9088 14.4441 46.6613 14.594 46.6613 13.9943C46.5108 13.0949 43.049 13.2448 40.3398 13.5446C39.4367 13.6945 37.9316 13.6945 37.179 13.3947C36.878 13.2448 36.577 13.0949 36.4264 12.7951C36.2759 12.4953 36.2759 12.1955 36.2759 12.0456C36.3512 11.9706 36.3888 11.8957 36.4264 11.8208C36.464 11.7458 36.5017 11.6708 36.577 11.5959C37.179 10.6964 38.8346 10.5465 39.2862 10.5465C39.4367 10.5465 39.4367 10.3966 39.4367 10.3966C39.4367 10.0968 39.7377 9.49718 40.3398 9.49718H40.7913C40.9418 9.34727 40.9418 9.49718 40.9418 9.49718C40.9418 9.49718 40.7913 9.64709 40.6408 9.64709C40.1892 9.9469 40.3398 10.2467 40.3398 10.2467H40.4903C41.8448 9.04757 42.5973 9.79685 42.8984 10.0967L42.8985 10.0968C42.8985 10.0968 43.049 10.2467 42.8985 10.2467C42.5063 10.3025 42.2184 10.4622 41.9105 10.633C41.3913 10.9209 40.8154 11.2402 39.5872 11.1461C39.5741 11.1461 39.5497 11.145 39.5157 11.1434C39.1583 11.1269 37.7418 11.0613 37.3295 11.7458C37.0285 12.1955 37.179 12.6452 38.082 12.7951C38.4539 12.8877 39.1701 12.8087 39.8408 12.7348C40.2561 12.6891 40.654 12.6452 40.9418 12.6452C41.6944 12.4953 44.7046 12.1955 46.3603 12.6452C47.1128 12.945 48.0159 13.3947 47.8654 14.4441ZM42.447 17.2923C42.5974 17.742 42.748 18.0418 43.049 18.1917C43.1995 18.3416 43.1995 18.4915 42.447 18.3416C42.2964 18.6415 41.8449 18.7914 41.0924 18.7914C40.7913 18.7914 40.6408 18.7914 40.6408 18.9413V19.0912C40.6408 19.2411 40.6408 19.391 40.7913 19.5409C40.9418 19.5409 40.9418 19.6908 40.7913 19.6908C40.6408 19.6908 40.4903 19.6908 40.1892 19.5409C40.0388 19.5409 40.0388 19.6908 40.0388 19.6908C40.0388 19.8407 40.1892 19.9906 40.3398 20.1405C40.4903 20.2904 40.4903 20.4403 40.3398 20.4403C40.1537 20.4403 40.0252 20.3831 39.8475 20.3039C39.7377 20.255 39.6092 20.1978 39.4367 20.1405C39.1356 19.9906 38.9852 19.9906 38.8346 20.1405V20.4403C38.9852 20.5902 38.9852 20.89 38.6841 21.3397C38.6841 21.5042 38.6388 21.4431 38.5731 21.3544C38.519 21.2814 38.451 21.1898 38.3831 21.1898C37.9316 21.3397 37.48 21.0399 37.3295 20.89H37.179C36.878 21.0399 36.2759 21.3397 36.1254 20.89C36.1254 20.89 35.8244 21.0399 35.8244 20.89C35.8244 19.9906 36.577 19.8406 36.878 19.8406V19.6908C36.7274 19.5409 36.577 19.391 36.7274 19.0912C36.8027 19.0162 36.7274 18.9787 36.6522 18.9413C36.5769 18.9038 36.5017 18.8663 36.577 18.7914C37.3816 18.2571 37.9472 18.9129 38.1675 19.1682C38.1944 19.1995 38.2162 19.2247 38.2326 19.2411C38.5336 19.391 39.7377 18.9413 39.8882 18.3416C39.8882 18.249 39.7732 18.2136 39.6143 18.1647C39.5161 18.1344 39.4012 18.0991 39.2862 18.0418C39.2862 18.0418 39.1356 18.0418 39.2862 17.8919C39.4836 17.774 39.6706 17.6354 39.8635 17.4924C40.4063 17.0903 40.9961 16.6533 41.9954 16.5427C42.2964 16.5427 42.2964 16.6926 42.2964 16.6926C42.2964 16.8425 42.2964 17.1424 42.447 17.2923ZM34.1688 33.1823H30.8574V32.7326H34.1688V33.1823ZM34.1688 34.5315H30.8574V34.0817H34.1688V34.5315ZM34.1688 36.0305H30.8574V35.5808H34.1688V36.0305ZM33.5667 31.5334H33.4162H29.9544V36.9299H33.8677C34.3192 36.9299 34.6202 37.0799 34.9213 37.3797V32.8825C34.9213 32.133 34.3192 31.5334 33.5667 31.5334ZM28.9008 36.4802H29.6534V37.0799H28.9008V36.4802ZM28.9008 34.9812H29.6534V35.5808H28.9008V34.9812ZM28.9008 33.4821H29.6534V34.0817H28.9008V33.4821ZM28.9008 31.9831H29.6534V32.5827H28.9008V31.9831ZM36.577 33.1823V32.7326H39.8882V33.1823H36.577ZM36.577 34.5315V34.0817H39.8882V34.5315H36.577ZM36.577 35.8806V35.4309H39.8882V35.8806H36.577ZM40.7913 36.9299V31.5334H37.3295H37.179C36.4264 31.5334 35.8244 32.133 35.8244 32.8825V37.3797C36.1254 37.0799 36.4264 36.9299 36.878 36.9299H40.7913ZM41.9954 36.9299H41.2428V36.4802H41.9954V36.9299ZM41.9954 35.4309H41.2428V34.9812H41.9954V35.4309ZM41.9954 33.9318H41.2428V33.4821H41.9954V33.9318ZM41.9954 32.4328H41.2428V31.9831H41.9954V32.4328ZM38.8346 41.727L37.0285 42.3266L37.781 43.9755L35.9749 43.0761L35.3728 44.875L34.7708 43.0761L32.9646 43.9755L33.8677 42.1767L32.0616 41.5771L34.0182 40.9774L33.1152 39.1785L34.9213 40.078L35.5234 38.2791L36.1254 40.078L37.9316 39.1785L37.0285 40.9774L38.8346 41.727ZM21.0741 34.8313L22.8802 35.4309L22.1277 37.0799L23.9338 36.1804L24.5359 37.9793L25.138 36.1804L26.9441 37.0799L26.041 35.281L27.8472 34.6814L26.041 34.0817L26.7936 32.4328L24.9874 33.3322L24.3854 31.5334L23.7834 33.3322L21.9772 32.4328L22.8802 34.2317L21.0741 34.8313ZM66.6791 20.5895H69.0873V20.2897H68.3347V15.3427H69.9903V15.9423H70.4419V14.5933H69.9903V14.8931H65.776V14.5933H65.3245V15.9423H65.776V15.3427H67.4316V20.2897H66.6791V20.5895ZM74.9576 20.5897H77.0648V20.2899H76.3122V15.1931H77.0648V14.8933H74.9576V15.1931H75.5596V17.4417H72.3988V15.1931H73.0009V14.8933H70.8937V15.1931H71.6463V20.2899H70.8937V20.5897H73.0009V20.2899H72.3988V17.8914H75.5596V20.2899H74.9576V20.5897ZM81.7313 20.5895H77.8179V20.2897H78.42V15.1929H77.8179V14.8931H81.2797V14.5933H81.5807V15.9423H81.2797V15.1929H79.1725V17.4415H80.8282V16.8418H81.2797V18.4908H80.8282V17.8912H79.1725V20.1397H81.2797V19.3902H81.7313V20.5895ZM89.7084 15.1931H90.3105H90.6116V14.8933H88.8054V15.1931H89.4074V18.491C89.4074 19.5404 88.8054 20.2899 87.7518 20.2899C86.6982 20.2899 86.0962 19.5404 86.0962 18.491V15.1931H86.6982V14.8933H84.591V15.1931H85.193V18.7909C85.193 19.8402 86.2466 20.7396 87.4508 20.7396C87.9023 20.7396 88.3538 20.5897 88.6548 20.4398C89.4074 19.9901 89.7084 19.3905 89.7084 18.491V15.1931ZM95.7282 20.5897H95.4279L92.1163 16.0926V20.2899H92.7183V20.5897H90.9121V20.2899H91.6647V15.4929L91.3637 15.1931H90.7617V14.8933H92.1163L95.277 19.2406V15.1931H94.5245V14.8933H96.3304V15.1931H95.7282V20.5897ZM96.9326 20.5897H99.0395V20.2899H98.4373V15.1931H99.0395V14.8933H96.9326V15.1931H97.534V20.2899H96.9326V20.5897ZM102.501 20.7396H102.2L100.093 15.1931H99.4911V14.8933H101.749V15.1931H100.846L102.501 19.3905L104.157 15.1931H103.706V14.8933H105.061V15.1931H104.759L102.501 20.7396ZM105.663 20.5895H109.576V19.3902H109.275V20.1397H107.018V17.8912H108.673V18.4908H109.125V16.8418H108.673V17.4415H107.018V15.1929H109.125V15.9423H109.576V14.5933H109.125V14.8931H105.663V15.1929H106.265V20.2897H105.663V20.5895ZM111.834 17.5916H112.737C113.338 17.5916 113.79 17.1419 113.79 16.3924C113.79 15.6428 113.338 15.1931 112.586 15.1931H111.834V17.5916ZM115.295 20.5897H114.693C114.242 20.5897 114.091 20.5897 113.79 20.14L112.436 18.0413H111.834V20.2899H112.436V20.5897H110.328V20.2899H110.93V15.1931H110.328V14.8933H112.737C113.639 14.8933 114.091 15.1931 114.392 15.6428C114.543 15.9427 114.543 16.0926 114.543 16.3924C114.543 17.2918 114.091 17.7415 113.188 17.8914L114.392 19.8402C114.543 20.14 114.693 20.2899 114.994 20.2899H115.295V20.5897ZM116.047 20.5895H116.499H116.65V20.1397C117.101 20.4396 117.402 20.5895 118.004 20.5895C118.907 20.5895 119.66 19.8399 119.66 18.9405C119.66 18.3409 119.359 17.8912 118.306 17.2915C117.252 16.6919 116.951 16.3921 116.951 15.9423C116.951 15.3427 117.252 15.043 117.854 15.043C118.245 15.043 118.409 15.1551 118.739 15.3793C118.79 15.4144 118.846 15.4521 118.907 15.4926V16.0923H119.359V14.5933H118.907V15.1929L118.905 15.192C118.605 15.0424 118.305 14.8931 117.854 14.8931C116.951 14.8931 116.198 15.4926 116.198 16.3921C116.198 16.9917 116.65 17.4415 117.703 18.0411C118.606 18.4908 118.907 18.9405 118.907 19.3902C118.907 19.9898 118.455 20.2897 117.703 20.2897C117.354 20.2897 117.184 20.1997 116.846 20.0199L116.846 20.0198C116.748 19.9675 116.635 19.9075 116.499 19.8399V19.0904H116.047V20.5895ZM122.52 20.5897H120.413V20.2899H121.165V15.1931H120.413V14.8933H122.52V15.1931H121.918V20.2899H122.52V20.5897ZM124.326 20.5895H126.884V20.2897H125.982V15.3427H127.788V15.9423H128.089V14.5933H127.788V14.8931H123.423V14.5933H123.122V15.9423H123.423V15.3427H125.229V20.2897H124.326V20.5895ZM132.303 20.5897H130.347V20.2899H130.948V17.8914L129.143 15.1931H128.691V14.8933H130.798V15.1931H130.046L131.551 17.4417L132.906 15.1931H132.002V14.8933H133.809V15.1931H133.357L131.701 17.8914V20.2899H132.303V20.5897ZM138.925 20.2897C137.721 20.2897 136.969 19.2404 136.969 17.7414C136.969 16.2422 137.721 15.1929 138.925 15.1929C140.129 15.1929 140.882 16.2422 140.882 17.7414C140.882 19.2404 139.979 20.2897 138.925 20.2897ZM138.925 14.7432C137.27 14.7432 136.065 16.0923 136.065 17.7414C136.065 19.2404 137.27 20.5896 138.925 20.7395C140.431 20.7395 141.635 19.3903 141.635 17.7414C141.635 16.0923 140.431 14.7432 138.925 14.7432ZM144.194 20.5895H142.237V20.2897H142.839V15.1929H142.237V14.8931H145.699V14.5933H146V15.9423H145.699V15.1929H143.592V17.4415H145.247V16.8418H145.699V18.4908H145.247V17.8912H143.592V20.2897H144.194V20.5895ZM65.325 39.0289H66.2281V38.1296C67.2816 38.879 68.1847 39.1788 69.6899 39.1788C72.2486 39.1788 74.2052 37.38 74.2052 34.9815C74.2052 33.1826 73.4527 32.1333 70.5929 30.4843C67.7332 28.8354 67.1311 28.2358 67.1311 27.0365C67.1311 25.5374 68.1847 24.638 69.6899 24.638C70.5929 24.638 71.195 24.9378 72.3991 25.6873V27.3363H73.4527V23.4387H72.3991V24.1883C71.6465 23.7385 70.894 23.5886 69.6899 23.5886C67.1311 23.5886 65.1745 25.2377 65.1745 27.4862C65.1745 29.285 66.228 30.4843 69.0878 31.9834C71.496 33.3325 72.3991 34.232 72.3991 35.5811C72.3991 37.0802 71.195 37.9796 69.3888 37.9796C68.3352 37.9796 67.7332 37.6798 66.3786 36.7804V34.9815H65.325V39.0289ZM84.7411 38.8792H79.3227V37.9798H80.9783V31.8336L76.3124 24.6382H74.9578V23.7388H80.5268V24.6382H78.5701L82.4834 30.6344L86.0958 24.6382H83.9886V23.7388H88.504V24.6382H87.4504L82.935 31.8336V37.9798H84.7411V38.8792ZM96.1799 37.68H93.4708V24.7881H96.3304C99.3406 24.7881 101.749 27.6363 101.749 31.234C101.749 34.9816 99.3406 37.68 96.1799 37.68ZM89.7079 37.9798V38.7293H96.481C100.696 38.7293 104.007 35.4314 104.007 31.234C104.007 27.1866 100.545 23.7388 96.481 23.7388H89.7079V24.6382H91.3636V37.9798H89.7079ZM117.101 39.0291H116.499L107.619 27.0367V37.9798H109.425V38.8792H104.76V37.9798H106.565V25.5376L105.963 24.6382H104.308V23.7388H107.619L116.048 35.2815V24.6382H114.242V23.7388H118.908V24.6382H117.101V39.0291ZM120.413 38.8783H130.799V35.7302H129.745V37.8289H124.176V31.6828H128.54V33.4817H129.594V28.9845H128.54V30.6335H124.176V24.7871H129.594V26.7359H130.648V23.1382H129.594V23.7378H120.413V24.6372H122.219V37.9788H120.413V38.8783ZM142.237 38.8792H136.819V37.9798H138.474V31.8336L133.658 24.6382H132.454V23.7388H138.023V24.6382H135.916L139.98 30.6344L143.592 24.6382H141.484V23.7388H146V24.6382H144.796L140.431 31.8336V37.9798H142.237V38.8792Z" fill="white"/>
</svg>
