<svg width="47" height="48" viewBox="0 0 47 48" fill="none" xmlns="http://www.w3.org/2000/svg">
<g clip-path="url(#clip0_402_2450)">
<path d="M18.6598 0.585255L9.55281 5.71069C8.91435 6.07426 8.46211 6.69499 8.31136 7.41326C7.55762 11.1288 6.27182 12.317 8.63059 15.8729C8.97642 16.3872 9.49074 16.7596 10.0937 16.9104C14.3768 18.0277 15.6182 17.6996 18.2785 21.4683C18.8726 22.3107 19.919 22.7098 20.9299 22.4792C22.8807 22.0181 25.5233 20.6348 26.9421 19.9608C27.35 19.7746 27.7933 19.6859 28.2367 19.7303L34.6125 20.2623C34.8696 20.2801 35.1268 20.2712 35.384 20.2091C39.6581 19.2514 41.7597 14.392 39.5251 10.6322C38.6206 9.10696 37.3792 7.55514 36.1111 5.38259C35.8451 4.93035 35.446 4.56678 34.9672 4.34509C29.0259 1.61389 26.011 -0.922226 18.6598 0.585255Z" fill="black"/>
<path d="M18.6598 0.585255L9.55281 5.71069C8.91435 6.07426 8.46211 6.69499 8.31136 7.41326C7.55762 11.1288 6.27182 12.317 8.63059 15.8729C8.97642 16.3872 9.49074 16.7596 10.0937 16.9104C14.3768 18.0277 15.6182 17.6996 18.2785 21.4683C18.8726 22.3107 19.919 22.7098 20.9299 22.4792C22.8807 22.0181 25.5233 20.6348 26.9421 19.9608C27.35 19.7746 27.7933 19.6859 28.2367 19.7303L34.6125 20.2623C34.8696 20.2801 35.1268 20.2712 35.384 20.2091C39.6581 19.2514 41.7597 14.392 39.5251 10.6322C38.6206 9.10696 37.3792 7.55514 36.1111 5.38259C35.8451 4.93035 35.446 4.56678 34.9672 4.34509C29.0259 1.61389 26.011 -0.922226 18.6598 0.585255Z" stroke="white" stroke-width="0.266026" stroke-miterlimit="10"/>
<path d="M20.6749 15.2785C19.8768 14.6134 18.8482 15.8903 19.664 16.5288C20.4709 17.1939 21.4907 15.9169 20.6749 15.2785Z" fill="black"/>
<path d="M20.6749 15.2785C19.8768 14.6134 18.8482 15.8903 19.664 16.5288C20.4709 17.1939 21.4907 15.9169 20.6749 15.2785Z" stroke="white" stroke-width="0.266026" stroke-miterlimit="10"/>
<path d="M20.1065 6.03898C19.3085 5.37391 18.2798 6.65084 19.0956 7.2893C19.9026 7.95437 20.9312 6.67744 20.1065 6.03898Z" fill="black"/>
<path d="M20.1065 6.03898C19.3085 5.37391 18.2798 6.65084 19.0956 7.2893C19.9026 7.95437 20.9312 6.67744 20.1065 6.03898Z" stroke="white" stroke-width="0.266026" stroke-miterlimit="10"/>
<path d="M37.6554 15.5273C36.8573 14.8622 35.8286 16.1391 36.6445 16.7776C37.4514 17.4426 38.48 16.1657 37.6554 15.5273Z" fill="black"/>
<path d="M37.6554 15.5273C36.8573 14.8622 35.8286 16.1391 36.6445 16.7776C37.4514 17.4426 38.48 16.1657 37.6554 15.5273Z" stroke="white" stroke-width="0.266026" stroke-miterlimit="10"/>
<path d="M14.4913 8.22916C13.6932 7.5641 12.6646 8.84102 13.4804 9.47949C14.2873 10.1446 15.3071 8.86763 14.4913 8.22916Z" fill="black"/>
<path d="M14.4913 8.22916C13.6932 7.5641 12.6646 8.84102 13.4804 9.47949C14.2873 10.1446 15.3071 8.86763 14.4913 8.22916Z" stroke="white" stroke-width="0.266026" stroke-miterlimit="10"/>
<path d="M0.233379 25.3791L4.59621 21.8853C4.88884 20.5108 22.2071 25.7959 23.0141 25.6983C23.1382 25.7338 23.218 25.8668 23.1826 25.9909C23.1737 26.0353 23.1382 26.0796 23.1028 26.1151C22.9077 26.1594 17.7113 30.6996 17.4541 30.5666C17.4187 30.0789 -1.71748 26.8156 0.233379 25.3791Z" fill="#231F20" stroke="white" stroke-width="0.177351" stroke-miterlimit="10"/>
<path d="M46.0253 25.2813L41.1216 21.353L23.1914 25.7425V26.0351L28.8134 30.5841C28.8844 30.061 48.2422 26.8952 46.0253 25.2813Z" fill="#231F20" stroke="white" stroke-width="0.177351" stroke-miterlimit="10"/>
<path d="M23.1913 26.31V47.5921C23.1913 47.7606 23.0583 47.8936 22.8898 47.8936C22.8543 47.8936 22.8189 47.8847 22.7923 47.8759L7.68198 42.5376C7.57557 42.5021 7.49576 42.4046 7.47803 42.2804L5.97055 28.2077C5.95281 28.0392 6.06809 27.8973 6.23657 27.8707C6.27204 27.8707 6.30751 27.8707 6.34298 27.8796L17.2944 30.6285C17.3831 30.6462 17.4806 30.6285 17.5516 30.5753L23.1913 26.1504V26.31Z" fill="#231F20" stroke="white" stroke-width="0.177351" stroke-miterlimit="10"/>
<path d="M23.1914 26.3101V47.6365C23.1914 47.7873 23.3067 47.9114 23.4574 47.9114C23.484 47.9114 23.5195 47.9025 23.5461 47.8937L38.7185 42.5288C38.816 42.4933 38.887 42.4047 38.8958 42.2983L40.4122 28.1634C40.4299 28.0127 40.3235 27.8796 40.1727 27.8619C40.1373 27.8619 40.1107 27.8619 40.0752 27.8708L29.0795 30.6286C28.9996 30.6463 28.911 30.6286 28.8489 30.5754L23.1914 26.1416V26.3101Z" fill="#231F20" stroke="white" stroke-width="0.177351" stroke-miterlimit="10"/>
<path d="M29.7098 5.39142C29.4172 4.38939 27.8476 4.8771 28.1757 5.8614C28.4595 6.86343 30.029 6.38458 29.7098 5.39142Z" fill="black"/>
<path d="M29.7098 5.39142C29.4172 4.38939 27.8476 4.8771 28.1757 5.8614C28.4595 6.86343 30.029 6.38458 29.7098 5.39142Z" stroke="white" stroke-width="0.266026" stroke-miterlimit="10"/>
<path d="M24.6983 10.7741C23.9002 10.109 22.8716 11.3859 23.6874 12.0244C24.4944 12.6895 25.523 11.4125 24.6983 10.7741Z" fill="black"/>
<path d="M24.6983 10.7741C23.9002 10.109 22.8716 11.3859 23.6874 12.0244C24.4944 12.6895 25.523 11.4125 24.6983 10.7741Z" stroke="white" stroke-width="0.266026" stroke-miterlimit="10"/>
<path d="M19.4117 5.88813L18.1348 3.26333L18.3919 0.736084" stroke="white" stroke-width="0.266026" stroke-miterlimit="10"/>
<path d="M13.4719 9.42603L10.3328 12.1306L7.48633 10.6763" stroke="white" stroke-width="0.266026" stroke-miterlimit="10"/>
<path d="M19.8218 16.6531L17.135 18.4532L17.002 19.8099" stroke="white" stroke-width="0.266026" stroke-miterlimit="10"/>
<path d="M31.7039 12.1666C31.4112 11.1645 29.8505 11.6434 30.1698 12.6365C30.4624 13.6386 32.0231 13.1597 31.7039 12.1666Z" fill="black"/>
<path d="M31.7039 12.1666C31.4112 11.1645 29.8505 11.6434 30.1698 12.6365C30.4624 13.6386 32.0231 13.1597 31.7039 12.1666Z" stroke="white" stroke-width="0.266026" stroke-miterlimit="10"/>
<path d="M18.9343 10.9249C18.6417 9.92283 17.081 10.4017 17.4002 11.3948C17.6929 12.3969 19.2536 11.918 18.9343 10.9249Z" fill="black"/>
<path d="M18.9343 10.9249C18.6417 9.92283 17.081 10.4017 17.4002 11.3948C17.6929 12.3969 19.2536 11.918 18.9343 10.9249Z" stroke="white" stroke-width="0.266026" stroke-miterlimit="10"/>
<path d="M18.9355 10.9249L24.5221 7.42218L24.194 0.159668" stroke="white" stroke-width="0.266026" stroke-miterlimit="10"/>
<path d="M24.123 12.1309L24.1496 15.7488L26.9163 19.9343" stroke="white" stroke-width="0.266026" stroke-miterlimit="10"/>
<path d="M14.4913 12.4499C13.6932 11.7848 12.6646 13.0617 13.4804 13.7002C13.6223 13.8243 13.7996 13.8864 13.9858 13.8864C14.6243 13.8687 15.1386 12.9642 14.4913 12.4499Z" fill="black"/>
<path d="M14.4913 12.4499C13.6932 11.7848 12.6646 13.0617 13.4804 13.7002C13.6223 13.8243 13.7996 13.8864 13.9858 13.8864C14.6243 13.8687 15.1386 12.9642 14.4913 12.4499Z" stroke="white" stroke-width="0.266026" stroke-miterlimit="10"/>
<path d="M13.3039 13.5227L9.53516 16.5997" stroke="white" stroke-width="0.266026" stroke-miterlimit="10"/>
<path d="M37.248 15.4119L37.7801 12.5477L39.4827 10.6589" stroke="white" stroke-width="0.266026" stroke-miterlimit="10"/>
<path d="M31.9718 15.8288C31.1737 15.1637 30.1451 16.4406 30.9609 17.0791C31.1027 17.2032 31.2801 17.2653 31.4663 17.2653C32.1048 17.2476 32.6191 16.3431 31.9718 15.8288Z" fill="black"/>
<path d="M31.9718 15.8288C31.1737 15.1637 30.1451 16.4406 30.9609 17.0791C31.1027 17.2032 31.2801 17.2653 31.4663 17.2653C32.1048 17.2476 32.6191 16.3431 31.9718 15.8288Z" stroke="white" stroke-width="0.266026" stroke-miterlimit="10"/>
<path d="M31.7051 17.2654L32.7958 20.1119" stroke="white" stroke-width="0.266026" stroke-miterlimit="10"/>
<path d="M29.0352 4.86836L29.3101 1.72925" stroke="white" stroke-width="0.266026" stroke-miterlimit="10"/>
<path d="M31.7949 12.2638H33.7724V3.77759" stroke="white" stroke-width="0.266026" stroke-miterlimit="10"/>
<path d="M8.08203 41.4113L8.65842 38.7156L8.88898 38.7954L10.1659 41.1896C10.1925 41.2428 10.228 41.3049 10.2546 41.3847C10.2812 41.4556 10.3167 41.5355 10.3433 41.6241C10.3521 41.5355 10.361 41.4379 10.3787 41.3404C10.3965 41.2428 10.4142 41.1098 10.4585 40.9502L10.7778 39.4693L11.1147 39.5935L10.5383 42.2892L10.3255 42.2183L9.01312 39.7353C9.00426 39.7265 8.99539 39.7087 8.98652 39.6821C8.92445 39.558 8.88011 39.4516 8.85351 39.354C8.84464 39.4427 8.83577 39.5314 8.81804 39.6201C8.8003 39.7176 8.78257 39.824 8.75596 39.9482L8.42787 41.5266L8.08203 41.4113Z" fill="white"/>
<path d="M11.5508 42.6441L12.0208 40.436L13.8652 41.0922L13.7943 41.4203L12.2957 40.8883L12.1715 41.4558L13.076 41.775L13.0051 42.1031L12.1006 41.7839L11.9587 42.449L13.475 42.9899L13.4041 43.318L11.5508 42.6441Z" fill="white"/>
<path d="M14.8747 41.4554L14.4757 43.3354L15.8147 43.8142L16.2137 41.9343L16.5595 42.0584L16.196 43.7521C16.1516 43.9561 16.0896 44.0802 16.0098 44.1334C15.93 44.1866 15.8058 44.1778 15.6285 44.1157L14.4934 43.7078C14.3161 43.6457 14.2097 43.5659 14.1653 43.4684C14.121 43.3708 14.121 43.2201 14.1564 43.025L14.52 41.3313L14.8747 41.4554Z" fill="white"/>
<path d="M16.9336 44.5769L17.4036 42.3689L18.8756 42.8921C19.0086 42.9364 19.1061 43.0074 19.1505 43.096C19.1948 43.1847 19.2037 43.3 19.1682 43.4596L19.0618 43.9562C19.0263 44.1069 18.9731 44.2045 18.9022 44.2488C18.8312 44.2932 18.7248 44.2932 18.583 44.2399L18.3435 44.1513L18.9643 45.3041L18.5031 45.1356L17.9622 44.0094L17.4656 43.832L17.2794 44.7011L16.9336 44.5769ZM18.6539 43.1581L17.6785 42.8123L17.5277 43.5217L18.5031 43.8675C18.583 43.8941 18.6362 43.8941 18.6716 43.8764C18.7071 43.8586 18.7337 43.7966 18.7514 43.7079L18.8046 43.4419C18.8224 43.3621 18.8224 43.3 18.7958 43.2557C18.778 43.2202 18.7337 43.1847 18.6539 43.1581Z" fill="white"/>
<path d="M19.8948 43.8144C19.9392 43.6105 20.0012 43.4863 20.081 43.4331C20.1609 43.3799 20.285 43.3888 20.4623 43.4509L21.7836 43.9208C21.9521 43.9829 22.0674 44.0627 22.1117 44.1603C22.156 44.2578 22.1649 44.4086 22.1206 44.6125L21.8723 45.7742C21.828 45.9781 21.7659 46.1023 21.6861 46.1555C21.6063 46.2087 21.4821 46.1998 21.3048 46.1377L19.9835 45.6677C19.8062 45.6057 19.6997 45.5259 19.6465 45.4283C19.6022 45.3308 19.6022 45.1889 19.6465 44.9849L19.8948 43.8144ZM19.948 45.2953L21.4732 45.8451L21.8013 44.2933L20.2761 43.7435L19.948 45.2953Z" fill="white"/>
<path d="M25.1323 43.868C25.3008 43.8059 25.4515 43.7616 25.5757 43.7438C25.6998 43.7261 25.8062 43.735 25.8949 43.7616C26.0368 43.8148 26.1609 43.9035 26.2674 44.0453C26.3738 44.1872 26.4447 44.3468 26.489 44.5508C26.5688 44.9232 26.5422 45.2336 26.4004 45.4908C26.2585 45.7479 26.0013 45.943 25.62 46.0849L24.5825 46.475L24.0859 44.267L25.1323 43.868ZM25.1678 44.2138L24.5027 44.4621L24.8485 46.0139L25.5136 45.7656C25.8062 45.6592 26.0013 45.5174 26.0989 45.3489C26.1964 45.1804 26.2141 44.9587 26.1521 44.6838C26.09 44.4089 25.9836 44.2404 25.8328 44.1695C25.6821 44.0808 25.4604 44.0985 25.1678 44.2138Z" fill="white"/>
<path d="M27.5532 45.3574L27.0566 43.1494L28.8745 42.4666L28.9454 42.7947L27.4734 43.3444L27.5976 43.912L28.4843 43.575L28.5553 43.9031L27.6685 44.2401L27.8192 44.9051L29.309 44.3465L29.3799 44.6657L27.5532 45.3574Z" fill="white"/>
<path d="M31.1964 41.9527L29.9283 42.4315L30.0614 43.0079L31.2141 42.5645C31.3826 42.5024 31.5068 42.4936 31.5866 42.5468C31.6664 42.6 31.7285 42.7241 31.7728 42.9281L31.8349 43.1941C31.8792 43.3981 31.8792 43.5488 31.8349 43.6375C31.7905 43.735 31.6841 43.8148 31.5068 43.8769L30.4072 44.2848C30.2387 44.3469 30.1146 44.3558 30.0348 44.3114C29.9549 44.2671 29.8929 44.1341 29.8485 43.9301L29.8308 43.868L30.1234 43.673L30.1944 44.0011L31.5511 43.4867L31.4092 42.866L30.2476 43.3005C30.0791 43.3626 29.9549 43.3715 29.8751 43.3183C29.7953 43.2651 29.7333 43.1409 29.6889 42.937L29.6446 42.7241C29.6002 42.5202 29.6002 42.3694 29.6446 42.2719C29.6889 42.1743 29.7953 42.0945 29.9638 42.0325L30.9658 41.66C31.1343 41.598 31.2585 41.5891 31.3383 41.6334C31.4181 41.6778 31.4802 41.793 31.5156 41.9704L31.5245 42.0236L31.2319 42.2187L31.1964 41.9527Z" fill="white"/>
<path d="M32.731 43.4068L32.2344 41.1988L32.5713 41.0747L32.7842 42.0235L33.7064 40.649L34.1764 40.4717L33.1034 42.0324L34.8414 42.6176L34.2828 42.8304L32.8551 42.2895L33.0768 43.2827L32.731 43.4068Z" fill="white"/>
</g>
<defs>
<clipPath id="clip0_402_2450">
<rect width="46.2886" height="48" fill="white"/>
</clipPath>
</defs>
</svg>
